0
SECTION
2
HEADER
9
$INSUNITS
70
4
9
$ACADVER
1
AC1014
9
$HANDSEED
5
FFFF
0
ENDSEC
0
SECTION
2
TABLES
0
TABLE
2
VPORT
5
8
100
AcDbSymbolTable
0
ENDTAB
0
TABLE
2
LTYPE
5
5
100
AcDbSymbolTable
0
LTYPE
5
14
100
AcDbSymbolTableRecord
100
AcDbLinetypeTableRecord
2
BYBLOCK
70
0
0
LTYPE
5
15
100
AcDbSymbolTableRecord
100
AcDbLinetypeTableRecord
2
BYLAYER
70
0
0
LTYPE
5
16
100
AcDbSymbolTableRecord
100
AcDbLinetypeTableRecord
2
DASHED
70
0
3
Dashed __ __ __ __ __ __ __ __ __ __ __ __ __ _
72
65
73
2
40
0.75
49
0.5
74
0
49
-0.25
74
0
0
ENDTAB
0
TABLE
2
LAYER
5
2
100
AcDbSymbolTable
70
3
0
LAYER
5
50
100
AcDbSymbolTableRecord
100
AcDbLayerTableRecord
2
1
70
0
62
7
6
DASHED
0
LAYER
5
51
100
AcDbSymbolTableRecord
100
AcDbLayerTableRecord
2
0
70
0
62
7
6
CONTINUOUS
0
ENDTAB
0
TABLE
2
STYLE
5
3
100
AcDbSymbolTable
70
1
0
STYLE
5
11
100
AcDbSymbolTableRecord
100
AcDbTextStyleTableRecord
2
STANDARD
70
0
0
ENDTAB
0
TABLE
2
VIEW
5
6
100
AcDbSymbolTable
70
0
0
ENDTAB
0
TABLE
2
UCS
5
7
100
AcDbSymbolTable
70
0
0
ENDTAB
0
TABLE
2
APPID
5
9
100
AcDbSymbolTable
70
2
0
APPID
5
12
100
AcDbSymbolTableRecord
100
AcDbRegAppTableRecord
2
ACAD
70
0
0
ENDTAB
0
TABLE
2
DIMSTYLE
5
A
100
AcDbSymbolTable
70
1
0
ENDTAB
0
TABLE
2
BLOCK_RECORD
5
1
100
AcDbSymbolTable
70
1
0
BLOCK_RECORD
5
1F
100
AcDbSymbolTableRecord
100
AcDbBlockTableRecord
2
*MODEL_SPACE
0
BLOCK_RECORD
5
1B
100
AcDbSymbolTableRecord
100
AcDbBlockTableRecord
2
*PAPER_SPACE
0
ENDTAB
0
ENDSEC
0
SECTION
2
BLOCKS
0
BLOCK
5
20
100
AcDbEntity
100
AcDbBlockBegin
2
*MODEL_SPACE
0
ENDBLK
5
21
100
AcDbEntity
100
AcDbBlockEnd
0
BLOCK
5
1C
100
AcDbEntity
100
AcDbBlockBegin
2
*PAPER_SPACE
0
ENDBLK
5
1D
100
AcDbEntity
100
AcDbBlockEnd
0
ENDSEC
0
SECTION
2
ENTITIES
0
POINT
5
100
100
AcDbEntity
8
0
100
AcDbPoint
10
258.03666100233062
20
25.57687532436228
30
0
0
POINT
5
101
100
AcDbEntity
8
0
100
AcDbPoint
10
162.13269256893309
20
25.57687532436228
30
0
0
LINE
5
102
100
AcDbEntity
8
0
100
AcDbLine
10
299.51249999999993
20
119.2
30
0
11
285.51249999999993
21
119.2
31
0
0
LINE
5
103
100
AcDbEntity
8
0
100
AcDbLine
10
285.51249999999993
20
119.2
30
0
11
285.51249999999993
21
133.20000000000002
31
0
0
LINE
5
104
100
AcDbEntity
8
0
100
AcDbLine
10
285.51249999999993
20
133.20000000000002
30
0
11
299.51249999999999
21
133.20000000000002
31
0
0
LINE
5
105
100
AcDbEntity
8
0
100
AcDbLine
10
299.51249999999999
20
133.20000000000002
30
0
11
299.51249999999993
21
119.2
31
0
0
LINE
5
106
100
AcDbEntity
8
0
100
AcDbLine
10
318.56249999999994
20
121.7
30
0
11
304.56249999999994
21
121.7
31
0
0
LINE
5
107
100
AcDbEntity
8
0
100
AcDbLine
10
304.56249999999994
20
121.7
30
0
11
304.56249999999994
21
135.70000000000002
31
0
0
LINE
5
108
100
AcDbEntity
8
0
100
AcDbLine
10
304.56249999999994
20
135.70000000000002
30
0
11
318.56249999999994
21
135.70000000000002
31
0
0
LINE
5
109
100
AcDbEntity
8
0
100
AcDbLine
10
318.56249999999994
20
135.70000000000002
30
0
11
318.56249999999994
21
121.7
31
0
0
LINE
5
110
100
AcDbEntity
8
0
100
AcDbLine
10
337.6124999999999
20
124.2
30
0
11
323.61249999999995
21
124.2
31
0
0
LINE
5
111
100
AcDbEntity
8
0
100
AcDbLine
10
323.61249999999995
20
124.2
30
0
11
323.61249999999995
21
138.20000000000002
31
0
0
LINE
5
112
100
AcDbEntity
8
0
100
AcDbLine
10
323.61249999999995
20
138.20000000000002
30
0
11
337.6124999999999
21
138.20000000000002
31
0
0
LINE
5
113
100
AcDbEntity
8
0
100
AcDbLine
10
337.6124999999999
20
138.20000000000002
30
0
11
337.6124999999999
21
124.2
31
0
0
LINE
5
114
100
AcDbEntity
8
0
100
AcDbLine
10
356.66249999999991
20
121.7
30
0
11
342.66250000000002
21
121.7
31
0
0
LINE
5
115
100
AcDbEntity
8
0
100
AcDbLine
10
342.66250000000002
20
121.7
30
0
11
342.66250000000002
21
135.70000000000002
31
0
0
LINE
5
116
100
AcDbEntity
8
0
100
AcDbLine
10
342.66250000000002
20
135.70000000000002
30
0
11
356.66249999999991
21
135.70000000000002
31
0
0
LINE
5
117
100
AcDbEntity
8
0
100
AcDbLine
10
356.66249999999991
20
135.70000000000002
30
0
11
356.66249999999991
21
121.7
31
0
0
LWPOLYLINE
5
118
100
AcDbEntity
8
0
100
AcDbPolyline
90
4
70
1
43
0.0
10
285.51249999999993
20
114.15000000000001
10
299.51249999999999
20
114.15000000000001
10
299.51249999999993
20
100.14999999999999
10
285.51249999999993
20
100.14999999999999
0
LWPOLYLINE
5
119
100
AcDbEntity
8
0
100
AcDbPolyline
90
4
70
1
43
0.0
10
342.66250000000002
20
135.70000000000002
10
356.66249999999991
20
135.70000000000002
10
356.66249999999991
20
121.7
10
342.66250000000002
20
121.7
0
LWPOLYLINE
5
120
100
AcDbEntity
8
0
100
AcDbPolyline
90
4
70
1
43
0.0
10
337.6124999999999
20
138.20000000000002
10
337.6124999999999
20
124.2
10
323.61249999999995
20
124.2
10
323.61249999999995
20
138.20000000000002
0
LWPOLYLINE
5
121
100
AcDbEntity
8
0
100
AcDbPolyline
90
4
70
1
43
0.0
10
304.56249999999994
20
121.7
10
304.56249999999994
20
135.70000000000002
10
318.56249999999994
20
135.70000000000002
10
318.56249999999994
20
121.7
0
LWPOLYLINE
5
122
100
AcDbEntity
8
0
100
AcDbPolyline
90
4
70
1
43
0.0
10
318.56249999999994
20
116.65000000000001
10
318.56249999999994
20
102.64999999999999
10
304.56249999999994
20
102.64999999999999
10
304.56249999999994
20
116.65000000000001
0
LWPOLYLINE
5
123
100
AcDbEntity
8
0
100
AcDbPolyline
90
4
70
1
43
0.0
10
304.56249999999994
20
102.64999999999999
10
304.56249999999994
20
116.65000000000001
10
318.56249999999994
20
116.65000000000001
10
318.56249999999994
20
102.64999999999999
0
LWPOLYLINE
5
124
100
AcDbEntity
8
0
100
AcDbPolyline
90
4
70
1
43
0.0
10
323.61249999999995
20
119.15000000000001
10
337.6124999999999
20
119.15000000000001
10
337.6124999999999
20
105.14999999999999
10
323.61249999999995
20
105.14999999999999
0
LWPOLYLINE
5
125
100
AcDbEntity
8
0
100
AcDbPolyline
90
4
70
1
43
0.0
10
323.61249999999995
20
105.14999999999999
10
323.61249999999995
20
119.15000000000001
10
337.6124999999999
20
119.15000000000001
10
337.6124999999999
20
105.14999999999999
0
LWPOLYLINE
5
126
100
AcDbEntity
8
0
100
AcDbPolyline
90
4
70
1
43
0.0
10
342.66250000000002
20
102.64999999999999
10
342.66250000000002
20
116.65000000000001
10
356.66249999999991
20
116.65000000000001
10
356.66249999999991
20
102.64999999999999
0
LWPOLYLINE
5
127
100
AcDbEntity
8
0
100
AcDbPolyline
90
4
70
1
43
0.0
10
356.66249999999991
20
102.64999999999999
10
342.66250000000002
20
102.64999999999999
10
342.66250000000002
20
116.65000000000001
10
356.66249999999991
20
116.65000000000001
0
LWPOLYLINE
5
128
100
AcDbEntity
8
0
100
AcDbPolyline
90
4
70
1
43
0.0
10
342.66250000000002
20
78.549999999999983
10
356.66249999999991
20
78.549999999999983
10
356.66249999999991
20
64.549999999999969
10
342.66250000000002
20
64.549999999999969
0
LWPOLYLINE
5
129
100
AcDbEntity
8
0
100
AcDbPolyline
90
4
70
1
43
0.0
10
356.66249999999991
20
78.549999999999983
10
356.66249999999991
20
64.549999999999969
10
342.66250000000002
20
64.549999999999969
10
342.66250000000002
20
78.549999999999983
0
LWPOLYLINE
5
130
100
AcDbEntity
8
0
100
AcDbPolyline
90
4
70
1
43
0.0
10
323.61249999999995
20
81.049999999999983
10
337.6124999999999
20
81.049999999999983
10
337.6124999999999
20
67.049999999999969
10
323.61249999999995
20
67.049999999999969
0
LWPOLYLINE
5
131
100
AcDbEntity
8
0
100
AcDbPolyline
90
4
70
1
43
0.0
10
337.6124999999999
20
81.049999999999983
10
337.6124999999999
20
67.049999999999969
10
323.61249999999995
20
67.049999999999969
10
323.61249999999995
20
81.049999999999983
0
LWPOLYLINE
5
132
100
AcDbEntity
8
0
100
AcDbPolyline
90
4
70
1
43
0.0
10
304.56249999999994
20
78.549999999999983
10
318.56249999999994
20
78.549999999999983
10
318.56249999999994
20
64.549999999999969
10
304.56249999999994
20
64.549999999999969
0
LWPOLYLINE
5
133
100
AcDbEntity
8
0
100
AcDbPolyline
90
4
70
1
43
0.0
10
318.56249999999994
20
64.549999999999969
10
304.56249999999994
20
64.549999999999969
10
304.56249999999994
20
78.549999999999983
10
318.56249999999994
20
78.549999999999983
0
LWPOLYLINE
5
134
100
AcDbEntity
8
0
100
AcDbPolyline
90
4
70
1
43
0.0
10
299.51249999999999
20
76.049999999999983
10
299.51249999999993
20
62.049999999999969
10
285.51249999999993
20
62.049999999999969
10
285.51249999999993
20
76.049999999999983
0
LWPOLYLINE
5
135
100
AcDbEntity
8
0
100
AcDbPolyline
90
4
70
1
43
0.0
10
285.51249999999993
20
95.099999999999994
10
299.51249999999999
20
95.099999999999994
10
299.51249999999993
20
81.09999999999998
10
285.51249999999993
20
81.09999999999998
0
LWPOLYLINE
5
136
100
AcDbEntity
8
0
100
AcDbPolyline
90
4
70
1
43
0.0
10
318.56249999999994
20
97.599999999999994
10
318.56249999999994
20
83.59999999999998
10
304.56249999999994
20
83.59999999999998
10
304.56249999999994
20
97.599999999999994
0
LWPOLYLINE
5
137
100
AcDbEntity
8
0
100
AcDbPolyline
90
4
70
1
43
0.0
10
318.56249999999994
20
97.599999999999994
10
318.56249999999994
20
83.59999999999998
10
304.56249999999994
20
83.59999999999998
10
304.56249999999994
20
97.599999999999994
0
LWPOLYLINE
5
138
100
AcDbEntity
8
0
100
AcDbPolyline
90
4
70
1
43
0.0
10
337.6124999999999
20
100.09999999999999
10
337.6124999999999
20
86.09999999999998
10
323.61249999999995
20
86.09999999999998
10
323.61249999999995
20
100.09999999999999
0
LWPOLYLINE
5
139
100
AcDbEntity
8
0
100
AcDbPolyline
90
4
70
1
43
0.0
10
337.6124999999999
20
100.09999999999999
10
337.6124999999999
20
86.09999999999998
10
323.61249999999995
20
86.09999999999998
10
323.61249999999995
20
100.09999999999999
0
LWPOLYLINE
5
140
100
AcDbEntity
8
0
100
AcDbPolyline
90
4
70
1
43
0.0
10
342.66250000000002
20
97.599999999999994
10
356.66249999999991
20
97.599999999999994
10
356.66249999999991
20
83.59999999999998
10
342.66250000000002
20
83.59999999999998
0
LWPOLYLINE
5
141
100
AcDbEntity
8
0
100
AcDbPolyline
90
4
70
1
43
0.0
10
356.66249999999991
20
97.599999999999994
10
356.66249999999991
20
83.59999999999998
10
342.66250000000002
20
83.59999999999998
10
342.66250000000002
20
97.599999999999994
0
LINE
5
142
100
AcDbEntity
8
0
100
AcDbLine
10
361.71249999999998
20
116.7
30
0
11
361.71249999999998
21
130.70000000000002
31
0
0
LINE
5
143
100
AcDbEntity
8
0
100
AcDbLine
10
361.71249999999998
20
130.70000000000002
30
0
11
375.71249999999992
21
130.70000000000002
31
0
0
LINE
5
144
100
AcDbEntity
8
0
100
AcDbLine
10
375.71249999999992
20
130.70000000000002
30
0
11
375.71249999999992
21
116.7
31
0
0
LINE
5
145
100
AcDbEntity
8
0
100
AcDbLine
10
375.71249999999992
20
116.7
30
0
11
361.71249999999998
21
116.7
31
0
0
LINE
5
146
100
AcDbEntity
8
0
100
AcDbLine
10
394.76249999999993
20
114.2
30
0
11
380.76250000000005
21
114.2
31
0
0
LINE
5
147
100
AcDbEntity
8
0
100
AcDbLine
10
380.76250000000005
20
114.2
30
0
11
380.76250000000005
21
128.20000000000002
31
0
0
LINE
5
148
100
AcDbEntity
8
0
100
AcDbLine
10
380.76250000000005
20
128.20000000000002
30
0
11
394.76249999999993
21
128.20000000000002
31
0
0
LINE
5
149
100
AcDbEntity
8
0
100
AcDbLine
10
394.76249999999993
20
128.20000000000002
30
0
11
394.76249999999993
21
114.2
31
0
0
LINE
5
150
100
AcDbEntity
8
0
100
AcDbLine
10
424.38749999999993
20
128.20000000000002
30
0
11
424.38749999999993
21
114.2
31
0
0
LINE
5
151
100
AcDbEntity
8
0
100
AcDbLine
10
424.38749999999993
20
114.2
30
0
11
399.81249999999994
21
114.2
31
0
0
LINE
5
152
100
AcDbEntity
8
0
100
AcDbLine
10
399.81249999999994
20
114.2
30
0
11
399.81249999999994
21
128.20000000000002
31
0
0
LINE
5
153
100
AcDbEntity
8
0
100
AcDbLine
10
399.81249999999994
20
128.20000000000002
30
0
11
424.38749999999993
21
128.20000000000002
31
0
0
LINE
5
154
100
AcDbEntity
8
0
100
AcDbLine
10
375.71249999999992
20
97.649999999999991
30
0
11
361.71249999999998
21
97.649999999999991
31
0
0
LINE
5
155
100
AcDbEntity
8
0
100
AcDbLine
10
361.71249999999998
20
97.649999999999991
30
0
11
361.71249999999998
21
111.65000000000001
31
0
0
LINE
5
156
100
AcDbEntity
8
0
100
AcDbLine
10
361.71249999999998
20
111.65000000000001
30
0
11
375.71249999999992
21
111.65000000000001
31
0
0
LINE
5
157
100
AcDbEntity
8
0
100
AcDbLine
10
375.71249999999992
20
111.65000000000001
30
0
11
375.71249999999992
21
97.649999999999991
31
0
0
LINE
5
158
100
AcDbEntity
8
0
100
AcDbLine
10
394.76249999999993
20
95.149999999999991
30
0
11
380.76250000000005
21
95.149999999999991
31
0
0
LINE
5
159
100
AcDbEntity
8
0
100
AcDbLine
10
380.76250000000005
20
95.149999999999991
30
0
11
380.76250000000005
21
109.15000000000001
31
0
0
LINE
5
160
100
AcDbEntity
8
0
100
AcDbLine
10
394.76249999999993
20
109.15000000000001
30
0
11
394.76249999999993
21
95.149999999999991
31
0
0
LINE
5
161
100
AcDbEntity
8
0
100
AcDbLine
10
399.81249999999994
20
109.15000000000003
30
0
11
424.38749999999993
21
109.15000000000003
31
0
0
LINE
5
162
100
AcDbEntity
8
0
100
AcDbLine
10
424.38749999999993
20
109.15000000000003
30
0
11
424.38749999999993
21
95.150000000000006
31
0
0
LINE
5
163
100
AcDbEntity
8
0
100
AcDbLine
10
424.38749999999993
20
95.150000000000006
30
0
11
399.81249999999994
21
95.150000000000006
31
0
0
LINE
5
164
100
AcDbEntity
8
0
100
AcDbLine
10
399.81249999999994
20
95.150000000000006
30
0
11
399.81249999999994
21
109.15000000000003
31
0
0
LWPOLYLINE
5
165
100
AcDbEntity
8
0
100
AcDbPolyline
90
4
70
1
43
0.0
10
424.38749999999993
20
57.049999999999983
10
399.81249999999994
20
57.049999999999983
10
399.81249999999994
20
71.050000000000011
10
424.38749999999993
20
71.050000000000011
0
LWPOLYLINE
5
166
100
AcDbEntity
8
0
100
AcDbPolyline
90
4
70
1
43
0.0
10
424.38749999999993
20
90.099999999999994
10
424.38749999999993
20
76.09999999999998
10
399.81249999999994
20
76.09999999999998
10
399.81249999999994
20
90.099999999999994
0
LWPOLYLINE
5
167
100
AcDbEntity
8
0
100
AcDbPolyline
90
4
70
1
43
0.0
10
394.76249999999993
20
76.09999999999998
10
380.76250000000005
20
76.09999999999998
10
380.76250000000005
20
90.099999999999994
10
394.76249999999993
20
90.099999999999994
0
LINE
5
168
100
AcDbEntity
8
0
100
AcDbLine
10
375.71249999999992
20
92.599999999999994
30
0
11
375.71249999999992
21
78.59999999999998
31
0
0
LINE
5
169
100
AcDbEntity
8
0
100
AcDbLine
10
375.71249999999992
20
78.59999999999998
30
0
11
361.71249999999998
21
78.59999999999998
31
0
0
LINE
5
170
100
AcDbEntity
8
0
100
AcDbLine
10
361.71249999999998
20
92.599999999999994
30
0
11
375.71249999999992
21
92.599999999999994
31
0
0
LINE
5
171
100
AcDbEntity
8
0
100
AcDbLine
10
361.71249999999998
20
78.59999999999998
30
0
11
361.71249999999998
21
92.599999999999994
31
0
0
LWPOLYLINE
5
172
100
AcDbEntity
8
0
100
AcDbPolyline
90
4
70
1
43
0.0
10
361.71249999999998
20
73.549999999999983
10
375.71249999999992
20
73.549999999999983
10
375.71249999999992
20
59.549999999999969
10
361.71249999999998
20
59.549999999999969
0
LWPOLYLINE
5
173
100
AcDbEntity
8
0
100
AcDbPolyline
90
4
70
1
43
0.0
10
380.76250000000005
20
71.049999999999983
10
394.76249999999993
20
71.049999999999983
10
394.76249999999993
20
57.049999999999969
10
380.76250000000005
20
57.049999999999969
0
LWPOLYLINE
5
174
100
AcDbEntity
8
0
100
AcDbPolyline
90
4
70
1
43
0.0
10
299.51249999999993
20
42.999999999999964
10
285.51249999999993
20
42.999999999999964
10
285.51249999999993
20
56.999999999999986
10
299.51249999999999
20
56.999999999999986
0
LWPOLYLINE
5
175
100
AcDbEntity
8
0
100
AcDbPolyline
90
4
70
1
43
0.0
10
304.56249999999994
20
59.499999999999986
10
318.56249999999994
20
59.499999999999986
10
318.56249999999994
20
45.499999999999964
10
304.56249999999994
20
45.499999999999964
0
LWPOLYLINE
5
176
100
AcDbEntity
8
0
100
AcDbPolyline
90
4
70
1
43
0.0
10
318.56249999999994
20
45.499999999999964
10
304.56249999999994
20
45.499999999999964
10
304.56249999999994
20
59.499999999999986
10
318.56249999999994
20
59.499999999999986
0
LWPOLYLINE
5
177
100
AcDbEntity
8
0
100
AcDbPolyline
90
4
70
1
43
0.0
10
337.6124999999999
20
47.999999999999964
10
323.61249999999995
20
47.999999999999964
10
323.61249999999995
20
61.999999999999986
10
337.6124999999999
20
61.999999999999986
0
LWPOLYLINE
5
178
100
AcDbEntity
8
0
100
AcDbPolyline
90
4
70
1
43
0.0
10
337.6124999999999
20
61.999999999999986
10
337.6124999999999
20
47.999999999999964
10
323.61249999999995
20
47.999999999999964
10
323.61249999999995
20
61.999999999999986
0
LWPOLYLINE
5
179
100
AcDbEntity
8
0
100
AcDbPolyline
90
4
70
1
43
0.0
10
361.71249999999998
20
54.499999999999986
10
375.71249999999992
20
54.499999999999986
10
375.71249999999992
20
40.499999999999964
10
361.71249999999998
20
40.499999999999964
0
LWPOLYLINE
5
180
100
AcDbEntity
8
0
100
AcDbPolyline
90
4
70
1
43
0.0
10
356.66249999999991
20
59.499999999999986
10
356.66249999999991
20
45.499999999999964
10
342.66250000000002
20
45.499999999999964
10
342.66250000000002
20
59.499999999999986
0
LWPOLYLINE
5
181
100
AcDbEntity
8
0
100
AcDbPolyline
90
4
70
1
43
0.0
10
356.66249999999991
20
59.499999999999986
10
356.66249999999991
20
45.499999999999964
10
342.66250000000002
20
45.499999999999964
10
342.66250000000002
20
59.499999999999986
0
LWPOLYLINE
5
182
100
AcDbEntity
8
0
100
AcDbPolyline
90
4
70
1
43
0.0
10
380.76250000000005
20
51.999999999999986
10
394.76249999999993
20
51.999999999999986
10
394.76249999999993
20
37.999999999999964
10
380.76250000000005
20
37.999999999999964
0
LINE
5
183
100
AcDbEntity
8
0
100
AcDbLine
10
413.81249999999989
20
38
30
0
11
399.81249999999994
21
37.999999999999986
31
0
0
LINE
5
184
100
AcDbEntity
8
0
100
AcDbLine
10
399.81249999999994
20
37.999999999999986
30
0
11
399.81249999999994
21
51.999999999999993
31
0
0
LINE
5
185
100
AcDbEntity
8
0
100
AcDbLine
10
399.81249999999994
20
51.999999999999993
30
0
11
413.81249999999989
21
51.999999999999993
31
0
0
LINE
5
186
100
AcDbEntity
8
0
100
AcDbLine
10
413.81249999999989
20
51.999999999999993
30
0
11
413.81249999999989
21
38
31
0
0
LINE
5
187
100
AcDbEntity
8
0
100
AcDbLine
10
254.48655822181394
20
26.413099126802557
30
0
11
241.33086150419135
21
21.624817102210351
31
0
0
LINE
5
188
100
AcDbEntity
8
0
100
AcDbLine
10
241.33086150419135
20
21.624817102210351
30
0
11
236.5425794795992
21
34.780513819832912
31
0
0
LINE
5
189
100
AcDbEntity
8
0
100
AcDbLine
10
236.5425794795992
20
34.780513819832912
30
0
11
249.69827619722173
21
39.568795844425104
31
0
0
LINE
5
190
100
AcDbEntity
8
0
100
AcDbLine
10
249.69827619722173
20
39.568795844425104
30
0
11
254.48655822181394
21
26.413099126802557
31
0
0
LINE
5
191
100
AcDbEntity
8
0
100
AcDbLine
10
254.44372393122325
20
41.295997570877454
30
0
11
267.59942064884581
21
46.084279595469653
31
0
0
LINE
5
192
100
AcDbEntity
8
0
100
AcDbLine
10
272.38770267343801
20
32.928582877847099
30
0
11
267.59942064884581
21
46.084279595469653
31
0
0
LINE
5
193
100
AcDbEntity
8
0
100
AcDbLine
10
272.38770267343801
20
32.928582877847099
30
0
11
259.2320059558154
21
28.140300853254892
31
0
0
LINE
5
194
100
AcDbEntity
8
0
100
AcDbLine
10
259.2320059558154
20
28.140300853254892
30
0
11
254.44372393122325
21
41.295997570877454
31
0
0
LINE
5
195
100
AcDbEntity
8
0
100
AcDbLine
10
261.00204197285848
20
8.5119546751784743
30
0
11
247.84634525523592
21
3.7236726505862672
31
0
0
LINE
5
196
100
AcDbEntity
8
0
100
AcDbLine
10
247.84634525523592
20
3.7236726505862672
30
0
11
243.05806323064374
21
16.879369368208824
31
0
0
LINE
5
197
100
AcDbEntity
8
0
100
AcDbLine
10
243.05806323064374
20
16.879369368208824
30
0
11
256.21375994826633
21
21.667651392801041
31
0
0
LINE
5
198
100
AcDbEntity
8
0
100
AcDbLine
10
256.21375994826633
20
21.667651392801041
30
0
11
261.00204197285848
21
8.5119546751784743
31
0
0
LINE
5
199
100
AcDbEntity
8
0
100
AcDbLine
10
267.51752567285848
20
-9.3891897248215201
30
0
11
254.36182895523589
21
-14.177471749413723
31
0
0
LINE
5
200
100
AcDbEntity
8
0
100
AcDbLine
10
254.36182895523589
20
-14.177471749413723
30
0
11
249.57354693064374
21
-1.0217750317911678
31
0
0
LINE
5
201
100
AcDbEntity
8
0
100
AcDbLine
10
249.57354693064374
20
-1.0217750317911678
30
0
11
262.72924364826633
21
3.7665069928010411
31
0
0
LINE
5
202
100
AcDbEntity
8
0
100
AcDbLine
10
262.72924364826633
20
3.7665069928010411
30
0
11
267.51752567285848
21
-9.3891897248215201
31
0
0
LINE
5
203
100
AcDbEntity
8
0
100
AcDbLine
10
295.27379071252187
20
25.748046681390761
30
0
11
300.06207271568678
21
12.592349989152565
31
0
0
LINE
5
204
100
AcDbEntity
8
0
100
AcDbLine
10
282.11809399098212
20
20.959764667560925
30
0
11
286.90637599414703
21
7.804067975322738
31
0
0
LINE
5
205
100
AcDbEntity
8
0
100
AcDbLine
10
286.90637599414703
20
7.804067975322738
30
0
11
287.87425939364743
21
8.1563487226984428
31
0
0
LINE
5
206
100
AcDbEntity
8
0
100
AcDbLine
10
282.11809399098212
20
20.959764667560925
30
0
11
283.08597739048247
21
21.31204541493663
31
0
0
LINE
5
207
100
AcDbEntity
8
0
100
AcDbLine
10
282.54729566512646
20
22.792061292813422
30
0
11
281.7955415684271
21
22.518445178346841
31
0
0
LINE
5
208
100
AcDbEntity
8
0
100
AcDbLine
10
288.41294111900345
20
6.6763328448216477
30
0
11
287.66118702230415
21
6.4027167303550847
31
0
0
LINE
5
209
100
AcDbEntity
8
0
100
AcDbLine
10
281.7955415684271
20
22.518445178346841
30
0
11
281.17135480730025
21
24.233384211442171
31
0
0
LINE
5
210
100
AcDbEntity
8
0
100
AcDbLine
10
287.66118702230415
20
6.4027167303550847
30
0
11
288.285373783431
21
4.6877776972597456
31
0
0
LINE
5
211
100
AcDbEntity
8
0
100
AcDbLine
10
281.17135480730025
20
24.233384211442171
30
0
11
280.0437236622513
21
23.822960039742323
31
0
0
LINE
5
212
100
AcDbEntity
8
0
100
AcDbLine
10
288.285373783431
20
4.6877776972597456
30
0
11
287.15774263838205
21
4.2773535255598976
31
0
0
LINE
5
213
100
AcDbEntity
8
0
100
AcDbLine
10
280.0437236622513
20
23.822960039742323
30
0
11
279.0176632330016
21
26.642037902364805
31
0
0
LINE
5
214
100
AcDbEntity
8
0
100
AcDbLine
10
287.15774263838205
20
4.2773535255598976
30
0
11
288.18380306763163
21
1.4582756629374249
31
0
0
LINE
5
215
100
AcDbEntity
8
0
100
AcDbLine
10
279.0176632330016
20
26.642037902364805
30
0
11
280.14529437805055
21
27.052462074064625
31
0
0
LINE
5
216
100
AcDbEntity
8
0
100
AcDbLine
10
288.18380306763163
20
1.4582756629374249
30
0
11
289.31143421268064
21
1.8686998346372667
31
0
0
LINE
5
217
100
AcDbEntity
8
0
100
AcDbLine
10
289.31143421268064
20
1.8686998346372667
30
0
11
289.93562097380743
21
0.15376080154192562
31
0
0
LINE
5
218
100
AcDbEntity
8
0
100
AcDbLine
10
280.14529437805055
20
27.052462074064625
30
0
11
279.5211076169237
21
28.767401107159955
31
0
0
LINE
5
219
100
AcDbEntity
8
0
100
AcDbLine
10
279.5211076169237
20
28.767401107159955
30
0
11
285.41298034980468
21
30.911867404291669
31
0
0
LINE
5
220
100
AcDbEntity
8
0
100
AcDbLine
10
289.93562097380743
20
0.15376080154192562
30
0
11
295.82749370668841
21
2.2982270986736193
31
0
0
LINE
5
221
100
AcDbEntity
8
0
100
AcDbLine
10
285.41298034980468
20
30.911867404291669
30
0
11
285.11371272460684
21
31.734098447556555
31
0
0
LINE
5
222
100
AcDbEntity
8
0
100
AcDbLine
10
285.11371272460684
20
31.734098447556555
30
0
11
287.74485206305445
21
32.691754848189561
31
0
0
LINE
5
223
100
AcDbEntity
8
0
100
AcDbLine
10
287.74485206305445
20
32.691754848189561
30
0
11
288.04411968825229
21
31.869523804924643
31
0
0
LINE
5
224
100
AcDbEntity
8
0
100
AcDbLine
10
295.82749370668841
20
2.2982270986736193
30
0
11
296.1267613318862
21
1.475996055408729
31
0
0
LINE
5
225
100
AcDbEntity
8
0
100
AcDbLine
10
296.1267613318862
20
1.475996055408729
30
0
11
298.75790067033387
21
2.4336524560416475
31
0
0
LINE
5
226
100
AcDbEntity
8
0
100
AcDbLine
10
298.75790067033387
20
2.4336524560416475
30
0
11
298.45863304513608
21
3.2558834993065924
31
0
0
LINE
5
227
100
AcDbEntity
8
0
100
AcDbLine
10
288.04411968825229
20
31.869523804924643
30
0
11
290.32757275697651
21
32.700632752616833
31
0
0
LINE
5
228
100
AcDbEntity
8
0
100
AcDbLine
10
298.45863304513608
20
3.2558834993065924
30
0
11
300.7420861138603
21
4.0869924469987753
31
0
0
LINE
5
229
100
AcDbEntity
8
0
100
AcDbLine
10
290.32757275697651
20
32.700632752616833
30
0
11
292.60200670847985
21
26.451676823803687
31
0
0
LINE
5
230
100
AcDbEntity
8
0
100
AcDbLine
10
300.7420861138603
20
4.0869924469987753
30
0
11
298.46765216235701
21
10.335948375811936
31
0
0
LINE
5
231
100
AcDbEntity
8
0
100
AcDbLine
10
292.60200670847985
20
26.451676823803687
30
0
11
291.85025261178049
21
26.178060709337132
31
0
0
LINE
5
232
100
AcDbEntity
8
0
100
AcDbLine
10
298.46765216235701
20
10.335948375811936
30
0
11
297.71589806565765
21
10.062332261345377
31
0
0
LINE
5
233
100
AcDbEntity
8
0
100
AcDbLine
10
291.85025261178049
20
26.178060709337132
30
0
11
292.38893433713656
21
24.698044831460333
31
0
0
LINE
5
234
100
AcDbEntity
8
0
100
AcDbLine
10
297.71589806565765
20
10.062332261345377
30
0
11
297.17721634030164
21
11.54234813922217
31
0
0
LINE
5
235
100
AcDbEntity
8
0
100
AcDbLine
10
283.08597739048247
20
21.31204541493663
30
0
11
282.54729566512646
21
22.792061292813422
31
0
0
LINE
5
236
100
AcDbEntity
8
0
100
AcDbLine
10
292.38893433713656
20
24.698044831460333
30
0
11
295.27379071252187
21
25.748046681390761
31
0
0
LINE
5
237
100
AcDbEntity
8
0
100
AcDbLine
10
287.87425939364743
20
8.1563487226984428
30
0
11
288.41294111900345
21
6.6763328448216477
31
0
0
LINE
5
238
100
AcDbEntity
8
0
100
AcDbLine
10
297.17721634030164
20
11.54234813922217
30
0
11
300.06207271568678
21
12.592349989152565
31
0
0
LINE
5
239
100
AcDbEntity
8
0
100
AcDbLine
10
261.61996316500586
20
22.25191735692259
30
0
11
267.51183589788684
21
24.396383654054304
31
0
0
LINE
5
240
100
AcDbEntity
8
0
100
AcDbLine
10
267.212568272689
20
25.21861469731919
30
0
11
269.84370761113661
21
26.176271097952192
31
0
0
LINE
5
241
100
AcDbEntity
8
0
100
AcDbLine
10
270.14297523633445
20
25.354040054687278
30
0
11
272.42642830505866
21
26.185149002379472
31
0
0
LINE
5
242
100
AcDbEntity
8
0
100
AcDbLine
10
267.51183589788684
20
24.396383654054304
30
0
11
267.212568272689
21
25.21861469731919
31
0
0
LINE
5
243
100
AcDbEntity
8
0
100
AcDbLine
10
269.84370761113661
20
26.176271097952192
30
0
11
270.14297523633445
21
25.354040054687278
31
0
0
LINE
5
244
100
AcDbEntity
8
0
100
AcDbLine
10
272.42642830505866
20
26.185149002379472
30
0
11
274.70086225656195
21
19.936193073566322
31
0
0
LINE
5
245
100
AcDbEntity
8
0
100
AcDbLine
10
274.48778988521872
20
18.182561081222968
30
0
11
277.37264626060397
21
19.232562931153396
31
0
0
LINE
5
246
100
AcDbEntity
8
0
100
AcDbLine
10
264.21694953906422
20
14.444280917323562
30
0
11
269.00523154222918
21
1.288584225085373
31
0
0
LINE
5
247
100
AcDbEntity
8
0
100
AcDbLine
10
274.70086225656195
20
19.936193073566322
30
0
11
273.94910815986265
21
19.662576959099766
31
0
0
LINE
5
248
100
AcDbEntity
8
0
100
AcDbLine
10
273.94910815986265
20
19.662576959099766
30
0
11
274.48778988521872
21
18.182561081222968
31
0
0
LINE
5
249
100
AcDbEntity
8
0
100
AcDbLine
10
277.37264626060397
20
19.232562931153396
30
0
11
282.16092826376888
21
6.0768662389151995
31
0
0
LINE
5
250
100
AcDbEntity
8
0
100
AcDbLine
10
264.64615121320855
20
16.276577542576057
30
0
11
263.89439711650925
21
16.002961428109476
31
0
0
LINE
5
251
100
AcDbEntity
8
0
100
AcDbLine
10
262.14257921033339
20
17.307476289504958
30
0
11
261.11651878108376
21
20.12655415212744
31
0
0
LINE
5
252
100
AcDbEntity
8
0
100
AcDbLine
10
265.18483293856463
20
14.796561664699265
30
0
11
264.64615121320855
21
16.276577542576057
31
0
0
LINE
5
253
100
AcDbEntity
8
0
100
AcDbLine
10
261.11651878108376
20
20.12655415212744
30
0
11
262.24414992613271
21
20.53697832382726
31
0
0
LINE
5
254
100
AcDbEntity
8
0
100
AcDbLine
10
263.27021035538235
20
17.717900461204806
30
0
11
262.14257921033339
21
17.307476289504958
31
0
0
LINE
5
255
100
AcDbEntity
8
0
100
AcDbLine
10
263.89439711650925
20
16.002961428109476
30
0
11
263.27021035538235
21
17.717900461204806
31
0
0
LINE
5
256
100
AcDbEntity
8
0
100
AcDbLine
10
264.21694953906422
20
14.444280917323562
30
0
11
265.18483293856463
21
14.796561664699265
31
0
0
LINE
5
257
100
AcDbEntity
8
0
100
AcDbLine
10
262.24414992613271
20
20.53697832382726
30
0
11
261.61996316500586
21
22.25191735692259
31
0
0
LINE
5
258
100
AcDbEntity
8
0
100
AcDbLine
10
280.55748859321818
20
-3.2596002509307729
30
0
11
282.8409416619424
21
-2.42849130323859
31
0
0
LINE
5
259
100
AcDbEntity
8
0
100
AcDbLine
10
269.97311494172953
20
1.6408649724610769
30
0
11
270.5117966670856
21
0.1608490945842822
31
0
0
LINE
5
260
100
AcDbEntity
8
0
100
AcDbLine
10
280.56650771043911
20
3.8204646255745711
30
0
11
279.81475361373981
21
3.5468485111080117
31
0
0
LINE
5
261
100
AcDbEntity
8
0
100
AcDbLine
10
278.22561687996836
20
-5.0394876948286358
30
0
11
280.85675621841602
21
-4.0818312941957178
31
0
0
LINE
5
262
100
AcDbEntity
8
0
100
AcDbLine
10
272.03447652188959
20
-6.3617229486954399
30
0
11
277.92634925477057
21
-4.217256651563746
31
0
0
LINE
5
263
100
AcDbEntity
8
0
100
AcDbLine
10
269.7600425703863
20
-0.11276701988228055
30
0
11
270.38422933151315
21
-1.8277060529776201
31
0
0
LINE
5
264
100
AcDbEntity
8
0
100
AcDbLine
10
270.28265861571379
20
-5.0572080872999408
30
0
11
271.41028976076274
21
-4.6467839156000981
31
0
0
LINE
5
265
100
AcDbEntity
8
0
100
AcDbLine
10
269.00523154222918
20
1.288584225085373
30
0
11
269.97311494172953
21
1.6408649724610769
31
0
0
LINE
5
266
100
AcDbEntity
8
0
100
AcDbLine
10
277.92634925477057
20
-4.217256651563746
30
0
11
278.22561687996836
21
-5.0394876948286358
31
0
0
LINE
5
267
100
AcDbEntity
8
0
100
AcDbLine
10
270.38422933151315
20
-1.8277060529776201
30
0
11
269.25659818646415
21
-2.2381302246774681
31
0
0
LINE
5
268
100
AcDbEntity
8
0
100
AcDbLine
10
282.8409416619424
20
-2.42849130323859
30
0
11
280.56650771043911
21
3.8204646255745711
31
0
0
LINE
5
269
100
AcDbEntity
8
0
100
AcDbLine
10
271.41028976076274
20
-4.6467839156000981
30
0
11
272.03447652188959
21
-6.3617229486954399
31
0
0
LINE
5
270
100
AcDbEntity
8
0
100
AcDbLine
10
280.85675621841602
20
-4.0818312941957178
30
0
11
280.55748859321818
21
-3.2596002509307729
31
0
0
LINE
5
271
100
AcDbEntity
8
0
100
AcDbLine
10
269.25659818646415
20
-2.2381302246774681
30
0
11
270.28265861571379
21
-5.0572080872999408
31
0
0
LINE
5
272
100
AcDbEntity
8
0
100
AcDbLine
10
270.5117966670856
20
0.1608490945842822
30
0
11
269.7600425703863
21
-0.11276701988228055
31
0
0
LINE
5
273
100
AcDbEntity
8
0
100
AcDbLine
10
279.27607188838374
20
5.0268643889848041
30
0
11
282.16092826376888
21
6.0768662389151995
31
0
0
LINE
5
274
100
AcDbEntity
8
0
100
AcDbLine
10
279.81475361373981
20
3.5468485111080117
30
0
11
279.27607188838374
21
5.0268643889848041
31
0
0
LINE
5
275
100
AcDbEntity
8
0
100
AcDbLine
10
380.76250000000005
20
109.15000000000001
30
0
11
394.76249999999993
21
109.15000000000001
31
0
0
LWPOLYLINE
5
276
100
AcDbEntity
8
0
100
AcDbPolyline
90
4
70
1
43
0.0
10
120.65685357126372
20
56.999999999999972
10
120.65685357126377
20
42.999999999999964
10
134.65685357126378
20
42.999999999999964
10
134.65685357126375
20
56.999999999999972
0
LWPOLYLINE
5
277
100
AcDbEntity
8
0
100
AcDbPolyline
90
4
70
1
43
0.0
10
96.55685357126373
20
61.999999999999972
10
82.556853571263815
20
61.999999999999972
10
82.556853571263815
20
47.999999999999964
10
96.55685357126373
20
47.999999999999964
0
LWPOLYLINE
5
278
100
AcDbEntity
8
0
100
AcDbPolyline
90
4
70
1
43
0.0
10
96.55685357126373
20
119.15000000000001
10
82.556853571263815
20
119.15000000000001
10
82.556853571263815
20
105.14999999999999
10
96.55685357126373
20
105.14999999999999
0
LWPOLYLINE
5
279
100
AcDbEntity
8
0
100
AcDbPolyline
90
4
70
1
43
0.0
10
82.556853571263815
20
47.999999999999964
10
96.55685357126373
20
47.999999999999964
10
96.55685357126373
20
61.999999999999972
10
82.556853571263815
20
61.999999999999972
0
LWPOLYLINE
5
280
100
AcDbEntity
8
0
100
AcDbPolyline
90
4
70
1
43
0.0
10
120.65685357126377
20
62.049999999999969
10
134.65685357126378
20
62.049999999999969
10
134.65685357126375
20
76.049999999999983
10
120.65685357126372
20
76.049999999999983
0
LWPOLYLINE
5
281
100
AcDbEntity
8
0
100
AcDbPolyline
90
4
70
1
43
0.0
10
115.60685357126377
20
59.499999999999972
10
101.6068535712638
20
59.499999999999972
10
101.6068535712638
20
45.499999999999964
10
115.60685357126377
20
45.499999999999964
0
LWPOLYLINE
5
282
100
AcDbEntity
8
0
100
AcDbPolyline
90
4
70
1
43
0.0
10
115.60685357126377
20
45.499999999999964
10
115.60685357126377
20
59.499999999999972
10
101.6068535712638
20
59.499999999999972
10
101.6068535712638
20
45.499999999999964
0
LWPOLYLINE
5
283
100
AcDbEntity
8
0
100
AcDbPolyline
90
4
70
1
43
0.0
10
101.6068535712638
20
64.549999999999969
10
115.60685357126377
20
64.549999999999969
10
115.60685357126377
20
78.549999999999983
10
101.6068535712638
20
78.549999999999983
0
LINE
5
284
100
AcDbEntity
8
0
100
AcDbLine
10
122.99213723096209
20
11.54234813922217
30
0
11
120.10728085557695
21
12.592349989152565
31
0
0
LWPOLYLINE
5
285
100
AcDbEntity
8
0
100
AcDbPolyline
90
4
70
1
43
0.0
10
96.55685357126373
20
86.09999999999998
10
96.55685357126373
20
100.09999999999999
10
82.556853571263815
20
100.09999999999999
10
82.556853571263815
20
86.09999999999998
0
LINE
5
286
100
AcDbEntity
8
0
100
AcDbLine
10
155.52320235805513
20
16.276577542576057
30
0
11
156.27495645475446
21
16.002961428109472
31
0
0
LINE
5
287
100
AcDbEntity
8
0
100
AcDbLine
10
134.65685357126375
20
133.20000000000002
30
0
11
120.65685357126372
21
133.20000000000002
31
0
0
LINE
5
288
100
AcDbEntity
8
0
100
AcDbLine
10
139.60284586082457
20
3.8204646255745711
30
0
11
140.3545999575239
21
3.5468485111080117
31
0
0
LINE
5
289
100
AcDbEntity
8
0
100
AcDbLine
10
132.29509417761631
20
8.156348722698441
30
0
11
131.75641245226024
21
6.6763328448216486
31
0
0
LWPOLYLINE
5
290
100
AcDbEntity
8
0
100
AcDbPolyline
90
4
70
1
43
0.0
10
115.60685357126377
20
78.549999999999983
10
101.6068535712638
20
78.549999999999983
10
101.6068535712638
20
64.549999999999969
10
115.60685357126377
20
64.549999999999969
0
LINE
5
291
100
AcDbEntity
8
0
100
AcDbLine
10
134.65685357126378
20
119.2
30
0
11
134.65685357126375
21
133.20000000000002
31
0
0
LINE
5
292
100
AcDbEntity
8
0
100
AcDbLine
10
120.65685357126377
20
119.2
30
0
11
134.65685357126378
21
119.2
31
0
0
LWPOLYLINE
5
293
100
AcDbEntity
8
0
100
AcDbPolyline
90
4
70
1
43
0.0
10
120.65685357126372
20
95.099999999999994
10
120.65685357126377
20
81.09999999999998
10
134.65685357126378
20
81.09999999999998
10
134.65685357126375
20
95.099999999999994
0
LINE
5
294
100
AcDbEntity
8
0
100
AcDbLine
10
129.8417808142872
20
32.700632752616841
30
0
11
127.56734686278389
21
26.451676823803687
31
0
0
LWPOLYLINE
5
295
100
AcDbEntity
8
0
100
AcDbPolyline
90
4
70
1
43
0.0
10
115.60685357126377
20
116.65000000000001
10
101.6068535712638
20
116.65000000000001
10
101.6068535712638
20
102.64999999999999
10
115.60685357126377
20
102.64999999999999
0
LWPOLYLINE
5
296
100
AcDbEntity
8
0
100
AcDbPolyline
90
4
70
1
43
0.0
10
120.65685357126377
20
100.14999999999999
10
134.65685357126378
20
100.14999999999999
10
134.65685357126375
20
114.15000000000001
10
120.65685357126372
20
114.15000000000001
0
LWPOLYLINE
5
297
100
AcDbEntity
8
0
100
AcDbPolyline
90
4
70
1
43
0.0
10
115.60685357126377
20
121.7
10
115.60685357126377
20
135.70000000000002
10
101.6068535712638
20
135.70000000000002
10
101.6068535712638
20
121.7
0
LWPOLYLINE
5
298
100
AcDbEntity
8
0
100
AcDbPolyline
90
4
70
1
43
0.0
10
39.406853571263696
20
76.09999999999998
10
39.406853571263696
20
90.099999999999994
10
25.406853571263781
20
90.099999999999994
10
25.406853571263781
20
76.09999999999998
0
LINE
5
299
100
AcDbEntity
8
0
100
AcDbLine
10
150.91275538479954
20
-2.2381302246774659
30
0
11
149.88669495554996
21
-5.0572080872999425
31
0
0
LINE
5
300
100
AcDbEntity
8
0
100
AcDbLine
10
115.60685357126377
20
135.70000000000002
30
0
11
101.6068535712638
21
135.70000000000002
31
0
0
LWPOLYLINE
5
301
100
AcDbEntity
8
0
100
AcDbPolyline
90
4
70
1
43
0.0
10
96.55685357126373
20
86.09999999999998
10
96.55685357126373
20
100.09999999999999
10
82.556853571263815
20
100.09999999999999
10
82.556853571263815
20
86.09999999999998
0
LINE
5
302
100
AcDbEntity
8
0
100
AcDbLine
10
127.78041923412715
20
24.698044831460333
30
0
11
124.89556285874187
21
25.748046681390761
31
0
0
LINE
5
303
100
AcDbEntity
8
0
100
AcDbLine
10
138.99799876396347
20
24.233384211442175
30
0
11
140.12562990901245
21
23.822960039742327
31
0
0
LWPOLYLINE
5
304
100
AcDbEntity
8
0
100
AcDbPolyline
90
4
70
1
43
0.0
10
96.55685357126373
20
105.14999999999999
10
96.55685357126373
20
119.15000000000001
10
82.556853571263815
20
119.15000000000001
10
82.556853571263815
20
105.14999999999999
0
LWPOLYLINE
5
305
100
AcDbEntity
8
0
100
AcDbPolyline
90
4
70
1
43
0.0
10
115.60685357126377
20
97.599999999999994
10
101.6068535712638
20
97.599999999999994
10
101.6068535712638
20
83.59999999999998
10
115.60685357126377
20
83.59999999999998
0
LINE
5
306
100
AcDbEntity
8
0
100
AcDbLine
10
120.65685357126372
20
133.20000000000002
30
0
11
120.65685357126377
21
119.2
31
0
0
LINE
5
307
100
AcDbEntity
8
0
100
AcDbLine
10
165.68279534944978
20
26.413099126802557
30
0
11
178.83849206707237
21
21.624817102210354
31
0
0
LWPOLYLINE
5
308
100
AcDbEntity
8
0
100
AcDbPolyline
90
4
70
1
43
0.0
10
115.60685357126377
20
116.65000000000001
10
101.6068535712638
20
116.65000000000001
10
101.6068535712638
20
102.64999999999999
10
115.60685357126377
20
102.64999999999999
0
LINE
5
309
100
AcDbEntity
8
0
100
AcDbLine
10
133.01161093288169
20
4.2773535255598993
30
0
11
131.98555050363208
21
1.4582756629374227
31
0
0
LWPOLYLINE
5
310
100
AcDbEntity
8
0
100
AcDbPolyline
90
4
70
1
43
0.0
10
96.55685357126373
20
67.049999999999969
10
96.55685357126373
20
81.049999999999983
10
82.556853571263815
20
81.049999999999983
10
82.556853571263815
20
67.049999999999969
0
LINE
5
311
100
AcDbEntity
8
0
100
AcDbLine
10
101.6068535712638
20
135.70000000000002
30
0
11
101.6068535712638
21
121.7
31
0
0
LINE
5
312
100
AcDbEntity
8
0
100
AcDbLine
10
135.05564084665684
20
31.734098447556551
30
0
11
132.42450150820926
21
32.691754848189554
31
0
0
LINE
5
313
100
AcDbEntity
8
0
100
AcDbLine
10
158.54939040625788
20
22.25191735692259
30
0
11
152.6575176733769
21
24.396383654054308
31
0
0
LINE
5
314
100
AcDbEntity
8
0
100
AcDbLine
10
138.37381200283659
20
22.518445178346838
30
0
11
138.99799876396347
21
24.233384211442175
31
0
0
LINE
5
315
100
AcDbEntity
8
0
100
AcDbLine
10
124.0425922393775
20
1.4759960554087304
30
0
11
121.41145290092982
21
2.4336524560416484
31
0
0
LINE
5
316
100
AcDbEntity
8
0
100
AcDbLine
10
121.71072052612764
20
3.2558834993065933
30
0
11
119.42726745740345
21
4.0869924469987762
31
0
0
LWPOLYLINE
5
317
100
AcDbEntity
8
0
100
AcDbPolyline
90
4
70
1
43
0.0
10
63.506853571263804
20
97.599999999999994
10
63.506853571263804
20
83.59999999999998
10
77.506853571263719
20
83.59999999999998
10
77.506853571263719
20
97.599999999999994
0
LINE
5
318
100
AcDbEntity
8
0
100
AcDbLine
10
131.98555050363208
20
1.4582756629374227
30
0
11
130.8579193585831
21
1.8686998346372663
31
0
0
LINE
5
319
100
AcDbEntity
8
0
100
AcDbLine
10
115.60685357126377
20
121.7
30
0
11
115.60685357126377
21
135.70000000000002
31
0
0
LWPOLYLINE
5
320
100
AcDbEntity
8
0
100
AcDbPolyline
90
4
70
1
43
0.0
10
115.60685357126377
20
83.59999999999998
10
115.60685357126377
20
97.599999999999994
10
101.6068535712638
20
97.599999999999994
10
101.6068535712638
20
83.59999999999998
0
LINE
5
321
100
AcDbEntity
8
0
100
AcDbLine
10
178.83849206707237
20
21.624817102210354
30
0
11
183.62677409166452
21
34.780513819832912
31
0
0
LINE
5
322
100
AcDbEntity
8
0
100
AcDbLine
10
159.16731159840523
20
8.5119546751784725
30
0
11
172.32300831602777
21
3.7236726505862672
31
0
0
LINE
5
323
100
AcDbEntity
8
0
100
AcDbLine
10
157.44010992299738
20
3.766506992801042
30
0
11
152.65182789840523
21
-9.3891897248215184
31
0
0
LWPOLYLINE
5
324
100
AcDbEntity
8
0
100
AcDbPolyline
90
4
70
1
43
0.0
10
-4.2181464287362047
20
90.099999999999994
10
-4.2181464287362047
20
76.09999999999998
10
20.356853571263755
20
76.09999999999998
10
20.356853571263755
20
90.099999999999994
0
LWPOLYLINE
5
325
100
AcDbEntity
8
0
100
AcDbPolyline
90
4
70
1
43
0.0
10
96.55685357126373
20
124.2
10
96.55685357126373
20
138.20000000000002
10
82.556853571263815
20
138.20000000000002
10
82.556853571263815
20
124.2
0
LINE
5
326
100
AcDbEntity
8
0
100
AcDbLine
10
152.95678529857472
20
25.218614697319186
30
0
11
150.32564596012713
21
26.176271097952188
31
0
0
LINE
5
327
100
AcDbEntity
8
0
100
AcDbLine
10
147.74292526620508
20
26.185149002379475
30
0
11
145.46849131470174
21
19.936193073566322
31
0
0
LWPOLYLINE
5
328
100
AcDbEntity
8
0
100
AcDbPolyline
90
4
70
1
43
0.0
10
39.406853571263696
20
57.049999999999969
10
39.406853571263696
20
71.049999999999983
10
25.406853571263781
20
71.049999999999983
10
25.406853571263781
20
57.049999999999969
0
LINE
5
329
100
AcDbEntity
8
0
100
AcDbLine
10
155.95240403219947
20
14.444280917323562
30
0
11
151.16412202903456
21
1.2885842250853718
31
0
0
LINE
5
330
100
AcDbEntity
8
0
100
AcDbLine
10
58.456853571263707
20
78.59999999999998
30
0
11
58.456853571263707
21
92.599999999999994
31
0
0
LINE
5
331
100
AcDbEntity
8
0
100
AcDbLine
10
148.75906381050098
20
-4.646783915600099
30
0
11
148.13487704937413
21
-6.3617229486954407
31
0
0
LINE
5
332
100
AcDbEntity
8
0
100
AcDbLine
10
132.42450150820926
20
32.691754848189554
30
0
11
132.12523388301139
21
31.86952380492464
31
0
0
LINE
5
333
100
AcDbEntity
8
0
100
AcDbLine
10
148.13487704937413
20
-6.3617229486954407
30
0
11
142.24300431649314
21
-4.2172566515637477
31
0
0
LWPOLYLINE
5
334
100
AcDbEntity
8
0
100
AcDbPolyline
90
4
70
1
43
0.0
10
44.456853571263792
20
40.499999999999964
10
58.456853571263707
20
40.499999999999964
10
58.456853571263707
20
54.499999999999986
10
44.456853571263792
20
54.499999999999986
0
LINE
5
335
100
AcDbEntity
8
0
100
AcDbLine
10
44.456853571263792
20
116.7
30
0
11
58.456853571263707
21
116.7
31
0
0
LINE
5
336
100
AcDbEntity
8
0
100
AcDbLine
10
156.27495645475446
20
16.002961428109472
30
0
11
156.89914321588134
21
17.71790046120481
31
0
0
LINE
5
337
100
AcDbEntity
8
0
100
AcDbLine
10
128.31910095948319
20
26.178060709337132
30
0
11
127.78041923412715
21
24.698044831460333
31
0
0
LINE
5
338
100
AcDbEntity
8
0
100
AcDbLine
10
96.55685357126373
20
124.2
30
0
11
96.55685357126373
21
138.20000000000002
31
0
0
LWPOLYLINE
5
339
100
AcDbEntity
8
0
100
AcDbPolyline
90
4
70
1
43
0.0
10
44.456853571263792
20
59.549999999999969
10
58.456853571263707
20
59.549999999999969
10
58.456853571263707
20
73.549999999999983
10
44.456853571263792
20
73.549999999999983
0
LINE
5
340
100
AcDbEntity
8
0
100
AcDbLine
10
44.456853571263792
20
78.59999999999998
30
0
11
58.456853571263707
21
78.59999999999998
31
0
0
LINE
5
341
100
AcDbEntity
8
0
100
AcDbLine
10
177.11129034061997
20
16.879369368208827
30
0
11
163.95559362299738
21
21.667651392801037
31
0
0
LINE
5
342
100
AcDbEntity
8
0
100
AcDbLine
10
127.56734686278389
20
26.451676823803687
30
0
11
128.31910095948319
21
26.178060709337132
31
0
0
LINE
5
343
100
AcDbEntity
8
0
100
AcDbLine
10
145.68156368604502
20
18.182561081222968
30
0
11
142.79670731065974
21
19.232562931153396
31
0
0
LINE
5
344
100
AcDbEntity
8
0
100
AcDbLine
10
58.456853571263707
20
130.70000000000002
30
0
11
44.456853571263792
21
130.70000000000002
31
0
0
LINE
5
345
100
AcDbEntity
8
0
100
AcDbLine
10
138.0512595802816
20
20.959764667560925
30
0
11
133.26297757711669
21
7.8040679753227371
31
0
0
LINE
5
346
100
AcDbEntity
8
0
100
AcDbLine
10
146.22024541140107
20
19.662576959099766
30
0
11
145.68156368604502
21
18.182561081222968
31
0
0
LINE
5
347
100
AcDbEntity
8
0
100
AcDbLine
10
58.456853571263707
20
111.65000000000001
30
0
11
44.456853571263792
21
111.65000000000001
31
0
0
LINE
5
348
100
AcDbEntity
8
0
100
AcDbLine
10
122.45345550560603
20
10.062332261345377
30
0
11
122.99213723096209
21
11.54234813922217
31
0
0
LINE
5
349
100
AcDbEntity
8
0
100
AcDbLine
10
142.79670731065974
20
19.232562931153396
30
0
11
138.0084253074948
21
6.0768662389151995
31
0
0
LINE
5
350
100
AcDbEntity
8
0
100
AcDbLine
10
137.62205790613729
20
22.792061292813422
30
0
11
138.37381200283659
21
22.518445178346838
31
0
0
LINE
5
351
100
AcDbEntity
8
0
100
AcDbLine
10
163.95559362299738
20
21.667651392801037
30
0
11
159.16731159840523
21
8.5119546751784725
31
0
0
LINE
5
352
100
AcDbEntity
8
0
100
AcDbLine
10
134.75637322145903
20
30.911867404291673
30
0
11
135.05564084665684
21
31.734098447556551
31
0
0
LINE
5
353
100
AcDbEntity
8
0
100
AcDbLine
10
183.62677409166452
20
34.780513819832912
30
0
11
170.47107737404195
21
39.568795844425111
31
0
0
LINE
5
354
100
AcDbEntity
8
0
100
AcDbLine
10
44.456853571263792
20
97.649999999999991
30
0
11
58.456853571263707
21
97.649999999999991
31
0
0
LINE
5
355
100
AcDbEntity
8
0
100
AcDbLine
10
154.98452063269909
20
14.796561664699261
30
0
11
155.52320235805513
21
16.276577542576057
31
0
0
LINE
5
356
100
AcDbEntity
8
0
100
AcDbLine
10
101.6068535712638
20
121.7
30
0
11
115.60685357126377
21
121.7
31
0
0
LINE
5
357
100
AcDbEntity
8
0
100
AcDbLine
10
158.02677436093032
20
17.307476289504962
30
0
11
159.05283479017996
21
20.12655415212744
31
0
0
LINE
5
358
100
AcDbEntity
8
0
100
AcDbLine
10
140.64824595434001
20
28.767401107159955
30
0
11
134.75637322145903
21
30.911867404291673
31
0
0
LWPOLYLINE
5
359
100
AcDbEntity
8
0
100
AcDbPolyline
90
4
70
1
43
0.0
10
96.55685357126373
20
81.049999999999983
10
82.556853571263815
20
81.049999999999983
10
82.556853571263815
20
67.049999999999969
10
96.55685357126373
20
67.049999999999969
0
LINE
5
360
100
AcDbEntity
8
0
100
AcDbLine
10
82.556853571263815
20
124.2
30
0
11
96.55685357126373
21
124.2
31
0
0
LINE
5
361
100
AcDbEntity
8
0
100
AcDbLine
10
58.456853571263707
20
92.599999999999994
30
0
11
44.456853571263792
21
92.599999999999994
31
0
0
LINE
5
362
100
AcDbEntity
8
0
100
AcDbLine
10
96.55685357126373
20
138.20000000000002
30
0
11
82.556853571263815
21
138.20000000000002
31
0
0
LWPOLYLINE
5
363
100
AcDbEntity
8
0
100
AcDbPolyline
90
4
70
1
43
0.0
10
63.506853571263804
20
59.499999999999972
10
63.506853571263804
20
45.499999999999964
10
77.506853571263719
20
45.499999999999964
10
77.506853571263719
20
59.499999999999972
0
LWPOLYLINE
5
364
100
AcDbEntity
8
0
100
AcDbPolyline
90
4
70
1
43
0.0
10
63.506853571263804
20
78.549999999999983
10
63.506853571263804
20
64.549999999999969
10
77.506853571263719
20
64.549999999999969
10
77.506853571263719
20
78.549999999999983
0
LWPOLYLINE
5
365
100
AcDbEntity
8
0
100
AcDbPolyline
90
4
70
1
43
0.0
10
77.506853571263719
20
121.7
10
77.506853571263719
20
135.70000000000002
10
63.506853571263804
20
135.70000000000002
10
63.506853571263804
20
121.7
0
LWPOLYLINE
5
366
100
AcDbEntity
8
0
100
AcDbPolyline
90
4
70
1
43
0.0
10
63.506853571263804
20
116.65000000000001
10
63.506853571263804
20
102.64999999999999
10
77.506853571263719
20
102.64999999999999
10
77.506853571263719
20
116.65000000000001
0
LINE
5
367
100
AcDbEntity
8
0
100
AcDbLine
10
39.406853571263696
20
114.2
30
0
11
39.406853571263696
21
128.20000000000002
31
0
0
LINE
5
368
100
AcDbEntity
8
0
100
AcDbLine
10
141.94373669129536
20
-5.0394876948286349
30
0
11
139.31259735284769
21
-4.0818312941957169
31
0
0
LINE
5
369
100
AcDbEntity
8
0
100
AcDbLine
10
77.506853571263719
20
121.7
30
0
11
77.506853571263719
21
135.70000000000002
31
0
0
LINE
5
370
100
AcDbEntity
8
0
100
AcDbLine
10
58.456853571263707
20
97.649999999999991
30
0
11
58.456853571263707
21
111.65000000000001
31
0
0
LINE
5
371
100
AcDbEntity
8
0
100
AcDbLine
10
-4.2181464287362047
20
114.2
30
0
11
20.356853571263755
21
114.2
31
0
0
LWPOLYLINE
5
372
100
AcDbEntity
8
0
100
AcDbPolyline
90
4
70
1
43
0.0
10
63.506853571263804
20
78.549999999999983
10
63.506853571263804
20
64.549999999999969
10
77.506853571263719
20
64.549999999999969
10
77.506853571263719
20
78.549999999999983
0
LINE
5
373
100
AcDbEntity
8
0
100
AcDbLine
10
39.406853571263696
20
128.20000000000002
30
0
11
25.406853571263781
21
128.20000000000002
31
0
0
LINE
5
374
100
AcDbEntity
8
0
100
AcDbLine
10
63.506853571263804
20
135.70000000000002
30
0
11
63.506853571263804
21
121.7
31
0
0
LINE
5
375
100
AcDbEntity
8
0
100
AcDbLine
10
25.406853571263781
20
128.20000000000002
30
0
11
25.406853571263781
21
114.2
31
0
0
LWPOLYLINE
5
376
100
AcDbEntity
8
0
100
AcDbPolyline
90
4
70
1
43
0.0
10
63.506853571263804
20
59.499999999999972
10
63.506853571263804
20
45.499999999999964
10
77.506853571263719
20
45.499999999999964
10
77.506853571263719
20
59.499999999999972
0
LINE
5
377
100
AcDbEntity
8
0
100
AcDbLine
10
25.406853571263781
20
114.2
30
0
11
39.406853571263696
21
114.2
31
0
0
LINE
5
378
100
AcDbEntity
8
0
100
AcDbLine
10
82.556853571263815
20
138.20000000000002
30
0
11
82.556853571263815
21
124.2
31
0
0
LINE
5
379
100
AcDbEntity
8
0
100
AcDbLine
10
20.356853571263755
20
114.2
30
0
11
20.356853571263755
21
128.20000000000002
31
0
0
LINE
5
380
100
AcDbEntity
8
0
100
AcDbLine
10
-4.2181464287362047
20
128.20000000000002
30
0
11
-4.2181464287362047
21
114.2
31
0
0
LWPOLYLINE
5
381
100
AcDbEntity
8
0
100
AcDbPolyline
90
4
70
1
43
0.0
10
77.506853571263719
20
102.64999999999999
10
77.506853571263719
20
116.65000000000001
10
63.506853571263804
20
116.65000000000001
10
63.506853571263804
20
102.64999999999999
0
LINE
5
382
100
AcDbEntity
8
0
100
AcDbLine
10
58.456853571263707
20
116.7
30
0
11
58.456853571263707
21
130.70000000000002
31
0
0
LINE
5
383
100
AcDbEntity
8
0
100
AcDbLine
10
6.3568535712638408
20
51.999999999999993
30
0
11
6.3568535712638408
21
38
31
0
0
LINE
5
384
100
AcDbEntity
8
0
100
AcDbLine
10
142.24300431649314
20
-4.2172566515637477
30
0
11
141.94373669129536
21
-5.0394876948286349
31
0
0
LINE
5
385
100
AcDbEntity
8
0
100
AcDbLine
10
20.356853571263755
20
37.999999999999986
30
0
11
20.356853571263755
21
51.999999999999993
31
0
0
LINE
5
386
100
AcDbEntity
8
0
100
AcDbLine
10
44.456853571263792
20
111.65000000000001
30
0
11
44.456853571263792
21
97.649999999999991
31
0
0
LINE
5
387
100
AcDbEntity
8
0
100
AcDbLine
10
156.89914321588134
20
17.71790046120481
30
0
11
158.02677436093032
21
17.307476289504962
31
0
0
LINE
5
388
100
AcDbEntity
8
0
100
AcDbLine
10
124.34185986457528
20
2.2982270986736175
30
0
11
124.0425922393775
21
1.4759960554087304
31
0
0
LINE
5
389
100
AcDbEntity
8
0
100
AcDbLine
10
-4.2181464287362047
20
95.150000000000006
30
0
11
20.356853571263755
21
95.150000000000006
31
0
0
LINE
5
390
100
AcDbEntity
8
0
100
AcDbLine
10
140.3545999575239
20
3.5468485111080117
30
0
11
140.89328168287994
21
5.0268643889848041
31
0
0
LINE
5
391
100
AcDbEntity
8
0
100
AcDbLine
10
20.356853571263755
20
109.15000000000003
30
0
11
-4.2181464287362047
21
109.15000000000003
31
0
0
LINE
5
392
100
AcDbEntity
8
0
100
AcDbLine
10
165.80752461602782
20
-14.177471749413723
30
0
11
170.59580664061997
21
-1.0217750317911678
31
0
0
LINE
5
393
100
AcDbEntity
8
0
100
AcDbLine
10
20.356853571263755
20
95.150000000000006
30
0
11
20.356853571263755
21
109.15000000000003
31
0
0
LINE
5
394
100
AcDbEntity
8
0
100
AcDbLine
10
44.456853571263792
20
130.70000000000002
30
0
11
44.456853571263792
21
116.7
31
0
0
LINE
5
395
100
AcDbEntity
8
0
100
AcDbLine
10
119.42726745740345
20
4.0869924469987762
30
0
11
121.70170140890673
21
10.335948375811936
31
0
0
LWPOLYLINE
5
396
100
AcDbEntity
8
0
100
AcDbPolyline
90
4
70
1
43
0.0
10
20.356853571263755
20
71.050000000000011
10
-4.2181464287362047
20
71.050000000000011
10
-4.2181464287362047
20
57.049999999999983
10
20.356853571263755
20
57.049999999999983
0
LINE
5
397
100
AcDbEntity
8
0
100
AcDbLine
10
20.356853571263755
20
128.20000000000002
30
0
11
-4.2181464287362047
21
128.20000000000002
31
0
0
LWPOLYLINE
5
398
100
AcDbEntity
8
0
100
AcDbPolyline
90
4
70
1
43
0.0
10
39.406853571263696
20
37.999999999999964
10
39.406853571263696
20
51.999999999999986
10
25.406853571263781
20
51.999999999999986
10
25.406853571263781
20
37.999999999999964
0
LWPOLYLINE
5
399
100
AcDbEntity
8
0
100
AcDbPolyline
90
4
70
1
43
0.0
10
77.506853571263719
20
97.599999999999994
10
63.506853571263804
20
97.599999999999994
10
63.506853571263804
20
83.59999999999998
10
77.506853571263719
20
83.59999999999998
0
LINE
5
400
100
AcDbEntity
8
0
100
AcDbLine
10
150.40931100087744
20
-0.11276701988228055
30
0
11
149.78512423975059
21
-1.8277060529776179
31
0
0
LINE
5
401
100
AcDbEntity
8
0
100
AcDbLine
10
150.32564596012713
20
26.176271097952188
30
0
11
150.02637833492926
21
25.354040054687275
31
0
0
LINE
5
402
100
AcDbEntity
8
0
100
AcDbLine
10
139.31259735284769
20
-4.0818312941957169
30
0
11
139.6118649780455
21
-3.259600250930772
31
0
0
LINE
5
403
100
AcDbEntity
8
0
100
AcDbLine
10
-4.2181464287362047
20
109.15000000000003
30
0
11
-4.2181464287362047
21
95.150000000000006
31
0
0
LINE
5
404
100
AcDbEntity
8
0
100
AcDbLine
10
25.406853571263781
20
109.15000000000001
30
0
11
25.406853571263781
21
95.149999999999991
31
0
0
LINE
5
405
100
AcDbEntity
8
0
100
AcDbLine
10
77.506853571263719
20
135.70000000000002
30
0
11
63.506853571263804
21
135.70000000000002
31
0
0
LINE
5
406
100
AcDbEntity
8
0
100
AcDbLine
10
131.75641245226024
20
6.6763328448216486
30
0
11
132.50816654895957
21
6.4027167303550847
31
0
0
LINE
5
407
100
AcDbEntity
8
0
100
AcDbLine
10
137.32841190932132
20
-2.4284913032385891
30
0
11
139.60284586082457
21
3.8204646255745711
31
0
0
LINE
5
408
100
AcDbEntity
8
0
100
AcDbLine
10
25.406853571263781
20
95.149999999999991
30
0
11
39.406853571263696
21
95.149999999999991
31
0
0
LINE
5
409
100
AcDbEntity
8
0
100
AcDbLine
10
20.356853571263755
20
51.999999999999993
30
0
11
6.3568535712638408
21
51.999999999999993
31
0
0
LINE
5
410
100
AcDbEntity
8
0
100
AcDbLine
10
63.506853571263804
20
121.7
30
0
11
77.506853571263719
21
121.7
31
0
0
LINE
5
411
100
AcDbEntity
8
0
100
AcDbLine
10
151.16412202903456
20
1.2885842250853718
30
0
11
150.19623862953415
21
1.6408649724610758
31
0
0
LINE
5
412
100
AcDbEntity
8
0
100
AcDbLine
10
39.406853571263696
20
95.149999999999991
30
0
11
39.406853571263696
21
109.15000000000001
31
0
0
LINE
5
413
100
AcDbEntity
8
0
100
AcDbLine
10
39.406853571263696
20
109.15000000000001
30
0
11
25.406853571263781
21
109.15000000000001
31
0
0
LINE
5
414
100
AcDbEntity
8
0
100
AcDbLine
10
6.3568535712638408
20
38
30
0
11
20.356853571263755
21
37.999999999999986
31
0
0
LINE
5
415
100
AcDbEntity
8
0
100
AcDbLine
10
130.8579193585831
20
1.8686998346372663
30
0
11
130.23373259745625
21
0.15376080154192451
31
0
0
LINE
5
416
100
AcDbEntity
8
0
100
AcDbLine
10
121.41145290092982
20
2.4336524560416484
30
0
11
121.71072052612764
21
3.2558834993065933
31
0
0
LINE
5
417
100
AcDbEntity
8
0
100
AcDbLine
10
140.89328168287994
20
5.0268643889848041
30
0
11
138.0084253074948
21
6.0768662389151995
31
0
0
LINE
5
418
100
AcDbEntity
8
0
100
AcDbLine
10
121.70170140890673
20
10.335948375811936
30
0
11
122.45345550560603
21
10.062332261345377
31
0
0
LINE
5
419
100
AcDbEntity
8
0
100
AcDbLine
10
133.26297757711669
20
7.8040679753227371
30
0
11
132.29509417761631
21
8.156348722698441
31
0
0
LINE
5
420
100
AcDbEntity
8
0
100
AcDbLine
10
149.78512423975059
20
-1.8277060529776179
30
0
11
150.91275538479954
21
-2.2381302246774659
31
0
0
LINE
5
421
100
AcDbEntity
8
0
100
AcDbLine
10
172.32300831602777
20
3.7236726505862672
30
0
11
177.11129034061997
21
16.879369368208827
31
0
0
LINE
5
422
100
AcDbEntity
8
0
100
AcDbLine
10
132.50816654895957
20
6.4027167303550847
30
0
11
131.88397978783271
21
4.6877776972597474
31
0
0
LINE
5
423
100
AcDbEntity
8
0
100
AcDbLine
10
170.59580664061997
20
-1.0217750317911678
30
0
11
157.44010992299738
21
3.766506992801042
31
0
0
LINE
5
424
100
AcDbEntity
8
0
100
AcDbLine
10
150.02637833492926
20
25.354040054687275
30
0
11
147.74292526620508
21
26.185149002379475
31
0
0
LINE
5
425
100
AcDbEntity
8
0
100
AcDbLine
10
155.95240403219947
20
14.444280917323562
30
0
11
154.98452063269909
21
14.796561664699261
31
0
0
LINE
5
426
100
AcDbEntity
8
0
100
AcDbLine
10
147.78165089782573
20
32.928582877847106
30
0
11
160.93734761544829
21
28.140300853254896
31
0
0
LINE
5
427
100
AcDbEntity
8
0
100
AcDbLine
10
140.12562990901245
20
23.822960039742327
30
0
11
141.15169033826209
21
26.642037902364805
31
0
0
LINE
5
428
100
AcDbEntity
8
0
100
AcDbLine
10
157.92520364513103
20
20.53697832382726
30
0
11
158.54939040625788
21
22.25191735692259
31
0
0
LINE
5
429
100
AcDbEntity
8
0
100
AcDbLine
10
132.12523388301139
20
31.86952380492464
30
0
11
129.8417808142872
21
32.700632752616841
31
0
0
LINE
5
430
100
AcDbEntity
8
0
100
AcDbLine
10
44.456853571263792
20
92.599999999999994
30
0
11
44.456853571263792
21
78.59999999999998
31
0
0
LINE
5
431
100
AcDbEntity
8
0
100
AcDbLine
10
130.23373259745625
20
0.15376080154192451
30
0
11
124.34185986457528
21
2.2982270986736175
31
0
0
LINE
5
432
100
AcDbEntity
8
0
100
AcDbLine
10
159.05283479017996
20
20.12655415212744
30
0
11
157.92520364513103
21
20.53697832382726
31
0
0
LINE
5
433
100
AcDbEntity
8
0
100
AcDbLine
10
170.47107737404195
20
39.568795844425111
30
0
11
165.68279534944978
21
26.413099126802557
31
0
0
LINE
5
434
100
AcDbEntity
8
0
100
AcDbLine
10
165.72562964004047
20
41.295997570877454
30
0
11
152.56993292241788
21
46.084279595469653
31
0
0
LINE
5
435
100
AcDbEntity
8
0
100
AcDbLine
10
141.15169033826209
20
26.642037902364805
30
0
11
140.02405919321316
21
27.052462074064625
31
0
0
LINE
5
436
100
AcDbEntity
8
0
100
AcDbLine
10
140.02405919321316
20
27.052462074064625
30
0
11
140.64824595434001
21
28.767401107159955
31
0
0
LINE
5
437
100
AcDbEntity
8
0
100
AcDbLine
10
131.88397978783271
20
4.6877776972597474
30
0
11
133.01161093288169
21
4.2773535255598993
31
0
0
LINE
5
438
100
AcDbEntity
8
0
100
AcDbLine
10
137.08337618078122
20
21.312045414936627
30
0
11
137.62205790613729
21
22.792061292813422
31
0
0
LINE
5
439
100
AcDbEntity
8
0
100
AcDbLine
10
124.89556285874187
20
25.748046681390761
30
0
11
120.10728085557695
21
12.592349989152565
31
0
0
LINE
5
440
100
AcDbEntity
8
0
100
AcDbLine
10
149.88669495554996
20
-5.0572080872999425
30
0
11
148.75906381050098
21
-4.646783915600099
31
0
0
LINE
5
441
100
AcDbEntity
8
0
100
AcDbLine
10
152.6575176733769
20
24.396383654054308
30
0
11
152.95678529857472
21
25.218614697319186
31
0
0
LINE
5
442
100
AcDbEntity
8
0
100
AcDbLine
10
145.46849131470174
20
19.936193073566322
30
0
11
146.22024541140107
21
19.662576959099766
31
0
0
LINE
5
443
100
AcDbEntity
8
0
100
AcDbLine
10
152.65182789840523
20
-9.3891897248215184
30
0
11
165.80752461602782
21
-14.177471749413723
31
0
0
LINE
5
444
100
AcDbEntity
8
0
100
AcDbLine
10
139.6118649780455
20
-3.259600250930772
30
0
11
137.32841190932132
21
-2.4284913032385891
31
0
0
LINE
5
445
100
AcDbEntity
8
0
100
AcDbLine
10
138.0512595802816
20
20.959764667560925
30
0
11
137.08337618078122
21
21.312045414936627
31
0
0
LINE
5
446
100
AcDbEntity
8
0
100
AcDbLine
10
160.93734761544829
20
28.140300853254896
30
0
11
165.72562964004047
21
41.295997570877454
31
0
0
LINE
5
447
100
AcDbEntity
8
0
100
AcDbLine
10
149.65755690417811
20
0.16084909458428331
30
0
11
150.40931100087744
21
-0.11276701988228055
31
0
0
LINE
5
448
100
AcDbEntity
8
0
100
AcDbLine
10
147.78165089782573
20
32.928582877847106
30
0
11
152.56993292241788
21
46.084279595469653
31
0
0
LINE
5
449
100
AcDbEntity
8
0
100
AcDbLine
10
150.19623862953415
20
1.6408649724610758
30
0
11
149.65755690417811
21
0.16084909458428331
31
0
0
ENDSEC
0
SECTION
2
OBJECTS
0
DICTIONARY
5
C
100
AcDbDictionary
3
ACAD_GROUP
350
D
3
ACAD_MLINESTYLE
350
17
0
DICTIONARY
5
D
100
AcDbDictionary
0
DICTIONARY
5
1A
330
C
100
AcDbDictionary
0
DICTIONARY
5
17
100
AcDbDictionary
0
ENDSEC
0
EOF
