G04 #@! TF.GenerationSoftware,KiCad,Pcbnew,7.0.5*
G04 #@! TF.CreationDate,2025-01-08T15:51:09-05:00*
G04 #@! TF.ProjectId,JasonSplitErgoKeyboard_Left,4a61736f-6e53-4706-9c69-744572676f4b,rev?*
G04 #@! TF.SameCoordinates,Original*
G04 #@! TF.FileFunction,Legend,Top*
G04 #@! TF.FilePolarity,Positive*
%FSLAX46Y46*%
G04 Gerber Fmt 4.6, Leading zero omitted, Abs format (unit mm)*
G04 Created by KiCad (PCBNEW 7.0.5) date 2025-01-08 15:51:09*
%MOMM*%
%LPD*%
G01*
G04 APERTURE LIST*
%ADD10C,0.120000*%
%ADD11C,2.700000*%
%ADD12C,1.700000*%
%ADD13C,4.000000*%
%ADD14C,2.200000*%
%ADD15C,3.050000*%
%ADD16C,3.800000*%
%ADD17C,0.650000*%
%ADD18O,1.000000X1.800000*%
%ADD19O,1.000000X2.100000*%
%ADD20C,1.500000*%
G04 APERTURE END LIST*
D10*
X233355000Y-64405000D02*
X247325000Y-64405000D01*
X233355000Y-78375000D02*
X233355000Y-64405000D01*
X247325000Y-64405000D02*
X247325000Y-78375000D01*
X247325000Y-78375000D02*
X233355000Y-78375000D01*
X176245000Y-138125000D02*
X190215000Y-138125000D01*
X176245000Y-152095000D02*
X176245000Y-138125000D01*
X190215000Y-138125000D02*
X190215000Y-152095000D01*
X190215000Y-152095000D02*
X176245000Y-152095000D01*
X138125000Y-69425000D02*
X152095000Y-69425000D01*
X138125000Y-83395000D02*
X138125000Y-69425000D01*
X152095000Y-69425000D02*
X152095000Y-83395000D01*
X152095000Y-83395000D02*
X138125000Y-83395000D01*
X233355000Y-121555000D02*
X247325000Y-121555000D01*
X233355000Y-135525000D02*
X233355000Y-121555000D01*
X247325000Y-121555000D02*
X247325000Y-135525000D01*
X247325000Y-135525000D02*
X233355000Y-135525000D01*
X138125000Y-145625000D02*
X152095000Y-145625000D01*
X138125000Y-159595000D02*
X138125000Y-145625000D01*
X152095000Y-145625000D02*
X152095000Y-159595000D01*
X152095000Y-159595000D02*
X138125000Y-159595000D01*
X233355000Y-140605000D02*
X247325000Y-140605000D01*
X233355000Y-154575000D02*
X233355000Y-140605000D01*
X247325000Y-140605000D02*
X247325000Y-154575000D01*
X247325000Y-154575000D02*
X233355000Y-154575000D01*
X176245000Y-100025000D02*
X190215000Y-100025000D01*
X176245000Y-113995000D02*
X176245000Y-100025000D01*
X190215000Y-100025000D02*
X190215000Y-113995000D01*
X190215000Y-113995000D02*
X176245000Y-113995000D01*
X276665258Y-175967237D02*
X289792764Y-180745258D01*
X271887237Y-189094743D02*
X276665258Y-175967237D01*
X289792764Y-180745258D02*
X285014743Y-193872764D01*
X285014743Y-193872764D02*
X271887237Y-189094743D01*
X233355000Y-102505000D02*
X247325000Y-102505000D01*
X233355000Y-116475000D02*
X233355000Y-102505000D01*
X247325000Y-102505000D02*
X247325000Y-116475000D01*
X247325000Y-116475000D02*
X233355000Y-116475000D01*
X195275000Y-97535000D02*
X209245000Y-97535000D01*
X195275000Y-111505000D02*
X195275000Y-97535000D01*
X209245000Y-97535000D02*
X209245000Y-111505000D01*
X209245000Y-111505000D02*
X195275000Y-111505000D01*
X195275000Y-78485000D02*
X209245000Y-78485000D01*
X195275000Y-92455000D02*
X195275000Y-78485000D01*
X209245000Y-78485000D02*
X209245000Y-92455000D01*
X209245000Y-92455000D02*
X195275000Y-92455000D01*
X214345000Y-61925000D02*
X228315000Y-61925000D01*
X214345000Y-75895000D02*
X214345000Y-61925000D01*
X228315000Y-61925000D02*
X228315000Y-75895000D01*
X228315000Y-75895000D02*
X214345000Y-75895000D01*
X214345000Y-119075000D02*
X228315000Y-119075000D01*
X214345000Y-133045000D02*
X214345000Y-119075000D01*
X228315000Y-119075000D02*
X228315000Y-133045000D01*
X228315000Y-133045000D02*
X214345000Y-133045000D01*
X138125000Y-126575000D02*
X152095000Y-126575000D01*
X138125000Y-140545000D02*
X138125000Y-126575000D01*
X152095000Y-126575000D02*
X152095000Y-140545000D01*
X152095000Y-140545000D02*
X138125000Y-140545000D01*
X157185000Y-66915000D02*
X171155000Y-66915000D01*
X157185000Y-80885000D02*
X157185000Y-66915000D01*
X171155000Y-66915000D02*
X171155000Y-80885000D01*
X171155000Y-80885000D02*
X157185000Y-80885000D01*
X195275000Y-59435000D02*
X209245000Y-59435000D01*
X195275000Y-73405000D02*
X195275000Y-59435000D01*
X209245000Y-59435000D02*
X209245000Y-73405000D01*
X209245000Y-73405000D02*
X195275000Y-73405000D01*
X157185000Y-105015000D02*
X171155000Y-105015000D01*
X157185000Y-118985000D02*
X157185000Y-105015000D01*
X171155000Y-105015000D02*
X171155000Y-118985000D01*
X171155000Y-118985000D02*
X157185000Y-118985000D01*
X113795000Y-88505000D02*
X127765000Y-88505000D01*
X113795000Y-102475000D02*
X113795000Y-88505000D01*
X127765000Y-88505000D02*
X127765000Y-102475000D01*
X127765000Y-102475000D02*
X113795000Y-102475000D01*
X119055000Y-145625000D02*
X133025000Y-145625000D01*
X119055000Y-159595000D02*
X119055000Y-145625000D01*
X133025000Y-145625000D02*
X133025000Y-159595000D01*
X133025000Y-159595000D02*
X119055000Y-159595000D01*
X232837153Y-184993245D02*
X237615174Y-171865739D01*
X245964659Y-189771266D02*
X232837153Y-184993245D01*
X237615174Y-171865739D02*
X250742680Y-176643760D01*
X250742680Y-176643760D02*
X245964659Y-189771266D01*
X214345000Y-138125000D02*
X228315000Y-138125000D01*
X214345000Y-152095000D02*
X214345000Y-138125000D01*
X228315000Y-138125000D02*
X228315000Y-152095000D01*
X228315000Y-152095000D02*
X214345000Y-152095000D01*
X138125000Y-88475000D02*
X152095000Y-88475000D01*
X138125000Y-102445000D02*
X138125000Y-88475000D01*
X152095000Y-88475000D02*
X152095000Y-102445000D01*
X152095000Y-102445000D02*
X138125000Y-102445000D01*
X113795000Y-107555000D02*
X127765000Y-107555000D01*
X113795000Y-121525000D02*
X113795000Y-107555000D01*
X127765000Y-107555000D02*
X127765000Y-121525000D01*
X127765000Y-121525000D02*
X113795000Y-121525000D01*
X270145258Y-193877237D02*
X283272764Y-198655258D01*
X265367237Y-207004743D02*
X270145258Y-193877237D01*
X283272764Y-198655258D02*
X278494743Y-211782764D01*
X278494743Y-211782764D02*
X265367237Y-207004743D01*
X176245000Y-119075000D02*
X190215000Y-119075000D01*
X176245000Y-133045000D02*
X176245000Y-119075000D01*
X190215000Y-119075000D02*
X190215000Y-133045000D01*
X190215000Y-133045000D02*
X176245000Y-133045000D01*
X250737237Y-191544743D02*
X255515258Y-178417237D01*
X263864743Y-196322764D02*
X250737237Y-191544743D01*
X255515258Y-178417237D02*
X268642764Y-183195258D01*
X268642764Y-183195258D02*
X263864743Y-196322764D01*
X157185000Y-85965000D02*
X171155000Y-85965000D01*
X157185000Y-99935000D02*
X157185000Y-85965000D01*
X171155000Y-85965000D02*
X171155000Y-99935000D01*
X171155000Y-99935000D02*
X157185000Y-99935000D01*
X176245000Y-61925000D02*
X190215000Y-61925000D01*
X176245000Y-75895000D02*
X176245000Y-61925000D01*
X190215000Y-61925000D02*
X190215000Y-75895000D01*
X190215000Y-75895000D02*
X176245000Y-75895000D01*
X214345000Y-80975000D02*
X228315000Y-80975000D01*
X214345000Y-94945000D02*
X214345000Y-80975000D01*
X228315000Y-80975000D02*
X228315000Y-94945000D01*
X228315000Y-94945000D02*
X214345000Y-94945000D01*
X113795000Y-69455000D02*
X127765000Y-69455000D01*
X113795000Y-83425000D02*
X113795000Y-69455000D01*
X127765000Y-69455000D02*
X127765000Y-83425000D01*
X127765000Y-83425000D02*
X113795000Y-83425000D01*
X283158896Y-158094699D02*
X296286402Y-162872720D01*
X278380875Y-171222205D02*
X283158896Y-158094699D01*
X296286402Y-162872720D02*
X291508381Y-176000226D01*
X291508381Y-176000226D02*
X278380875Y-171222205D01*
X195275000Y-116585000D02*
X209245000Y-116585000D01*
X195275000Y-130555000D02*
X195275000Y-116585000D01*
X209245000Y-116585000D02*
X209245000Y-130555000D01*
X209245000Y-130555000D02*
X195275000Y-130555000D01*
X157185000Y-143115000D02*
X171155000Y-143115000D01*
X157185000Y-157085000D02*
X157185000Y-143115000D01*
X171155000Y-143115000D02*
X171155000Y-157085000D01*
X171155000Y-157085000D02*
X157185000Y-157085000D01*
X195275000Y-135635000D02*
X209245000Y-135635000D01*
X195275000Y-149605000D02*
X195275000Y-135635000D01*
X209245000Y-135635000D02*
X209245000Y-149605000D01*
X209245000Y-149605000D02*
X195275000Y-149605000D01*
X157185000Y-124065000D02*
X171155000Y-124065000D01*
X157185000Y-138035000D02*
X157185000Y-124065000D01*
X171155000Y-124065000D02*
X171155000Y-138035000D01*
X171155000Y-138035000D02*
X157185000Y-138035000D01*
X176245000Y-80975000D02*
X190215000Y-80975000D01*
X176245000Y-94945000D02*
X176245000Y-80975000D01*
X190215000Y-80975000D02*
X190215000Y-94945000D01*
X190215000Y-94945000D02*
X176245000Y-94945000D01*
X138125000Y-107525000D02*
X152095000Y-107525000D01*
X138125000Y-121495000D02*
X138125000Y-107525000D01*
X152095000Y-107525000D02*
X152095000Y-121495000D01*
X152095000Y-121495000D02*
X138125000Y-121495000D01*
X113795000Y-126605000D02*
X127765000Y-126605000D01*
X113795000Y-140575000D02*
X113795000Y-126605000D01*
X127765000Y-126605000D02*
X127765000Y-140575000D01*
X127765000Y-140575000D02*
X113795000Y-140575000D01*
X214345000Y-100025000D02*
X228315000Y-100025000D01*
X214345000Y-113995000D02*
X214345000Y-100025000D01*
X228315000Y-100025000D02*
X228315000Y-113995000D01*
X228315000Y-113995000D02*
X214345000Y-113995000D01*
X233355000Y-83455000D02*
X247325000Y-83455000D01*
X233355000Y-97425000D02*
X233355000Y-83455000D01*
X247325000Y-83455000D02*
X247325000Y-97425000D01*
X247325000Y-97425000D02*
X233355000Y-97425000D01*
X265275258Y-151572237D02*
X278402764Y-156350258D01*
X260497237Y-164699743D02*
X265275258Y-151572237D01*
X278402764Y-156350258D02*
X273624743Y-169477764D01*
X273624743Y-169477764D02*
X260497237Y-164699743D01*
%LPC*%
D11*
X110720000Y-158650000D03*
D12*
X235260000Y-71390000D03*
D13*
X240340000Y-71390000D03*
D12*
X245420000Y-71390000D03*
D14*
X242880000Y-66310000D03*
X236530000Y-68850000D03*
D12*
X178150000Y-145110000D03*
D13*
X183230000Y-145110000D03*
D12*
X188310000Y-145110000D03*
D14*
X185770000Y-140030000D03*
X179420000Y-142570000D03*
D12*
X140030000Y-76410000D03*
D13*
X145110000Y-76410000D03*
D12*
X150190000Y-76410000D03*
D14*
X147650000Y-71330000D03*
X141300000Y-73870000D03*
D12*
X235260000Y-128540000D03*
D13*
X240340000Y-128540000D03*
D12*
X245420000Y-128540000D03*
D14*
X242880000Y-123460000D03*
X236530000Y-126000000D03*
D12*
X140030000Y-152610000D03*
D13*
X145110000Y-152610000D03*
D12*
X150190000Y-152610000D03*
D14*
X147650000Y-147530000D03*
X141300000Y-150070000D03*
D12*
X235260000Y-147590000D03*
D13*
X240340000Y-147590000D03*
D12*
X245420000Y-147590000D03*
D14*
X242880000Y-142510000D03*
X236530000Y-145050000D03*
D12*
X178150000Y-107010000D03*
D13*
X183230000Y-107010000D03*
D12*
X188310000Y-107010000D03*
D14*
X185770000Y-101930000D03*
X179420000Y-104470000D03*
D12*
X276066362Y-183182538D03*
D13*
X280840000Y-184920000D03*
D12*
X285613639Y-186657463D03*
D14*
X284964282Y-181015093D03*
X278128503Y-181230084D03*
D12*
X235260000Y-109490000D03*
D13*
X240340000Y-109490000D03*
D12*
X245420000Y-109490000D03*
D14*
X242880000Y-104410000D03*
X236530000Y-106950000D03*
D12*
X197180000Y-104520000D03*
D13*
X202260000Y-104520000D03*
D12*
X207340000Y-104520000D03*
D14*
X204800000Y-99440000D03*
X198450000Y-101980000D03*
D12*
X197180000Y-85470000D03*
D13*
X202260000Y-85470000D03*
D12*
X207340000Y-85470000D03*
D14*
X204800000Y-80390000D03*
X198450000Y-82930000D03*
D12*
X216250000Y-68910000D03*
D13*
X221330000Y-68910000D03*
D12*
X226410000Y-68910000D03*
D14*
X223870000Y-63830000D03*
X217520000Y-66370000D03*
D12*
X216250000Y-126060000D03*
D13*
X221330000Y-126060000D03*
D12*
X226410000Y-126060000D03*
D14*
X223870000Y-120980000D03*
X217520000Y-123520000D03*
D12*
X140030000Y-133560000D03*
D13*
X145110000Y-133560000D03*
D12*
X150190000Y-133560000D03*
D14*
X147650000Y-128480000D03*
X141300000Y-131020000D03*
D12*
X159090000Y-73900000D03*
D13*
X164170000Y-73900000D03*
D12*
X169250000Y-73900000D03*
D14*
X166710000Y-68820000D03*
X160360000Y-71360000D03*
D12*
X197180000Y-66420000D03*
D13*
X202260000Y-66420000D03*
D12*
X207340000Y-66420000D03*
D14*
X204800000Y-61340000D03*
X198450000Y-63880000D03*
D12*
X159090000Y-112000000D03*
D13*
X164170000Y-112000000D03*
D12*
X169250000Y-112000000D03*
D14*
X166710000Y-106920000D03*
X160360000Y-109460000D03*
D12*
X115700000Y-95490000D03*
D13*
X120780000Y-95490000D03*
D12*
X125860000Y-95490000D03*
D14*
X123320000Y-90410000D03*
X116970000Y-92950000D03*
D12*
X120960000Y-152610000D03*
D13*
X126040000Y-152610000D03*
D12*
X131120000Y-152610000D03*
D14*
X128580000Y-147530000D03*
X122230000Y-150070000D03*
D15*
X231142028Y-189606704D03*
D13*
X245462944Y-194819091D03*
D12*
X240052454Y-185592141D03*
D13*
X241789916Y-180818503D03*
D12*
X243527379Y-176044864D03*
D15*
X239282108Y-167242019D03*
D13*
X253603023Y-172454406D03*
D14*
X237885009Y-176694221D03*
X238100000Y-183530000D03*
D12*
X216250000Y-145110000D03*
D13*
X221330000Y-145110000D03*
D12*
X226410000Y-145110000D03*
D14*
X223870000Y-140030000D03*
X217520000Y-142570000D03*
D12*
X140030000Y-95460000D03*
D13*
X145110000Y-95460000D03*
D12*
X150190000Y-95460000D03*
D14*
X147650000Y-90380000D03*
X141300000Y-92920000D03*
D12*
X115700000Y-114540000D03*
D13*
X120780000Y-114540000D03*
D12*
X125860000Y-114540000D03*
D14*
X123320000Y-109460000D03*
X116970000Y-112000000D03*
D12*
X269546362Y-201092538D03*
D13*
X274320000Y-202830000D03*
D12*
X279093639Y-204567463D03*
D14*
X278444282Y-198925093D03*
X271608503Y-199140084D03*
D12*
X178150000Y-126060000D03*
D13*
X183230000Y-126060000D03*
D12*
X188310000Y-126060000D03*
D14*
X185770000Y-120980000D03*
X179420000Y-123520000D03*
D15*
X249042112Y-196158202D03*
D13*
X263363028Y-201370589D03*
D12*
X257952538Y-192143639D03*
D13*
X259690000Y-187370001D03*
D12*
X261427463Y-182596362D03*
D15*
X257182192Y-173793517D03*
D13*
X271503107Y-179005904D03*
D14*
X255785093Y-183245719D03*
X256000084Y-190081498D03*
D12*
X159090000Y-92950000D03*
D13*
X164170000Y-92950000D03*
D12*
X169250000Y-92950000D03*
D14*
X166710000Y-87870000D03*
X160360000Y-90410000D03*
D12*
X178150000Y-68910000D03*
D13*
X183230000Y-68910000D03*
D12*
X188310000Y-68910000D03*
D14*
X185770000Y-63830000D03*
X179420000Y-66370000D03*
D12*
X216250000Y-87960000D03*
D13*
X221330000Y-87960000D03*
D12*
X226410000Y-87960000D03*
D14*
X223870000Y-82880000D03*
X217520000Y-85420000D03*
D12*
X115700000Y-76440000D03*
D13*
X120780000Y-76440000D03*
D12*
X125860000Y-76440000D03*
D14*
X123320000Y-71360000D03*
X116970000Y-73900000D03*
D12*
X282560000Y-165310000D03*
D13*
X287333638Y-167047462D03*
D12*
X292107277Y-168784925D03*
D14*
X291457920Y-163142555D03*
X284622141Y-163357546D03*
D12*
X197180000Y-123570000D03*
D13*
X202260000Y-123570000D03*
D12*
X207340000Y-123570000D03*
D14*
X204800000Y-118490000D03*
X198450000Y-121030000D03*
D12*
X159090000Y-150100000D03*
D13*
X164170000Y-150100000D03*
D12*
X169250000Y-150100000D03*
D14*
X166710000Y-145020000D03*
X160360000Y-147560000D03*
D12*
X197180000Y-142620000D03*
D13*
X202260000Y-142620000D03*
D12*
X207340000Y-142620000D03*
D14*
X204800000Y-137540000D03*
X198450000Y-140080000D03*
D12*
X159090000Y-131050000D03*
D13*
X164170000Y-131050000D03*
D12*
X169250000Y-131050000D03*
D14*
X166710000Y-125970000D03*
X160360000Y-128510000D03*
D12*
X178150000Y-87960000D03*
D13*
X183230000Y-87960000D03*
D12*
X188310000Y-87960000D03*
D14*
X185770000Y-82880000D03*
X179420000Y-85420000D03*
D12*
X140030000Y-114510000D03*
D13*
X145110000Y-114510000D03*
D12*
X150190000Y-114510000D03*
D14*
X147650000Y-109430000D03*
X141300000Y-111970000D03*
D12*
X115700000Y-133590000D03*
D13*
X120780000Y-133590000D03*
D12*
X125860000Y-133590000D03*
D14*
X123320000Y-128510000D03*
X116970000Y-131050000D03*
D12*
X216250000Y-107010000D03*
D13*
X221330000Y-107010000D03*
D12*
X226410000Y-107010000D03*
D14*
X223870000Y-101930000D03*
X217520000Y-104470000D03*
D12*
X235260000Y-90440000D03*
D13*
X240340000Y-90440000D03*
D12*
X245420000Y-90440000D03*
D14*
X242880000Y-85360000D03*
X236530000Y-87900000D03*
D12*
X264676362Y-158787538D03*
D13*
X269450000Y-160525000D03*
D12*
X274223639Y-162262463D03*
D14*
X273574282Y-156620093D03*
X266738503Y-156835084D03*
D11*
X110020000Y-85950000D03*
X292820000Y-179150000D03*
X155620000Y-121650000D03*
X193720000Y-95050000D03*
X249020000Y-119150000D03*
X259520000Y-157250000D03*
D16*
X252590000Y-148906000D03*
D11*
X193320000Y-133350000D03*
D16*
X125844000Y-58228000D03*
D11*
X153920000Y-60750000D03*
D17*
X237420000Y-59260000D03*
X243200000Y-59260000D03*
D18*
X235990000Y-55580000D03*
D19*
X235990000Y-59780000D03*
D18*
X244630000Y-55580000D03*
D19*
X244630000Y-59780000D03*
D11*
X248920000Y-57850000D03*
D16*
X117716000Y-58228000D03*
X109480000Y-58190000D03*
X259702000Y-151700000D03*
D20*
X250580000Y-78980000D03*
X243580000Y-78980000D03*
D11*
X235120000Y-163150000D03*
X226620000Y-194850000D03*
D16*
X133972000Y-58228000D03*
%LPD*%
M02*
