M48
; DRILL file {KiCad 7.0.5} date Wed Jan  8 15:51:51 2025
; FORMAT={-:-/ absolute / metric / decimal}
; #@! TF.CreationDate,2025-01-08T15:51:51-05:00
; #@! TF.GenerationSoftware,Kicad,Pcbnew,7.0.5
; #@! TF.FileFunction,Plated,1,2,PTH
FMAT,2
METRIC
; #@! TA.AperFunction,Plated,PTH,ViaDrill
T1C0.400
; #@! TA.AperFunction,Plated,PTH,ComponentDrill
T2C0.600
; #@! TA.AperFunction,Plated,PTH,ComponentDrill
T3C1.500
; #@! TA.AperFunction,Plated,PTH,ComponentDrill
T4C2.200
%
G90
G05
T1
X111.92Y-90.41
X112.16Y-128.75
X112.33Y-109.48
X120.19Y-156.91
X120.2Y-161.064
X139.08Y-161.739
X139.13Y-156.99
X157.76Y-162.413
X158.14Y-154.59
X175.86Y-151.88
X191.89Y-149.73
X191.89Y-152.41
X195.58Y-149.22
X196.86Y-156.89
X198.1Y-162.45
X201.05Y-149.34
X201.26Y-158.344
X202.27Y-158.95
X203.67Y-145.1
X203.67Y-147.71
X205.55Y-147.68
X205.91Y-162.51
X206.365Y-150.48
X206.489Y-147.336
X208.262Y-161.818
X208.904Y-150.334
X209.53Y-146.99
X210.191Y-147.865
X210.488Y-158.32
X211.03Y-143.72
X211.233Y-149.984
X211.39Y-61.85
X211.69Y-152.08
X212.03Y-143.8
X212.32Y-149.214
X212.32Y-162.91
X212.59Y-61.86
X212.78Y-151.349
X212.891Y-150.356
X213.11Y-153.964
X214.67Y-99.96
X214.7Y-96.87
X214.762Y-150.933
X216.16Y-157.095
X216.93Y-151.56
X217.384Y-154.639
X217.61Y-156.76
X218.026Y-155.404
X218.55Y-152.425
X218.55Y-162.02
X218.83Y-156.65
X220.276Y-156.158
X221.38Y-156.132
X221.69Y-160.39
X222.378Y-156.191
X222.455Y-161.034
X223.249Y-161.64
X223.92Y-162.877
X226.535Y-161.896
X231.3Y-162.3
X231.5Y-157.065
X232.67Y-99.34
X232.72Y-97.41
X235.84Y-63.57
X238.825Y-64.99
X239.68Y-65.635
X240.76Y-64.95
X241.45Y-99.66
X243.07Y-73.38
X243.77Y-189.18
X244.17Y-61.91
X244.28Y-155.74
X245.1Y-63.62
X247.2Y-102.72
X248.07Y-161.69
X248.26Y-153.195
X248.43Y-142.59
X248.69Y-64.25
X249.43Y-142.59
X250.53Y-102.85
X252.0Y-162.576
X254.825Y-159.43
X261.78Y-195.63
X264.6Y-206.27
T3
X116.97Y-73.9
X116.97Y-92.95
X116.97Y-112.0
X116.97Y-131.05
X122.23Y-150.07
X123.32Y-71.36
X123.32Y-90.41
X123.32Y-109.46
X123.32Y-128.51
X128.58Y-147.53
X141.3Y-73.87
X141.3Y-92.92
X141.3Y-111.97
X141.3Y-131.02
X141.3Y-150.07
X147.65Y-71.33
X147.65Y-90.38
X147.65Y-109.43
X147.65Y-128.48
X147.65Y-147.53
X160.36Y-71.36
X160.36Y-90.41
X160.36Y-109.46
X160.36Y-128.51
X160.36Y-147.56
X166.71Y-68.82
X166.71Y-87.87
X166.71Y-106.92
X166.71Y-125.97
X166.71Y-145.02
X179.42Y-66.37
X179.42Y-85.42
X179.42Y-104.47
X179.42Y-123.52
X179.42Y-142.57
X185.77Y-63.83
X185.77Y-82.88
X185.77Y-101.93
X185.77Y-120.98
X185.77Y-140.03
X198.45Y-63.88
X198.45Y-82.93
X198.45Y-101.98
X198.45Y-121.03
X198.45Y-140.08
X204.8Y-61.34
X204.8Y-80.39
X204.8Y-99.44
X204.8Y-118.49
X204.8Y-137.54
X217.52Y-66.37
X217.52Y-85.42
X217.52Y-104.47
X217.52Y-123.52
X217.52Y-142.57
X223.87Y-63.83
X223.87Y-82.88
X223.87Y-101.93
X223.87Y-120.98
X223.87Y-140.03
X236.53Y-68.85
X236.53Y-87.9
X236.53Y-106.95
X236.53Y-126.0
X236.53Y-145.05
X237.885Y-176.694
X238.1Y-183.53
X242.88Y-66.31
X242.88Y-85.36
X242.88Y-104.41
X242.88Y-123.46
X242.88Y-142.51
X255.785Y-183.246
X256.0Y-190.081
X266.739Y-156.835
X271.609Y-199.14
X273.574Y-156.62
X278.129Y-181.23
X278.444Y-198.925
X284.622Y-163.358
X284.964Y-181.015
X291.458Y-163.143
T4
X109.48Y-58.19
X117.716Y-58.228
X125.844Y-58.228
X133.972Y-58.228
X252.59Y-148.906
X259.702Y-151.7
T2
X235.99Y-55.18G85X235.99Y-55.98
G05
X235.99Y-59.23G85X235.99Y-60.33
G05
X244.63Y-55.18G85X244.63Y-55.98
G05
X244.63Y-59.23G85X244.63Y-60.33
G05
T0
M30
