G04 #@! TF.GenerationSoftware,KiCad,Pcbnew,7.0.5*
G04 #@! TF.CreationDate,2025-01-08T15:51:09-05:00*
G04 #@! TF.ProjectId,JasonSplitErgoKeyboard_Left,4a61736f-6e53-4706-9c69-744572676f4b,rev?*
G04 #@! TF.SameCoordinates,Original*
G04 #@! TF.FileFunction,Soldermask,Top*
G04 #@! TF.FilePolarity,Negative*
%FSLAX46Y46*%
G04 Gerber Fmt 4.6, Leading zero omitted, Abs format (unit mm)*
G04 Created by KiCad (PCBNEW 7.0.5) date 2025-01-08 15:51:09*
%MOMM*%
%LPD*%
G01*
G04 APERTURE LIST*
%ADD10C,2.700000*%
%ADD11C,1.700000*%
%ADD12C,4.000000*%
%ADD13C,2.200000*%
%ADD14C,3.050000*%
%ADD15C,3.800000*%
%ADD16C,0.650000*%
%ADD17O,1.000000X1.800000*%
%ADD18O,1.000000X2.100000*%
%ADD19C,1.500000*%
G04 APERTURE END LIST*
D10*
X110720000Y-158650000D03*
D11*
X235260000Y-71390000D03*
D12*
X240340000Y-71390000D03*
D11*
X245420000Y-71390000D03*
D13*
X242880000Y-66310000D03*
X236530000Y-68850000D03*
D11*
X178150000Y-145110000D03*
D12*
X183230000Y-145110000D03*
D11*
X188310000Y-145110000D03*
D13*
X185770000Y-140030000D03*
X179420000Y-142570000D03*
D11*
X140030000Y-76410000D03*
D12*
X145110000Y-76410000D03*
D11*
X150190000Y-76410000D03*
D13*
X147650000Y-71330000D03*
X141300000Y-73870000D03*
D11*
X235260000Y-128540000D03*
D12*
X240340000Y-128540000D03*
D11*
X245420000Y-128540000D03*
D13*
X242880000Y-123460000D03*
X236530000Y-126000000D03*
D11*
X140030000Y-152610000D03*
D12*
X145110000Y-152610000D03*
D11*
X150190000Y-152610000D03*
D13*
X147650000Y-147530000D03*
X141300000Y-150070000D03*
D11*
X235260000Y-147590000D03*
D12*
X240340000Y-147590000D03*
D11*
X245420000Y-147590000D03*
D13*
X242880000Y-142510000D03*
X236530000Y-145050000D03*
D11*
X178150000Y-107010000D03*
D12*
X183230000Y-107010000D03*
D11*
X188310000Y-107010000D03*
D13*
X185770000Y-101930000D03*
X179420000Y-104470000D03*
D11*
X276066362Y-183182538D03*
D12*
X280840000Y-184920000D03*
D11*
X285613639Y-186657463D03*
D13*
X284964282Y-181015093D03*
X278128503Y-181230084D03*
D11*
X235260000Y-109490000D03*
D12*
X240340000Y-109490000D03*
D11*
X245420000Y-109490000D03*
D13*
X242880000Y-104410000D03*
X236530000Y-106950000D03*
D11*
X197180000Y-104520000D03*
D12*
X202260000Y-104520000D03*
D11*
X207340000Y-104520000D03*
D13*
X204800000Y-99440000D03*
X198450000Y-101980000D03*
D11*
X197180000Y-85470000D03*
D12*
X202260000Y-85470000D03*
D11*
X207340000Y-85470000D03*
D13*
X204800000Y-80390000D03*
X198450000Y-82930000D03*
D11*
X216250000Y-68910000D03*
D12*
X221330000Y-68910000D03*
D11*
X226410000Y-68910000D03*
D13*
X223870000Y-63830000D03*
X217520000Y-66370000D03*
D11*
X216250000Y-126060000D03*
D12*
X221330000Y-126060000D03*
D11*
X226410000Y-126060000D03*
D13*
X223870000Y-120980000D03*
X217520000Y-123520000D03*
D11*
X140030000Y-133560000D03*
D12*
X145110000Y-133560000D03*
D11*
X150190000Y-133560000D03*
D13*
X147650000Y-128480000D03*
X141300000Y-131020000D03*
D11*
X159090000Y-73900000D03*
D12*
X164170000Y-73900000D03*
D11*
X169250000Y-73900000D03*
D13*
X166710000Y-68820000D03*
X160360000Y-71360000D03*
D11*
X197180000Y-66420000D03*
D12*
X202260000Y-66420000D03*
D11*
X207340000Y-66420000D03*
D13*
X204800000Y-61340000D03*
X198450000Y-63880000D03*
D11*
X159090000Y-112000000D03*
D12*
X164170000Y-112000000D03*
D11*
X169250000Y-112000000D03*
D13*
X166710000Y-106920000D03*
X160360000Y-109460000D03*
D11*
X115700000Y-95490000D03*
D12*
X120780000Y-95490000D03*
D11*
X125860000Y-95490000D03*
D13*
X123320000Y-90410000D03*
X116970000Y-92950000D03*
D11*
X120960000Y-152610000D03*
D12*
X126040000Y-152610000D03*
D11*
X131120000Y-152610000D03*
D13*
X128580000Y-147530000D03*
X122230000Y-150070000D03*
D14*
X231142028Y-189606704D03*
D12*
X245462944Y-194819091D03*
D11*
X240052454Y-185592141D03*
D12*
X241789916Y-180818503D03*
D11*
X243527379Y-176044864D03*
D14*
X239282108Y-167242019D03*
D12*
X253603023Y-172454406D03*
D13*
X237885009Y-176694221D03*
X238100000Y-183530000D03*
D11*
X216250000Y-145110000D03*
D12*
X221330000Y-145110000D03*
D11*
X226410000Y-145110000D03*
D13*
X223870000Y-140030000D03*
X217520000Y-142570000D03*
D11*
X140030000Y-95460000D03*
D12*
X145110000Y-95460000D03*
D11*
X150190000Y-95460000D03*
D13*
X147650000Y-90380000D03*
X141300000Y-92920000D03*
D11*
X115700000Y-114540000D03*
D12*
X120780000Y-114540000D03*
D11*
X125860000Y-114540000D03*
D13*
X123320000Y-109460000D03*
X116970000Y-112000000D03*
D11*
X269546362Y-201092538D03*
D12*
X274320000Y-202830000D03*
D11*
X279093639Y-204567463D03*
D13*
X278444282Y-198925093D03*
X271608503Y-199140084D03*
D11*
X178150000Y-126060000D03*
D12*
X183230000Y-126060000D03*
D11*
X188310000Y-126060000D03*
D13*
X185770000Y-120980000D03*
X179420000Y-123520000D03*
D14*
X249042112Y-196158202D03*
D12*
X263363028Y-201370589D03*
D11*
X257952538Y-192143639D03*
D12*
X259690000Y-187370001D03*
D11*
X261427463Y-182596362D03*
D14*
X257182192Y-173793517D03*
D12*
X271503107Y-179005904D03*
D13*
X255785093Y-183245719D03*
X256000084Y-190081498D03*
D11*
X159090000Y-92950000D03*
D12*
X164170000Y-92950000D03*
D11*
X169250000Y-92950000D03*
D13*
X166710000Y-87870000D03*
X160360000Y-90410000D03*
D11*
X178150000Y-68910000D03*
D12*
X183230000Y-68910000D03*
D11*
X188310000Y-68910000D03*
D13*
X185770000Y-63830000D03*
X179420000Y-66370000D03*
D11*
X216250000Y-87960000D03*
D12*
X221330000Y-87960000D03*
D11*
X226410000Y-87960000D03*
D13*
X223870000Y-82880000D03*
X217520000Y-85420000D03*
D11*
X115700000Y-76440000D03*
D12*
X120780000Y-76440000D03*
D11*
X125860000Y-76440000D03*
D13*
X123320000Y-71360000D03*
X116970000Y-73900000D03*
D11*
X282560000Y-165310000D03*
D12*
X287333638Y-167047462D03*
D11*
X292107277Y-168784925D03*
D13*
X291457920Y-163142555D03*
X284622141Y-163357546D03*
D11*
X197180000Y-123570000D03*
D12*
X202260000Y-123570000D03*
D11*
X207340000Y-123570000D03*
D13*
X204800000Y-118490000D03*
X198450000Y-121030000D03*
D11*
X159090000Y-150100000D03*
D12*
X164170000Y-150100000D03*
D11*
X169250000Y-150100000D03*
D13*
X166710000Y-145020000D03*
X160360000Y-147560000D03*
D11*
X197180000Y-142620000D03*
D12*
X202260000Y-142620000D03*
D11*
X207340000Y-142620000D03*
D13*
X204800000Y-137540000D03*
X198450000Y-140080000D03*
D11*
X159090000Y-131050000D03*
D12*
X164170000Y-131050000D03*
D11*
X169250000Y-131050000D03*
D13*
X166710000Y-125970000D03*
X160360000Y-128510000D03*
D11*
X178150000Y-87960000D03*
D12*
X183230000Y-87960000D03*
D11*
X188310000Y-87960000D03*
D13*
X185770000Y-82880000D03*
X179420000Y-85420000D03*
D11*
X140030000Y-114510000D03*
D12*
X145110000Y-114510000D03*
D11*
X150190000Y-114510000D03*
D13*
X147650000Y-109430000D03*
X141300000Y-111970000D03*
D11*
X115700000Y-133590000D03*
D12*
X120780000Y-133590000D03*
D11*
X125860000Y-133590000D03*
D13*
X123320000Y-128510000D03*
X116970000Y-131050000D03*
D11*
X216250000Y-107010000D03*
D12*
X221330000Y-107010000D03*
D11*
X226410000Y-107010000D03*
D13*
X223870000Y-101930000D03*
X217520000Y-104470000D03*
D11*
X235260000Y-90440000D03*
D12*
X240340000Y-90440000D03*
D11*
X245420000Y-90440000D03*
D13*
X242880000Y-85360000D03*
X236530000Y-87900000D03*
D11*
X264676362Y-158787538D03*
D12*
X269450000Y-160525000D03*
D11*
X274223639Y-162262463D03*
D13*
X273574282Y-156620093D03*
X266738503Y-156835084D03*
D10*
X110020000Y-85950000D03*
X292820000Y-179150000D03*
X155620000Y-121650000D03*
X193720000Y-95050000D03*
X249020000Y-119150000D03*
X259520000Y-157250000D03*
D15*
X252590000Y-148906000D03*
D10*
X193320000Y-133350000D03*
D15*
X125844000Y-58228000D03*
D10*
X153920000Y-60750000D03*
D16*
X237420000Y-59260000D03*
X243200000Y-59260000D03*
D17*
X235990000Y-55580000D03*
D18*
X235990000Y-59780000D03*
D17*
X244630000Y-55580000D03*
D18*
X244630000Y-59780000D03*
D10*
X248920000Y-57850000D03*
D15*
X117716000Y-58228000D03*
X109480000Y-58190000D03*
X259702000Y-151700000D03*
D19*
X250580000Y-78980000D03*
X243580000Y-78980000D03*
D10*
X235120000Y-163150000D03*
X226620000Y-194850000D03*
D15*
X133972000Y-58228000D03*
M02*
