%TF.GenerationSoftware,KiCad,Pcbnew,7.0.5*%
%TF.CreationDate,2025-01-08T15:51:52-05:00*%
%TF.ProjectId,JasonSplitErgoKeyboard_Left,4a61736f-6e53-4706-9c69-744572676f4b,rev?*%
%TF.SameCoordinates,Original*%
%TF.FileFunction,Drillmap*%
%TF.FilePolarity,Positive*%
%FSLAX45Y45*%
G04 Gerber Fmt 4.5, Leading zero omitted, Abs format (unit mm)*
G04 Created by KiCad (PCBNEW 7.0.5) date 2025-01-08 15:51:52*
%MOMM*%
%LPD*%
G01*
G04 APERTURE LIST*
%ADD10C,0.100000*%
%ADD11C,0.200000*%
%ADD12C,0.040000*%
%ADD13C,0.060000*%
%ADD14C,0.150000*%
%ADD15C,0.220000*%
G04 APERTURE END LIST*
D10*
X22070007Y-19620000D02*
G75*
G03*
X22136474Y-19720000I108443J-10D01*
G01*
X25219999Y-5490711D02*
G75*
G03*
X25120000Y-5390711I-99999J1D01*
G01*
X23190000Y-16540000D02*
G75*
G03*
X23090000Y-16440000I-100000J0D01*
G01*
X28052000Y-21890000D02*
G75*
G03*
X28197612Y-21811122I40000J100000D01*
G01*
X22070000Y-19620000D02*
X23190000Y-16540000D01*
X28052000Y-21890000D02*
X22136474Y-19720000D01*
X30260000Y-16200000D02*
G75*
G03*
X30180000Y-16080000I-100000J20000D01*
G01*
X10580000Y-5390710D02*
G75*
G03*
X10480000Y-5490711I0J-100000D01*
G01*
X25220000Y-5490711D02*
X25220000Y-14262624D01*
X10480000Y-16340000D02*
G75*
G03*
X10580000Y-16440000I100000J0D01*
G01*
X23090000Y-16440000D02*
X10580000Y-16440000D01*
X10480000Y-5490711D02*
X10480000Y-16340000D01*
X28197612Y-21811122D02*
X30260000Y-16200000D01*
X25283578Y-14320000D02*
X30180000Y-16080000D01*
X10580000Y-5390711D02*
X25120000Y-5390711D01*
X25220000Y-14262624D02*
G75*
G03*
X25283578Y-14320000I80000J24734D01*
G01*
D11*
D12*
X11172000Y-9021000D02*
X11212000Y-9061000D01*
X11212000Y-9021000D02*
X11172000Y-9061000D01*
X11196000Y-12855000D02*
X11236000Y-12895000D01*
X11236000Y-12855000D02*
X11196000Y-12895000D01*
X11213000Y-10928000D02*
X11253000Y-10968000D01*
X11253000Y-10928000D02*
X11213000Y-10968000D01*
X11999000Y-15671000D02*
X12039000Y-15711000D01*
X12039000Y-15671000D02*
X11999000Y-15711000D01*
X12000000Y-16086450D02*
X12040000Y-16126450D01*
X12040000Y-16086450D02*
X12000000Y-16126450D01*
X13888000Y-16153900D02*
X13928000Y-16193900D01*
X13928000Y-16153900D02*
X13888000Y-16193900D01*
X13893000Y-15679000D02*
X13933000Y-15719000D01*
X13933000Y-15679000D02*
X13893000Y-15719000D01*
X15756000Y-16221350D02*
X15796000Y-16261350D01*
X15796000Y-16221350D02*
X15756000Y-16261350D01*
X15794000Y-15439000D02*
X15834000Y-15479000D01*
X15834000Y-15439000D02*
X15794000Y-15479000D01*
X17566000Y-15168000D02*
X17606000Y-15208000D01*
X17606000Y-15168000D02*
X17566000Y-15208000D01*
X19169000Y-14953000D02*
X19209000Y-14993000D01*
X19209000Y-14953000D02*
X19169000Y-14993000D01*
X19169000Y-15221000D02*
X19209000Y-15261000D01*
X19209000Y-15221000D02*
X19169000Y-15261000D01*
X19538000Y-14902000D02*
X19578000Y-14942000D01*
X19578000Y-14902000D02*
X19538000Y-14942000D01*
X19666000Y-15669000D02*
X19706000Y-15709000D01*
X19706000Y-15669000D02*
X19666000Y-15709000D01*
X19790000Y-16225000D02*
X19830000Y-16265000D01*
X19830000Y-16225000D02*
X19790000Y-16265000D01*
X20085000Y-14914000D02*
X20125000Y-14954000D01*
X20125000Y-14914000D02*
X20085000Y-14954000D01*
X20105986Y-15814450D02*
X20145986Y-15854450D01*
X20145986Y-15814450D02*
X20105986Y-15854450D01*
X20207000Y-15875000D02*
X20247000Y-15915000D01*
X20247000Y-15875000D02*
X20207000Y-15915000D01*
X20347000Y-14490000D02*
X20387000Y-14530000D01*
X20387000Y-14490000D02*
X20347000Y-14530000D01*
X20347000Y-14751000D02*
X20387000Y-14791000D01*
X20387000Y-14751000D02*
X20347000Y-14791000D01*
X20535000Y-14748000D02*
X20575000Y-14788000D01*
X20575000Y-14748000D02*
X20535000Y-14788000D01*
X20571000Y-16231000D02*
X20611000Y-16271000D01*
X20611000Y-16231000D02*
X20571000Y-16271000D01*
X20616550Y-15028047D02*
X20656550Y-15068047D01*
X20656550Y-15028047D02*
X20616550Y-15068047D01*
X20628855Y-14713630D02*
X20668855Y-14753630D01*
X20668855Y-14713630D02*
X20628855Y-14753630D01*
X20806161Y-16161839D02*
X20846161Y-16201839D01*
X20846161Y-16161839D02*
X20806161Y-16201839D01*
X20870450Y-15013400D02*
X20910450Y-15053400D01*
X20910450Y-15013400D02*
X20870450Y-15053400D01*
X20933000Y-14679000D02*
X20973000Y-14719000D01*
X20973000Y-14679000D02*
X20933000Y-14719000D01*
X20999087Y-14766550D02*
X21039087Y-14806550D01*
X21039087Y-14766550D02*
X20999087Y-14806550D01*
X21028825Y-15811999D02*
X21068825Y-15851999D01*
X21068825Y-15811999D02*
X21028825Y-15851999D01*
X21083000Y-14352000D02*
X21123000Y-14392000D01*
X21123000Y-14352000D02*
X21083000Y-14392000D01*
X21103251Y-14978400D02*
X21143251Y-15018400D01*
X21143251Y-14978400D02*
X21103251Y-15018400D01*
X21119000Y-6165000D02*
X21159000Y-6205000D01*
X21159000Y-6165000D02*
X21119000Y-6205000D01*
X21149000Y-15188000D02*
X21189000Y-15228000D01*
X21189000Y-15188000D02*
X21149000Y-15228000D01*
X21183000Y-14360000D02*
X21223000Y-14400000D01*
X21223000Y-14360000D02*
X21183000Y-14400000D01*
X21212000Y-14901450D02*
X21252000Y-14941450D01*
X21252000Y-14901450D02*
X21212000Y-14941450D01*
X21212000Y-16271000D02*
X21252000Y-16311000D01*
X21252000Y-16271000D02*
X21212000Y-16311000D01*
X21239000Y-6166000D02*
X21279000Y-6206000D01*
X21279000Y-6166000D02*
X21239000Y-6206000D01*
X21257991Y-15114943D02*
X21297991Y-15154943D01*
X21297991Y-15114943D02*
X21257991Y-15154943D01*
X21269089Y-15015611D02*
X21309089Y-15055611D01*
X21309089Y-15015611D02*
X21269089Y-15055611D01*
X21291000Y-15376450D02*
X21331000Y-15416450D01*
X21331000Y-15376450D02*
X21291000Y-15416450D01*
X21447000Y-9976000D02*
X21487000Y-10016000D01*
X21487000Y-9976000D02*
X21447000Y-10016000D01*
X21450000Y-9667000D02*
X21490000Y-9707000D01*
X21490000Y-9667000D02*
X21450000Y-9707000D01*
X21456150Y-15073302D02*
X21496150Y-15113302D01*
X21496150Y-15073302D02*
X21456150Y-15113302D01*
X21596000Y-15689550D02*
X21636000Y-15729550D01*
X21636000Y-15689550D02*
X21596000Y-15729550D01*
X21673000Y-15136000D02*
X21713000Y-15176000D01*
X21713000Y-15136000D02*
X21673000Y-15176000D01*
X21718370Y-15443852D02*
X21758370Y-15483852D01*
X21758370Y-15443852D02*
X21718370Y-15483852D01*
X21741000Y-15656000D02*
X21781000Y-15696000D01*
X21781000Y-15656000D02*
X21741000Y-15696000D01*
X21782580Y-15520450D02*
X21822580Y-15560450D01*
X21822580Y-15520450D02*
X21782580Y-15560450D01*
X21835000Y-15222550D02*
X21875000Y-15262550D01*
X21875000Y-15222550D02*
X21835000Y-15262550D01*
X21835000Y-16182000D02*
X21875000Y-16222000D01*
X21875000Y-16182000D02*
X21835000Y-16222000D01*
X21863000Y-15645000D02*
X21903000Y-15685000D01*
X21903000Y-15645000D02*
X21863000Y-15685000D01*
X22007595Y-15595794D02*
X22047595Y-15635794D01*
X22047595Y-15595794D02*
X22007595Y-15635794D01*
X22118000Y-15593199D02*
X22158000Y-15633199D01*
X22158000Y-15593199D02*
X22118000Y-15633199D01*
X22149000Y-16019000D02*
X22189000Y-16059000D01*
X22189000Y-16019000D02*
X22149000Y-16059000D01*
X22217776Y-15599105D02*
X22257776Y-15639105D01*
X22257776Y-15599105D02*
X22217776Y-15639105D01*
X22225453Y-16083381D02*
X22265453Y-16123381D01*
X22265453Y-16083381D02*
X22225453Y-16123381D01*
X22304949Y-16143965D02*
X22344949Y-16183965D01*
X22344949Y-16143965D02*
X22304949Y-16183965D01*
X22372024Y-16267738D02*
X22412024Y-16307738D01*
X22412024Y-16267738D02*
X22372024Y-16307738D01*
X22633500Y-16169611D02*
X22673500Y-16209611D01*
X22673500Y-16169611D02*
X22633500Y-16209611D01*
X23110000Y-16210000D02*
X23150000Y-16250000D01*
X23150000Y-16210000D02*
X23110000Y-16250000D01*
X23130000Y-15686500D02*
X23170000Y-15726500D01*
X23170000Y-15686500D02*
X23130000Y-15726500D01*
X23247000Y-9914000D02*
X23287000Y-9954000D01*
X23287000Y-9914000D02*
X23247000Y-9954000D01*
X23252000Y-9721000D02*
X23292000Y-9761000D01*
X23292000Y-9721000D02*
X23252000Y-9761000D01*
X23564000Y-6337000D02*
X23604000Y-6377000D01*
X23604000Y-6337000D02*
X23564000Y-6377000D01*
X23862450Y-6479000D02*
X23902450Y-6519000D01*
X23902450Y-6479000D02*
X23862450Y-6519000D01*
X23948000Y-6543550D02*
X23988000Y-6583550D01*
X23988000Y-6543550D02*
X23948000Y-6583550D01*
X24056000Y-6475000D02*
X24096000Y-6515000D01*
X24096000Y-6475000D02*
X24056000Y-6515000D01*
X24125000Y-9946000D02*
X24165000Y-9986000D01*
X24165000Y-9946000D02*
X24125000Y-9986000D01*
X24287000Y-7318000D02*
X24327000Y-7358000D01*
X24327000Y-7318000D02*
X24287000Y-7358000D01*
X24357000Y-18898000D02*
X24397000Y-18938000D01*
X24397000Y-18898000D02*
X24357000Y-18938000D01*
X24397000Y-6171000D02*
X24437000Y-6211000D01*
X24437000Y-6171000D02*
X24397000Y-6211000D01*
X24408000Y-15554000D02*
X24448000Y-15594000D01*
X24448000Y-15554000D02*
X24408000Y-15594000D01*
X24490000Y-6342000D02*
X24530000Y-6382000D01*
X24530000Y-6342000D02*
X24490000Y-6382000D01*
X24700000Y-10252000D02*
X24740000Y-10292000D01*
X24740000Y-10252000D02*
X24700000Y-10292000D01*
X24787000Y-16149000D02*
X24827000Y-16189000D01*
X24827000Y-16149000D02*
X24787000Y-16189000D01*
X24806000Y-15299550D02*
X24846000Y-15339550D01*
X24846000Y-15299550D02*
X24806000Y-15339550D01*
X24823000Y-14239000D02*
X24863000Y-14279000D01*
X24863000Y-14239000D02*
X24823000Y-14279000D01*
X24849000Y-6405000D02*
X24889000Y-6445000D01*
X24889000Y-6405000D02*
X24849000Y-6445000D01*
X24922950Y-14239000D02*
X24962950Y-14279000D01*
X24962950Y-14239000D02*
X24922950Y-14279000D01*
X25033000Y-10265000D02*
X25073000Y-10305000D01*
X25073000Y-10265000D02*
X25033000Y-10305000D01*
X25179961Y-16237550D02*
X25219961Y-16277550D01*
X25219961Y-16237550D02*
X25179961Y-16277550D01*
X25462550Y-15922961D02*
X25502550Y-15962961D01*
X25502550Y-15922961D02*
X25462550Y-15962961D01*
X26158000Y-19543000D02*
X26198000Y-19583000D01*
X26198000Y-19543000D02*
X26158000Y-19583000D01*
X26440000Y-20607000D02*
X26480000Y-20647000D01*
X26480000Y-20607000D02*
X26440000Y-20647000D01*
D13*
X23629000Y-5558000D02*
G75*
G03*
X23629000Y-5558000I-30000J0D01*
G01*
D11*
X23569000Y-5518000D02*
X23569000Y-5598000D01*
X23569000Y-5598000D02*
G75*
G03*
X23629000Y-5598000I30000J0D01*
G01*
X23629000Y-5598000D02*
X23629000Y-5518000D01*
X23629000Y-5518000D02*
G75*
G03*
X23569000Y-5518000I-30000J0D01*
G01*
D13*
X23629000Y-5978000D02*
G75*
G03*
X23629000Y-5978000I-30000J0D01*
G01*
D11*
X23569000Y-5923000D02*
X23569000Y-6033000D01*
X23569000Y-6033000D02*
G75*
G03*
X23629000Y-6033000I30000J0D01*
G01*
X23629000Y-6033000D02*
X23629000Y-5923000D01*
X23629000Y-5923000D02*
G75*
G03*
X23569000Y-5923000I-30000J0D01*
G01*
D13*
X24493000Y-5558000D02*
G75*
G03*
X24493000Y-5558000I-30000J0D01*
G01*
D11*
X24433000Y-5518000D02*
X24433000Y-5598000D01*
X24433000Y-5598000D02*
G75*
G03*
X24493000Y-5598000I30000J0D01*
G01*
X24493000Y-5598000D02*
X24493000Y-5518000D01*
X24493000Y-5518000D02*
G75*
G03*
X24433000Y-5518000I-30000J0D01*
G01*
D13*
X24493000Y-5978000D02*
G75*
G03*
X24493000Y-5978000I-30000J0D01*
G01*
D11*
X24433000Y-5923000D02*
X24433000Y-6033000D01*
X24433000Y-6033000D02*
G75*
G03*
X24493000Y-6033000I30000J0D01*
G01*
X24493000Y-6033000D02*
X24493000Y-5923000D01*
X24493000Y-5923000D02*
G75*
G03*
X24433000Y-5923000I-30000J0D01*
G01*
D14*
X11697000Y-7315000D02*
X11697000Y-7465000D01*
X11622000Y-7390000D02*
X11772000Y-7390000D01*
X11697000Y-9220000D02*
X11697000Y-9370000D01*
X11622000Y-9295000D02*
X11772000Y-9295000D01*
X11697000Y-11125000D02*
X11697000Y-11275000D01*
X11622000Y-11200000D02*
X11772000Y-11200000D01*
X11697000Y-13030000D02*
X11697000Y-13180000D01*
X11622000Y-13105000D02*
X11772000Y-13105000D01*
X12223000Y-14932000D02*
X12223000Y-15082000D01*
X12148000Y-15007000D02*
X12298000Y-15007000D01*
X12332000Y-7061000D02*
X12332000Y-7211000D01*
X12257000Y-7136000D02*
X12407000Y-7136000D01*
X12332000Y-8966000D02*
X12332000Y-9116000D01*
X12257000Y-9041000D02*
X12407000Y-9041000D01*
X12332000Y-10871000D02*
X12332000Y-11021000D01*
X12257000Y-10946000D02*
X12407000Y-10946000D01*
X12332000Y-12776000D02*
X12332000Y-12926000D01*
X12257000Y-12851000D02*
X12407000Y-12851000D01*
X12858000Y-14678000D02*
X12858000Y-14828000D01*
X12783000Y-14753000D02*
X12933000Y-14753000D01*
X14130000Y-7312000D02*
X14130000Y-7462000D01*
X14055000Y-7387000D02*
X14205000Y-7387000D01*
X14130000Y-9217000D02*
X14130000Y-9367000D01*
X14055000Y-9292000D02*
X14205000Y-9292000D01*
X14130000Y-11122000D02*
X14130000Y-11272000D01*
X14055000Y-11197000D02*
X14205000Y-11197000D01*
X14130000Y-13027000D02*
X14130000Y-13177000D01*
X14055000Y-13102000D02*
X14205000Y-13102000D01*
X14130000Y-14932000D02*
X14130000Y-15082000D01*
X14055000Y-15007000D02*
X14205000Y-15007000D01*
X14765000Y-7058000D02*
X14765000Y-7208000D01*
X14690000Y-7133000D02*
X14840000Y-7133000D01*
X14765000Y-8963000D02*
X14765000Y-9113000D01*
X14690000Y-9038000D02*
X14840000Y-9038000D01*
X14765000Y-10868000D02*
X14765000Y-11018000D01*
X14690000Y-10943000D02*
X14840000Y-10943000D01*
X14765000Y-12773000D02*
X14765000Y-12923000D01*
X14690000Y-12848000D02*
X14840000Y-12848000D01*
X14765000Y-14678000D02*
X14765000Y-14828000D01*
X14690000Y-14753000D02*
X14840000Y-14753000D01*
X16036000Y-7061000D02*
X16036000Y-7211000D01*
X15961000Y-7136000D02*
X16111000Y-7136000D01*
X16036000Y-8966000D02*
X16036000Y-9116000D01*
X15961000Y-9041000D02*
X16111000Y-9041000D01*
X16036000Y-10871000D02*
X16036000Y-11021000D01*
X15961000Y-10946000D02*
X16111000Y-10946000D01*
X16036000Y-12776000D02*
X16036000Y-12926000D01*
X15961000Y-12851000D02*
X16111000Y-12851000D01*
X16036000Y-14681000D02*
X16036000Y-14831000D01*
X15961000Y-14756000D02*
X16111000Y-14756000D01*
X16671000Y-6807000D02*
X16671000Y-6957000D01*
X16596000Y-6882000D02*
X16746000Y-6882000D01*
X16671000Y-8712000D02*
X16671000Y-8862000D01*
X16596000Y-8787000D02*
X16746000Y-8787000D01*
X16671000Y-10617000D02*
X16671000Y-10767000D01*
X16596000Y-10692000D02*
X16746000Y-10692000D01*
X16671000Y-12522000D02*
X16671000Y-12672000D01*
X16596000Y-12597000D02*
X16746000Y-12597000D01*
X16671000Y-14427000D02*
X16671000Y-14577000D01*
X16596000Y-14502000D02*
X16746000Y-14502000D01*
X17942000Y-6562000D02*
X17942000Y-6712000D01*
X17867000Y-6637000D02*
X18017000Y-6637000D01*
X17942000Y-8467000D02*
X17942000Y-8617000D01*
X17867000Y-8542000D02*
X18017000Y-8542000D01*
X17942000Y-10372000D02*
X17942000Y-10522000D01*
X17867000Y-10447000D02*
X18017000Y-10447000D01*
X17942000Y-12277000D02*
X17942000Y-12427000D01*
X17867000Y-12352000D02*
X18017000Y-12352000D01*
X17942000Y-14182000D02*
X17942000Y-14332000D01*
X17867000Y-14257000D02*
X18017000Y-14257000D01*
X18577000Y-6308000D02*
X18577000Y-6458000D01*
X18502000Y-6383000D02*
X18652000Y-6383000D01*
X18577000Y-8213000D02*
X18577000Y-8363000D01*
X18502000Y-8288000D02*
X18652000Y-8288000D01*
X18577000Y-10118000D02*
X18577000Y-10268000D01*
X18502000Y-10193000D02*
X18652000Y-10193000D01*
X18577000Y-12023000D02*
X18577000Y-12173000D01*
X18502000Y-12098000D02*
X18652000Y-12098000D01*
X18577000Y-13928000D02*
X18577000Y-14078000D01*
X18502000Y-14003000D02*
X18652000Y-14003000D01*
X19845000Y-6313000D02*
X19845000Y-6463000D01*
X19770000Y-6388000D02*
X19920000Y-6388000D01*
X19845000Y-8218000D02*
X19845000Y-8368000D01*
X19770000Y-8293000D02*
X19920000Y-8293000D01*
X19845000Y-10123000D02*
X19845000Y-10273000D01*
X19770000Y-10198000D02*
X19920000Y-10198000D01*
X19845000Y-12028000D02*
X19845000Y-12178000D01*
X19770000Y-12103000D02*
X19920000Y-12103000D01*
X19845000Y-13933000D02*
X19845000Y-14083000D01*
X19770000Y-14008000D02*
X19920000Y-14008000D01*
X20480000Y-6059000D02*
X20480000Y-6209000D01*
X20405000Y-6134000D02*
X20555000Y-6134000D01*
X20480000Y-7964000D02*
X20480000Y-8114000D01*
X20405000Y-8039000D02*
X20555000Y-8039000D01*
X20480000Y-9869000D02*
X20480000Y-10019000D01*
X20405000Y-9944000D02*
X20555000Y-9944000D01*
X20480000Y-11774000D02*
X20480000Y-11924000D01*
X20405000Y-11849000D02*
X20555000Y-11849000D01*
X20480000Y-13679000D02*
X20480000Y-13829000D01*
X20405000Y-13754000D02*
X20555000Y-13754000D01*
X21752000Y-6562000D02*
X21752000Y-6712000D01*
X21677000Y-6637000D02*
X21827000Y-6637000D01*
X21752000Y-8467000D02*
X21752000Y-8617000D01*
X21677000Y-8542000D02*
X21827000Y-8542000D01*
X21752000Y-10372000D02*
X21752000Y-10522000D01*
X21677000Y-10447000D02*
X21827000Y-10447000D01*
X21752000Y-12277000D02*
X21752000Y-12427000D01*
X21677000Y-12352000D02*
X21827000Y-12352000D01*
X21752000Y-14182000D02*
X21752000Y-14332000D01*
X21677000Y-14257000D02*
X21827000Y-14257000D01*
X22387000Y-6308000D02*
X22387000Y-6458000D01*
X22312000Y-6383000D02*
X22462000Y-6383000D01*
X22387000Y-8213000D02*
X22387000Y-8363000D01*
X22312000Y-8288000D02*
X22462000Y-8288000D01*
X22387000Y-10118000D02*
X22387000Y-10268000D01*
X22312000Y-10193000D02*
X22462000Y-10193000D01*
X22387000Y-12023000D02*
X22387000Y-12173000D01*
X22312000Y-12098000D02*
X22462000Y-12098000D01*
X22387000Y-13928000D02*
X22387000Y-14078000D01*
X22312000Y-14003000D02*
X22462000Y-14003000D01*
X23653000Y-6810000D02*
X23653000Y-6960000D01*
X23578000Y-6885000D02*
X23728000Y-6885000D01*
X23653000Y-8715000D02*
X23653000Y-8865000D01*
X23578000Y-8790000D02*
X23728000Y-8790000D01*
X23653000Y-10620000D02*
X23653000Y-10770000D01*
X23578000Y-10695000D02*
X23728000Y-10695000D01*
X23653000Y-12525000D02*
X23653000Y-12675000D01*
X23578000Y-12600000D02*
X23728000Y-12600000D01*
X23653000Y-14430000D02*
X23653000Y-14580000D01*
X23578000Y-14505000D02*
X23728000Y-14505000D01*
X23788501Y-17594422D02*
X23788501Y-17744422D01*
X23713501Y-17669422D02*
X23863501Y-17669422D01*
X23810000Y-18278000D02*
X23810000Y-18428000D01*
X23735000Y-18353000D02*
X23885000Y-18353000D01*
X24288000Y-6556000D02*
X24288000Y-6706000D01*
X24213000Y-6631000D02*
X24363000Y-6631000D01*
X24288000Y-8461000D02*
X24288000Y-8611000D01*
X24213000Y-8536000D02*
X24363000Y-8536000D01*
X24288000Y-10366000D02*
X24288000Y-10516000D01*
X24213000Y-10441000D02*
X24363000Y-10441000D01*
X24288000Y-12271000D02*
X24288000Y-12421000D01*
X24213000Y-12346000D02*
X24363000Y-12346000D01*
X24288000Y-14176000D02*
X24288000Y-14326000D01*
X24213000Y-14251000D02*
X24363000Y-14251000D01*
X25578509Y-18249572D02*
X25578509Y-18399572D01*
X25503509Y-18324572D02*
X25653509Y-18324572D01*
X25600008Y-18933150D02*
X25600008Y-19083150D01*
X25525008Y-19008150D02*
X25675008Y-19008150D01*
X26673850Y-15608508D02*
X26673850Y-15758508D01*
X26598850Y-15683508D02*
X26748850Y-15683508D01*
X27160850Y-19839008D02*
X27160850Y-19989008D01*
X27085850Y-19914008D02*
X27235850Y-19914008D01*
X27357428Y-15587009D02*
X27357428Y-15737009D01*
X27282428Y-15662009D02*
X27432428Y-15662009D01*
X27812850Y-18048008D02*
X27812850Y-18198008D01*
X27737850Y-18123008D02*
X27887850Y-18123008D01*
X27844428Y-19817509D02*
X27844428Y-19967509D01*
X27769428Y-19892509D02*
X27919428Y-19892509D01*
X28462214Y-16260755D02*
X28462214Y-16410755D01*
X28387214Y-16335755D02*
X28537214Y-16335755D01*
X28496428Y-18026509D02*
X28496428Y-18176509D01*
X28421428Y-18101509D02*
X28571428Y-18101509D01*
X29145792Y-16239255D02*
X29145792Y-16389255D01*
X29070792Y-16314255D02*
X29220792Y-16314255D01*
D15*
X11025783Y-5896782D02*
X11025783Y-5741217D01*
X10870218Y-5741217D01*
X10870218Y-5896782D01*
X11025783Y-5896782D01*
X11849382Y-5900582D02*
X11849382Y-5745017D01*
X11693817Y-5745017D01*
X11693817Y-5900582D01*
X11849382Y-5900582D01*
X12662182Y-5900582D02*
X12662182Y-5745017D01*
X12506617Y-5745017D01*
X12506617Y-5900582D01*
X12662182Y-5900582D01*
X13474982Y-5900582D02*
X13474982Y-5745017D01*
X13319417Y-5745017D01*
X13319417Y-5900582D01*
X13474982Y-5900582D01*
X25336782Y-14968382D02*
X25336782Y-14812817D01*
X25181217Y-14812817D01*
X25181217Y-14968382D01*
X25336782Y-14968382D01*
X26047982Y-15247782D02*
X26047982Y-15092217D01*
X25892417Y-15092217D01*
X25892417Y-15247782D01*
X26047982Y-15247782D01*
D11*
X10735777Y-22214187D02*
X10735777Y-22014187D01*
X10735777Y-22014187D02*
X10783396Y-22014187D01*
X10783396Y-22014187D02*
X10811967Y-22023711D01*
X10811967Y-22023711D02*
X10831015Y-22042758D01*
X10831015Y-22042758D02*
X10840539Y-22061806D01*
X10840539Y-22061806D02*
X10850063Y-22099901D01*
X10850063Y-22099901D02*
X10850063Y-22128473D01*
X10850063Y-22128473D02*
X10840539Y-22166568D01*
X10840539Y-22166568D02*
X10831015Y-22185616D01*
X10831015Y-22185616D02*
X10811967Y-22204663D01*
X10811967Y-22204663D02*
X10783396Y-22214187D01*
X10783396Y-22214187D02*
X10735777Y-22214187D01*
X10935777Y-22214187D02*
X10935777Y-22080854D01*
X10935777Y-22118949D02*
X10945301Y-22099901D01*
X10945301Y-22099901D02*
X10954824Y-22090377D01*
X10954824Y-22090377D02*
X10973872Y-22080854D01*
X10973872Y-22080854D02*
X10992920Y-22080854D01*
X11059586Y-22214187D02*
X11059586Y-22080854D01*
X11059586Y-22014187D02*
X11050063Y-22023711D01*
X11050063Y-22023711D02*
X11059586Y-22033235D01*
X11059586Y-22033235D02*
X11069110Y-22023711D01*
X11069110Y-22023711D02*
X11059586Y-22014187D01*
X11059586Y-22014187D02*
X11059586Y-22033235D01*
X11183396Y-22214187D02*
X11164348Y-22204663D01*
X11164348Y-22204663D02*
X11154824Y-22185616D01*
X11154824Y-22185616D02*
X11154824Y-22014187D01*
X11288158Y-22214187D02*
X11269110Y-22204663D01*
X11269110Y-22204663D02*
X11259586Y-22185616D01*
X11259586Y-22185616D02*
X11259586Y-22014187D01*
X11516729Y-22214187D02*
X11516729Y-22014187D01*
X11516729Y-22014187D02*
X11583396Y-22157044D01*
X11583396Y-22157044D02*
X11650062Y-22014187D01*
X11650062Y-22014187D02*
X11650062Y-22214187D01*
X11831015Y-22214187D02*
X11831015Y-22109425D01*
X11831015Y-22109425D02*
X11821491Y-22090377D01*
X11821491Y-22090377D02*
X11802443Y-22080854D01*
X11802443Y-22080854D02*
X11764348Y-22080854D01*
X11764348Y-22080854D02*
X11745301Y-22090377D01*
X11831015Y-22204663D02*
X11811967Y-22214187D01*
X11811967Y-22214187D02*
X11764348Y-22214187D01*
X11764348Y-22214187D02*
X11745301Y-22204663D01*
X11745301Y-22204663D02*
X11735777Y-22185616D01*
X11735777Y-22185616D02*
X11735777Y-22166568D01*
X11735777Y-22166568D02*
X11745301Y-22147520D01*
X11745301Y-22147520D02*
X11764348Y-22137997D01*
X11764348Y-22137997D02*
X11811967Y-22137997D01*
X11811967Y-22137997D02*
X11831015Y-22128473D01*
X11926253Y-22080854D02*
X11926253Y-22280854D01*
X11926253Y-22090377D02*
X11945301Y-22080854D01*
X11945301Y-22080854D02*
X11983396Y-22080854D01*
X11983396Y-22080854D02*
X12002443Y-22090377D01*
X12002443Y-22090377D02*
X12011967Y-22099901D01*
X12011967Y-22099901D02*
X12021491Y-22118949D01*
X12021491Y-22118949D02*
X12021491Y-22176092D01*
X12021491Y-22176092D02*
X12011967Y-22195139D01*
X12011967Y-22195139D02*
X12002443Y-22204663D01*
X12002443Y-22204663D02*
X11983396Y-22214187D01*
X11983396Y-22214187D02*
X11945301Y-22214187D01*
X11945301Y-22214187D02*
X11926253Y-22204663D01*
X12107205Y-22195139D02*
X12116729Y-22204663D01*
X12116729Y-22204663D02*
X12107205Y-22214187D01*
X12107205Y-22214187D02*
X12097682Y-22204663D01*
X12097682Y-22204663D02*
X12107205Y-22195139D01*
X12107205Y-22195139D02*
X12107205Y-22214187D01*
X12107205Y-22090377D02*
X12116729Y-22099901D01*
X12116729Y-22099901D02*
X12107205Y-22109425D01*
X12107205Y-22109425D02*
X12097682Y-22099901D01*
X12097682Y-22099901D02*
X12107205Y-22090377D01*
X12107205Y-22090377D02*
X12107205Y-22109425D01*
D12*
X10435000Y-22522703D02*
X10475000Y-22562703D01*
X10475000Y-22522703D02*
X10435000Y-22562703D01*
D11*
X10773872Y-22434187D02*
X10792920Y-22434187D01*
X10792920Y-22434187D02*
X10811967Y-22443711D01*
X10811967Y-22443711D02*
X10821491Y-22453235D01*
X10821491Y-22453235D02*
X10831015Y-22472282D01*
X10831015Y-22472282D02*
X10840539Y-22510377D01*
X10840539Y-22510377D02*
X10840539Y-22557996D01*
X10840539Y-22557996D02*
X10831015Y-22596092D01*
X10831015Y-22596092D02*
X10821491Y-22615139D01*
X10821491Y-22615139D02*
X10811967Y-22624663D01*
X10811967Y-22624663D02*
X10792920Y-22634187D01*
X10792920Y-22634187D02*
X10773872Y-22634187D01*
X10773872Y-22634187D02*
X10754824Y-22624663D01*
X10754824Y-22624663D02*
X10745301Y-22615139D01*
X10745301Y-22615139D02*
X10735777Y-22596092D01*
X10735777Y-22596092D02*
X10726253Y-22557996D01*
X10726253Y-22557996D02*
X10726253Y-22510377D01*
X10726253Y-22510377D02*
X10735777Y-22472282D01*
X10735777Y-22472282D02*
X10745301Y-22453235D01*
X10745301Y-22453235D02*
X10754824Y-22443711D01*
X10754824Y-22443711D02*
X10773872Y-22434187D01*
X10926253Y-22615139D02*
X10935777Y-22624663D01*
X10935777Y-22624663D02*
X10926253Y-22634187D01*
X10926253Y-22634187D02*
X10916729Y-22624663D01*
X10916729Y-22624663D02*
X10926253Y-22615139D01*
X10926253Y-22615139D02*
X10926253Y-22634187D01*
X11107205Y-22500854D02*
X11107205Y-22634187D01*
X11059586Y-22424663D02*
X11011967Y-22567520D01*
X11011967Y-22567520D02*
X11135777Y-22567520D01*
X11250062Y-22434187D02*
X11269110Y-22434187D01*
X11269110Y-22434187D02*
X11288158Y-22443711D01*
X11288158Y-22443711D02*
X11297682Y-22453235D01*
X11297682Y-22453235D02*
X11307205Y-22472282D01*
X11307205Y-22472282D02*
X11316729Y-22510377D01*
X11316729Y-22510377D02*
X11316729Y-22557996D01*
X11316729Y-22557996D02*
X11307205Y-22596092D01*
X11307205Y-22596092D02*
X11297682Y-22615139D01*
X11297682Y-22615139D02*
X11288158Y-22624663D01*
X11288158Y-22624663D02*
X11269110Y-22634187D01*
X11269110Y-22634187D02*
X11250062Y-22634187D01*
X11250062Y-22634187D02*
X11231015Y-22624663D01*
X11231015Y-22624663D02*
X11221491Y-22615139D01*
X11221491Y-22615139D02*
X11211967Y-22596092D01*
X11211967Y-22596092D02*
X11202443Y-22557996D01*
X11202443Y-22557996D02*
X11202443Y-22510377D01*
X11202443Y-22510377D02*
X11211967Y-22472282D01*
X11211967Y-22472282D02*
X11221491Y-22453235D01*
X11221491Y-22453235D02*
X11231015Y-22443711D01*
X11231015Y-22443711D02*
X11250062Y-22434187D01*
X11440539Y-22434187D02*
X11459586Y-22434187D01*
X11459586Y-22434187D02*
X11478634Y-22443711D01*
X11478634Y-22443711D02*
X11488158Y-22453235D01*
X11488158Y-22453235D02*
X11497682Y-22472282D01*
X11497682Y-22472282D02*
X11507205Y-22510377D01*
X11507205Y-22510377D02*
X11507205Y-22557996D01*
X11507205Y-22557996D02*
X11497682Y-22596092D01*
X11497682Y-22596092D02*
X11488158Y-22615139D01*
X11488158Y-22615139D02*
X11478634Y-22624663D01*
X11478634Y-22624663D02*
X11459586Y-22634187D01*
X11459586Y-22634187D02*
X11440539Y-22634187D01*
X11440539Y-22634187D02*
X11421491Y-22624663D01*
X11421491Y-22624663D02*
X11411967Y-22615139D01*
X11411967Y-22615139D02*
X11402443Y-22596092D01*
X11402443Y-22596092D02*
X11392920Y-22557996D01*
X11392920Y-22557996D02*
X11392920Y-22510377D01*
X11392920Y-22510377D02*
X11402443Y-22472282D01*
X11402443Y-22472282D02*
X11411967Y-22453235D01*
X11411967Y-22453235D02*
X11421491Y-22443711D01*
X11421491Y-22443711D02*
X11440539Y-22434187D01*
X11592920Y-22634187D02*
X11592920Y-22500854D01*
X11592920Y-22519901D02*
X11602443Y-22510377D01*
X11602443Y-22510377D02*
X11621491Y-22500854D01*
X11621491Y-22500854D02*
X11650063Y-22500854D01*
X11650063Y-22500854D02*
X11669110Y-22510377D01*
X11669110Y-22510377D02*
X11678634Y-22529425D01*
X11678634Y-22529425D02*
X11678634Y-22634187D01*
X11678634Y-22529425D02*
X11688158Y-22510377D01*
X11688158Y-22510377D02*
X11707205Y-22500854D01*
X11707205Y-22500854D02*
X11735777Y-22500854D01*
X11735777Y-22500854D02*
X11754824Y-22510377D01*
X11754824Y-22510377D02*
X11764348Y-22529425D01*
X11764348Y-22529425D02*
X11764348Y-22634187D01*
X11859586Y-22634187D02*
X11859586Y-22500854D01*
X11859586Y-22519901D02*
X11869110Y-22510377D01*
X11869110Y-22510377D02*
X11888158Y-22500854D01*
X11888158Y-22500854D02*
X11916729Y-22500854D01*
X11916729Y-22500854D02*
X11935777Y-22510377D01*
X11935777Y-22510377D02*
X11945301Y-22529425D01*
X11945301Y-22529425D02*
X11945301Y-22634187D01*
X11945301Y-22529425D02*
X11954824Y-22510377D01*
X11954824Y-22510377D02*
X11973872Y-22500854D01*
X11973872Y-22500854D02*
X12002443Y-22500854D01*
X12002443Y-22500854D02*
X12021491Y-22510377D01*
X12021491Y-22510377D02*
X12031015Y-22529425D01*
X12031015Y-22529425D02*
X12031015Y-22634187D01*
X12421491Y-22424663D02*
X12250063Y-22681806D01*
X12678634Y-22434187D02*
X12697682Y-22434187D01*
X12697682Y-22434187D02*
X12716729Y-22443711D01*
X12716729Y-22443711D02*
X12726253Y-22453235D01*
X12726253Y-22453235D02*
X12735777Y-22472282D01*
X12735777Y-22472282D02*
X12745301Y-22510377D01*
X12745301Y-22510377D02*
X12745301Y-22557996D01*
X12745301Y-22557996D02*
X12735777Y-22596092D01*
X12735777Y-22596092D02*
X12726253Y-22615139D01*
X12726253Y-22615139D02*
X12716729Y-22624663D01*
X12716729Y-22624663D02*
X12697682Y-22634187D01*
X12697682Y-22634187D02*
X12678634Y-22634187D01*
X12678634Y-22634187D02*
X12659586Y-22624663D01*
X12659586Y-22624663D02*
X12650063Y-22615139D01*
X12650063Y-22615139D02*
X12640539Y-22596092D01*
X12640539Y-22596092D02*
X12631015Y-22557996D01*
X12631015Y-22557996D02*
X12631015Y-22510377D01*
X12631015Y-22510377D02*
X12640539Y-22472282D01*
X12640539Y-22472282D02*
X12650063Y-22453235D01*
X12650063Y-22453235D02*
X12659586Y-22443711D01*
X12659586Y-22443711D02*
X12678634Y-22434187D01*
X12831015Y-22615139D02*
X12840539Y-22624663D01*
X12840539Y-22624663D02*
X12831015Y-22634187D01*
X12831015Y-22634187D02*
X12821491Y-22624663D01*
X12821491Y-22624663D02*
X12831015Y-22615139D01*
X12831015Y-22615139D02*
X12831015Y-22634187D01*
X12964348Y-22434187D02*
X12983396Y-22434187D01*
X12983396Y-22434187D02*
X13002444Y-22443711D01*
X13002444Y-22443711D02*
X13011967Y-22453235D01*
X13011967Y-22453235D02*
X13021491Y-22472282D01*
X13021491Y-22472282D02*
X13031015Y-22510377D01*
X13031015Y-22510377D02*
X13031015Y-22557996D01*
X13031015Y-22557996D02*
X13021491Y-22596092D01*
X13021491Y-22596092D02*
X13011967Y-22615139D01*
X13011967Y-22615139D02*
X13002444Y-22624663D01*
X13002444Y-22624663D02*
X12983396Y-22634187D01*
X12983396Y-22634187D02*
X12964348Y-22634187D01*
X12964348Y-22634187D02*
X12945301Y-22624663D01*
X12945301Y-22624663D02*
X12935777Y-22615139D01*
X12935777Y-22615139D02*
X12926253Y-22596092D01*
X12926253Y-22596092D02*
X12916729Y-22557996D01*
X12916729Y-22557996D02*
X12916729Y-22510377D01*
X12916729Y-22510377D02*
X12926253Y-22472282D01*
X12926253Y-22472282D02*
X12935777Y-22453235D01*
X12935777Y-22453235D02*
X12945301Y-22443711D01*
X12945301Y-22443711D02*
X12964348Y-22434187D01*
X13221491Y-22634187D02*
X13107206Y-22634187D01*
X13164348Y-22634187D02*
X13164348Y-22434187D01*
X13164348Y-22434187D02*
X13145301Y-22462758D01*
X13145301Y-22462758D02*
X13126253Y-22481806D01*
X13126253Y-22481806D02*
X13107206Y-22491330D01*
X13402444Y-22434187D02*
X13307206Y-22434187D01*
X13307206Y-22434187D02*
X13297682Y-22529425D01*
X13297682Y-22529425D02*
X13307206Y-22519901D01*
X13307206Y-22519901D02*
X13326253Y-22510377D01*
X13326253Y-22510377D02*
X13373872Y-22510377D01*
X13373872Y-22510377D02*
X13392920Y-22519901D01*
X13392920Y-22519901D02*
X13402444Y-22529425D01*
X13402444Y-22529425D02*
X13411967Y-22548473D01*
X13411967Y-22548473D02*
X13411967Y-22596092D01*
X13411967Y-22596092D02*
X13402444Y-22615139D01*
X13402444Y-22615139D02*
X13392920Y-22624663D01*
X13392920Y-22624663D02*
X13373872Y-22634187D01*
X13373872Y-22634187D02*
X13326253Y-22634187D01*
X13326253Y-22634187D02*
X13307206Y-22624663D01*
X13307206Y-22624663D02*
X13297682Y-22615139D01*
X13478634Y-22434187D02*
X13611967Y-22434187D01*
X13611967Y-22434187D02*
X13526253Y-22634187D01*
X13678634Y-22434187D02*
X13678634Y-22472282D01*
X13754825Y-22434187D02*
X13754825Y-22472282D01*
X14050063Y-22710377D02*
X14040539Y-22700854D01*
X14040539Y-22700854D02*
X14021491Y-22672282D01*
X14021491Y-22672282D02*
X14011968Y-22653235D01*
X14011968Y-22653235D02*
X14002444Y-22624663D01*
X14002444Y-22624663D02*
X13992920Y-22577044D01*
X13992920Y-22577044D02*
X13992920Y-22538949D01*
X13992920Y-22538949D02*
X14002444Y-22491330D01*
X14002444Y-22491330D02*
X14011968Y-22462758D01*
X14011968Y-22462758D02*
X14021491Y-22443711D01*
X14021491Y-22443711D02*
X14040539Y-22415139D01*
X14040539Y-22415139D02*
X14050063Y-22405615D01*
X14154825Y-22519901D02*
X14135777Y-22510377D01*
X14135777Y-22510377D02*
X14126253Y-22500854D01*
X14126253Y-22500854D02*
X14116729Y-22481806D01*
X14116729Y-22481806D02*
X14116729Y-22472282D01*
X14116729Y-22472282D02*
X14126253Y-22453235D01*
X14126253Y-22453235D02*
X14135777Y-22443711D01*
X14135777Y-22443711D02*
X14154825Y-22434187D01*
X14154825Y-22434187D02*
X14192920Y-22434187D01*
X14192920Y-22434187D02*
X14211968Y-22443711D01*
X14211968Y-22443711D02*
X14221491Y-22453235D01*
X14221491Y-22453235D02*
X14231015Y-22472282D01*
X14231015Y-22472282D02*
X14231015Y-22481806D01*
X14231015Y-22481806D02*
X14221491Y-22500854D01*
X14221491Y-22500854D02*
X14211968Y-22510377D01*
X14211968Y-22510377D02*
X14192920Y-22519901D01*
X14192920Y-22519901D02*
X14154825Y-22519901D01*
X14154825Y-22519901D02*
X14135777Y-22529425D01*
X14135777Y-22529425D02*
X14126253Y-22538949D01*
X14126253Y-22538949D02*
X14116729Y-22557996D01*
X14116729Y-22557996D02*
X14116729Y-22596092D01*
X14116729Y-22596092D02*
X14126253Y-22615139D01*
X14126253Y-22615139D02*
X14135777Y-22624663D01*
X14135777Y-22624663D02*
X14154825Y-22634187D01*
X14154825Y-22634187D02*
X14192920Y-22634187D01*
X14192920Y-22634187D02*
X14211968Y-22624663D01*
X14211968Y-22624663D02*
X14221491Y-22615139D01*
X14221491Y-22615139D02*
X14231015Y-22596092D01*
X14231015Y-22596092D02*
X14231015Y-22557996D01*
X14231015Y-22557996D02*
X14221491Y-22538949D01*
X14221491Y-22538949D02*
X14211968Y-22529425D01*
X14211968Y-22529425D02*
X14192920Y-22519901D01*
X14402444Y-22500854D02*
X14402444Y-22634187D01*
X14354825Y-22424663D02*
X14307206Y-22567520D01*
X14307206Y-22567520D02*
X14431015Y-22567520D01*
X14659587Y-22634187D02*
X14659587Y-22434187D01*
X14745301Y-22634187D02*
X14745301Y-22529425D01*
X14745301Y-22529425D02*
X14735777Y-22510377D01*
X14735777Y-22510377D02*
X14716730Y-22500854D01*
X14716730Y-22500854D02*
X14688158Y-22500854D01*
X14688158Y-22500854D02*
X14669110Y-22510377D01*
X14669110Y-22510377D02*
X14659587Y-22519901D01*
X14869110Y-22634187D02*
X14850063Y-22624663D01*
X14850063Y-22624663D02*
X14840539Y-22615139D01*
X14840539Y-22615139D02*
X14831015Y-22596092D01*
X14831015Y-22596092D02*
X14831015Y-22538949D01*
X14831015Y-22538949D02*
X14840539Y-22519901D01*
X14840539Y-22519901D02*
X14850063Y-22510377D01*
X14850063Y-22510377D02*
X14869110Y-22500854D01*
X14869110Y-22500854D02*
X14897682Y-22500854D01*
X14897682Y-22500854D02*
X14916730Y-22510377D01*
X14916730Y-22510377D02*
X14926253Y-22519901D01*
X14926253Y-22519901D02*
X14935777Y-22538949D01*
X14935777Y-22538949D02*
X14935777Y-22596092D01*
X14935777Y-22596092D02*
X14926253Y-22615139D01*
X14926253Y-22615139D02*
X14916730Y-22624663D01*
X14916730Y-22624663D02*
X14897682Y-22634187D01*
X14897682Y-22634187D02*
X14869110Y-22634187D01*
X15050063Y-22634187D02*
X15031015Y-22624663D01*
X15031015Y-22624663D02*
X15021491Y-22605615D01*
X15021491Y-22605615D02*
X15021491Y-22434187D01*
X15202444Y-22624663D02*
X15183396Y-22634187D01*
X15183396Y-22634187D02*
X15145301Y-22634187D01*
X15145301Y-22634187D02*
X15126253Y-22624663D01*
X15126253Y-22624663D02*
X15116730Y-22605615D01*
X15116730Y-22605615D02*
X15116730Y-22529425D01*
X15116730Y-22529425D02*
X15126253Y-22510377D01*
X15126253Y-22510377D02*
X15145301Y-22500854D01*
X15145301Y-22500854D02*
X15183396Y-22500854D01*
X15183396Y-22500854D02*
X15202444Y-22510377D01*
X15202444Y-22510377D02*
X15211968Y-22529425D01*
X15211968Y-22529425D02*
X15211968Y-22548473D01*
X15211968Y-22548473D02*
X15116730Y-22567520D01*
X15288158Y-22624663D02*
X15307206Y-22634187D01*
X15307206Y-22634187D02*
X15345301Y-22634187D01*
X15345301Y-22634187D02*
X15364349Y-22624663D01*
X15364349Y-22624663D02*
X15373872Y-22605615D01*
X15373872Y-22605615D02*
X15373872Y-22596092D01*
X15373872Y-22596092D02*
X15364349Y-22577044D01*
X15364349Y-22577044D02*
X15345301Y-22567520D01*
X15345301Y-22567520D02*
X15316730Y-22567520D01*
X15316730Y-22567520D02*
X15297682Y-22557996D01*
X15297682Y-22557996D02*
X15288158Y-22538949D01*
X15288158Y-22538949D02*
X15288158Y-22529425D01*
X15288158Y-22529425D02*
X15297682Y-22510377D01*
X15297682Y-22510377D02*
X15316730Y-22500854D01*
X15316730Y-22500854D02*
X15345301Y-22500854D01*
X15345301Y-22500854D02*
X15364349Y-22510377D01*
X15440539Y-22710377D02*
X15450063Y-22700854D01*
X15450063Y-22700854D02*
X15469111Y-22672282D01*
X15469111Y-22672282D02*
X15478634Y-22653235D01*
X15478634Y-22653235D02*
X15488158Y-22624663D01*
X15488158Y-22624663D02*
X15497682Y-22577044D01*
X15497682Y-22577044D02*
X15497682Y-22538949D01*
X15497682Y-22538949D02*
X15488158Y-22491330D01*
X15488158Y-22491330D02*
X15478634Y-22462758D01*
X15478634Y-22462758D02*
X15469111Y-22443711D01*
X15469111Y-22443711D02*
X15450063Y-22415139D01*
X15450063Y-22415139D02*
X15440539Y-22405615D01*
D13*
X10475000Y-22806703D02*
G75*
G03*
X10475000Y-22806703I-30000J0D01*
G01*
D11*
X10773872Y-22698187D02*
X10792920Y-22698187D01*
X10792920Y-22698187D02*
X10811967Y-22707711D01*
X10811967Y-22707711D02*
X10821491Y-22717235D01*
X10821491Y-22717235D02*
X10831015Y-22736282D01*
X10831015Y-22736282D02*
X10840539Y-22774377D01*
X10840539Y-22774377D02*
X10840539Y-22821996D01*
X10840539Y-22821996D02*
X10831015Y-22860092D01*
X10831015Y-22860092D02*
X10821491Y-22879139D01*
X10821491Y-22879139D02*
X10811967Y-22888663D01*
X10811967Y-22888663D02*
X10792920Y-22898187D01*
X10792920Y-22898187D02*
X10773872Y-22898187D01*
X10773872Y-22898187D02*
X10754824Y-22888663D01*
X10754824Y-22888663D02*
X10745301Y-22879139D01*
X10745301Y-22879139D02*
X10735777Y-22860092D01*
X10735777Y-22860092D02*
X10726253Y-22821996D01*
X10726253Y-22821996D02*
X10726253Y-22774377D01*
X10726253Y-22774377D02*
X10735777Y-22736282D01*
X10735777Y-22736282D02*
X10745301Y-22717235D01*
X10745301Y-22717235D02*
X10754824Y-22707711D01*
X10754824Y-22707711D02*
X10773872Y-22698187D01*
X10926253Y-22879139D02*
X10935777Y-22888663D01*
X10935777Y-22888663D02*
X10926253Y-22898187D01*
X10926253Y-22898187D02*
X10916729Y-22888663D01*
X10916729Y-22888663D02*
X10926253Y-22879139D01*
X10926253Y-22879139D02*
X10926253Y-22898187D01*
X11107205Y-22698187D02*
X11069110Y-22698187D01*
X11069110Y-22698187D02*
X11050063Y-22707711D01*
X11050063Y-22707711D02*
X11040539Y-22717235D01*
X11040539Y-22717235D02*
X11021491Y-22745806D01*
X11021491Y-22745806D02*
X11011967Y-22783901D01*
X11011967Y-22783901D02*
X11011967Y-22860092D01*
X11011967Y-22860092D02*
X11021491Y-22879139D01*
X11021491Y-22879139D02*
X11031015Y-22888663D01*
X11031015Y-22888663D02*
X11050063Y-22898187D01*
X11050063Y-22898187D02*
X11088158Y-22898187D01*
X11088158Y-22898187D02*
X11107205Y-22888663D01*
X11107205Y-22888663D02*
X11116729Y-22879139D01*
X11116729Y-22879139D02*
X11126253Y-22860092D01*
X11126253Y-22860092D02*
X11126253Y-22812473D01*
X11126253Y-22812473D02*
X11116729Y-22793425D01*
X11116729Y-22793425D02*
X11107205Y-22783901D01*
X11107205Y-22783901D02*
X11088158Y-22774377D01*
X11088158Y-22774377D02*
X11050063Y-22774377D01*
X11050063Y-22774377D02*
X11031015Y-22783901D01*
X11031015Y-22783901D02*
X11021491Y-22793425D01*
X11021491Y-22793425D02*
X11011967Y-22812473D01*
X11250062Y-22698187D02*
X11269110Y-22698187D01*
X11269110Y-22698187D02*
X11288158Y-22707711D01*
X11288158Y-22707711D02*
X11297682Y-22717235D01*
X11297682Y-22717235D02*
X11307205Y-22736282D01*
X11307205Y-22736282D02*
X11316729Y-22774377D01*
X11316729Y-22774377D02*
X11316729Y-22821996D01*
X11316729Y-22821996D02*
X11307205Y-22860092D01*
X11307205Y-22860092D02*
X11297682Y-22879139D01*
X11297682Y-22879139D02*
X11288158Y-22888663D01*
X11288158Y-22888663D02*
X11269110Y-22898187D01*
X11269110Y-22898187D02*
X11250062Y-22898187D01*
X11250062Y-22898187D02*
X11231015Y-22888663D01*
X11231015Y-22888663D02*
X11221491Y-22879139D01*
X11221491Y-22879139D02*
X11211967Y-22860092D01*
X11211967Y-22860092D02*
X11202443Y-22821996D01*
X11202443Y-22821996D02*
X11202443Y-22774377D01*
X11202443Y-22774377D02*
X11211967Y-22736282D01*
X11211967Y-22736282D02*
X11221491Y-22717235D01*
X11221491Y-22717235D02*
X11231015Y-22707711D01*
X11231015Y-22707711D02*
X11250062Y-22698187D01*
X11440539Y-22698187D02*
X11459586Y-22698187D01*
X11459586Y-22698187D02*
X11478634Y-22707711D01*
X11478634Y-22707711D02*
X11488158Y-22717235D01*
X11488158Y-22717235D02*
X11497682Y-22736282D01*
X11497682Y-22736282D02*
X11507205Y-22774377D01*
X11507205Y-22774377D02*
X11507205Y-22821996D01*
X11507205Y-22821996D02*
X11497682Y-22860092D01*
X11497682Y-22860092D02*
X11488158Y-22879139D01*
X11488158Y-22879139D02*
X11478634Y-22888663D01*
X11478634Y-22888663D02*
X11459586Y-22898187D01*
X11459586Y-22898187D02*
X11440539Y-22898187D01*
X11440539Y-22898187D02*
X11421491Y-22888663D01*
X11421491Y-22888663D02*
X11411967Y-22879139D01*
X11411967Y-22879139D02*
X11402443Y-22860092D01*
X11402443Y-22860092D02*
X11392920Y-22821996D01*
X11392920Y-22821996D02*
X11392920Y-22774377D01*
X11392920Y-22774377D02*
X11402443Y-22736282D01*
X11402443Y-22736282D02*
X11411967Y-22717235D01*
X11411967Y-22717235D02*
X11421491Y-22707711D01*
X11421491Y-22707711D02*
X11440539Y-22698187D01*
X11592920Y-22898187D02*
X11592920Y-22764854D01*
X11592920Y-22783901D02*
X11602443Y-22774377D01*
X11602443Y-22774377D02*
X11621491Y-22764854D01*
X11621491Y-22764854D02*
X11650063Y-22764854D01*
X11650063Y-22764854D02*
X11669110Y-22774377D01*
X11669110Y-22774377D02*
X11678634Y-22793425D01*
X11678634Y-22793425D02*
X11678634Y-22898187D01*
X11678634Y-22793425D02*
X11688158Y-22774377D01*
X11688158Y-22774377D02*
X11707205Y-22764854D01*
X11707205Y-22764854D02*
X11735777Y-22764854D01*
X11735777Y-22764854D02*
X11754824Y-22774377D01*
X11754824Y-22774377D02*
X11764348Y-22793425D01*
X11764348Y-22793425D02*
X11764348Y-22898187D01*
X11859586Y-22898187D02*
X11859586Y-22764854D01*
X11859586Y-22783901D02*
X11869110Y-22774377D01*
X11869110Y-22774377D02*
X11888158Y-22764854D01*
X11888158Y-22764854D02*
X11916729Y-22764854D01*
X11916729Y-22764854D02*
X11935777Y-22774377D01*
X11935777Y-22774377D02*
X11945301Y-22793425D01*
X11945301Y-22793425D02*
X11945301Y-22898187D01*
X11945301Y-22793425D02*
X11954824Y-22774377D01*
X11954824Y-22774377D02*
X11973872Y-22764854D01*
X11973872Y-22764854D02*
X12002443Y-22764854D01*
X12002443Y-22764854D02*
X12021491Y-22774377D01*
X12021491Y-22774377D02*
X12031015Y-22793425D01*
X12031015Y-22793425D02*
X12031015Y-22898187D01*
X12421491Y-22688663D02*
X12250063Y-22945806D01*
X12678634Y-22698187D02*
X12697682Y-22698187D01*
X12697682Y-22698187D02*
X12716729Y-22707711D01*
X12716729Y-22707711D02*
X12726253Y-22717235D01*
X12726253Y-22717235D02*
X12735777Y-22736282D01*
X12735777Y-22736282D02*
X12745301Y-22774377D01*
X12745301Y-22774377D02*
X12745301Y-22821996D01*
X12745301Y-22821996D02*
X12735777Y-22860092D01*
X12735777Y-22860092D02*
X12726253Y-22879139D01*
X12726253Y-22879139D02*
X12716729Y-22888663D01*
X12716729Y-22888663D02*
X12697682Y-22898187D01*
X12697682Y-22898187D02*
X12678634Y-22898187D01*
X12678634Y-22898187D02*
X12659586Y-22888663D01*
X12659586Y-22888663D02*
X12650063Y-22879139D01*
X12650063Y-22879139D02*
X12640539Y-22860092D01*
X12640539Y-22860092D02*
X12631015Y-22821996D01*
X12631015Y-22821996D02*
X12631015Y-22774377D01*
X12631015Y-22774377D02*
X12640539Y-22736282D01*
X12640539Y-22736282D02*
X12650063Y-22717235D01*
X12650063Y-22717235D02*
X12659586Y-22707711D01*
X12659586Y-22707711D02*
X12678634Y-22698187D01*
X12831015Y-22879139D02*
X12840539Y-22888663D01*
X12840539Y-22888663D02*
X12831015Y-22898187D01*
X12831015Y-22898187D02*
X12821491Y-22888663D01*
X12821491Y-22888663D02*
X12831015Y-22879139D01*
X12831015Y-22879139D02*
X12831015Y-22898187D01*
X12964348Y-22698187D02*
X12983396Y-22698187D01*
X12983396Y-22698187D02*
X13002444Y-22707711D01*
X13002444Y-22707711D02*
X13011967Y-22717235D01*
X13011967Y-22717235D02*
X13021491Y-22736282D01*
X13021491Y-22736282D02*
X13031015Y-22774377D01*
X13031015Y-22774377D02*
X13031015Y-22821996D01*
X13031015Y-22821996D02*
X13021491Y-22860092D01*
X13021491Y-22860092D02*
X13011967Y-22879139D01*
X13011967Y-22879139D02*
X13002444Y-22888663D01*
X13002444Y-22888663D02*
X12983396Y-22898187D01*
X12983396Y-22898187D02*
X12964348Y-22898187D01*
X12964348Y-22898187D02*
X12945301Y-22888663D01*
X12945301Y-22888663D02*
X12935777Y-22879139D01*
X12935777Y-22879139D02*
X12926253Y-22860092D01*
X12926253Y-22860092D02*
X12916729Y-22821996D01*
X12916729Y-22821996D02*
X12916729Y-22774377D01*
X12916729Y-22774377D02*
X12926253Y-22736282D01*
X12926253Y-22736282D02*
X12935777Y-22717235D01*
X12935777Y-22717235D02*
X12945301Y-22707711D01*
X12945301Y-22707711D02*
X12964348Y-22698187D01*
X13107206Y-22717235D02*
X13116729Y-22707711D01*
X13116729Y-22707711D02*
X13135777Y-22698187D01*
X13135777Y-22698187D02*
X13183396Y-22698187D01*
X13183396Y-22698187D02*
X13202444Y-22707711D01*
X13202444Y-22707711D02*
X13211967Y-22717235D01*
X13211967Y-22717235D02*
X13221491Y-22736282D01*
X13221491Y-22736282D02*
X13221491Y-22755330D01*
X13221491Y-22755330D02*
X13211967Y-22783901D01*
X13211967Y-22783901D02*
X13097682Y-22898187D01*
X13097682Y-22898187D02*
X13221491Y-22898187D01*
X13288158Y-22698187D02*
X13411967Y-22698187D01*
X13411967Y-22698187D02*
X13345301Y-22774377D01*
X13345301Y-22774377D02*
X13373872Y-22774377D01*
X13373872Y-22774377D02*
X13392920Y-22783901D01*
X13392920Y-22783901D02*
X13402444Y-22793425D01*
X13402444Y-22793425D02*
X13411967Y-22812473D01*
X13411967Y-22812473D02*
X13411967Y-22860092D01*
X13411967Y-22860092D02*
X13402444Y-22879139D01*
X13402444Y-22879139D02*
X13392920Y-22888663D01*
X13392920Y-22888663D02*
X13373872Y-22898187D01*
X13373872Y-22898187D02*
X13316729Y-22898187D01*
X13316729Y-22898187D02*
X13297682Y-22888663D01*
X13297682Y-22888663D02*
X13288158Y-22879139D01*
X13583396Y-22698187D02*
X13545301Y-22698187D01*
X13545301Y-22698187D02*
X13526253Y-22707711D01*
X13526253Y-22707711D02*
X13516729Y-22717235D01*
X13516729Y-22717235D02*
X13497682Y-22745806D01*
X13497682Y-22745806D02*
X13488158Y-22783901D01*
X13488158Y-22783901D02*
X13488158Y-22860092D01*
X13488158Y-22860092D02*
X13497682Y-22879139D01*
X13497682Y-22879139D02*
X13507206Y-22888663D01*
X13507206Y-22888663D02*
X13526253Y-22898187D01*
X13526253Y-22898187D02*
X13564348Y-22898187D01*
X13564348Y-22898187D02*
X13583396Y-22888663D01*
X13583396Y-22888663D02*
X13592920Y-22879139D01*
X13592920Y-22879139D02*
X13602444Y-22860092D01*
X13602444Y-22860092D02*
X13602444Y-22812473D01*
X13602444Y-22812473D02*
X13592920Y-22793425D01*
X13592920Y-22793425D02*
X13583396Y-22783901D01*
X13583396Y-22783901D02*
X13564348Y-22774377D01*
X13564348Y-22774377D02*
X13526253Y-22774377D01*
X13526253Y-22774377D02*
X13507206Y-22783901D01*
X13507206Y-22783901D02*
X13497682Y-22793425D01*
X13497682Y-22793425D02*
X13488158Y-22812473D01*
X13678634Y-22698187D02*
X13678634Y-22736282D01*
X13754825Y-22698187D02*
X13754825Y-22736282D01*
X14050063Y-22974377D02*
X14040539Y-22964854D01*
X14040539Y-22964854D02*
X14021491Y-22936282D01*
X14021491Y-22936282D02*
X14011968Y-22917235D01*
X14011968Y-22917235D02*
X14002444Y-22888663D01*
X14002444Y-22888663D02*
X13992920Y-22841044D01*
X13992920Y-22841044D02*
X13992920Y-22802949D01*
X13992920Y-22802949D02*
X14002444Y-22755330D01*
X14002444Y-22755330D02*
X14011968Y-22726758D01*
X14011968Y-22726758D02*
X14021491Y-22707711D01*
X14021491Y-22707711D02*
X14040539Y-22679139D01*
X14040539Y-22679139D02*
X14050063Y-22669615D01*
X14164348Y-22698187D02*
X14183396Y-22698187D01*
X14183396Y-22698187D02*
X14202444Y-22707711D01*
X14202444Y-22707711D02*
X14211968Y-22717235D01*
X14211968Y-22717235D02*
X14221491Y-22736282D01*
X14221491Y-22736282D02*
X14231015Y-22774377D01*
X14231015Y-22774377D02*
X14231015Y-22821996D01*
X14231015Y-22821996D02*
X14221491Y-22860092D01*
X14221491Y-22860092D02*
X14211968Y-22879139D01*
X14211968Y-22879139D02*
X14202444Y-22888663D01*
X14202444Y-22888663D02*
X14183396Y-22898187D01*
X14183396Y-22898187D02*
X14164348Y-22898187D01*
X14164348Y-22898187D02*
X14145301Y-22888663D01*
X14145301Y-22888663D02*
X14135777Y-22879139D01*
X14135777Y-22879139D02*
X14126253Y-22860092D01*
X14126253Y-22860092D02*
X14116729Y-22821996D01*
X14116729Y-22821996D02*
X14116729Y-22774377D01*
X14116729Y-22774377D02*
X14126253Y-22736282D01*
X14126253Y-22736282D02*
X14135777Y-22717235D01*
X14135777Y-22717235D02*
X14145301Y-22707711D01*
X14145301Y-22707711D02*
X14164348Y-22698187D01*
X14469110Y-22898187D02*
X14469110Y-22698187D01*
X14554825Y-22898187D02*
X14554825Y-22793425D01*
X14554825Y-22793425D02*
X14545301Y-22774377D01*
X14545301Y-22774377D02*
X14526253Y-22764854D01*
X14526253Y-22764854D02*
X14497682Y-22764854D01*
X14497682Y-22764854D02*
X14478634Y-22774377D01*
X14478634Y-22774377D02*
X14469110Y-22783901D01*
X14678634Y-22898187D02*
X14659587Y-22888663D01*
X14659587Y-22888663D02*
X14650063Y-22879139D01*
X14650063Y-22879139D02*
X14640539Y-22860092D01*
X14640539Y-22860092D02*
X14640539Y-22802949D01*
X14640539Y-22802949D02*
X14650063Y-22783901D01*
X14650063Y-22783901D02*
X14659587Y-22774377D01*
X14659587Y-22774377D02*
X14678634Y-22764854D01*
X14678634Y-22764854D02*
X14707206Y-22764854D01*
X14707206Y-22764854D02*
X14726253Y-22774377D01*
X14726253Y-22774377D02*
X14735777Y-22783901D01*
X14735777Y-22783901D02*
X14745301Y-22802949D01*
X14745301Y-22802949D02*
X14745301Y-22860092D01*
X14745301Y-22860092D02*
X14735777Y-22879139D01*
X14735777Y-22879139D02*
X14726253Y-22888663D01*
X14726253Y-22888663D02*
X14707206Y-22898187D01*
X14707206Y-22898187D02*
X14678634Y-22898187D01*
X14859587Y-22898187D02*
X14840539Y-22888663D01*
X14840539Y-22888663D02*
X14831015Y-22869615D01*
X14831015Y-22869615D02*
X14831015Y-22698187D01*
X15011968Y-22888663D02*
X14992920Y-22898187D01*
X14992920Y-22898187D02*
X14954825Y-22898187D01*
X14954825Y-22898187D02*
X14935777Y-22888663D01*
X14935777Y-22888663D02*
X14926253Y-22869615D01*
X14926253Y-22869615D02*
X14926253Y-22793425D01*
X14926253Y-22793425D02*
X14935777Y-22774377D01*
X14935777Y-22774377D02*
X14954825Y-22764854D01*
X14954825Y-22764854D02*
X14992920Y-22764854D01*
X14992920Y-22764854D02*
X15011968Y-22774377D01*
X15011968Y-22774377D02*
X15021491Y-22793425D01*
X15021491Y-22793425D02*
X15021491Y-22812473D01*
X15021491Y-22812473D02*
X14926253Y-22831520D01*
X15097682Y-22888663D02*
X15116730Y-22898187D01*
X15116730Y-22898187D02*
X15154825Y-22898187D01*
X15154825Y-22898187D02*
X15173872Y-22888663D01*
X15173872Y-22888663D02*
X15183396Y-22869615D01*
X15183396Y-22869615D02*
X15183396Y-22860092D01*
X15183396Y-22860092D02*
X15173872Y-22841044D01*
X15173872Y-22841044D02*
X15154825Y-22831520D01*
X15154825Y-22831520D02*
X15126253Y-22831520D01*
X15126253Y-22831520D02*
X15107206Y-22821996D01*
X15107206Y-22821996D02*
X15097682Y-22802949D01*
X15097682Y-22802949D02*
X15097682Y-22793425D01*
X15097682Y-22793425D02*
X15107206Y-22774377D01*
X15107206Y-22774377D02*
X15126253Y-22764854D01*
X15126253Y-22764854D02*
X15154825Y-22764854D01*
X15154825Y-22764854D02*
X15173872Y-22774377D01*
X15421492Y-22821996D02*
X15573873Y-22821996D01*
X15497682Y-22898187D02*
X15497682Y-22745806D01*
X15907206Y-22764854D02*
X15907206Y-22898187D01*
X15859587Y-22688663D02*
X15811968Y-22831520D01*
X15811968Y-22831520D02*
X15935777Y-22831520D01*
X16154825Y-22888663D02*
X16173873Y-22898187D01*
X16173873Y-22898187D02*
X16211968Y-22898187D01*
X16211968Y-22898187D02*
X16231015Y-22888663D01*
X16231015Y-22888663D02*
X16240539Y-22869615D01*
X16240539Y-22869615D02*
X16240539Y-22860092D01*
X16240539Y-22860092D02*
X16231015Y-22841044D01*
X16231015Y-22841044D02*
X16211968Y-22831520D01*
X16211968Y-22831520D02*
X16183396Y-22831520D01*
X16183396Y-22831520D02*
X16164349Y-22821996D01*
X16164349Y-22821996D02*
X16154825Y-22802949D01*
X16154825Y-22802949D02*
X16154825Y-22793425D01*
X16154825Y-22793425D02*
X16164349Y-22774377D01*
X16164349Y-22774377D02*
X16183396Y-22764854D01*
X16183396Y-22764854D02*
X16211968Y-22764854D01*
X16211968Y-22764854D02*
X16231015Y-22774377D01*
X16354825Y-22898187D02*
X16335777Y-22888663D01*
X16335777Y-22888663D02*
X16326254Y-22869615D01*
X16326254Y-22869615D02*
X16326254Y-22698187D01*
X16459587Y-22898187D02*
X16440539Y-22888663D01*
X16440539Y-22888663D02*
X16431015Y-22879139D01*
X16431015Y-22879139D02*
X16421492Y-22860092D01*
X16421492Y-22860092D02*
X16421492Y-22802949D01*
X16421492Y-22802949D02*
X16431015Y-22783901D01*
X16431015Y-22783901D02*
X16440539Y-22774377D01*
X16440539Y-22774377D02*
X16459587Y-22764854D01*
X16459587Y-22764854D02*
X16488158Y-22764854D01*
X16488158Y-22764854D02*
X16507206Y-22774377D01*
X16507206Y-22774377D02*
X16516730Y-22783901D01*
X16516730Y-22783901D02*
X16526254Y-22802949D01*
X16526254Y-22802949D02*
X16526254Y-22860092D01*
X16526254Y-22860092D02*
X16516730Y-22879139D01*
X16516730Y-22879139D02*
X16507206Y-22888663D01*
X16507206Y-22888663D02*
X16488158Y-22898187D01*
X16488158Y-22898187D02*
X16459587Y-22898187D01*
X16583396Y-22764854D02*
X16659587Y-22764854D01*
X16611968Y-22698187D02*
X16611968Y-22869615D01*
X16611968Y-22869615D02*
X16621492Y-22888663D01*
X16621492Y-22888663D02*
X16640539Y-22898187D01*
X16640539Y-22898187D02*
X16659587Y-22898187D01*
X16716730Y-22888663D02*
X16735777Y-22898187D01*
X16735777Y-22898187D02*
X16773873Y-22898187D01*
X16773873Y-22898187D02*
X16792920Y-22888663D01*
X16792920Y-22888663D02*
X16802444Y-22869615D01*
X16802444Y-22869615D02*
X16802444Y-22860092D01*
X16802444Y-22860092D02*
X16792920Y-22841044D01*
X16792920Y-22841044D02*
X16773873Y-22831520D01*
X16773873Y-22831520D02*
X16745301Y-22831520D01*
X16745301Y-22831520D02*
X16726254Y-22821996D01*
X16726254Y-22821996D02*
X16716730Y-22802949D01*
X16716730Y-22802949D02*
X16716730Y-22793425D01*
X16716730Y-22793425D02*
X16726254Y-22774377D01*
X16726254Y-22774377D02*
X16745301Y-22764854D01*
X16745301Y-22764854D02*
X16773873Y-22764854D01*
X16773873Y-22764854D02*
X16792920Y-22774377D01*
X16869111Y-22974377D02*
X16878635Y-22964854D01*
X16878635Y-22964854D02*
X16897682Y-22936282D01*
X16897682Y-22936282D02*
X16907206Y-22917235D01*
X16907206Y-22917235D02*
X16916730Y-22888663D01*
X16916730Y-22888663D02*
X16926254Y-22841044D01*
X16926254Y-22841044D02*
X16926254Y-22802949D01*
X16926254Y-22802949D02*
X16916730Y-22755330D01*
X16916730Y-22755330D02*
X16907206Y-22726758D01*
X16907206Y-22726758D02*
X16897682Y-22707711D01*
X16897682Y-22707711D02*
X16878635Y-22679139D01*
X16878635Y-22679139D02*
X16869111Y-22669615D01*
D14*
X10400000Y-22995703D02*
X10400000Y-23145703D01*
X10325000Y-23070703D02*
X10475000Y-23070703D01*
D11*
X10840539Y-23162187D02*
X10726253Y-23162187D01*
X10783396Y-23162187D02*
X10783396Y-22962187D01*
X10783396Y-22962187D02*
X10764348Y-22990758D01*
X10764348Y-22990758D02*
X10745301Y-23009806D01*
X10745301Y-23009806D02*
X10726253Y-23019330D01*
X10926253Y-23143139D02*
X10935777Y-23152663D01*
X10935777Y-23152663D02*
X10926253Y-23162187D01*
X10926253Y-23162187D02*
X10916729Y-23152663D01*
X10916729Y-23152663D02*
X10926253Y-23143139D01*
X10926253Y-23143139D02*
X10926253Y-23162187D01*
X11116729Y-22962187D02*
X11021491Y-22962187D01*
X11021491Y-22962187D02*
X11011967Y-23057425D01*
X11011967Y-23057425D02*
X11021491Y-23047901D01*
X11021491Y-23047901D02*
X11040539Y-23038377D01*
X11040539Y-23038377D02*
X11088158Y-23038377D01*
X11088158Y-23038377D02*
X11107205Y-23047901D01*
X11107205Y-23047901D02*
X11116729Y-23057425D01*
X11116729Y-23057425D02*
X11126253Y-23076473D01*
X11126253Y-23076473D02*
X11126253Y-23124092D01*
X11126253Y-23124092D02*
X11116729Y-23143139D01*
X11116729Y-23143139D02*
X11107205Y-23152663D01*
X11107205Y-23152663D02*
X11088158Y-23162187D01*
X11088158Y-23162187D02*
X11040539Y-23162187D01*
X11040539Y-23162187D02*
X11021491Y-23152663D01*
X11021491Y-23152663D02*
X11011967Y-23143139D01*
X11250062Y-22962187D02*
X11269110Y-22962187D01*
X11269110Y-22962187D02*
X11288158Y-22971711D01*
X11288158Y-22971711D02*
X11297682Y-22981235D01*
X11297682Y-22981235D02*
X11307205Y-23000282D01*
X11307205Y-23000282D02*
X11316729Y-23038377D01*
X11316729Y-23038377D02*
X11316729Y-23085996D01*
X11316729Y-23085996D02*
X11307205Y-23124092D01*
X11307205Y-23124092D02*
X11297682Y-23143139D01*
X11297682Y-23143139D02*
X11288158Y-23152663D01*
X11288158Y-23152663D02*
X11269110Y-23162187D01*
X11269110Y-23162187D02*
X11250062Y-23162187D01*
X11250062Y-23162187D02*
X11231015Y-23152663D01*
X11231015Y-23152663D02*
X11221491Y-23143139D01*
X11221491Y-23143139D02*
X11211967Y-23124092D01*
X11211967Y-23124092D02*
X11202443Y-23085996D01*
X11202443Y-23085996D02*
X11202443Y-23038377D01*
X11202443Y-23038377D02*
X11211967Y-23000282D01*
X11211967Y-23000282D02*
X11221491Y-22981235D01*
X11221491Y-22981235D02*
X11231015Y-22971711D01*
X11231015Y-22971711D02*
X11250062Y-22962187D01*
X11440539Y-22962187D02*
X11459586Y-22962187D01*
X11459586Y-22962187D02*
X11478634Y-22971711D01*
X11478634Y-22971711D02*
X11488158Y-22981235D01*
X11488158Y-22981235D02*
X11497682Y-23000282D01*
X11497682Y-23000282D02*
X11507205Y-23038377D01*
X11507205Y-23038377D02*
X11507205Y-23085996D01*
X11507205Y-23085996D02*
X11497682Y-23124092D01*
X11497682Y-23124092D02*
X11488158Y-23143139D01*
X11488158Y-23143139D02*
X11478634Y-23152663D01*
X11478634Y-23152663D02*
X11459586Y-23162187D01*
X11459586Y-23162187D02*
X11440539Y-23162187D01*
X11440539Y-23162187D02*
X11421491Y-23152663D01*
X11421491Y-23152663D02*
X11411967Y-23143139D01*
X11411967Y-23143139D02*
X11402443Y-23124092D01*
X11402443Y-23124092D02*
X11392920Y-23085996D01*
X11392920Y-23085996D02*
X11392920Y-23038377D01*
X11392920Y-23038377D02*
X11402443Y-23000282D01*
X11402443Y-23000282D02*
X11411967Y-22981235D01*
X11411967Y-22981235D02*
X11421491Y-22971711D01*
X11421491Y-22971711D02*
X11440539Y-22962187D01*
X11592920Y-23162187D02*
X11592920Y-23028854D01*
X11592920Y-23047901D02*
X11602443Y-23038377D01*
X11602443Y-23038377D02*
X11621491Y-23028854D01*
X11621491Y-23028854D02*
X11650063Y-23028854D01*
X11650063Y-23028854D02*
X11669110Y-23038377D01*
X11669110Y-23038377D02*
X11678634Y-23057425D01*
X11678634Y-23057425D02*
X11678634Y-23162187D01*
X11678634Y-23057425D02*
X11688158Y-23038377D01*
X11688158Y-23038377D02*
X11707205Y-23028854D01*
X11707205Y-23028854D02*
X11735777Y-23028854D01*
X11735777Y-23028854D02*
X11754824Y-23038377D01*
X11754824Y-23038377D02*
X11764348Y-23057425D01*
X11764348Y-23057425D02*
X11764348Y-23162187D01*
X11859586Y-23162187D02*
X11859586Y-23028854D01*
X11859586Y-23047901D02*
X11869110Y-23038377D01*
X11869110Y-23038377D02*
X11888158Y-23028854D01*
X11888158Y-23028854D02*
X11916729Y-23028854D01*
X11916729Y-23028854D02*
X11935777Y-23038377D01*
X11935777Y-23038377D02*
X11945301Y-23057425D01*
X11945301Y-23057425D02*
X11945301Y-23162187D01*
X11945301Y-23057425D02*
X11954824Y-23038377D01*
X11954824Y-23038377D02*
X11973872Y-23028854D01*
X11973872Y-23028854D02*
X12002443Y-23028854D01*
X12002443Y-23028854D02*
X12021491Y-23038377D01*
X12021491Y-23038377D02*
X12031015Y-23057425D01*
X12031015Y-23057425D02*
X12031015Y-23162187D01*
X12421491Y-22952663D02*
X12250063Y-23209806D01*
X12678634Y-22962187D02*
X12697682Y-22962187D01*
X12697682Y-22962187D02*
X12716729Y-22971711D01*
X12716729Y-22971711D02*
X12726253Y-22981235D01*
X12726253Y-22981235D02*
X12735777Y-23000282D01*
X12735777Y-23000282D02*
X12745301Y-23038377D01*
X12745301Y-23038377D02*
X12745301Y-23085996D01*
X12745301Y-23085996D02*
X12735777Y-23124092D01*
X12735777Y-23124092D02*
X12726253Y-23143139D01*
X12726253Y-23143139D02*
X12716729Y-23152663D01*
X12716729Y-23152663D02*
X12697682Y-23162187D01*
X12697682Y-23162187D02*
X12678634Y-23162187D01*
X12678634Y-23162187D02*
X12659586Y-23152663D01*
X12659586Y-23152663D02*
X12650063Y-23143139D01*
X12650063Y-23143139D02*
X12640539Y-23124092D01*
X12640539Y-23124092D02*
X12631015Y-23085996D01*
X12631015Y-23085996D02*
X12631015Y-23038377D01*
X12631015Y-23038377D02*
X12640539Y-23000282D01*
X12640539Y-23000282D02*
X12650063Y-22981235D01*
X12650063Y-22981235D02*
X12659586Y-22971711D01*
X12659586Y-22971711D02*
X12678634Y-22962187D01*
X12831015Y-23143139D02*
X12840539Y-23152663D01*
X12840539Y-23152663D02*
X12831015Y-23162187D01*
X12831015Y-23162187D02*
X12821491Y-23152663D01*
X12821491Y-23152663D02*
X12831015Y-23143139D01*
X12831015Y-23143139D02*
X12831015Y-23162187D01*
X12964348Y-22962187D02*
X12983396Y-22962187D01*
X12983396Y-22962187D02*
X13002444Y-22971711D01*
X13002444Y-22971711D02*
X13011967Y-22981235D01*
X13011967Y-22981235D02*
X13021491Y-23000282D01*
X13021491Y-23000282D02*
X13031015Y-23038377D01*
X13031015Y-23038377D02*
X13031015Y-23085996D01*
X13031015Y-23085996D02*
X13021491Y-23124092D01*
X13021491Y-23124092D02*
X13011967Y-23143139D01*
X13011967Y-23143139D02*
X13002444Y-23152663D01*
X13002444Y-23152663D02*
X12983396Y-23162187D01*
X12983396Y-23162187D02*
X12964348Y-23162187D01*
X12964348Y-23162187D02*
X12945301Y-23152663D01*
X12945301Y-23152663D02*
X12935777Y-23143139D01*
X12935777Y-23143139D02*
X12926253Y-23124092D01*
X12926253Y-23124092D02*
X12916729Y-23085996D01*
X12916729Y-23085996D02*
X12916729Y-23038377D01*
X12916729Y-23038377D02*
X12926253Y-23000282D01*
X12926253Y-23000282D02*
X12935777Y-22981235D01*
X12935777Y-22981235D02*
X12945301Y-22971711D01*
X12945301Y-22971711D02*
X12964348Y-22962187D01*
X13211967Y-22962187D02*
X13116729Y-22962187D01*
X13116729Y-22962187D02*
X13107206Y-23057425D01*
X13107206Y-23057425D02*
X13116729Y-23047901D01*
X13116729Y-23047901D02*
X13135777Y-23038377D01*
X13135777Y-23038377D02*
X13183396Y-23038377D01*
X13183396Y-23038377D02*
X13202444Y-23047901D01*
X13202444Y-23047901D02*
X13211967Y-23057425D01*
X13211967Y-23057425D02*
X13221491Y-23076473D01*
X13221491Y-23076473D02*
X13221491Y-23124092D01*
X13221491Y-23124092D02*
X13211967Y-23143139D01*
X13211967Y-23143139D02*
X13202444Y-23152663D01*
X13202444Y-23152663D02*
X13183396Y-23162187D01*
X13183396Y-23162187D02*
X13135777Y-23162187D01*
X13135777Y-23162187D02*
X13116729Y-23152663D01*
X13116729Y-23152663D02*
X13107206Y-23143139D01*
X13316729Y-23162187D02*
X13354825Y-23162187D01*
X13354825Y-23162187D02*
X13373872Y-23152663D01*
X13373872Y-23152663D02*
X13383396Y-23143139D01*
X13383396Y-23143139D02*
X13402444Y-23114568D01*
X13402444Y-23114568D02*
X13411967Y-23076473D01*
X13411967Y-23076473D02*
X13411967Y-23000282D01*
X13411967Y-23000282D02*
X13402444Y-22981235D01*
X13402444Y-22981235D02*
X13392920Y-22971711D01*
X13392920Y-22971711D02*
X13373872Y-22962187D01*
X13373872Y-22962187D02*
X13335777Y-22962187D01*
X13335777Y-22962187D02*
X13316729Y-22971711D01*
X13316729Y-22971711D02*
X13307206Y-22981235D01*
X13307206Y-22981235D02*
X13297682Y-23000282D01*
X13297682Y-23000282D02*
X13297682Y-23047901D01*
X13297682Y-23047901D02*
X13307206Y-23066949D01*
X13307206Y-23066949D02*
X13316729Y-23076473D01*
X13316729Y-23076473D02*
X13335777Y-23085996D01*
X13335777Y-23085996D02*
X13373872Y-23085996D01*
X13373872Y-23085996D02*
X13392920Y-23076473D01*
X13392920Y-23076473D02*
X13402444Y-23066949D01*
X13402444Y-23066949D02*
X13411967Y-23047901D01*
X13602444Y-23162187D02*
X13488158Y-23162187D01*
X13545301Y-23162187D02*
X13545301Y-22962187D01*
X13545301Y-22962187D02*
X13526253Y-22990758D01*
X13526253Y-22990758D02*
X13507206Y-23009806D01*
X13507206Y-23009806D02*
X13488158Y-23019330D01*
X13678634Y-22962187D02*
X13678634Y-23000282D01*
X13754825Y-22962187D02*
X13754825Y-23000282D01*
X14050063Y-23238377D02*
X14040539Y-23228854D01*
X14040539Y-23228854D02*
X14021491Y-23200282D01*
X14021491Y-23200282D02*
X14011968Y-23181235D01*
X14011968Y-23181235D02*
X14002444Y-23152663D01*
X14002444Y-23152663D02*
X13992920Y-23105044D01*
X13992920Y-23105044D02*
X13992920Y-23066949D01*
X13992920Y-23066949D02*
X14002444Y-23019330D01*
X14002444Y-23019330D02*
X14011968Y-22990758D01*
X14011968Y-22990758D02*
X14021491Y-22971711D01*
X14021491Y-22971711D02*
X14040539Y-22943139D01*
X14040539Y-22943139D02*
X14050063Y-22933615D01*
X14154825Y-23047901D02*
X14135777Y-23038377D01*
X14135777Y-23038377D02*
X14126253Y-23028854D01*
X14126253Y-23028854D02*
X14116729Y-23009806D01*
X14116729Y-23009806D02*
X14116729Y-23000282D01*
X14116729Y-23000282D02*
X14126253Y-22981235D01*
X14126253Y-22981235D02*
X14135777Y-22971711D01*
X14135777Y-22971711D02*
X14154825Y-22962187D01*
X14154825Y-22962187D02*
X14192920Y-22962187D01*
X14192920Y-22962187D02*
X14211968Y-22971711D01*
X14211968Y-22971711D02*
X14221491Y-22981235D01*
X14221491Y-22981235D02*
X14231015Y-23000282D01*
X14231015Y-23000282D02*
X14231015Y-23009806D01*
X14231015Y-23009806D02*
X14221491Y-23028854D01*
X14221491Y-23028854D02*
X14211968Y-23038377D01*
X14211968Y-23038377D02*
X14192920Y-23047901D01*
X14192920Y-23047901D02*
X14154825Y-23047901D01*
X14154825Y-23047901D02*
X14135777Y-23057425D01*
X14135777Y-23057425D02*
X14126253Y-23066949D01*
X14126253Y-23066949D02*
X14116729Y-23085996D01*
X14116729Y-23085996D02*
X14116729Y-23124092D01*
X14116729Y-23124092D02*
X14126253Y-23143139D01*
X14126253Y-23143139D02*
X14135777Y-23152663D01*
X14135777Y-23152663D02*
X14154825Y-23162187D01*
X14154825Y-23162187D02*
X14192920Y-23162187D01*
X14192920Y-23162187D02*
X14211968Y-23152663D01*
X14211968Y-23152663D02*
X14221491Y-23143139D01*
X14221491Y-23143139D02*
X14231015Y-23124092D01*
X14231015Y-23124092D02*
X14231015Y-23085996D01*
X14231015Y-23085996D02*
X14221491Y-23066949D01*
X14221491Y-23066949D02*
X14211968Y-23057425D01*
X14211968Y-23057425D02*
X14192920Y-23047901D01*
X14307206Y-22981235D02*
X14316729Y-22971711D01*
X14316729Y-22971711D02*
X14335777Y-22962187D01*
X14335777Y-22962187D02*
X14383396Y-22962187D01*
X14383396Y-22962187D02*
X14402444Y-22971711D01*
X14402444Y-22971711D02*
X14411968Y-22981235D01*
X14411968Y-22981235D02*
X14421491Y-23000282D01*
X14421491Y-23000282D02*
X14421491Y-23019330D01*
X14421491Y-23019330D02*
X14411968Y-23047901D01*
X14411968Y-23047901D02*
X14297682Y-23162187D01*
X14297682Y-23162187D02*
X14421491Y-23162187D01*
X14659587Y-23162187D02*
X14659587Y-22962187D01*
X14745301Y-23162187D02*
X14745301Y-23057425D01*
X14745301Y-23057425D02*
X14735777Y-23038377D01*
X14735777Y-23038377D02*
X14716730Y-23028854D01*
X14716730Y-23028854D02*
X14688158Y-23028854D01*
X14688158Y-23028854D02*
X14669110Y-23038377D01*
X14669110Y-23038377D02*
X14659587Y-23047901D01*
X14869110Y-23162187D02*
X14850063Y-23152663D01*
X14850063Y-23152663D02*
X14840539Y-23143139D01*
X14840539Y-23143139D02*
X14831015Y-23124092D01*
X14831015Y-23124092D02*
X14831015Y-23066949D01*
X14831015Y-23066949D02*
X14840539Y-23047901D01*
X14840539Y-23047901D02*
X14850063Y-23038377D01*
X14850063Y-23038377D02*
X14869110Y-23028854D01*
X14869110Y-23028854D02*
X14897682Y-23028854D01*
X14897682Y-23028854D02*
X14916730Y-23038377D01*
X14916730Y-23038377D02*
X14926253Y-23047901D01*
X14926253Y-23047901D02*
X14935777Y-23066949D01*
X14935777Y-23066949D02*
X14935777Y-23124092D01*
X14935777Y-23124092D02*
X14926253Y-23143139D01*
X14926253Y-23143139D02*
X14916730Y-23152663D01*
X14916730Y-23152663D02*
X14897682Y-23162187D01*
X14897682Y-23162187D02*
X14869110Y-23162187D01*
X15050063Y-23162187D02*
X15031015Y-23152663D01*
X15031015Y-23152663D02*
X15021491Y-23133615D01*
X15021491Y-23133615D02*
X15021491Y-22962187D01*
X15202444Y-23152663D02*
X15183396Y-23162187D01*
X15183396Y-23162187D02*
X15145301Y-23162187D01*
X15145301Y-23162187D02*
X15126253Y-23152663D01*
X15126253Y-23152663D02*
X15116730Y-23133615D01*
X15116730Y-23133615D02*
X15116730Y-23057425D01*
X15116730Y-23057425D02*
X15126253Y-23038377D01*
X15126253Y-23038377D02*
X15145301Y-23028854D01*
X15145301Y-23028854D02*
X15183396Y-23028854D01*
X15183396Y-23028854D02*
X15202444Y-23038377D01*
X15202444Y-23038377D02*
X15211968Y-23057425D01*
X15211968Y-23057425D02*
X15211968Y-23076473D01*
X15211968Y-23076473D02*
X15116730Y-23095520D01*
X15288158Y-23152663D02*
X15307206Y-23162187D01*
X15307206Y-23162187D02*
X15345301Y-23162187D01*
X15345301Y-23162187D02*
X15364349Y-23152663D01*
X15364349Y-23152663D02*
X15373872Y-23133615D01*
X15373872Y-23133615D02*
X15373872Y-23124092D01*
X15373872Y-23124092D02*
X15364349Y-23105044D01*
X15364349Y-23105044D02*
X15345301Y-23095520D01*
X15345301Y-23095520D02*
X15316730Y-23095520D01*
X15316730Y-23095520D02*
X15297682Y-23085996D01*
X15297682Y-23085996D02*
X15288158Y-23066949D01*
X15288158Y-23066949D02*
X15288158Y-23057425D01*
X15288158Y-23057425D02*
X15297682Y-23038377D01*
X15297682Y-23038377D02*
X15316730Y-23028854D01*
X15316730Y-23028854D02*
X15345301Y-23028854D01*
X15345301Y-23028854D02*
X15364349Y-23038377D01*
X15440539Y-23238377D02*
X15450063Y-23228854D01*
X15450063Y-23228854D02*
X15469111Y-23200282D01*
X15469111Y-23200282D02*
X15478634Y-23181235D01*
X15478634Y-23181235D02*
X15488158Y-23152663D01*
X15488158Y-23152663D02*
X15497682Y-23105044D01*
X15497682Y-23105044D02*
X15497682Y-23066949D01*
X15497682Y-23066949D02*
X15488158Y-23019330D01*
X15488158Y-23019330D02*
X15478634Y-22990758D01*
X15478634Y-22990758D02*
X15469111Y-22971711D01*
X15469111Y-22971711D02*
X15450063Y-22943139D01*
X15450063Y-22943139D02*
X15440539Y-22933615D01*
X10445711Y-23411415D02*
X10445711Y-23269992D01*
X10304289Y-23269992D01*
X10304289Y-23411415D01*
X10445711Y-23411415D01*
X10726253Y-23251235D02*
X10735777Y-23241711D01*
X10735777Y-23241711D02*
X10754824Y-23232187D01*
X10754824Y-23232187D02*
X10802444Y-23232187D01*
X10802444Y-23232187D02*
X10821491Y-23241711D01*
X10821491Y-23241711D02*
X10831015Y-23251235D01*
X10831015Y-23251235D02*
X10840539Y-23270282D01*
X10840539Y-23270282D02*
X10840539Y-23289330D01*
X10840539Y-23289330D02*
X10831015Y-23317901D01*
X10831015Y-23317901D02*
X10716729Y-23432187D01*
X10716729Y-23432187D02*
X10840539Y-23432187D01*
X10926253Y-23413139D02*
X10935777Y-23422663D01*
X10935777Y-23422663D02*
X10926253Y-23432187D01*
X10926253Y-23432187D02*
X10916729Y-23422663D01*
X10916729Y-23422663D02*
X10926253Y-23413139D01*
X10926253Y-23413139D02*
X10926253Y-23432187D01*
X11011967Y-23251235D02*
X11021491Y-23241711D01*
X11021491Y-23241711D02*
X11040539Y-23232187D01*
X11040539Y-23232187D02*
X11088158Y-23232187D01*
X11088158Y-23232187D02*
X11107205Y-23241711D01*
X11107205Y-23241711D02*
X11116729Y-23251235D01*
X11116729Y-23251235D02*
X11126253Y-23270282D01*
X11126253Y-23270282D02*
X11126253Y-23289330D01*
X11126253Y-23289330D02*
X11116729Y-23317901D01*
X11116729Y-23317901D02*
X11002444Y-23432187D01*
X11002444Y-23432187D02*
X11126253Y-23432187D01*
X11250062Y-23232187D02*
X11269110Y-23232187D01*
X11269110Y-23232187D02*
X11288158Y-23241711D01*
X11288158Y-23241711D02*
X11297682Y-23251235D01*
X11297682Y-23251235D02*
X11307205Y-23270282D01*
X11307205Y-23270282D02*
X11316729Y-23308377D01*
X11316729Y-23308377D02*
X11316729Y-23355996D01*
X11316729Y-23355996D02*
X11307205Y-23394092D01*
X11307205Y-23394092D02*
X11297682Y-23413139D01*
X11297682Y-23413139D02*
X11288158Y-23422663D01*
X11288158Y-23422663D02*
X11269110Y-23432187D01*
X11269110Y-23432187D02*
X11250062Y-23432187D01*
X11250062Y-23432187D02*
X11231015Y-23422663D01*
X11231015Y-23422663D02*
X11221491Y-23413139D01*
X11221491Y-23413139D02*
X11211967Y-23394092D01*
X11211967Y-23394092D02*
X11202443Y-23355996D01*
X11202443Y-23355996D02*
X11202443Y-23308377D01*
X11202443Y-23308377D02*
X11211967Y-23270282D01*
X11211967Y-23270282D02*
X11221491Y-23251235D01*
X11221491Y-23251235D02*
X11231015Y-23241711D01*
X11231015Y-23241711D02*
X11250062Y-23232187D01*
X11440539Y-23232187D02*
X11459586Y-23232187D01*
X11459586Y-23232187D02*
X11478634Y-23241711D01*
X11478634Y-23241711D02*
X11488158Y-23251235D01*
X11488158Y-23251235D02*
X11497682Y-23270282D01*
X11497682Y-23270282D02*
X11507205Y-23308377D01*
X11507205Y-23308377D02*
X11507205Y-23355996D01*
X11507205Y-23355996D02*
X11497682Y-23394092D01*
X11497682Y-23394092D02*
X11488158Y-23413139D01*
X11488158Y-23413139D02*
X11478634Y-23422663D01*
X11478634Y-23422663D02*
X11459586Y-23432187D01*
X11459586Y-23432187D02*
X11440539Y-23432187D01*
X11440539Y-23432187D02*
X11421491Y-23422663D01*
X11421491Y-23422663D02*
X11411967Y-23413139D01*
X11411967Y-23413139D02*
X11402443Y-23394092D01*
X11402443Y-23394092D02*
X11392920Y-23355996D01*
X11392920Y-23355996D02*
X11392920Y-23308377D01*
X11392920Y-23308377D02*
X11402443Y-23270282D01*
X11402443Y-23270282D02*
X11411967Y-23251235D01*
X11411967Y-23251235D02*
X11421491Y-23241711D01*
X11421491Y-23241711D02*
X11440539Y-23232187D01*
X11592920Y-23432187D02*
X11592920Y-23298854D01*
X11592920Y-23317901D02*
X11602443Y-23308377D01*
X11602443Y-23308377D02*
X11621491Y-23298854D01*
X11621491Y-23298854D02*
X11650063Y-23298854D01*
X11650063Y-23298854D02*
X11669110Y-23308377D01*
X11669110Y-23308377D02*
X11678634Y-23327425D01*
X11678634Y-23327425D02*
X11678634Y-23432187D01*
X11678634Y-23327425D02*
X11688158Y-23308377D01*
X11688158Y-23308377D02*
X11707205Y-23298854D01*
X11707205Y-23298854D02*
X11735777Y-23298854D01*
X11735777Y-23298854D02*
X11754824Y-23308377D01*
X11754824Y-23308377D02*
X11764348Y-23327425D01*
X11764348Y-23327425D02*
X11764348Y-23432187D01*
X11859586Y-23432187D02*
X11859586Y-23298854D01*
X11859586Y-23317901D02*
X11869110Y-23308377D01*
X11869110Y-23308377D02*
X11888158Y-23298854D01*
X11888158Y-23298854D02*
X11916729Y-23298854D01*
X11916729Y-23298854D02*
X11935777Y-23308377D01*
X11935777Y-23308377D02*
X11945301Y-23327425D01*
X11945301Y-23327425D02*
X11945301Y-23432187D01*
X11945301Y-23327425D02*
X11954824Y-23308377D01*
X11954824Y-23308377D02*
X11973872Y-23298854D01*
X11973872Y-23298854D02*
X12002443Y-23298854D01*
X12002443Y-23298854D02*
X12021491Y-23308377D01*
X12021491Y-23308377D02*
X12031015Y-23327425D01*
X12031015Y-23327425D02*
X12031015Y-23432187D01*
X12421491Y-23222663D02*
X12250063Y-23479806D01*
X12678634Y-23232187D02*
X12697682Y-23232187D01*
X12697682Y-23232187D02*
X12716729Y-23241711D01*
X12716729Y-23241711D02*
X12726253Y-23251235D01*
X12726253Y-23251235D02*
X12735777Y-23270282D01*
X12735777Y-23270282D02*
X12745301Y-23308377D01*
X12745301Y-23308377D02*
X12745301Y-23355996D01*
X12745301Y-23355996D02*
X12735777Y-23394092D01*
X12735777Y-23394092D02*
X12726253Y-23413139D01*
X12726253Y-23413139D02*
X12716729Y-23422663D01*
X12716729Y-23422663D02*
X12697682Y-23432187D01*
X12697682Y-23432187D02*
X12678634Y-23432187D01*
X12678634Y-23432187D02*
X12659586Y-23422663D01*
X12659586Y-23422663D02*
X12650063Y-23413139D01*
X12650063Y-23413139D02*
X12640539Y-23394092D01*
X12640539Y-23394092D02*
X12631015Y-23355996D01*
X12631015Y-23355996D02*
X12631015Y-23308377D01*
X12631015Y-23308377D02*
X12640539Y-23270282D01*
X12640539Y-23270282D02*
X12650063Y-23251235D01*
X12650063Y-23251235D02*
X12659586Y-23241711D01*
X12659586Y-23241711D02*
X12678634Y-23232187D01*
X12831015Y-23413139D02*
X12840539Y-23422663D01*
X12840539Y-23422663D02*
X12831015Y-23432187D01*
X12831015Y-23432187D02*
X12821491Y-23422663D01*
X12821491Y-23422663D02*
X12831015Y-23413139D01*
X12831015Y-23413139D02*
X12831015Y-23432187D01*
X12964348Y-23232187D02*
X12983396Y-23232187D01*
X12983396Y-23232187D02*
X13002444Y-23241711D01*
X13002444Y-23241711D02*
X13011967Y-23251235D01*
X13011967Y-23251235D02*
X13021491Y-23270282D01*
X13021491Y-23270282D02*
X13031015Y-23308377D01*
X13031015Y-23308377D02*
X13031015Y-23355996D01*
X13031015Y-23355996D02*
X13021491Y-23394092D01*
X13021491Y-23394092D02*
X13011967Y-23413139D01*
X13011967Y-23413139D02*
X13002444Y-23422663D01*
X13002444Y-23422663D02*
X12983396Y-23432187D01*
X12983396Y-23432187D02*
X12964348Y-23432187D01*
X12964348Y-23432187D02*
X12945301Y-23422663D01*
X12945301Y-23422663D02*
X12935777Y-23413139D01*
X12935777Y-23413139D02*
X12926253Y-23394092D01*
X12926253Y-23394092D02*
X12916729Y-23355996D01*
X12916729Y-23355996D02*
X12916729Y-23308377D01*
X12916729Y-23308377D02*
X12926253Y-23270282D01*
X12926253Y-23270282D02*
X12935777Y-23251235D01*
X12935777Y-23251235D02*
X12945301Y-23241711D01*
X12945301Y-23241711D02*
X12964348Y-23232187D01*
X13145301Y-23317901D02*
X13126253Y-23308377D01*
X13126253Y-23308377D02*
X13116729Y-23298854D01*
X13116729Y-23298854D02*
X13107206Y-23279806D01*
X13107206Y-23279806D02*
X13107206Y-23270282D01*
X13107206Y-23270282D02*
X13116729Y-23251235D01*
X13116729Y-23251235D02*
X13126253Y-23241711D01*
X13126253Y-23241711D02*
X13145301Y-23232187D01*
X13145301Y-23232187D02*
X13183396Y-23232187D01*
X13183396Y-23232187D02*
X13202444Y-23241711D01*
X13202444Y-23241711D02*
X13211967Y-23251235D01*
X13211967Y-23251235D02*
X13221491Y-23270282D01*
X13221491Y-23270282D02*
X13221491Y-23279806D01*
X13221491Y-23279806D02*
X13211967Y-23298854D01*
X13211967Y-23298854D02*
X13202444Y-23308377D01*
X13202444Y-23308377D02*
X13183396Y-23317901D01*
X13183396Y-23317901D02*
X13145301Y-23317901D01*
X13145301Y-23317901D02*
X13126253Y-23327425D01*
X13126253Y-23327425D02*
X13116729Y-23336949D01*
X13116729Y-23336949D02*
X13107206Y-23355996D01*
X13107206Y-23355996D02*
X13107206Y-23394092D01*
X13107206Y-23394092D02*
X13116729Y-23413139D01*
X13116729Y-23413139D02*
X13126253Y-23422663D01*
X13126253Y-23422663D02*
X13145301Y-23432187D01*
X13145301Y-23432187D02*
X13183396Y-23432187D01*
X13183396Y-23432187D02*
X13202444Y-23422663D01*
X13202444Y-23422663D02*
X13211967Y-23413139D01*
X13211967Y-23413139D02*
X13221491Y-23394092D01*
X13221491Y-23394092D02*
X13221491Y-23355996D01*
X13221491Y-23355996D02*
X13211967Y-23336949D01*
X13211967Y-23336949D02*
X13202444Y-23327425D01*
X13202444Y-23327425D02*
X13183396Y-23317901D01*
X13392920Y-23232187D02*
X13354825Y-23232187D01*
X13354825Y-23232187D02*
X13335777Y-23241711D01*
X13335777Y-23241711D02*
X13326253Y-23251235D01*
X13326253Y-23251235D02*
X13307206Y-23279806D01*
X13307206Y-23279806D02*
X13297682Y-23317901D01*
X13297682Y-23317901D02*
X13297682Y-23394092D01*
X13297682Y-23394092D02*
X13307206Y-23413139D01*
X13307206Y-23413139D02*
X13316729Y-23422663D01*
X13316729Y-23422663D02*
X13335777Y-23432187D01*
X13335777Y-23432187D02*
X13373872Y-23432187D01*
X13373872Y-23432187D02*
X13392920Y-23422663D01*
X13392920Y-23422663D02*
X13402444Y-23413139D01*
X13402444Y-23413139D02*
X13411967Y-23394092D01*
X13411967Y-23394092D02*
X13411967Y-23346473D01*
X13411967Y-23346473D02*
X13402444Y-23327425D01*
X13402444Y-23327425D02*
X13392920Y-23317901D01*
X13392920Y-23317901D02*
X13373872Y-23308377D01*
X13373872Y-23308377D02*
X13335777Y-23308377D01*
X13335777Y-23308377D02*
X13316729Y-23317901D01*
X13316729Y-23317901D02*
X13307206Y-23327425D01*
X13307206Y-23327425D02*
X13297682Y-23346473D01*
X13583396Y-23232187D02*
X13545301Y-23232187D01*
X13545301Y-23232187D02*
X13526253Y-23241711D01*
X13526253Y-23241711D02*
X13516729Y-23251235D01*
X13516729Y-23251235D02*
X13497682Y-23279806D01*
X13497682Y-23279806D02*
X13488158Y-23317901D01*
X13488158Y-23317901D02*
X13488158Y-23394092D01*
X13488158Y-23394092D02*
X13497682Y-23413139D01*
X13497682Y-23413139D02*
X13507206Y-23422663D01*
X13507206Y-23422663D02*
X13526253Y-23432187D01*
X13526253Y-23432187D02*
X13564348Y-23432187D01*
X13564348Y-23432187D02*
X13583396Y-23422663D01*
X13583396Y-23422663D02*
X13592920Y-23413139D01*
X13592920Y-23413139D02*
X13602444Y-23394092D01*
X13602444Y-23394092D02*
X13602444Y-23346473D01*
X13602444Y-23346473D02*
X13592920Y-23327425D01*
X13592920Y-23327425D02*
X13583396Y-23317901D01*
X13583396Y-23317901D02*
X13564348Y-23308377D01*
X13564348Y-23308377D02*
X13526253Y-23308377D01*
X13526253Y-23308377D02*
X13507206Y-23317901D01*
X13507206Y-23317901D02*
X13497682Y-23327425D01*
X13497682Y-23327425D02*
X13488158Y-23346473D01*
X13678634Y-23232187D02*
X13678634Y-23270282D01*
X13754825Y-23232187D02*
X13754825Y-23270282D01*
X14050063Y-23508377D02*
X14040539Y-23498854D01*
X14040539Y-23498854D02*
X14021491Y-23470282D01*
X14021491Y-23470282D02*
X14011968Y-23451235D01*
X14011968Y-23451235D02*
X14002444Y-23422663D01*
X14002444Y-23422663D02*
X13992920Y-23375044D01*
X13992920Y-23375044D02*
X13992920Y-23336949D01*
X13992920Y-23336949D02*
X14002444Y-23289330D01*
X14002444Y-23289330D02*
X14011968Y-23260758D01*
X14011968Y-23260758D02*
X14021491Y-23241711D01*
X14021491Y-23241711D02*
X14040539Y-23213139D01*
X14040539Y-23213139D02*
X14050063Y-23203615D01*
X14211968Y-23232187D02*
X14173872Y-23232187D01*
X14173872Y-23232187D02*
X14154825Y-23241711D01*
X14154825Y-23241711D02*
X14145301Y-23251235D01*
X14145301Y-23251235D02*
X14126253Y-23279806D01*
X14126253Y-23279806D02*
X14116729Y-23317901D01*
X14116729Y-23317901D02*
X14116729Y-23394092D01*
X14116729Y-23394092D02*
X14126253Y-23413139D01*
X14126253Y-23413139D02*
X14135777Y-23422663D01*
X14135777Y-23422663D02*
X14154825Y-23432187D01*
X14154825Y-23432187D02*
X14192920Y-23432187D01*
X14192920Y-23432187D02*
X14211968Y-23422663D01*
X14211968Y-23422663D02*
X14221491Y-23413139D01*
X14221491Y-23413139D02*
X14231015Y-23394092D01*
X14231015Y-23394092D02*
X14231015Y-23346473D01*
X14231015Y-23346473D02*
X14221491Y-23327425D01*
X14221491Y-23327425D02*
X14211968Y-23317901D01*
X14211968Y-23317901D02*
X14192920Y-23308377D01*
X14192920Y-23308377D02*
X14154825Y-23308377D01*
X14154825Y-23308377D02*
X14135777Y-23317901D01*
X14135777Y-23317901D02*
X14126253Y-23327425D01*
X14126253Y-23327425D02*
X14116729Y-23346473D01*
X14469110Y-23432187D02*
X14469110Y-23232187D01*
X14554825Y-23432187D02*
X14554825Y-23327425D01*
X14554825Y-23327425D02*
X14545301Y-23308377D01*
X14545301Y-23308377D02*
X14526253Y-23298854D01*
X14526253Y-23298854D02*
X14497682Y-23298854D01*
X14497682Y-23298854D02*
X14478634Y-23308377D01*
X14478634Y-23308377D02*
X14469110Y-23317901D01*
X14678634Y-23432187D02*
X14659587Y-23422663D01*
X14659587Y-23422663D02*
X14650063Y-23413139D01*
X14650063Y-23413139D02*
X14640539Y-23394092D01*
X14640539Y-23394092D02*
X14640539Y-23336949D01*
X14640539Y-23336949D02*
X14650063Y-23317901D01*
X14650063Y-23317901D02*
X14659587Y-23308377D01*
X14659587Y-23308377D02*
X14678634Y-23298854D01*
X14678634Y-23298854D02*
X14707206Y-23298854D01*
X14707206Y-23298854D02*
X14726253Y-23308377D01*
X14726253Y-23308377D02*
X14735777Y-23317901D01*
X14735777Y-23317901D02*
X14745301Y-23336949D01*
X14745301Y-23336949D02*
X14745301Y-23394092D01*
X14745301Y-23394092D02*
X14735777Y-23413139D01*
X14735777Y-23413139D02*
X14726253Y-23422663D01*
X14726253Y-23422663D02*
X14707206Y-23432187D01*
X14707206Y-23432187D02*
X14678634Y-23432187D01*
X14859587Y-23432187D02*
X14840539Y-23422663D01*
X14840539Y-23422663D02*
X14831015Y-23403615D01*
X14831015Y-23403615D02*
X14831015Y-23232187D01*
X15011968Y-23422663D02*
X14992920Y-23432187D01*
X14992920Y-23432187D02*
X14954825Y-23432187D01*
X14954825Y-23432187D02*
X14935777Y-23422663D01*
X14935777Y-23422663D02*
X14926253Y-23403615D01*
X14926253Y-23403615D02*
X14926253Y-23327425D01*
X14926253Y-23327425D02*
X14935777Y-23308377D01*
X14935777Y-23308377D02*
X14954825Y-23298854D01*
X14954825Y-23298854D02*
X14992920Y-23298854D01*
X14992920Y-23298854D02*
X15011968Y-23308377D01*
X15011968Y-23308377D02*
X15021491Y-23327425D01*
X15021491Y-23327425D02*
X15021491Y-23346473D01*
X15021491Y-23346473D02*
X14926253Y-23365520D01*
X15097682Y-23422663D02*
X15116730Y-23432187D01*
X15116730Y-23432187D02*
X15154825Y-23432187D01*
X15154825Y-23432187D02*
X15173872Y-23422663D01*
X15173872Y-23422663D02*
X15183396Y-23403615D01*
X15183396Y-23403615D02*
X15183396Y-23394092D01*
X15183396Y-23394092D02*
X15173872Y-23375044D01*
X15173872Y-23375044D02*
X15154825Y-23365520D01*
X15154825Y-23365520D02*
X15126253Y-23365520D01*
X15126253Y-23365520D02*
X15107206Y-23355996D01*
X15107206Y-23355996D02*
X15097682Y-23336949D01*
X15097682Y-23336949D02*
X15097682Y-23327425D01*
X15097682Y-23327425D02*
X15107206Y-23308377D01*
X15107206Y-23308377D02*
X15126253Y-23298854D01*
X15126253Y-23298854D02*
X15154825Y-23298854D01*
X15154825Y-23298854D02*
X15173872Y-23308377D01*
X15250063Y-23508377D02*
X15259587Y-23498854D01*
X15259587Y-23498854D02*
X15278634Y-23470282D01*
X15278634Y-23470282D02*
X15288158Y-23451235D01*
X15288158Y-23451235D02*
X15297682Y-23422663D01*
X15297682Y-23422663D02*
X15307206Y-23375044D01*
X15307206Y-23375044D02*
X15307206Y-23336949D01*
X15307206Y-23336949D02*
X15297682Y-23289330D01*
X15297682Y-23289330D02*
X15288158Y-23260758D01*
X15288158Y-23260758D02*
X15278634Y-23241711D01*
X15278634Y-23241711D02*
X15259587Y-23213139D01*
X15259587Y-23213139D02*
X15250063Y-23203615D01*
M02*
