M48
; DRILL file {KiCad 7.0.5} date Wed Jan  8 15:51:51 2025
; FORMAT={-:-/ absolute / metric / decimal}
; #@! TF.CreationDate,2025-01-08T15:51:51-05:00
; #@! TF.GenerationSoftware,Kicad,Pcbnew,7.0.5
; #@! TF.FileFunction,NonPlated,1,2,NPTH
FMAT,2
METRIC
; #@! TA.AperFunction,NonPlated,NPTH,ComponentDrill
T1C0.650
; #@! TA.AperFunction,NonPlated,NPTH,ComponentDrill
T2C1.500
; #@! TA.AperFunction,NonPlated,NPTH,ComponentDrill
T3C1.700
; #@! TA.AperFunction,NonPlated,NPTH,ComponentDrill
T4C2.700
; #@! TA.AperFunction,NonPlated,NPTH,ComponentDrill
T5C3.050
; #@! TA.AperFunction,NonPlated,NPTH,ComponentDrill
T6C4.000
%
G90
G05
T1
X237.42Y-59.26
X243.2Y-59.26
T2
X243.58Y-78.98
X250.58Y-78.98
T3
X115.7Y-76.44
X115.7Y-95.49
X115.7Y-114.54
X115.7Y-133.59
X120.96Y-152.61
X125.86Y-76.44
X125.86Y-95.49
X125.86Y-114.54
X125.86Y-133.59
X131.12Y-152.61
X140.03Y-76.41
X140.03Y-95.46
X140.03Y-114.51
X140.03Y-133.56
X140.03Y-152.61
X150.19Y-76.41
X150.19Y-95.46
X150.19Y-114.51
X150.19Y-133.56
X150.19Y-152.61
X159.09Y-73.9
X159.09Y-92.95
X159.09Y-112.0
X159.09Y-131.05
X159.09Y-150.1
X169.25Y-73.9
X169.25Y-92.95
X169.25Y-112.0
X169.25Y-131.05
X169.25Y-150.1
X178.15Y-68.91
X178.15Y-87.96
X178.15Y-107.01
X178.15Y-126.06
X178.15Y-145.11
X188.31Y-68.91
X188.31Y-87.96
X188.31Y-107.01
X188.31Y-126.06
X188.31Y-145.11
X197.18Y-66.42
X197.18Y-85.47
X197.18Y-104.52
X197.18Y-123.57
X197.18Y-142.62
X207.34Y-66.42
X207.34Y-85.47
X207.34Y-104.52
X207.34Y-123.57
X207.34Y-142.62
X216.25Y-68.91
X216.25Y-87.96
X216.25Y-107.01
X216.25Y-126.06
X216.25Y-145.11
X226.41Y-68.91
X226.41Y-87.96
X226.41Y-107.01
X226.41Y-126.06
X226.41Y-145.11
X235.26Y-71.39
X235.26Y-90.44
X235.26Y-109.49
X235.26Y-128.54
X235.26Y-147.59
X240.052Y-185.592
X243.527Y-176.045
X245.42Y-71.39
X245.42Y-90.44
X245.42Y-109.49
X245.42Y-128.54
X245.42Y-147.59
X257.953Y-192.144
X261.427Y-182.596
X264.676Y-158.788
X269.546Y-201.093
X274.224Y-162.262
X276.066Y-183.183
X279.094Y-204.567
X282.56Y-165.31
X285.614Y-186.657
X292.107Y-168.785
T4
X110.02Y-85.95
X110.72Y-158.65
X153.92Y-60.75
X155.62Y-121.65
X193.32Y-133.35
X193.72Y-95.05
X226.62Y-194.85
X235.12Y-163.15
X248.92Y-57.85
X249.02Y-119.15
X259.52Y-157.25
X292.82Y-179.15
T5
X231.142Y-189.607
X239.282Y-167.242
X249.042Y-196.158
X257.182Y-173.794
T6
X120.78Y-76.44
X120.78Y-95.49
X120.78Y-114.54
X120.78Y-133.59
X126.04Y-152.61
X145.11Y-76.41
X145.11Y-95.46
X145.11Y-114.51
X145.11Y-133.56
X145.11Y-152.61
X164.17Y-73.9
X164.17Y-92.95
X164.17Y-112.0
X164.17Y-131.05
X164.17Y-150.1
X183.23Y-68.91
X183.23Y-87.96
X183.23Y-107.01
X183.23Y-126.06
X183.23Y-145.11
X202.26Y-66.42
X202.26Y-85.47
X202.26Y-104.52
X202.26Y-123.57
X202.26Y-142.62
X221.33Y-68.91
X221.33Y-87.96
X221.33Y-107.01
X221.33Y-126.06
X221.33Y-145.11
X240.34Y-71.39
X240.34Y-90.44
X240.34Y-109.49
X240.34Y-128.54
X240.34Y-147.59
X241.79Y-180.819
X245.463Y-194.819
X253.603Y-172.454
X259.69Y-187.37
X263.363Y-201.371
X269.45Y-160.525
X271.503Y-179.006
X274.32Y-202.83
X280.84Y-184.92
X287.334Y-167.047
T0
M30
