%TF.GenerationSoftware,KiCad,Pcbnew,7.0.5*%
%TF.CreationDate,2025-01-08T15:51:52-05:00*%
%TF.ProjectId,JasonSplitErgoKeyboard_Left,4a61736f-6e53-4706-9c69-744572676f4b,rev?*%
%TF.SameCoordinates,Original*%
%TF.FileFunction,Drillmap*%
%TF.FilePolarity,Positive*%
%FSLAX45Y45*%
G04 Gerber Fmt 4.5, Leading zero omitted, Abs format (unit mm)*
G04 Created by KiCad (PCBNEW 7.0.5) date 2025-01-08 15:51:52*
%MOMM*%
%LPD*%
G01*
G04 APERTURE LIST*
%ADD10C,0.100000*%
%ADD11C,0.200000*%
%ADD12C,0.065000*%
%ADD13C,0.150000*%
%ADD14C,0.170000*%
%ADD15C,0.270000*%
%ADD16C,0.305000*%
%ADD17C,0.400000*%
G04 APERTURE END LIST*
D10*
X22070007Y-19620000D02*
G75*
G03*
X22136474Y-19720000I108443J-10D01*
G01*
X25219999Y-5490711D02*
G75*
G03*
X25120000Y-5390711I-99999J1D01*
G01*
X23190000Y-16540000D02*
G75*
G03*
X23090000Y-16440000I-100000J0D01*
G01*
X28052000Y-21890000D02*
G75*
G03*
X28197612Y-21811122I40000J100000D01*
G01*
X22070000Y-19620000D02*
X23190000Y-16540000D01*
X28052000Y-21890000D02*
X22136474Y-19720000D01*
X30260000Y-16200000D02*
G75*
G03*
X30180000Y-16080000I-100000J20000D01*
G01*
X10580000Y-5390710D02*
G75*
G03*
X10480000Y-5490711I0J-100000D01*
G01*
X25220000Y-5490711D02*
X25220000Y-14262624D01*
X10480000Y-16340000D02*
G75*
G03*
X10580000Y-16440000I100000J0D01*
G01*
X23090000Y-16440000D02*
X10580000Y-16440000D01*
X10480000Y-5490711D02*
X10480000Y-16340000D01*
X28197612Y-21811122D02*
X30260000Y-16200000D01*
X25283578Y-14320000D02*
X30180000Y-16080000D01*
X10580000Y-5390711D02*
X25120000Y-5390711D01*
X25220000Y-14262624D02*
G75*
G03*
X25283578Y-14320000I80000J24734D01*
G01*
D11*
D12*
X23709500Y-5893500D02*
X23774500Y-5958500D01*
X23774500Y-5893500D02*
X23709500Y-5958500D01*
X24287500Y-5893500D02*
X24352500Y-5958500D01*
X24352500Y-5893500D02*
X24287500Y-5958500D01*
D13*
X24433000Y-7898000D02*
G75*
G03*
X24433000Y-7898000I-75000J0D01*
G01*
X25133000Y-7898000D02*
G75*
G03*
X25133000Y-7898000I-75000J0D01*
G01*
D14*
X11570000Y-7559000D02*
X11570000Y-7729000D01*
X11485000Y-7644000D02*
X11655000Y-7644000D01*
X11570000Y-9464000D02*
X11570000Y-9634000D01*
X11485000Y-9549000D02*
X11655000Y-9549000D01*
X11570000Y-11369000D02*
X11570000Y-11539000D01*
X11485000Y-11454000D02*
X11655000Y-11454000D01*
X11570000Y-13274000D02*
X11570000Y-13444000D01*
X11485000Y-13359000D02*
X11655000Y-13359000D01*
X12096000Y-15176000D02*
X12096000Y-15346000D01*
X12011000Y-15261000D02*
X12181000Y-15261000D01*
X12586000Y-7559000D02*
X12586000Y-7729000D01*
X12501000Y-7644000D02*
X12671000Y-7644000D01*
X12586000Y-9464000D02*
X12586000Y-9634000D01*
X12501000Y-9549000D02*
X12671000Y-9549000D01*
X12586000Y-11369000D02*
X12586000Y-11539000D01*
X12501000Y-11454000D02*
X12671000Y-11454000D01*
X12586000Y-13274000D02*
X12586000Y-13444000D01*
X12501000Y-13359000D02*
X12671000Y-13359000D01*
X13112000Y-15176000D02*
X13112000Y-15346000D01*
X13027000Y-15261000D02*
X13197000Y-15261000D01*
X14003000Y-7556000D02*
X14003000Y-7726000D01*
X13918000Y-7641000D02*
X14088000Y-7641000D01*
X14003000Y-9461000D02*
X14003000Y-9631000D01*
X13918000Y-9546000D02*
X14088000Y-9546000D01*
X14003000Y-11366000D02*
X14003000Y-11536000D01*
X13918000Y-11451000D02*
X14088000Y-11451000D01*
X14003000Y-13271000D02*
X14003000Y-13441000D01*
X13918000Y-13356000D02*
X14088000Y-13356000D01*
X14003000Y-15176000D02*
X14003000Y-15346000D01*
X13918000Y-15261000D02*
X14088000Y-15261000D01*
X15019000Y-7556000D02*
X15019000Y-7726000D01*
X14934000Y-7641000D02*
X15104000Y-7641000D01*
X15019000Y-9461000D02*
X15019000Y-9631000D01*
X14934000Y-9546000D02*
X15104000Y-9546000D01*
X15019000Y-11366000D02*
X15019000Y-11536000D01*
X14934000Y-11451000D02*
X15104000Y-11451000D01*
X15019000Y-13271000D02*
X15019000Y-13441000D01*
X14934000Y-13356000D02*
X15104000Y-13356000D01*
X15019000Y-15176000D02*
X15019000Y-15346000D01*
X14934000Y-15261000D02*
X15104000Y-15261000D01*
X15909000Y-7305000D02*
X15909000Y-7475000D01*
X15824000Y-7390000D02*
X15994000Y-7390000D01*
X15909000Y-9210000D02*
X15909000Y-9380000D01*
X15824000Y-9295000D02*
X15994000Y-9295000D01*
X15909000Y-11115000D02*
X15909000Y-11285000D01*
X15824000Y-11200000D02*
X15994000Y-11200000D01*
X15909000Y-13020000D02*
X15909000Y-13190000D01*
X15824000Y-13105000D02*
X15994000Y-13105000D01*
X15909000Y-14925000D02*
X15909000Y-15095000D01*
X15824000Y-15010000D02*
X15994000Y-15010000D01*
X16925000Y-7305000D02*
X16925000Y-7475000D01*
X16840000Y-7390000D02*
X17010000Y-7390000D01*
X16925000Y-9210000D02*
X16925000Y-9380000D01*
X16840000Y-9295000D02*
X17010000Y-9295000D01*
X16925000Y-11115000D02*
X16925000Y-11285000D01*
X16840000Y-11200000D02*
X17010000Y-11200000D01*
X16925000Y-13020000D02*
X16925000Y-13190000D01*
X16840000Y-13105000D02*
X17010000Y-13105000D01*
X16925000Y-14925000D02*
X16925000Y-15095000D01*
X16840000Y-15010000D02*
X17010000Y-15010000D01*
X17815000Y-6806000D02*
X17815000Y-6976000D01*
X17730000Y-6891000D02*
X17900000Y-6891000D01*
X17815000Y-8711000D02*
X17815000Y-8881000D01*
X17730000Y-8796000D02*
X17900000Y-8796000D01*
X17815000Y-10616000D02*
X17815000Y-10786000D01*
X17730000Y-10701000D02*
X17900000Y-10701000D01*
X17815000Y-12521000D02*
X17815000Y-12691000D01*
X17730000Y-12606000D02*
X17900000Y-12606000D01*
X17815000Y-14426000D02*
X17815000Y-14596000D01*
X17730000Y-14511000D02*
X17900000Y-14511000D01*
X18831000Y-6806000D02*
X18831000Y-6976000D01*
X18746000Y-6891000D02*
X18916000Y-6891000D01*
X18831000Y-8711000D02*
X18831000Y-8881000D01*
X18746000Y-8796000D02*
X18916000Y-8796000D01*
X18831000Y-10616000D02*
X18831000Y-10786000D01*
X18746000Y-10701000D02*
X18916000Y-10701000D01*
X18831000Y-12521000D02*
X18831000Y-12691000D01*
X18746000Y-12606000D02*
X18916000Y-12606000D01*
X18831000Y-14426000D02*
X18831000Y-14596000D01*
X18746000Y-14511000D02*
X18916000Y-14511000D01*
X19718000Y-6557000D02*
X19718000Y-6727000D01*
X19633000Y-6642000D02*
X19803000Y-6642000D01*
X19718000Y-8462000D02*
X19718000Y-8632000D01*
X19633000Y-8547000D02*
X19803000Y-8547000D01*
X19718000Y-10367000D02*
X19718000Y-10537000D01*
X19633000Y-10452000D02*
X19803000Y-10452000D01*
X19718000Y-12272000D02*
X19718000Y-12442000D01*
X19633000Y-12357000D02*
X19803000Y-12357000D01*
X19718000Y-14177000D02*
X19718000Y-14347000D01*
X19633000Y-14262000D02*
X19803000Y-14262000D01*
X20734000Y-6557000D02*
X20734000Y-6727000D01*
X20649000Y-6642000D02*
X20819000Y-6642000D01*
X20734000Y-8462000D02*
X20734000Y-8632000D01*
X20649000Y-8547000D02*
X20819000Y-8547000D01*
X20734000Y-10367000D02*
X20734000Y-10537000D01*
X20649000Y-10452000D02*
X20819000Y-10452000D01*
X20734000Y-12272000D02*
X20734000Y-12442000D01*
X20649000Y-12357000D02*
X20819000Y-12357000D01*
X20734000Y-14177000D02*
X20734000Y-14347000D01*
X20649000Y-14262000D02*
X20819000Y-14262000D01*
X21625000Y-6806000D02*
X21625000Y-6976000D01*
X21540000Y-6891000D02*
X21710000Y-6891000D01*
X21625000Y-8711000D02*
X21625000Y-8881000D01*
X21540000Y-8796000D02*
X21710000Y-8796000D01*
X21625000Y-10616000D02*
X21625000Y-10786000D01*
X21540000Y-10701000D02*
X21710000Y-10701000D01*
X21625000Y-12521000D02*
X21625000Y-12691000D01*
X21540000Y-12606000D02*
X21710000Y-12606000D01*
X21625000Y-14426000D02*
X21625000Y-14596000D01*
X21540000Y-14511000D02*
X21710000Y-14511000D01*
X22641000Y-6806000D02*
X22641000Y-6976000D01*
X22556000Y-6891000D02*
X22726000Y-6891000D01*
X22641000Y-8711000D02*
X22641000Y-8881000D01*
X22556000Y-8796000D02*
X22726000Y-8796000D01*
X22641000Y-10616000D02*
X22641000Y-10786000D01*
X22556000Y-10701000D02*
X22726000Y-10701000D01*
X22641000Y-12521000D02*
X22641000Y-12691000D01*
X22556000Y-12606000D02*
X22726000Y-12606000D01*
X22641000Y-14426000D02*
X22641000Y-14596000D01*
X22556000Y-14511000D02*
X22726000Y-14511000D01*
X23526000Y-7054000D02*
X23526000Y-7224000D01*
X23441000Y-7139000D02*
X23611000Y-7139000D01*
X23526000Y-8959000D02*
X23526000Y-9129000D01*
X23441000Y-9044000D02*
X23611000Y-9044000D01*
X23526000Y-10864000D02*
X23526000Y-11034000D01*
X23441000Y-10949000D02*
X23611000Y-10949000D01*
X23526000Y-12769000D02*
X23526000Y-12939000D01*
X23441000Y-12854000D02*
X23611000Y-12854000D01*
X23526000Y-14674000D02*
X23526000Y-14844000D01*
X23441000Y-14759000D02*
X23611000Y-14759000D01*
X24005245Y-18474214D02*
X24005245Y-18644214D01*
X23920245Y-18559214D02*
X24090245Y-18559214D01*
X24352738Y-17519486D02*
X24352738Y-17689486D01*
X24267738Y-17604486D02*
X24437738Y-17604486D01*
X24542000Y-7054000D02*
X24542000Y-7224000D01*
X24457000Y-7139000D02*
X24627000Y-7139000D01*
X24542000Y-8959000D02*
X24542000Y-9129000D01*
X24457000Y-9044000D02*
X24627000Y-9044000D01*
X24542000Y-10864000D02*
X24542000Y-11034000D01*
X24457000Y-10949000D02*
X24627000Y-10949000D01*
X24542000Y-12769000D02*
X24542000Y-12939000D01*
X24457000Y-12854000D02*
X24627000Y-12854000D01*
X24542000Y-14674000D02*
X24542000Y-14844000D01*
X24457000Y-14759000D02*
X24627000Y-14759000D01*
X25795254Y-19129364D02*
X25795254Y-19299364D01*
X25710254Y-19214364D02*
X25880254Y-19214364D01*
X26142746Y-18174636D02*
X26142746Y-18344636D01*
X26057746Y-18259636D02*
X26227746Y-18259636D01*
X26467636Y-15793754D02*
X26467636Y-15963754D01*
X26382636Y-15878754D02*
X26552636Y-15878754D01*
X26954636Y-20024254D02*
X26954636Y-20194254D01*
X26869636Y-20109254D02*
X27039636Y-20109254D01*
X27422364Y-16141246D02*
X27422364Y-16311246D01*
X27337364Y-16226246D02*
X27507364Y-16226246D01*
X27606636Y-18233254D02*
X27606636Y-18403254D01*
X27521636Y-18318254D02*
X27691636Y-18318254D01*
X27909364Y-20371746D02*
X27909364Y-20541746D01*
X27824364Y-20456746D02*
X27994364Y-20456746D01*
X28256000Y-16446000D02*
X28256000Y-16616000D01*
X28171000Y-16531000D02*
X28341000Y-16531000D01*
X28561364Y-18580746D02*
X28561364Y-18750746D01*
X28476364Y-18665746D02*
X28646364Y-18665746D01*
X29210728Y-16793493D02*
X29210728Y-16963493D01*
X29125728Y-16878493D02*
X29295728Y-16878493D01*
D15*
X11097460Y-8690460D02*
X11097460Y-8499540D01*
X10906540Y-8499540D01*
X10906540Y-8690460D01*
X11097460Y-8690460D01*
X11167460Y-15960460D02*
X11167460Y-15769540D01*
X10976540Y-15769540D01*
X10976540Y-15960460D01*
X11167460Y-15960460D01*
X15487460Y-6170460D02*
X15487460Y-5979540D01*
X15296540Y-5979540D01*
X15296540Y-6170460D01*
X15487460Y-6170460D01*
X15657460Y-12260460D02*
X15657460Y-12069540D01*
X15466540Y-12069540D01*
X15466540Y-12260460D01*
X15657460Y-12260460D01*
X19427460Y-13430460D02*
X19427460Y-13239540D01*
X19236540Y-13239540D01*
X19236540Y-13430460D01*
X19427460Y-13430460D01*
X19467460Y-9600460D02*
X19467460Y-9409540D01*
X19276540Y-9409540D01*
X19276540Y-9600460D01*
X19467460Y-9600460D01*
X22757460Y-19580460D02*
X22757460Y-19389540D01*
X22566540Y-19389540D01*
X22566540Y-19580460D01*
X22757460Y-19580460D01*
X23607460Y-16410460D02*
X23607460Y-16219540D01*
X23416540Y-16219540D01*
X23416540Y-16410460D01*
X23607460Y-16410460D01*
X24987460Y-5880460D02*
X24987460Y-5689540D01*
X24796540Y-5689540D01*
X24796540Y-5880460D01*
X24987460Y-5880460D01*
X24997460Y-12010460D02*
X24997460Y-11819540D01*
X24806540Y-11819540D01*
X24806540Y-12010460D01*
X24997460Y-12010460D01*
X26047460Y-15820460D02*
X26047460Y-15629540D01*
X25856540Y-15629540D01*
X25856540Y-15820460D01*
X26047460Y-15820460D01*
X29377460Y-18010460D02*
X29377460Y-17819540D01*
X29186540Y-17819540D01*
X29186540Y-18010460D01*
X29377460Y-18010460D01*
D16*
X23114203Y-19113170D02*
X23266703Y-18960670D01*
X23114203Y-18808170D01*
X22961703Y-18960670D01*
X23114203Y-19113170D01*
X23928211Y-16876702D02*
X24080711Y-16724202D01*
X23928211Y-16571702D01*
X23775711Y-16724202D01*
X23928211Y-16876702D01*
X24904211Y-19768320D02*
X25056711Y-19615820D01*
X24904211Y-19463320D01*
X24751711Y-19615820D01*
X24904211Y-19768320D01*
X25718219Y-17531852D02*
X25870719Y-17379352D01*
X25718219Y-17226852D01*
X25565719Y-17379352D01*
X25718219Y-17531852D01*
D17*
X11878000Y-7444000D02*
X12278000Y-7844000D01*
X12278000Y-7444000D02*
X11878000Y-7844000D01*
X12278000Y-7644000D02*
G75*
G03*
X12278000Y-7644000I-200000J0D01*
G01*
X11878000Y-9349000D02*
X12278000Y-9749000D01*
X12278000Y-9349000D02*
X11878000Y-9749000D01*
X12278000Y-9549000D02*
G75*
G03*
X12278000Y-9549000I-200000J0D01*
G01*
X11878000Y-11254000D02*
X12278000Y-11654000D01*
X12278000Y-11254000D02*
X11878000Y-11654000D01*
X12278000Y-11454000D02*
G75*
G03*
X12278000Y-11454000I-200000J0D01*
G01*
X11878000Y-13159000D02*
X12278000Y-13559000D01*
X12278000Y-13159000D02*
X11878000Y-13559000D01*
X12278000Y-13359000D02*
G75*
G03*
X12278000Y-13359000I-200000J0D01*
G01*
X12404000Y-15061000D02*
X12804000Y-15461000D01*
X12804000Y-15061000D02*
X12404000Y-15461000D01*
X12804000Y-15261000D02*
G75*
G03*
X12804000Y-15261000I-200000J0D01*
G01*
X14311000Y-7441000D02*
X14711000Y-7841000D01*
X14711000Y-7441000D02*
X14311000Y-7841000D01*
X14711000Y-7641000D02*
G75*
G03*
X14711000Y-7641000I-200000J0D01*
G01*
X14311000Y-9346000D02*
X14711000Y-9746000D01*
X14711000Y-9346000D02*
X14311000Y-9746000D01*
X14711000Y-9546000D02*
G75*
G03*
X14711000Y-9546000I-200000J0D01*
G01*
X14311000Y-11251000D02*
X14711000Y-11651000D01*
X14711000Y-11251000D02*
X14311000Y-11651000D01*
X14711000Y-11451000D02*
G75*
G03*
X14711000Y-11451000I-200000J0D01*
G01*
X14311000Y-13156000D02*
X14711000Y-13556000D01*
X14711000Y-13156000D02*
X14311000Y-13556000D01*
X14711000Y-13356000D02*
G75*
G03*
X14711000Y-13356000I-200000J0D01*
G01*
X14311000Y-15061000D02*
X14711000Y-15461000D01*
X14711000Y-15061000D02*
X14311000Y-15461000D01*
X14711000Y-15261000D02*
G75*
G03*
X14711000Y-15261000I-200000J0D01*
G01*
X16217000Y-7190000D02*
X16617000Y-7590000D01*
X16617000Y-7190000D02*
X16217000Y-7590000D01*
X16617000Y-7390000D02*
G75*
G03*
X16617000Y-7390000I-200000J0D01*
G01*
X16217000Y-9095000D02*
X16617000Y-9495000D01*
X16617000Y-9095000D02*
X16217000Y-9495000D01*
X16617000Y-9295000D02*
G75*
G03*
X16617000Y-9295000I-200000J0D01*
G01*
X16217000Y-11000000D02*
X16617000Y-11400000D01*
X16617000Y-11000000D02*
X16217000Y-11400000D01*
X16617000Y-11200000D02*
G75*
G03*
X16617000Y-11200000I-200000J0D01*
G01*
X16217000Y-12905000D02*
X16617000Y-13305000D01*
X16617000Y-12905000D02*
X16217000Y-13305000D01*
X16617000Y-13105000D02*
G75*
G03*
X16617000Y-13105000I-200000J0D01*
G01*
X16217000Y-14810000D02*
X16617000Y-15210000D01*
X16617000Y-14810000D02*
X16217000Y-15210000D01*
X16617000Y-15010000D02*
G75*
G03*
X16617000Y-15010000I-200000J0D01*
G01*
X18123000Y-6691000D02*
X18523000Y-7091000D01*
X18523000Y-6691000D02*
X18123000Y-7091000D01*
X18523000Y-6891000D02*
G75*
G03*
X18523000Y-6891000I-200000J0D01*
G01*
X18123000Y-8596000D02*
X18523000Y-8996000D01*
X18523000Y-8596000D02*
X18123000Y-8996000D01*
X18523000Y-8796000D02*
G75*
G03*
X18523000Y-8796000I-200000J0D01*
G01*
X18123000Y-10501000D02*
X18523000Y-10901000D01*
X18523000Y-10501000D02*
X18123000Y-10901000D01*
X18523000Y-10701000D02*
G75*
G03*
X18523000Y-10701000I-200000J0D01*
G01*
X18123000Y-12406000D02*
X18523000Y-12806000D01*
X18523000Y-12406000D02*
X18123000Y-12806000D01*
X18523000Y-12606000D02*
G75*
G03*
X18523000Y-12606000I-200000J0D01*
G01*
X18123000Y-14311000D02*
X18523000Y-14711000D01*
X18523000Y-14311000D02*
X18123000Y-14711000D01*
X18523000Y-14511000D02*
G75*
G03*
X18523000Y-14511000I-200000J0D01*
G01*
X20026000Y-6442000D02*
X20426000Y-6842000D01*
X20426000Y-6442000D02*
X20026000Y-6842000D01*
X20426000Y-6642000D02*
G75*
G03*
X20426000Y-6642000I-200000J0D01*
G01*
X20026000Y-8347000D02*
X20426000Y-8747000D01*
X20426000Y-8347000D02*
X20026000Y-8747000D01*
X20426000Y-8547000D02*
G75*
G03*
X20426000Y-8547000I-200000J0D01*
G01*
X20026000Y-10252000D02*
X20426000Y-10652000D01*
X20426000Y-10252000D02*
X20026000Y-10652000D01*
X20426000Y-10452000D02*
G75*
G03*
X20426000Y-10452000I-200000J0D01*
G01*
X20026000Y-12157000D02*
X20426000Y-12557000D01*
X20426000Y-12157000D02*
X20026000Y-12557000D01*
X20426000Y-12357000D02*
G75*
G03*
X20426000Y-12357000I-200000J0D01*
G01*
X20026000Y-14062000D02*
X20426000Y-14462000D01*
X20426000Y-14062000D02*
X20026000Y-14462000D01*
X20426000Y-14262000D02*
G75*
G03*
X20426000Y-14262000I-200000J0D01*
G01*
X21933000Y-6691000D02*
X22333000Y-7091000D01*
X22333000Y-6691000D02*
X21933000Y-7091000D01*
X22333000Y-6891000D02*
G75*
G03*
X22333000Y-6891000I-200000J0D01*
G01*
X21933000Y-8596000D02*
X22333000Y-8996000D01*
X22333000Y-8596000D02*
X21933000Y-8996000D01*
X22333000Y-8796000D02*
G75*
G03*
X22333000Y-8796000I-200000J0D01*
G01*
X21933000Y-10501000D02*
X22333000Y-10901000D01*
X22333000Y-10501000D02*
X21933000Y-10901000D01*
X22333000Y-10701000D02*
G75*
G03*
X22333000Y-10701000I-200000J0D01*
G01*
X21933000Y-12406000D02*
X22333000Y-12806000D01*
X22333000Y-12406000D02*
X21933000Y-12806000D01*
X22333000Y-12606000D02*
G75*
G03*
X22333000Y-12606000I-200000J0D01*
G01*
X21933000Y-14311000D02*
X22333000Y-14711000D01*
X22333000Y-14311000D02*
X21933000Y-14711000D01*
X22333000Y-14511000D02*
G75*
G03*
X22333000Y-14511000I-200000J0D01*
G01*
X23834000Y-6939000D02*
X24234000Y-7339000D01*
X24234000Y-6939000D02*
X23834000Y-7339000D01*
X24234000Y-7139000D02*
G75*
G03*
X24234000Y-7139000I-200000J0D01*
G01*
X23834000Y-8844000D02*
X24234000Y-9244000D01*
X24234000Y-8844000D02*
X23834000Y-9244000D01*
X24234000Y-9044000D02*
G75*
G03*
X24234000Y-9044000I-200000J0D01*
G01*
X23834000Y-10749000D02*
X24234000Y-11149000D01*
X24234000Y-10749000D02*
X23834000Y-11149000D01*
X24234000Y-10949000D02*
G75*
G03*
X24234000Y-10949000I-200000J0D01*
G01*
X23834000Y-12654000D02*
X24234000Y-13054000D01*
X24234000Y-12654000D02*
X23834000Y-13054000D01*
X24234000Y-12854000D02*
G75*
G03*
X24234000Y-12854000I-200000J0D01*
G01*
X23834000Y-14559000D02*
X24234000Y-14959000D01*
X24234000Y-14559000D02*
X23834000Y-14959000D01*
X24234000Y-14759000D02*
G75*
G03*
X24234000Y-14759000I-200000J0D01*
G01*
X23978992Y-17881850D02*
X24378992Y-18281850D01*
X24378992Y-17881850D02*
X23978992Y-18281850D01*
X24378992Y-18081850D02*
G75*
G03*
X24378992Y-18081850I-200000J0D01*
G01*
X24346294Y-19281909D02*
X24746294Y-19681909D01*
X24746294Y-19281909D02*
X24346294Y-19681909D01*
X24746294Y-19481909D02*
G75*
G03*
X24746294Y-19481909I-200000J0D01*
G01*
X25160302Y-17045441D02*
X25560302Y-17445441D01*
X25560302Y-17045441D02*
X25160302Y-17445441D01*
X25560302Y-17245441D02*
G75*
G03*
X25560302Y-17245441I-200000J0D01*
G01*
X25769000Y-18537000D02*
X26169000Y-18937000D01*
X26169000Y-18537000D02*
X25769000Y-18937000D01*
X26169000Y-18737000D02*
G75*
G03*
X26169000Y-18737000I-200000J0D01*
G01*
X26136303Y-19937059D02*
X26536303Y-20337059D01*
X26536303Y-19937059D02*
X26136303Y-20337059D01*
X26536303Y-20137059D02*
G75*
G03*
X26536303Y-20137059I-200000J0D01*
G01*
X26745000Y-15852500D02*
X27145000Y-16252500D01*
X27145000Y-15852500D02*
X26745000Y-16252500D01*
X27145000Y-16052500D02*
G75*
G03*
X27145000Y-16052500I-200000J0D01*
G01*
X26950311Y-17700590D02*
X27350311Y-18100590D01*
X27350311Y-17700590D02*
X26950311Y-18100590D01*
X27350311Y-17900590D02*
G75*
G03*
X27350311Y-17900590I-200000J0D01*
G01*
X27232000Y-20083000D02*
X27632000Y-20483000D01*
X27632000Y-20083000D02*
X27232000Y-20483000D01*
X27632000Y-20283000D02*
G75*
G03*
X27632000Y-20283000I-200000J0D01*
G01*
X27884000Y-18292000D02*
X28284000Y-18692000D01*
X28284000Y-18292000D02*
X27884000Y-18692000D01*
X28284000Y-18492000D02*
G75*
G03*
X28284000Y-18492000I-200000J0D01*
G01*
X28533364Y-16504746D02*
X28933364Y-16904746D01*
X28933364Y-16504746D02*
X28533364Y-16904746D01*
X28933364Y-16704746D02*
G75*
G03*
X28933364Y-16704746I-200000J0D01*
G01*
D11*
X10735777Y-22214187D02*
X10735777Y-22014187D01*
X10735777Y-22014187D02*
X10783396Y-22014187D01*
X10783396Y-22014187D02*
X10811967Y-22023711D01*
X10811967Y-22023711D02*
X10831015Y-22042758D01*
X10831015Y-22042758D02*
X10840539Y-22061806D01*
X10840539Y-22061806D02*
X10850063Y-22099901D01*
X10850063Y-22099901D02*
X10850063Y-22128473D01*
X10850063Y-22128473D02*
X10840539Y-22166568D01*
X10840539Y-22166568D02*
X10831015Y-22185616D01*
X10831015Y-22185616D02*
X10811967Y-22204663D01*
X10811967Y-22204663D02*
X10783396Y-22214187D01*
X10783396Y-22214187D02*
X10735777Y-22214187D01*
X10935777Y-22214187D02*
X10935777Y-22080854D01*
X10935777Y-22118949D02*
X10945301Y-22099901D01*
X10945301Y-22099901D02*
X10954824Y-22090377D01*
X10954824Y-22090377D02*
X10973872Y-22080854D01*
X10973872Y-22080854D02*
X10992920Y-22080854D01*
X11059586Y-22214187D02*
X11059586Y-22080854D01*
X11059586Y-22014187D02*
X11050063Y-22023711D01*
X11050063Y-22023711D02*
X11059586Y-22033235D01*
X11059586Y-22033235D02*
X11069110Y-22023711D01*
X11069110Y-22023711D02*
X11059586Y-22014187D01*
X11059586Y-22014187D02*
X11059586Y-22033235D01*
X11183396Y-22214187D02*
X11164348Y-22204663D01*
X11164348Y-22204663D02*
X11154824Y-22185616D01*
X11154824Y-22185616D02*
X11154824Y-22014187D01*
X11288158Y-22214187D02*
X11269110Y-22204663D01*
X11269110Y-22204663D02*
X11259586Y-22185616D01*
X11259586Y-22185616D02*
X11259586Y-22014187D01*
X11516729Y-22214187D02*
X11516729Y-22014187D01*
X11516729Y-22014187D02*
X11583396Y-22157044D01*
X11583396Y-22157044D02*
X11650062Y-22014187D01*
X11650062Y-22014187D02*
X11650062Y-22214187D01*
X11831015Y-22214187D02*
X11831015Y-22109425D01*
X11831015Y-22109425D02*
X11821491Y-22090377D01*
X11821491Y-22090377D02*
X11802443Y-22080854D01*
X11802443Y-22080854D02*
X11764348Y-22080854D01*
X11764348Y-22080854D02*
X11745301Y-22090377D01*
X11831015Y-22204663D02*
X11811967Y-22214187D01*
X11811967Y-22214187D02*
X11764348Y-22214187D01*
X11764348Y-22214187D02*
X11745301Y-22204663D01*
X11745301Y-22204663D02*
X11735777Y-22185616D01*
X11735777Y-22185616D02*
X11735777Y-22166568D01*
X11735777Y-22166568D02*
X11745301Y-22147520D01*
X11745301Y-22147520D02*
X11764348Y-22137997D01*
X11764348Y-22137997D02*
X11811967Y-22137997D01*
X11811967Y-22137997D02*
X11831015Y-22128473D01*
X11926253Y-22080854D02*
X11926253Y-22280854D01*
X11926253Y-22090377D02*
X11945301Y-22080854D01*
X11945301Y-22080854D02*
X11983396Y-22080854D01*
X11983396Y-22080854D02*
X12002443Y-22090377D01*
X12002443Y-22090377D02*
X12011967Y-22099901D01*
X12011967Y-22099901D02*
X12021491Y-22118949D01*
X12021491Y-22118949D02*
X12021491Y-22176092D01*
X12021491Y-22176092D02*
X12011967Y-22195139D01*
X12011967Y-22195139D02*
X12002443Y-22204663D01*
X12002443Y-22204663D02*
X11983396Y-22214187D01*
X11983396Y-22214187D02*
X11945301Y-22214187D01*
X11945301Y-22214187D02*
X11926253Y-22204663D01*
X12107205Y-22195139D02*
X12116729Y-22204663D01*
X12116729Y-22204663D02*
X12107205Y-22214187D01*
X12107205Y-22214187D02*
X12097682Y-22204663D01*
X12097682Y-22204663D02*
X12107205Y-22195139D01*
X12107205Y-22195139D02*
X12107205Y-22214187D01*
X12107205Y-22090377D02*
X12116729Y-22099901D01*
X12116729Y-22099901D02*
X12107205Y-22109425D01*
X12107205Y-22109425D02*
X12097682Y-22099901D01*
X12097682Y-22099901D02*
X12107205Y-22090377D01*
X12107205Y-22090377D02*
X12107205Y-22109425D01*
D12*
X10410000Y-22510203D02*
X10475000Y-22575203D01*
X10475000Y-22510203D02*
X10410000Y-22575203D01*
D11*
X10773872Y-22434187D02*
X10792920Y-22434187D01*
X10792920Y-22434187D02*
X10811967Y-22443711D01*
X10811967Y-22443711D02*
X10821491Y-22453235D01*
X10821491Y-22453235D02*
X10831015Y-22472282D01*
X10831015Y-22472282D02*
X10840539Y-22510377D01*
X10840539Y-22510377D02*
X10840539Y-22557996D01*
X10840539Y-22557996D02*
X10831015Y-22596092D01*
X10831015Y-22596092D02*
X10821491Y-22615139D01*
X10821491Y-22615139D02*
X10811967Y-22624663D01*
X10811967Y-22624663D02*
X10792920Y-22634187D01*
X10792920Y-22634187D02*
X10773872Y-22634187D01*
X10773872Y-22634187D02*
X10754824Y-22624663D01*
X10754824Y-22624663D02*
X10745301Y-22615139D01*
X10745301Y-22615139D02*
X10735777Y-22596092D01*
X10735777Y-22596092D02*
X10726253Y-22557996D01*
X10726253Y-22557996D02*
X10726253Y-22510377D01*
X10726253Y-22510377D02*
X10735777Y-22472282D01*
X10735777Y-22472282D02*
X10745301Y-22453235D01*
X10745301Y-22453235D02*
X10754824Y-22443711D01*
X10754824Y-22443711D02*
X10773872Y-22434187D01*
X10926253Y-22615139D02*
X10935777Y-22624663D01*
X10935777Y-22624663D02*
X10926253Y-22634187D01*
X10926253Y-22634187D02*
X10916729Y-22624663D01*
X10916729Y-22624663D02*
X10926253Y-22615139D01*
X10926253Y-22615139D02*
X10926253Y-22634187D01*
X11107205Y-22434187D02*
X11069110Y-22434187D01*
X11069110Y-22434187D02*
X11050063Y-22443711D01*
X11050063Y-22443711D02*
X11040539Y-22453235D01*
X11040539Y-22453235D02*
X11021491Y-22481806D01*
X11021491Y-22481806D02*
X11011967Y-22519901D01*
X11011967Y-22519901D02*
X11011967Y-22596092D01*
X11011967Y-22596092D02*
X11021491Y-22615139D01*
X11021491Y-22615139D02*
X11031015Y-22624663D01*
X11031015Y-22624663D02*
X11050063Y-22634187D01*
X11050063Y-22634187D02*
X11088158Y-22634187D01*
X11088158Y-22634187D02*
X11107205Y-22624663D01*
X11107205Y-22624663D02*
X11116729Y-22615139D01*
X11116729Y-22615139D02*
X11126253Y-22596092D01*
X11126253Y-22596092D02*
X11126253Y-22548473D01*
X11126253Y-22548473D02*
X11116729Y-22529425D01*
X11116729Y-22529425D02*
X11107205Y-22519901D01*
X11107205Y-22519901D02*
X11088158Y-22510377D01*
X11088158Y-22510377D02*
X11050063Y-22510377D01*
X11050063Y-22510377D02*
X11031015Y-22519901D01*
X11031015Y-22519901D02*
X11021491Y-22529425D01*
X11021491Y-22529425D02*
X11011967Y-22548473D01*
X11307205Y-22434187D02*
X11211967Y-22434187D01*
X11211967Y-22434187D02*
X11202443Y-22529425D01*
X11202443Y-22529425D02*
X11211967Y-22519901D01*
X11211967Y-22519901D02*
X11231015Y-22510377D01*
X11231015Y-22510377D02*
X11278634Y-22510377D01*
X11278634Y-22510377D02*
X11297682Y-22519901D01*
X11297682Y-22519901D02*
X11307205Y-22529425D01*
X11307205Y-22529425D02*
X11316729Y-22548473D01*
X11316729Y-22548473D02*
X11316729Y-22596092D01*
X11316729Y-22596092D02*
X11307205Y-22615139D01*
X11307205Y-22615139D02*
X11297682Y-22624663D01*
X11297682Y-22624663D02*
X11278634Y-22634187D01*
X11278634Y-22634187D02*
X11231015Y-22634187D01*
X11231015Y-22634187D02*
X11211967Y-22624663D01*
X11211967Y-22624663D02*
X11202443Y-22615139D01*
X11440539Y-22434187D02*
X11459586Y-22434187D01*
X11459586Y-22434187D02*
X11478634Y-22443711D01*
X11478634Y-22443711D02*
X11488158Y-22453235D01*
X11488158Y-22453235D02*
X11497682Y-22472282D01*
X11497682Y-22472282D02*
X11507205Y-22510377D01*
X11507205Y-22510377D02*
X11507205Y-22557996D01*
X11507205Y-22557996D02*
X11497682Y-22596092D01*
X11497682Y-22596092D02*
X11488158Y-22615139D01*
X11488158Y-22615139D02*
X11478634Y-22624663D01*
X11478634Y-22624663D02*
X11459586Y-22634187D01*
X11459586Y-22634187D02*
X11440539Y-22634187D01*
X11440539Y-22634187D02*
X11421491Y-22624663D01*
X11421491Y-22624663D02*
X11411967Y-22615139D01*
X11411967Y-22615139D02*
X11402443Y-22596092D01*
X11402443Y-22596092D02*
X11392920Y-22557996D01*
X11392920Y-22557996D02*
X11392920Y-22510377D01*
X11392920Y-22510377D02*
X11402443Y-22472282D01*
X11402443Y-22472282D02*
X11411967Y-22453235D01*
X11411967Y-22453235D02*
X11421491Y-22443711D01*
X11421491Y-22443711D02*
X11440539Y-22434187D01*
X11592920Y-22634187D02*
X11592920Y-22500854D01*
X11592920Y-22519901D02*
X11602443Y-22510377D01*
X11602443Y-22510377D02*
X11621491Y-22500854D01*
X11621491Y-22500854D02*
X11650063Y-22500854D01*
X11650063Y-22500854D02*
X11669110Y-22510377D01*
X11669110Y-22510377D02*
X11678634Y-22529425D01*
X11678634Y-22529425D02*
X11678634Y-22634187D01*
X11678634Y-22529425D02*
X11688158Y-22510377D01*
X11688158Y-22510377D02*
X11707205Y-22500854D01*
X11707205Y-22500854D02*
X11735777Y-22500854D01*
X11735777Y-22500854D02*
X11754824Y-22510377D01*
X11754824Y-22510377D02*
X11764348Y-22529425D01*
X11764348Y-22529425D02*
X11764348Y-22634187D01*
X11859586Y-22634187D02*
X11859586Y-22500854D01*
X11859586Y-22519901D02*
X11869110Y-22510377D01*
X11869110Y-22510377D02*
X11888158Y-22500854D01*
X11888158Y-22500854D02*
X11916729Y-22500854D01*
X11916729Y-22500854D02*
X11935777Y-22510377D01*
X11935777Y-22510377D02*
X11945301Y-22529425D01*
X11945301Y-22529425D02*
X11945301Y-22634187D01*
X11945301Y-22529425D02*
X11954824Y-22510377D01*
X11954824Y-22510377D02*
X11973872Y-22500854D01*
X11973872Y-22500854D02*
X12002443Y-22500854D01*
X12002443Y-22500854D02*
X12021491Y-22510377D01*
X12021491Y-22510377D02*
X12031015Y-22529425D01*
X12031015Y-22529425D02*
X12031015Y-22634187D01*
X12421491Y-22424663D02*
X12250063Y-22681806D01*
X12678634Y-22434187D02*
X12697682Y-22434187D01*
X12697682Y-22434187D02*
X12716729Y-22443711D01*
X12716729Y-22443711D02*
X12726253Y-22453235D01*
X12726253Y-22453235D02*
X12735777Y-22472282D01*
X12735777Y-22472282D02*
X12745301Y-22510377D01*
X12745301Y-22510377D02*
X12745301Y-22557996D01*
X12745301Y-22557996D02*
X12735777Y-22596092D01*
X12735777Y-22596092D02*
X12726253Y-22615139D01*
X12726253Y-22615139D02*
X12716729Y-22624663D01*
X12716729Y-22624663D02*
X12697682Y-22634187D01*
X12697682Y-22634187D02*
X12678634Y-22634187D01*
X12678634Y-22634187D02*
X12659586Y-22624663D01*
X12659586Y-22624663D02*
X12650063Y-22615139D01*
X12650063Y-22615139D02*
X12640539Y-22596092D01*
X12640539Y-22596092D02*
X12631015Y-22557996D01*
X12631015Y-22557996D02*
X12631015Y-22510377D01*
X12631015Y-22510377D02*
X12640539Y-22472282D01*
X12640539Y-22472282D02*
X12650063Y-22453235D01*
X12650063Y-22453235D02*
X12659586Y-22443711D01*
X12659586Y-22443711D02*
X12678634Y-22434187D01*
X12831015Y-22615139D02*
X12840539Y-22624663D01*
X12840539Y-22624663D02*
X12831015Y-22634187D01*
X12831015Y-22634187D02*
X12821491Y-22624663D01*
X12821491Y-22624663D02*
X12831015Y-22615139D01*
X12831015Y-22615139D02*
X12831015Y-22634187D01*
X12964348Y-22434187D02*
X12983396Y-22434187D01*
X12983396Y-22434187D02*
X13002444Y-22443711D01*
X13002444Y-22443711D02*
X13011967Y-22453235D01*
X13011967Y-22453235D02*
X13021491Y-22472282D01*
X13021491Y-22472282D02*
X13031015Y-22510377D01*
X13031015Y-22510377D02*
X13031015Y-22557996D01*
X13031015Y-22557996D02*
X13021491Y-22596092D01*
X13021491Y-22596092D02*
X13011967Y-22615139D01*
X13011967Y-22615139D02*
X13002444Y-22624663D01*
X13002444Y-22624663D02*
X12983396Y-22634187D01*
X12983396Y-22634187D02*
X12964348Y-22634187D01*
X12964348Y-22634187D02*
X12945301Y-22624663D01*
X12945301Y-22624663D02*
X12935777Y-22615139D01*
X12935777Y-22615139D02*
X12926253Y-22596092D01*
X12926253Y-22596092D02*
X12916729Y-22557996D01*
X12916729Y-22557996D02*
X12916729Y-22510377D01*
X12916729Y-22510377D02*
X12926253Y-22472282D01*
X12926253Y-22472282D02*
X12935777Y-22453235D01*
X12935777Y-22453235D02*
X12945301Y-22443711D01*
X12945301Y-22443711D02*
X12964348Y-22434187D01*
X13107206Y-22453235D02*
X13116729Y-22443711D01*
X13116729Y-22443711D02*
X13135777Y-22434187D01*
X13135777Y-22434187D02*
X13183396Y-22434187D01*
X13183396Y-22434187D02*
X13202444Y-22443711D01*
X13202444Y-22443711D02*
X13211967Y-22453235D01*
X13211967Y-22453235D02*
X13221491Y-22472282D01*
X13221491Y-22472282D02*
X13221491Y-22491330D01*
X13221491Y-22491330D02*
X13211967Y-22519901D01*
X13211967Y-22519901D02*
X13097682Y-22634187D01*
X13097682Y-22634187D02*
X13221491Y-22634187D01*
X13402444Y-22434187D02*
X13307206Y-22434187D01*
X13307206Y-22434187D02*
X13297682Y-22529425D01*
X13297682Y-22529425D02*
X13307206Y-22519901D01*
X13307206Y-22519901D02*
X13326253Y-22510377D01*
X13326253Y-22510377D02*
X13373872Y-22510377D01*
X13373872Y-22510377D02*
X13392920Y-22519901D01*
X13392920Y-22519901D02*
X13402444Y-22529425D01*
X13402444Y-22529425D02*
X13411967Y-22548473D01*
X13411967Y-22548473D02*
X13411967Y-22596092D01*
X13411967Y-22596092D02*
X13402444Y-22615139D01*
X13402444Y-22615139D02*
X13392920Y-22624663D01*
X13392920Y-22624663D02*
X13373872Y-22634187D01*
X13373872Y-22634187D02*
X13326253Y-22634187D01*
X13326253Y-22634187D02*
X13307206Y-22624663D01*
X13307206Y-22624663D02*
X13297682Y-22615139D01*
X13583396Y-22434187D02*
X13545301Y-22434187D01*
X13545301Y-22434187D02*
X13526253Y-22443711D01*
X13526253Y-22443711D02*
X13516729Y-22453235D01*
X13516729Y-22453235D02*
X13497682Y-22481806D01*
X13497682Y-22481806D02*
X13488158Y-22519901D01*
X13488158Y-22519901D02*
X13488158Y-22596092D01*
X13488158Y-22596092D02*
X13497682Y-22615139D01*
X13497682Y-22615139D02*
X13507206Y-22624663D01*
X13507206Y-22624663D02*
X13526253Y-22634187D01*
X13526253Y-22634187D02*
X13564348Y-22634187D01*
X13564348Y-22634187D02*
X13583396Y-22624663D01*
X13583396Y-22624663D02*
X13592920Y-22615139D01*
X13592920Y-22615139D02*
X13602444Y-22596092D01*
X13602444Y-22596092D02*
X13602444Y-22548473D01*
X13602444Y-22548473D02*
X13592920Y-22529425D01*
X13592920Y-22529425D02*
X13583396Y-22519901D01*
X13583396Y-22519901D02*
X13564348Y-22510377D01*
X13564348Y-22510377D02*
X13526253Y-22510377D01*
X13526253Y-22510377D02*
X13507206Y-22519901D01*
X13507206Y-22519901D02*
X13497682Y-22529425D01*
X13497682Y-22529425D02*
X13488158Y-22548473D01*
X13678634Y-22434187D02*
X13678634Y-22472282D01*
X13754825Y-22434187D02*
X13754825Y-22472282D01*
X14050063Y-22710377D02*
X14040539Y-22700854D01*
X14040539Y-22700854D02*
X14021491Y-22672282D01*
X14021491Y-22672282D02*
X14011968Y-22653235D01*
X14011968Y-22653235D02*
X14002444Y-22624663D01*
X14002444Y-22624663D02*
X13992920Y-22577044D01*
X13992920Y-22577044D02*
X13992920Y-22538949D01*
X13992920Y-22538949D02*
X14002444Y-22491330D01*
X14002444Y-22491330D02*
X14011968Y-22462758D01*
X14011968Y-22462758D02*
X14021491Y-22443711D01*
X14021491Y-22443711D02*
X14040539Y-22415139D01*
X14040539Y-22415139D02*
X14050063Y-22405615D01*
X14116729Y-22453235D02*
X14126253Y-22443711D01*
X14126253Y-22443711D02*
X14145301Y-22434187D01*
X14145301Y-22434187D02*
X14192920Y-22434187D01*
X14192920Y-22434187D02*
X14211968Y-22443711D01*
X14211968Y-22443711D02*
X14221491Y-22453235D01*
X14221491Y-22453235D02*
X14231015Y-22472282D01*
X14231015Y-22472282D02*
X14231015Y-22491330D01*
X14231015Y-22491330D02*
X14221491Y-22519901D01*
X14221491Y-22519901D02*
X14107206Y-22634187D01*
X14107206Y-22634187D02*
X14231015Y-22634187D01*
X14469110Y-22634187D02*
X14469110Y-22434187D01*
X14554825Y-22634187D02*
X14554825Y-22529425D01*
X14554825Y-22529425D02*
X14545301Y-22510377D01*
X14545301Y-22510377D02*
X14526253Y-22500854D01*
X14526253Y-22500854D02*
X14497682Y-22500854D01*
X14497682Y-22500854D02*
X14478634Y-22510377D01*
X14478634Y-22510377D02*
X14469110Y-22519901D01*
X14678634Y-22634187D02*
X14659587Y-22624663D01*
X14659587Y-22624663D02*
X14650063Y-22615139D01*
X14650063Y-22615139D02*
X14640539Y-22596092D01*
X14640539Y-22596092D02*
X14640539Y-22538949D01*
X14640539Y-22538949D02*
X14650063Y-22519901D01*
X14650063Y-22519901D02*
X14659587Y-22510377D01*
X14659587Y-22510377D02*
X14678634Y-22500854D01*
X14678634Y-22500854D02*
X14707206Y-22500854D01*
X14707206Y-22500854D02*
X14726253Y-22510377D01*
X14726253Y-22510377D02*
X14735777Y-22519901D01*
X14735777Y-22519901D02*
X14745301Y-22538949D01*
X14745301Y-22538949D02*
X14745301Y-22596092D01*
X14745301Y-22596092D02*
X14735777Y-22615139D01*
X14735777Y-22615139D02*
X14726253Y-22624663D01*
X14726253Y-22624663D02*
X14707206Y-22634187D01*
X14707206Y-22634187D02*
X14678634Y-22634187D01*
X14859587Y-22634187D02*
X14840539Y-22624663D01*
X14840539Y-22624663D02*
X14831015Y-22605615D01*
X14831015Y-22605615D02*
X14831015Y-22434187D01*
X15011968Y-22624663D02*
X14992920Y-22634187D01*
X14992920Y-22634187D02*
X14954825Y-22634187D01*
X14954825Y-22634187D02*
X14935777Y-22624663D01*
X14935777Y-22624663D02*
X14926253Y-22605615D01*
X14926253Y-22605615D02*
X14926253Y-22529425D01*
X14926253Y-22529425D02*
X14935777Y-22510377D01*
X14935777Y-22510377D02*
X14954825Y-22500854D01*
X14954825Y-22500854D02*
X14992920Y-22500854D01*
X14992920Y-22500854D02*
X15011968Y-22510377D01*
X15011968Y-22510377D02*
X15021491Y-22529425D01*
X15021491Y-22529425D02*
X15021491Y-22548473D01*
X15021491Y-22548473D02*
X14926253Y-22567520D01*
X15097682Y-22624663D02*
X15116730Y-22634187D01*
X15116730Y-22634187D02*
X15154825Y-22634187D01*
X15154825Y-22634187D02*
X15173872Y-22624663D01*
X15173872Y-22624663D02*
X15183396Y-22605615D01*
X15183396Y-22605615D02*
X15183396Y-22596092D01*
X15183396Y-22596092D02*
X15173872Y-22577044D01*
X15173872Y-22577044D02*
X15154825Y-22567520D01*
X15154825Y-22567520D02*
X15126253Y-22567520D01*
X15126253Y-22567520D02*
X15107206Y-22557996D01*
X15107206Y-22557996D02*
X15097682Y-22538949D01*
X15097682Y-22538949D02*
X15097682Y-22529425D01*
X15097682Y-22529425D02*
X15107206Y-22510377D01*
X15107206Y-22510377D02*
X15126253Y-22500854D01*
X15126253Y-22500854D02*
X15154825Y-22500854D01*
X15154825Y-22500854D02*
X15173872Y-22510377D01*
X15250063Y-22710377D02*
X15259587Y-22700854D01*
X15259587Y-22700854D02*
X15278634Y-22672282D01*
X15278634Y-22672282D02*
X15288158Y-22653235D01*
X15288158Y-22653235D02*
X15297682Y-22624663D01*
X15297682Y-22624663D02*
X15307206Y-22577044D01*
X15307206Y-22577044D02*
X15307206Y-22538949D01*
X15307206Y-22538949D02*
X15297682Y-22491330D01*
X15297682Y-22491330D02*
X15288158Y-22462758D01*
X15288158Y-22462758D02*
X15278634Y-22443711D01*
X15278634Y-22443711D02*
X15259587Y-22415139D01*
X15259587Y-22415139D02*
X15250063Y-22405615D01*
X15611968Y-22710377D02*
X15602444Y-22700854D01*
X15602444Y-22700854D02*
X15583396Y-22672282D01*
X15583396Y-22672282D02*
X15573872Y-22653235D01*
X15573872Y-22653235D02*
X15564349Y-22624663D01*
X15564349Y-22624663D02*
X15554825Y-22577044D01*
X15554825Y-22577044D02*
X15554825Y-22538949D01*
X15554825Y-22538949D02*
X15564349Y-22491330D01*
X15564349Y-22491330D02*
X15573872Y-22462758D01*
X15573872Y-22462758D02*
X15583396Y-22443711D01*
X15583396Y-22443711D02*
X15602444Y-22415139D01*
X15602444Y-22415139D02*
X15611968Y-22405615D01*
X15688158Y-22500854D02*
X15688158Y-22634187D01*
X15688158Y-22519901D02*
X15697682Y-22510377D01*
X15697682Y-22510377D02*
X15716730Y-22500854D01*
X15716730Y-22500854D02*
X15745301Y-22500854D01*
X15745301Y-22500854D02*
X15764349Y-22510377D01*
X15764349Y-22510377D02*
X15773872Y-22529425D01*
X15773872Y-22529425D02*
X15773872Y-22634187D01*
X15897682Y-22634187D02*
X15878634Y-22624663D01*
X15878634Y-22624663D02*
X15869111Y-22615139D01*
X15869111Y-22615139D02*
X15859587Y-22596092D01*
X15859587Y-22596092D02*
X15859587Y-22538949D01*
X15859587Y-22538949D02*
X15869111Y-22519901D01*
X15869111Y-22519901D02*
X15878634Y-22510377D01*
X15878634Y-22510377D02*
X15897682Y-22500854D01*
X15897682Y-22500854D02*
X15926253Y-22500854D01*
X15926253Y-22500854D02*
X15945301Y-22510377D01*
X15945301Y-22510377D02*
X15954825Y-22519901D01*
X15954825Y-22519901D02*
X15964349Y-22538949D01*
X15964349Y-22538949D02*
X15964349Y-22596092D01*
X15964349Y-22596092D02*
X15954825Y-22615139D01*
X15954825Y-22615139D02*
X15945301Y-22624663D01*
X15945301Y-22624663D02*
X15926253Y-22634187D01*
X15926253Y-22634187D02*
X15897682Y-22634187D01*
X16021492Y-22500854D02*
X16097682Y-22500854D01*
X16050063Y-22434187D02*
X16050063Y-22605615D01*
X16050063Y-22605615D02*
X16059587Y-22624663D01*
X16059587Y-22624663D02*
X16078634Y-22634187D01*
X16078634Y-22634187D02*
X16097682Y-22634187D01*
X16316730Y-22500854D02*
X16316730Y-22700854D01*
X16316730Y-22510377D02*
X16335777Y-22500854D01*
X16335777Y-22500854D02*
X16373873Y-22500854D01*
X16373873Y-22500854D02*
X16392920Y-22510377D01*
X16392920Y-22510377D02*
X16402444Y-22519901D01*
X16402444Y-22519901D02*
X16411968Y-22538949D01*
X16411968Y-22538949D02*
X16411968Y-22596092D01*
X16411968Y-22596092D02*
X16402444Y-22615139D01*
X16402444Y-22615139D02*
X16392920Y-22624663D01*
X16392920Y-22624663D02*
X16373873Y-22634187D01*
X16373873Y-22634187D02*
X16335777Y-22634187D01*
X16335777Y-22634187D02*
X16316730Y-22624663D01*
X16526253Y-22634187D02*
X16507206Y-22624663D01*
X16507206Y-22624663D02*
X16497682Y-22605615D01*
X16497682Y-22605615D02*
X16497682Y-22434187D01*
X16688158Y-22634187D02*
X16688158Y-22529425D01*
X16688158Y-22529425D02*
X16678634Y-22510377D01*
X16678634Y-22510377D02*
X16659587Y-22500854D01*
X16659587Y-22500854D02*
X16621492Y-22500854D01*
X16621492Y-22500854D02*
X16602444Y-22510377D01*
X16688158Y-22624663D02*
X16669111Y-22634187D01*
X16669111Y-22634187D02*
X16621492Y-22634187D01*
X16621492Y-22634187D02*
X16602444Y-22624663D01*
X16602444Y-22624663D02*
X16592920Y-22605615D01*
X16592920Y-22605615D02*
X16592920Y-22586568D01*
X16592920Y-22586568D02*
X16602444Y-22567520D01*
X16602444Y-22567520D02*
X16621492Y-22557996D01*
X16621492Y-22557996D02*
X16669111Y-22557996D01*
X16669111Y-22557996D02*
X16688158Y-22548473D01*
X16754825Y-22500854D02*
X16831015Y-22500854D01*
X16783396Y-22434187D02*
X16783396Y-22605615D01*
X16783396Y-22605615D02*
X16792920Y-22624663D01*
X16792920Y-22624663D02*
X16811968Y-22634187D01*
X16811968Y-22634187D02*
X16831015Y-22634187D01*
X16973873Y-22624663D02*
X16954825Y-22634187D01*
X16954825Y-22634187D02*
X16916730Y-22634187D01*
X16916730Y-22634187D02*
X16897682Y-22624663D01*
X16897682Y-22624663D02*
X16888158Y-22605615D01*
X16888158Y-22605615D02*
X16888158Y-22529425D01*
X16888158Y-22529425D02*
X16897682Y-22510377D01*
X16897682Y-22510377D02*
X16916730Y-22500854D01*
X16916730Y-22500854D02*
X16954825Y-22500854D01*
X16954825Y-22500854D02*
X16973873Y-22510377D01*
X16973873Y-22510377D02*
X16983396Y-22529425D01*
X16983396Y-22529425D02*
X16983396Y-22548473D01*
X16983396Y-22548473D02*
X16888158Y-22567520D01*
X17154825Y-22634187D02*
X17154825Y-22434187D01*
X17154825Y-22624663D02*
X17135777Y-22634187D01*
X17135777Y-22634187D02*
X17097682Y-22634187D01*
X17097682Y-22634187D02*
X17078635Y-22624663D01*
X17078635Y-22624663D02*
X17069111Y-22615139D01*
X17069111Y-22615139D02*
X17059587Y-22596092D01*
X17059587Y-22596092D02*
X17059587Y-22538949D01*
X17059587Y-22538949D02*
X17069111Y-22519901D01*
X17069111Y-22519901D02*
X17078635Y-22510377D01*
X17078635Y-22510377D02*
X17097682Y-22500854D01*
X17097682Y-22500854D02*
X17135777Y-22500854D01*
X17135777Y-22500854D02*
X17154825Y-22510377D01*
X17231016Y-22710377D02*
X17240539Y-22700854D01*
X17240539Y-22700854D02*
X17259587Y-22672282D01*
X17259587Y-22672282D02*
X17269111Y-22653235D01*
X17269111Y-22653235D02*
X17278635Y-22624663D01*
X17278635Y-22624663D02*
X17288158Y-22577044D01*
X17288158Y-22577044D02*
X17288158Y-22538949D01*
X17288158Y-22538949D02*
X17278635Y-22491330D01*
X17278635Y-22491330D02*
X17269111Y-22462758D01*
X17269111Y-22462758D02*
X17259587Y-22443711D01*
X17259587Y-22443711D02*
X17240539Y-22415139D01*
X17240539Y-22415139D02*
X17231016Y-22405615D01*
D13*
X10475000Y-22806703D02*
G75*
G03*
X10475000Y-22806703I-75000J0D01*
G01*
D11*
X10840539Y-22898187D02*
X10726253Y-22898187D01*
X10783396Y-22898187D02*
X10783396Y-22698187D01*
X10783396Y-22698187D02*
X10764348Y-22726758D01*
X10764348Y-22726758D02*
X10745301Y-22745806D01*
X10745301Y-22745806D02*
X10726253Y-22755330D01*
X10926253Y-22879139D02*
X10935777Y-22888663D01*
X10935777Y-22888663D02*
X10926253Y-22898187D01*
X10926253Y-22898187D02*
X10916729Y-22888663D01*
X10916729Y-22888663D02*
X10926253Y-22879139D01*
X10926253Y-22879139D02*
X10926253Y-22898187D01*
X11116729Y-22698187D02*
X11021491Y-22698187D01*
X11021491Y-22698187D02*
X11011967Y-22793425D01*
X11011967Y-22793425D02*
X11021491Y-22783901D01*
X11021491Y-22783901D02*
X11040539Y-22774377D01*
X11040539Y-22774377D02*
X11088158Y-22774377D01*
X11088158Y-22774377D02*
X11107205Y-22783901D01*
X11107205Y-22783901D02*
X11116729Y-22793425D01*
X11116729Y-22793425D02*
X11126253Y-22812473D01*
X11126253Y-22812473D02*
X11126253Y-22860092D01*
X11126253Y-22860092D02*
X11116729Y-22879139D01*
X11116729Y-22879139D02*
X11107205Y-22888663D01*
X11107205Y-22888663D02*
X11088158Y-22898187D01*
X11088158Y-22898187D02*
X11040539Y-22898187D01*
X11040539Y-22898187D02*
X11021491Y-22888663D01*
X11021491Y-22888663D02*
X11011967Y-22879139D01*
X11250062Y-22698187D02*
X11269110Y-22698187D01*
X11269110Y-22698187D02*
X11288158Y-22707711D01*
X11288158Y-22707711D02*
X11297682Y-22717235D01*
X11297682Y-22717235D02*
X11307205Y-22736282D01*
X11307205Y-22736282D02*
X11316729Y-22774377D01*
X11316729Y-22774377D02*
X11316729Y-22821996D01*
X11316729Y-22821996D02*
X11307205Y-22860092D01*
X11307205Y-22860092D02*
X11297682Y-22879139D01*
X11297682Y-22879139D02*
X11288158Y-22888663D01*
X11288158Y-22888663D02*
X11269110Y-22898187D01*
X11269110Y-22898187D02*
X11250062Y-22898187D01*
X11250062Y-22898187D02*
X11231015Y-22888663D01*
X11231015Y-22888663D02*
X11221491Y-22879139D01*
X11221491Y-22879139D02*
X11211967Y-22860092D01*
X11211967Y-22860092D02*
X11202443Y-22821996D01*
X11202443Y-22821996D02*
X11202443Y-22774377D01*
X11202443Y-22774377D02*
X11211967Y-22736282D01*
X11211967Y-22736282D02*
X11221491Y-22717235D01*
X11221491Y-22717235D02*
X11231015Y-22707711D01*
X11231015Y-22707711D02*
X11250062Y-22698187D01*
X11440539Y-22698187D02*
X11459586Y-22698187D01*
X11459586Y-22698187D02*
X11478634Y-22707711D01*
X11478634Y-22707711D02*
X11488158Y-22717235D01*
X11488158Y-22717235D02*
X11497682Y-22736282D01*
X11497682Y-22736282D02*
X11507205Y-22774377D01*
X11507205Y-22774377D02*
X11507205Y-22821996D01*
X11507205Y-22821996D02*
X11497682Y-22860092D01*
X11497682Y-22860092D02*
X11488158Y-22879139D01*
X11488158Y-22879139D02*
X11478634Y-22888663D01*
X11478634Y-22888663D02*
X11459586Y-22898187D01*
X11459586Y-22898187D02*
X11440539Y-22898187D01*
X11440539Y-22898187D02*
X11421491Y-22888663D01*
X11421491Y-22888663D02*
X11411967Y-22879139D01*
X11411967Y-22879139D02*
X11402443Y-22860092D01*
X11402443Y-22860092D02*
X11392920Y-22821996D01*
X11392920Y-22821996D02*
X11392920Y-22774377D01*
X11392920Y-22774377D02*
X11402443Y-22736282D01*
X11402443Y-22736282D02*
X11411967Y-22717235D01*
X11411967Y-22717235D02*
X11421491Y-22707711D01*
X11421491Y-22707711D02*
X11440539Y-22698187D01*
X11592920Y-22898187D02*
X11592920Y-22764854D01*
X11592920Y-22783901D02*
X11602443Y-22774377D01*
X11602443Y-22774377D02*
X11621491Y-22764854D01*
X11621491Y-22764854D02*
X11650063Y-22764854D01*
X11650063Y-22764854D02*
X11669110Y-22774377D01*
X11669110Y-22774377D02*
X11678634Y-22793425D01*
X11678634Y-22793425D02*
X11678634Y-22898187D01*
X11678634Y-22793425D02*
X11688158Y-22774377D01*
X11688158Y-22774377D02*
X11707205Y-22764854D01*
X11707205Y-22764854D02*
X11735777Y-22764854D01*
X11735777Y-22764854D02*
X11754824Y-22774377D01*
X11754824Y-22774377D02*
X11764348Y-22793425D01*
X11764348Y-22793425D02*
X11764348Y-22898187D01*
X11859586Y-22898187D02*
X11859586Y-22764854D01*
X11859586Y-22783901D02*
X11869110Y-22774377D01*
X11869110Y-22774377D02*
X11888158Y-22764854D01*
X11888158Y-22764854D02*
X11916729Y-22764854D01*
X11916729Y-22764854D02*
X11935777Y-22774377D01*
X11935777Y-22774377D02*
X11945301Y-22793425D01*
X11945301Y-22793425D02*
X11945301Y-22898187D01*
X11945301Y-22793425D02*
X11954824Y-22774377D01*
X11954824Y-22774377D02*
X11973872Y-22764854D01*
X11973872Y-22764854D02*
X12002443Y-22764854D01*
X12002443Y-22764854D02*
X12021491Y-22774377D01*
X12021491Y-22774377D02*
X12031015Y-22793425D01*
X12031015Y-22793425D02*
X12031015Y-22898187D01*
X12421491Y-22688663D02*
X12250063Y-22945806D01*
X12678634Y-22698187D02*
X12697682Y-22698187D01*
X12697682Y-22698187D02*
X12716729Y-22707711D01*
X12716729Y-22707711D02*
X12726253Y-22717235D01*
X12726253Y-22717235D02*
X12735777Y-22736282D01*
X12735777Y-22736282D02*
X12745301Y-22774377D01*
X12745301Y-22774377D02*
X12745301Y-22821996D01*
X12745301Y-22821996D02*
X12735777Y-22860092D01*
X12735777Y-22860092D02*
X12726253Y-22879139D01*
X12726253Y-22879139D02*
X12716729Y-22888663D01*
X12716729Y-22888663D02*
X12697682Y-22898187D01*
X12697682Y-22898187D02*
X12678634Y-22898187D01*
X12678634Y-22898187D02*
X12659586Y-22888663D01*
X12659586Y-22888663D02*
X12650063Y-22879139D01*
X12650063Y-22879139D02*
X12640539Y-22860092D01*
X12640539Y-22860092D02*
X12631015Y-22821996D01*
X12631015Y-22821996D02*
X12631015Y-22774377D01*
X12631015Y-22774377D02*
X12640539Y-22736282D01*
X12640539Y-22736282D02*
X12650063Y-22717235D01*
X12650063Y-22717235D02*
X12659586Y-22707711D01*
X12659586Y-22707711D02*
X12678634Y-22698187D01*
X12831015Y-22879139D02*
X12840539Y-22888663D01*
X12840539Y-22888663D02*
X12831015Y-22898187D01*
X12831015Y-22898187D02*
X12821491Y-22888663D01*
X12821491Y-22888663D02*
X12831015Y-22879139D01*
X12831015Y-22879139D02*
X12831015Y-22898187D01*
X12964348Y-22698187D02*
X12983396Y-22698187D01*
X12983396Y-22698187D02*
X13002444Y-22707711D01*
X13002444Y-22707711D02*
X13011967Y-22717235D01*
X13011967Y-22717235D02*
X13021491Y-22736282D01*
X13021491Y-22736282D02*
X13031015Y-22774377D01*
X13031015Y-22774377D02*
X13031015Y-22821996D01*
X13031015Y-22821996D02*
X13021491Y-22860092D01*
X13021491Y-22860092D02*
X13011967Y-22879139D01*
X13011967Y-22879139D02*
X13002444Y-22888663D01*
X13002444Y-22888663D02*
X12983396Y-22898187D01*
X12983396Y-22898187D02*
X12964348Y-22898187D01*
X12964348Y-22898187D02*
X12945301Y-22888663D01*
X12945301Y-22888663D02*
X12935777Y-22879139D01*
X12935777Y-22879139D02*
X12926253Y-22860092D01*
X12926253Y-22860092D02*
X12916729Y-22821996D01*
X12916729Y-22821996D02*
X12916729Y-22774377D01*
X12916729Y-22774377D02*
X12926253Y-22736282D01*
X12926253Y-22736282D02*
X12935777Y-22717235D01*
X12935777Y-22717235D02*
X12945301Y-22707711D01*
X12945301Y-22707711D02*
X12964348Y-22698187D01*
X13211967Y-22698187D02*
X13116729Y-22698187D01*
X13116729Y-22698187D02*
X13107206Y-22793425D01*
X13107206Y-22793425D02*
X13116729Y-22783901D01*
X13116729Y-22783901D02*
X13135777Y-22774377D01*
X13135777Y-22774377D02*
X13183396Y-22774377D01*
X13183396Y-22774377D02*
X13202444Y-22783901D01*
X13202444Y-22783901D02*
X13211967Y-22793425D01*
X13211967Y-22793425D02*
X13221491Y-22812473D01*
X13221491Y-22812473D02*
X13221491Y-22860092D01*
X13221491Y-22860092D02*
X13211967Y-22879139D01*
X13211967Y-22879139D02*
X13202444Y-22888663D01*
X13202444Y-22888663D02*
X13183396Y-22898187D01*
X13183396Y-22898187D02*
X13135777Y-22898187D01*
X13135777Y-22898187D02*
X13116729Y-22888663D01*
X13116729Y-22888663D02*
X13107206Y-22879139D01*
X13316729Y-22898187D02*
X13354825Y-22898187D01*
X13354825Y-22898187D02*
X13373872Y-22888663D01*
X13373872Y-22888663D02*
X13383396Y-22879139D01*
X13383396Y-22879139D02*
X13402444Y-22850568D01*
X13402444Y-22850568D02*
X13411967Y-22812473D01*
X13411967Y-22812473D02*
X13411967Y-22736282D01*
X13411967Y-22736282D02*
X13402444Y-22717235D01*
X13402444Y-22717235D02*
X13392920Y-22707711D01*
X13392920Y-22707711D02*
X13373872Y-22698187D01*
X13373872Y-22698187D02*
X13335777Y-22698187D01*
X13335777Y-22698187D02*
X13316729Y-22707711D01*
X13316729Y-22707711D02*
X13307206Y-22717235D01*
X13307206Y-22717235D02*
X13297682Y-22736282D01*
X13297682Y-22736282D02*
X13297682Y-22783901D01*
X13297682Y-22783901D02*
X13307206Y-22802949D01*
X13307206Y-22802949D02*
X13316729Y-22812473D01*
X13316729Y-22812473D02*
X13335777Y-22821996D01*
X13335777Y-22821996D02*
X13373872Y-22821996D01*
X13373872Y-22821996D02*
X13392920Y-22812473D01*
X13392920Y-22812473D02*
X13402444Y-22802949D01*
X13402444Y-22802949D02*
X13411967Y-22783901D01*
X13602444Y-22898187D02*
X13488158Y-22898187D01*
X13545301Y-22898187D02*
X13545301Y-22698187D01*
X13545301Y-22698187D02*
X13526253Y-22726758D01*
X13526253Y-22726758D02*
X13507206Y-22745806D01*
X13507206Y-22745806D02*
X13488158Y-22755330D01*
X13678634Y-22698187D02*
X13678634Y-22736282D01*
X13754825Y-22698187D02*
X13754825Y-22736282D01*
X14050063Y-22974377D02*
X14040539Y-22964854D01*
X14040539Y-22964854D02*
X14021491Y-22936282D01*
X14021491Y-22936282D02*
X14011968Y-22917235D01*
X14011968Y-22917235D02*
X14002444Y-22888663D01*
X14002444Y-22888663D02*
X13992920Y-22841044D01*
X13992920Y-22841044D02*
X13992920Y-22802949D01*
X13992920Y-22802949D02*
X14002444Y-22755330D01*
X14002444Y-22755330D02*
X14011968Y-22726758D01*
X14011968Y-22726758D02*
X14021491Y-22707711D01*
X14021491Y-22707711D02*
X14040539Y-22679139D01*
X14040539Y-22679139D02*
X14050063Y-22669615D01*
X14116729Y-22717235D02*
X14126253Y-22707711D01*
X14126253Y-22707711D02*
X14145301Y-22698187D01*
X14145301Y-22698187D02*
X14192920Y-22698187D01*
X14192920Y-22698187D02*
X14211968Y-22707711D01*
X14211968Y-22707711D02*
X14221491Y-22717235D01*
X14221491Y-22717235D02*
X14231015Y-22736282D01*
X14231015Y-22736282D02*
X14231015Y-22755330D01*
X14231015Y-22755330D02*
X14221491Y-22783901D01*
X14221491Y-22783901D02*
X14107206Y-22898187D01*
X14107206Y-22898187D02*
X14231015Y-22898187D01*
X14469110Y-22898187D02*
X14469110Y-22698187D01*
X14554825Y-22898187D02*
X14554825Y-22793425D01*
X14554825Y-22793425D02*
X14545301Y-22774377D01*
X14545301Y-22774377D02*
X14526253Y-22764854D01*
X14526253Y-22764854D02*
X14497682Y-22764854D01*
X14497682Y-22764854D02*
X14478634Y-22774377D01*
X14478634Y-22774377D02*
X14469110Y-22783901D01*
X14678634Y-22898187D02*
X14659587Y-22888663D01*
X14659587Y-22888663D02*
X14650063Y-22879139D01*
X14650063Y-22879139D02*
X14640539Y-22860092D01*
X14640539Y-22860092D02*
X14640539Y-22802949D01*
X14640539Y-22802949D02*
X14650063Y-22783901D01*
X14650063Y-22783901D02*
X14659587Y-22774377D01*
X14659587Y-22774377D02*
X14678634Y-22764854D01*
X14678634Y-22764854D02*
X14707206Y-22764854D01*
X14707206Y-22764854D02*
X14726253Y-22774377D01*
X14726253Y-22774377D02*
X14735777Y-22783901D01*
X14735777Y-22783901D02*
X14745301Y-22802949D01*
X14745301Y-22802949D02*
X14745301Y-22860092D01*
X14745301Y-22860092D02*
X14735777Y-22879139D01*
X14735777Y-22879139D02*
X14726253Y-22888663D01*
X14726253Y-22888663D02*
X14707206Y-22898187D01*
X14707206Y-22898187D02*
X14678634Y-22898187D01*
X14859587Y-22898187D02*
X14840539Y-22888663D01*
X14840539Y-22888663D02*
X14831015Y-22869615D01*
X14831015Y-22869615D02*
X14831015Y-22698187D01*
X15011968Y-22888663D02*
X14992920Y-22898187D01*
X14992920Y-22898187D02*
X14954825Y-22898187D01*
X14954825Y-22898187D02*
X14935777Y-22888663D01*
X14935777Y-22888663D02*
X14926253Y-22869615D01*
X14926253Y-22869615D02*
X14926253Y-22793425D01*
X14926253Y-22793425D02*
X14935777Y-22774377D01*
X14935777Y-22774377D02*
X14954825Y-22764854D01*
X14954825Y-22764854D02*
X14992920Y-22764854D01*
X14992920Y-22764854D02*
X15011968Y-22774377D01*
X15011968Y-22774377D02*
X15021491Y-22793425D01*
X15021491Y-22793425D02*
X15021491Y-22812473D01*
X15021491Y-22812473D02*
X14926253Y-22831520D01*
X15097682Y-22888663D02*
X15116730Y-22898187D01*
X15116730Y-22898187D02*
X15154825Y-22898187D01*
X15154825Y-22898187D02*
X15173872Y-22888663D01*
X15173872Y-22888663D02*
X15183396Y-22869615D01*
X15183396Y-22869615D02*
X15183396Y-22860092D01*
X15183396Y-22860092D02*
X15173872Y-22841044D01*
X15173872Y-22841044D02*
X15154825Y-22831520D01*
X15154825Y-22831520D02*
X15126253Y-22831520D01*
X15126253Y-22831520D02*
X15107206Y-22821996D01*
X15107206Y-22821996D02*
X15097682Y-22802949D01*
X15097682Y-22802949D02*
X15097682Y-22793425D01*
X15097682Y-22793425D02*
X15107206Y-22774377D01*
X15107206Y-22774377D02*
X15126253Y-22764854D01*
X15126253Y-22764854D02*
X15154825Y-22764854D01*
X15154825Y-22764854D02*
X15173872Y-22774377D01*
X15250063Y-22974377D02*
X15259587Y-22964854D01*
X15259587Y-22964854D02*
X15278634Y-22936282D01*
X15278634Y-22936282D02*
X15288158Y-22917235D01*
X15288158Y-22917235D02*
X15297682Y-22888663D01*
X15297682Y-22888663D02*
X15307206Y-22841044D01*
X15307206Y-22841044D02*
X15307206Y-22802949D01*
X15307206Y-22802949D02*
X15297682Y-22755330D01*
X15297682Y-22755330D02*
X15288158Y-22726758D01*
X15288158Y-22726758D02*
X15278634Y-22707711D01*
X15278634Y-22707711D02*
X15259587Y-22679139D01*
X15259587Y-22679139D02*
X15250063Y-22669615D01*
X15611968Y-22974377D02*
X15602444Y-22964854D01*
X15602444Y-22964854D02*
X15583396Y-22936282D01*
X15583396Y-22936282D02*
X15573872Y-22917235D01*
X15573872Y-22917235D02*
X15564349Y-22888663D01*
X15564349Y-22888663D02*
X15554825Y-22841044D01*
X15554825Y-22841044D02*
X15554825Y-22802949D01*
X15554825Y-22802949D02*
X15564349Y-22755330D01*
X15564349Y-22755330D02*
X15573872Y-22726758D01*
X15573872Y-22726758D02*
X15583396Y-22707711D01*
X15583396Y-22707711D02*
X15602444Y-22679139D01*
X15602444Y-22679139D02*
X15611968Y-22669615D01*
X15688158Y-22764854D02*
X15688158Y-22898187D01*
X15688158Y-22783901D02*
X15697682Y-22774377D01*
X15697682Y-22774377D02*
X15716730Y-22764854D01*
X15716730Y-22764854D02*
X15745301Y-22764854D01*
X15745301Y-22764854D02*
X15764349Y-22774377D01*
X15764349Y-22774377D02*
X15773872Y-22793425D01*
X15773872Y-22793425D02*
X15773872Y-22898187D01*
X15897682Y-22898187D02*
X15878634Y-22888663D01*
X15878634Y-22888663D02*
X15869111Y-22879139D01*
X15869111Y-22879139D02*
X15859587Y-22860092D01*
X15859587Y-22860092D02*
X15859587Y-22802949D01*
X15859587Y-22802949D02*
X15869111Y-22783901D01*
X15869111Y-22783901D02*
X15878634Y-22774377D01*
X15878634Y-22774377D02*
X15897682Y-22764854D01*
X15897682Y-22764854D02*
X15926253Y-22764854D01*
X15926253Y-22764854D02*
X15945301Y-22774377D01*
X15945301Y-22774377D02*
X15954825Y-22783901D01*
X15954825Y-22783901D02*
X15964349Y-22802949D01*
X15964349Y-22802949D02*
X15964349Y-22860092D01*
X15964349Y-22860092D02*
X15954825Y-22879139D01*
X15954825Y-22879139D02*
X15945301Y-22888663D01*
X15945301Y-22888663D02*
X15926253Y-22898187D01*
X15926253Y-22898187D02*
X15897682Y-22898187D01*
X16021492Y-22764854D02*
X16097682Y-22764854D01*
X16050063Y-22698187D02*
X16050063Y-22869615D01*
X16050063Y-22869615D02*
X16059587Y-22888663D01*
X16059587Y-22888663D02*
X16078634Y-22898187D01*
X16078634Y-22898187D02*
X16097682Y-22898187D01*
X16316730Y-22764854D02*
X16316730Y-22964854D01*
X16316730Y-22774377D02*
X16335777Y-22764854D01*
X16335777Y-22764854D02*
X16373873Y-22764854D01*
X16373873Y-22764854D02*
X16392920Y-22774377D01*
X16392920Y-22774377D02*
X16402444Y-22783901D01*
X16402444Y-22783901D02*
X16411968Y-22802949D01*
X16411968Y-22802949D02*
X16411968Y-22860092D01*
X16411968Y-22860092D02*
X16402444Y-22879139D01*
X16402444Y-22879139D02*
X16392920Y-22888663D01*
X16392920Y-22888663D02*
X16373873Y-22898187D01*
X16373873Y-22898187D02*
X16335777Y-22898187D01*
X16335777Y-22898187D02*
X16316730Y-22888663D01*
X16526253Y-22898187D02*
X16507206Y-22888663D01*
X16507206Y-22888663D02*
X16497682Y-22869615D01*
X16497682Y-22869615D02*
X16497682Y-22698187D01*
X16688158Y-22898187D02*
X16688158Y-22793425D01*
X16688158Y-22793425D02*
X16678634Y-22774377D01*
X16678634Y-22774377D02*
X16659587Y-22764854D01*
X16659587Y-22764854D02*
X16621492Y-22764854D01*
X16621492Y-22764854D02*
X16602444Y-22774377D01*
X16688158Y-22888663D02*
X16669111Y-22898187D01*
X16669111Y-22898187D02*
X16621492Y-22898187D01*
X16621492Y-22898187D02*
X16602444Y-22888663D01*
X16602444Y-22888663D02*
X16592920Y-22869615D01*
X16592920Y-22869615D02*
X16592920Y-22850568D01*
X16592920Y-22850568D02*
X16602444Y-22831520D01*
X16602444Y-22831520D02*
X16621492Y-22821996D01*
X16621492Y-22821996D02*
X16669111Y-22821996D01*
X16669111Y-22821996D02*
X16688158Y-22812473D01*
X16754825Y-22764854D02*
X16831015Y-22764854D01*
X16783396Y-22698187D02*
X16783396Y-22869615D01*
X16783396Y-22869615D02*
X16792920Y-22888663D01*
X16792920Y-22888663D02*
X16811968Y-22898187D01*
X16811968Y-22898187D02*
X16831015Y-22898187D01*
X16973873Y-22888663D02*
X16954825Y-22898187D01*
X16954825Y-22898187D02*
X16916730Y-22898187D01*
X16916730Y-22898187D02*
X16897682Y-22888663D01*
X16897682Y-22888663D02*
X16888158Y-22869615D01*
X16888158Y-22869615D02*
X16888158Y-22793425D01*
X16888158Y-22793425D02*
X16897682Y-22774377D01*
X16897682Y-22774377D02*
X16916730Y-22764854D01*
X16916730Y-22764854D02*
X16954825Y-22764854D01*
X16954825Y-22764854D02*
X16973873Y-22774377D01*
X16973873Y-22774377D02*
X16983396Y-22793425D01*
X16983396Y-22793425D02*
X16983396Y-22812473D01*
X16983396Y-22812473D02*
X16888158Y-22831520D01*
X17154825Y-22898187D02*
X17154825Y-22698187D01*
X17154825Y-22888663D02*
X17135777Y-22898187D01*
X17135777Y-22898187D02*
X17097682Y-22898187D01*
X17097682Y-22898187D02*
X17078635Y-22888663D01*
X17078635Y-22888663D02*
X17069111Y-22879139D01*
X17069111Y-22879139D02*
X17059587Y-22860092D01*
X17059587Y-22860092D02*
X17059587Y-22802949D01*
X17059587Y-22802949D02*
X17069111Y-22783901D01*
X17069111Y-22783901D02*
X17078635Y-22774377D01*
X17078635Y-22774377D02*
X17097682Y-22764854D01*
X17097682Y-22764854D02*
X17135777Y-22764854D01*
X17135777Y-22764854D02*
X17154825Y-22774377D01*
X17231016Y-22974377D02*
X17240539Y-22964854D01*
X17240539Y-22964854D02*
X17259587Y-22936282D01*
X17259587Y-22936282D02*
X17269111Y-22917235D01*
X17269111Y-22917235D02*
X17278635Y-22888663D01*
X17278635Y-22888663D02*
X17288158Y-22841044D01*
X17288158Y-22841044D02*
X17288158Y-22802949D01*
X17288158Y-22802949D02*
X17278635Y-22755330D01*
X17278635Y-22755330D02*
X17269111Y-22726758D01*
X17269111Y-22726758D02*
X17259587Y-22707711D01*
X17259587Y-22707711D02*
X17240539Y-22679139D01*
X17240539Y-22679139D02*
X17231016Y-22669615D01*
D14*
X10390000Y-22991703D02*
X10390000Y-23161703D01*
X10305000Y-23076703D02*
X10475000Y-23076703D01*
D11*
X10840539Y-23168187D02*
X10726253Y-23168187D01*
X10783396Y-23168187D02*
X10783396Y-22968187D01*
X10783396Y-22968187D02*
X10764348Y-22996758D01*
X10764348Y-22996758D02*
X10745301Y-23015806D01*
X10745301Y-23015806D02*
X10726253Y-23025330D01*
X10926253Y-23149139D02*
X10935777Y-23158663D01*
X10935777Y-23158663D02*
X10926253Y-23168187D01*
X10926253Y-23168187D02*
X10916729Y-23158663D01*
X10916729Y-23158663D02*
X10926253Y-23149139D01*
X10926253Y-23149139D02*
X10926253Y-23168187D01*
X11002444Y-22968187D02*
X11135777Y-22968187D01*
X11135777Y-22968187D02*
X11050063Y-23168187D01*
X11250062Y-22968187D02*
X11269110Y-22968187D01*
X11269110Y-22968187D02*
X11288158Y-22977711D01*
X11288158Y-22977711D02*
X11297682Y-22987235D01*
X11297682Y-22987235D02*
X11307205Y-23006282D01*
X11307205Y-23006282D02*
X11316729Y-23044377D01*
X11316729Y-23044377D02*
X11316729Y-23091996D01*
X11316729Y-23091996D02*
X11307205Y-23130092D01*
X11307205Y-23130092D02*
X11297682Y-23149139D01*
X11297682Y-23149139D02*
X11288158Y-23158663D01*
X11288158Y-23158663D02*
X11269110Y-23168187D01*
X11269110Y-23168187D02*
X11250062Y-23168187D01*
X11250062Y-23168187D02*
X11231015Y-23158663D01*
X11231015Y-23158663D02*
X11221491Y-23149139D01*
X11221491Y-23149139D02*
X11211967Y-23130092D01*
X11211967Y-23130092D02*
X11202443Y-23091996D01*
X11202443Y-23091996D02*
X11202443Y-23044377D01*
X11202443Y-23044377D02*
X11211967Y-23006282D01*
X11211967Y-23006282D02*
X11221491Y-22987235D01*
X11221491Y-22987235D02*
X11231015Y-22977711D01*
X11231015Y-22977711D02*
X11250062Y-22968187D01*
X11440539Y-22968187D02*
X11459586Y-22968187D01*
X11459586Y-22968187D02*
X11478634Y-22977711D01*
X11478634Y-22977711D02*
X11488158Y-22987235D01*
X11488158Y-22987235D02*
X11497682Y-23006282D01*
X11497682Y-23006282D02*
X11507205Y-23044377D01*
X11507205Y-23044377D02*
X11507205Y-23091996D01*
X11507205Y-23091996D02*
X11497682Y-23130092D01*
X11497682Y-23130092D02*
X11488158Y-23149139D01*
X11488158Y-23149139D02*
X11478634Y-23158663D01*
X11478634Y-23158663D02*
X11459586Y-23168187D01*
X11459586Y-23168187D02*
X11440539Y-23168187D01*
X11440539Y-23168187D02*
X11421491Y-23158663D01*
X11421491Y-23158663D02*
X11411967Y-23149139D01*
X11411967Y-23149139D02*
X11402443Y-23130092D01*
X11402443Y-23130092D02*
X11392920Y-23091996D01*
X11392920Y-23091996D02*
X11392920Y-23044377D01*
X11392920Y-23044377D02*
X11402443Y-23006282D01*
X11402443Y-23006282D02*
X11411967Y-22987235D01*
X11411967Y-22987235D02*
X11421491Y-22977711D01*
X11421491Y-22977711D02*
X11440539Y-22968187D01*
X11592920Y-23168187D02*
X11592920Y-23034854D01*
X11592920Y-23053901D02*
X11602443Y-23044377D01*
X11602443Y-23044377D02*
X11621491Y-23034854D01*
X11621491Y-23034854D02*
X11650063Y-23034854D01*
X11650063Y-23034854D02*
X11669110Y-23044377D01*
X11669110Y-23044377D02*
X11678634Y-23063425D01*
X11678634Y-23063425D02*
X11678634Y-23168187D01*
X11678634Y-23063425D02*
X11688158Y-23044377D01*
X11688158Y-23044377D02*
X11707205Y-23034854D01*
X11707205Y-23034854D02*
X11735777Y-23034854D01*
X11735777Y-23034854D02*
X11754824Y-23044377D01*
X11754824Y-23044377D02*
X11764348Y-23063425D01*
X11764348Y-23063425D02*
X11764348Y-23168187D01*
X11859586Y-23168187D02*
X11859586Y-23034854D01*
X11859586Y-23053901D02*
X11869110Y-23044377D01*
X11869110Y-23044377D02*
X11888158Y-23034854D01*
X11888158Y-23034854D02*
X11916729Y-23034854D01*
X11916729Y-23034854D02*
X11935777Y-23044377D01*
X11935777Y-23044377D02*
X11945301Y-23063425D01*
X11945301Y-23063425D02*
X11945301Y-23168187D01*
X11945301Y-23063425D02*
X11954824Y-23044377D01*
X11954824Y-23044377D02*
X11973872Y-23034854D01*
X11973872Y-23034854D02*
X12002443Y-23034854D01*
X12002443Y-23034854D02*
X12021491Y-23044377D01*
X12021491Y-23044377D02*
X12031015Y-23063425D01*
X12031015Y-23063425D02*
X12031015Y-23168187D01*
X12421491Y-22958663D02*
X12250063Y-23215806D01*
X12678634Y-22968187D02*
X12697682Y-22968187D01*
X12697682Y-22968187D02*
X12716729Y-22977711D01*
X12716729Y-22977711D02*
X12726253Y-22987235D01*
X12726253Y-22987235D02*
X12735777Y-23006282D01*
X12735777Y-23006282D02*
X12745301Y-23044377D01*
X12745301Y-23044377D02*
X12745301Y-23091996D01*
X12745301Y-23091996D02*
X12735777Y-23130092D01*
X12735777Y-23130092D02*
X12726253Y-23149139D01*
X12726253Y-23149139D02*
X12716729Y-23158663D01*
X12716729Y-23158663D02*
X12697682Y-23168187D01*
X12697682Y-23168187D02*
X12678634Y-23168187D01*
X12678634Y-23168187D02*
X12659586Y-23158663D01*
X12659586Y-23158663D02*
X12650063Y-23149139D01*
X12650063Y-23149139D02*
X12640539Y-23130092D01*
X12640539Y-23130092D02*
X12631015Y-23091996D01*
X12631015Y-23091996D02*
X12631015Y-23044377D01*
X12631015Y-23044377D02*
X12640539Y-23006282D01*
X12640539Y-23006282D02*
X12650063Y-22987235D01*
X12650063Y-22987235D02*
X12659586Y-22977711D01*
X12659586Y-22977711D02*
X12678634Y-22968187D01*
X12831015Y-23149139D02*
X12840539Y-23158663D01*
X12840539Y-23158663D02*
X12831015Y-23168187D01*
X12831015Y-23168187D02*
X12821491Y-23158663D01*
X12821491Y-23158663D02*
X12831015Y-23149139D01*
X12831015Y-23149139D02*
X12831015Y-23168187D01*
X12964348Y-22968187D02*
X12983396Y-22968187D01*
X12983396Y-22968187D02*
X13002444Y-22977711D01*
X13002444Y-22977711D02*
X13011967Y-22987235D01*
X13011967Y-22987235D02*
X13021491Y-23006282D01*
X13021491Y-23006282D02*
X13031015Y-23044377D01*
X13031015Y-23044377D02*
X13031015Y-23091996D01*
X13031015Y-23091996D02*
X13021491Y-23130092D01*
X13021491Y-23130092D02*
X13011967Y-23149139D01*
X13011967Y-23149139D02*
X13002444Y-23158663D01*
X13002444Y-23158663D02*
X12983396Y-23168187D01*
X12983396Y-23168187D02*
X12964348Y-23168187D01*
X12964348Y-23168187D02*
X12945301Y-23158663D01*
X12945301Y-23158663D02*
X12935777Y-23149139D01*
X12935777Y-23149139D02*
X12926253Y-23130092D01*
X12926253Y-23130092D02*
X12916729Y-23091996D01*
X12916729Y-23091996D02*
X12916729Y-23044377D01*
X12916729Y-23044377D02*
X12926253Y-23006282D01*
X12926253Y-23006282D02*
X12935777Y-22987235D01*
X12935777Y-22987235D02*
X12945301Y-22977711D01*
X12945301Y-22977711D02*
X12964348Y-22968187D01*
X13202444Y-22968187D02*
X13164348Y-22968187D01*
X13164348Y-22968187D02*
X13145301Y-22977711D01*
X13145301Y-22977711D02*
X13135777Y-22987235D01*
X13135777Y-22987235D02*
X13116729Y-23015806D01*
X13116729Y-23015806D02*
X13107206Y-23053901D01*
X13107206Y-23053901D02*
X13107206Y-23130092D01*
X13107206Y-23130092D02*
X13116729Y-23149139D01*
X13116729Y-23149139D02*
X13126253Y-23158663D01*
X13126253Y-23158663D02*
X13145301Y-23168187D01*
X13145301Y-23168187D02*
X13183396Y-23168187D01*
X13183396Y-23168187D02*
X13202444Y-23158663D01*
X13202444Y-23158663D02*
X13211967Y-23149139D01*
X13211967Y-23149139D02*
X13221491Y-23130092D01*
X13221491Y-23130092D02*
X13221491Y-23082473D01*
X13221491Y-23082473D02*
X13211967Y-23063425D01*
X13211967Y-23063425D02*
X13202444Y-23053901D01*
X13202444Y-23053901D02*
X13183396Y-23044377D01*
X13183396Y-23044377D02*
X13145301Y-23044377D01*
X13145301Y-23044377D02*
X13126253Y-23053901D01*
X13126253Y-23053901D02*
X13116729Y-23063425D01*
X13116729Y-23063425D02*
X13107206Y-23082473D01*
X13392920Y-22968187D02*
X13354825Y-22968187D01*
X13354825Y-22968187D02*
X13335777Y-22977711D01*
X13335777Y-22977711D02*
X13326253Y-22987235D01*
X13326253Y-22987235D02*
X13307206Y-23015806D01*
X13307206Y-23015806D02*
X13297682Y-23053901D01*
X13297682Y-23053901D02*
X13297682Y-23130092D01*
X13297682Y-23130092D02*
X13307206Y-23149139D01*
X13307206Y-23149139D02*
X13316729Y-23158663D01*
X13316729Y-23158663D02*
X13335777Y-23168187D01*
X13335777Y-23168187D02*
X13373872Y-23168187D01*
X13373872Y-23168187D02*
X13392920Y-23158663D01*
X13392920Y-23158663D02*
X13402444Y-23149139D01*
X13402444Y-23149139D02*
X13411967Y-23130092D01*
X13411967Y-23130092D02*
X13411967Y-23082473D01*
X13411967Y-23082473D02*
X13402444Y-23063425D01*
X13402444Y-23063425D02*
X13392920Y-23053901D01*
X13392920Y-23053901D02*
X13373872Y-23044377D01*
X13373872Y-23044377D02*
X13335777Y-23044377D01*
X13335777Y-23044377D02*
X13316729Y-23053901D01*
X13316729Y-23053901D02*
X13307206Y-23063425D01*
X13307206Y-23063425D02*
X13297682Y-23082473D01*
X13507206Y-23168187D02*
X13545301Y-23168187D01*
X13545301Y-23168187D02*
X13564348Y-23158663D01*
X13564348Y-23158663D02*
X13573872Y-23149139D01*
X13573872Y-23149139D02*
X13592920Y-23120568D01*
X13592920Y-23120568D02*
X13602444Y-23082473D01*
X13602444Y-23082473D02*
X13602444Y-23006282D01*
X13602444Y-23006282D02*
X13592920Y-22987235D01*
X13592920Y-22987235D02*
X13583396Y-22977711D01*
X13583396Y-22977711D02*
X13564348Y-22968187D01*
X13564348Y-22968187D02*
X13526253Y-22968187D01*
X13526253Y-22968187D02*
X13507206Y-22977711D01*
X13507206Y-22977711D02*
X13497682Y-22987235D01*
X13497682Y-22987235D02*
X13488158Y-23006282D01*
X13488158Y-23006282D02*
X13488158Y-23053901D01*
X13488158Y-23053901D02*
X13497682Y-23072949D01*
X13497682Y-23072949D02*
X13507206Y-23082473D01*
X13507206Y-23082473D02*
X13526253Y-23091996D01*
X13526253Y-23091996D02*
X13564348Y-23091996D01*
X13564348Y-23091996D02*
X13583396Y-23082473D01*
X13583396Y-23082473D02*
X13592920Y-23072949D01*
X13592920Y-23072949D02*
X13602444Y-23053901D01*
X13678634Y-22968187D02*
X13678634Y-23006282D01*
X13754825Y-22968187D02*
X13754825Y-23006282D01*
X14050063Y-23244377D02*
X14040539Y-23234854D01*
X14040539Y-23234854D02*
X14021491Y-23206282D01*
X14021491Y-23206282D02*
X14011968Y-23187235D01*
X14011968Y-23187235D02*
X14002444Y-23158663D01*
X14002444Y-23158663D02*
X13992920Y-23111044D01*
X13992920Y-23111044D02*
X13992920Y-23072949D01*
X13992920Y-23072949D02*
X14002444Y-23025330D01*
X14002444Y-23025330D02*
X14011968Y-22996758D01*
X14011968Y-22996758D02*
X14021491Y-22977711D01*
X14021491Y-22977711D02*
X14040539Y-22949139D01*
X14040539Y-22949139D02*
X14050063Y-22939615D01*
X14154825Y-23053901D02*
X14135777Y-23044377D01*
X14135777Y-23044377D02*
X14126253Y-23034854D01*
X14126253Y-23034854D02*
X14116729Y-23015806D01*
X14116729Y-23015806D02*
X14116729Y-23006282D01*
X14116729Y-23006282D02*
X14126253Y-22987235D01*
X14126253Y-22987235D02*
X14135777Y-22977711D01*
X14135777Y-22977711D02*
X14154825Y-22968187D01*
X14154825Y-22968187D02*
X14192920Y-22968187D01*
X14192920Y-22968187D02*
X14211968Y-22977711D01*
X14211968Y-22977711D02*
X14221491Y-22987235D01*
X14221491Y-22987235D02*
X14231015Y-23006282D01*
X14231015Y-23006282D02*
X14231015Y-23015806D01*
X14231015Y-23015806D02*
X14221491Y-23034854D01*
X14221491Y-23034854D02*
X14211968Y-23044377D01*
X14211968Y-23044377D02*
X14192920Y-23053901D01*
X14192920Y-23053901D02*
X14154825Y-23053901D01*
X14154825Y-23053901D02*
X14135777Y-23063425D01*
X14135777Y-23063425D02*
X14126253Y-23072949D01*
X14126253Y-23072949D02*
X14116729Y-23091996D01*
X14116729Y-23091996D02*
X14116729Y-23130092D01*
X14116729Y-23130092D02*
X14126253Y-23149139D01*
X14126253Y-23149139D02*
X14135777Y-23158663D01*
X14135777Y-23158663D02*
X14154825Y-23168187D01*
X14154825Y-23168187D02*
X14192920Y-23168187D01*
X14192920Y-23168187D02*
X14211968Y-23158663D01*
X14211968Y-23158663D02*
X14221491Y-23149139D01*
X14221491Y-23149139D02*
X14231015Y-23130092D01*
X14231015Y-23130092D02*
X14231015Y-23091996D01*
X14231015Y-23091996D02*
X14221491Y-23072949D01*
X14221491Y-23072949D02*
X14211968Y-23063425D01*
X14211968Y-23063425D02*
X14192920Y-23053901D01*
X14307206Y-22987235D02*
X14316729Y-22977711D01*
X14316729Y-22977711D02*
X14335777Y-22968187D01*
X14335777Y-22968187D02*
X14383396Y-22968187D01*
X14383396Y-22968187D02*
X14402444Y-22977711D01*
X14402444Y-22977711D02*
X14411968Y-22987235D01*
X14411968Y-22987235D02*
X14421491Y-23006282D01*
X14421491Y-23006282D02*
X14421491Y-23025330D01*
X14421491Y-23025330D02*
X14411968Y-23053901D01*
X14411968Y-23053901D02*
X14297682Y-23168187D01*
X14297682Y-23168187D02*
X14421491Y-23168187D01*
X14659587Y-23168187D02*
X14659587Y-22968187D01*
X14745301Y-23168187D02*
X14745301Y-23063425D01*
X14745301Y-23063425D02*
X14735777Y-23044377D01*
X14735777Y-23044377D02*
X14716730Y-23034854D01*
X14716730Y-23034854D02*
X14688158Y-23034854D01*
X14688158Y-23034854D02*
X14669110Y-23044377D01*
X14669110Y-23044377D02*
X14659587Y-23053901D01*
X14869110Y-23168187D02*
X14850063Y-23158663D01*
X14850063Y-23158663D02*
X14840539Y-23149139D01*
X14840539Y-23149139D02*
X14831015Y-23130092D01*
X14831015Y-23130092D02*
X14831015Y-23072949D01*
X14831015Y-23072949D02*
X14840539Y-23053901D01*
X14840539Y-23053901D02*
X14850063Y-23044377D01*
X14850063Y-23044377D02*
X14869110Y-23034854D01*
X14869110Y-23034854D02*
X14897682Y-23034854D01*
X14897682Y-23034854D02*
X14916730Y-23044377D01*
X14916730Y-23044377D02*
X14926253Y-23053901D01*
X14926253Y-23053901D02*
X14935777Y-23072949D01*
X14935777Y-23072949D02*
X14935777Y-23130092D01*
X14935777Y-23130092D02*
X14926253Y-23149139D01*
X14926253Y-23149139D02*
X14916730Y-23158663D01*
X14916730Y-23158663D02*
X14897682Y-23168187D01*
X14897682Y-23168187D02*
X14869110Y-23168187D01*
X15050063Y-23168187D02*
X15031015Y-23158663D01*
X15031015Y-23158663D02*
X15021491Y-23139615D01*
X15021491Y-23139615D02*
X15021491Y-22968187D01*
X15202444Y-23158663D02*
X15183396Y-23168187D01*
X15183396Y-23168187D02*
X15145301Y-23168187D01*
X15145301Y-23168187D02*
X15126253Y-23158663D01*
X15126253Y-23158663D02*
X15116730Y-23139615D01*
X15116730Y-23139615D02*
X15116730Y-23063425D01*
X15116730Y-23063425D02*
X15126253Y-23044377D01*
X15126253Y-23044377D02*
X15145301Y-23034854D01*
X15145301Y-23034854D02*
X15183396Y-23034854D01*
X15183396Y-23034854D02*
X15202444Y-23044377D01*
X15202444Y-23044377D02*
X15211968Y-23063425D01*
X15211968Y-23063425D02*
X15211968Y-23082473D01*
X15211968Y-23082473D02*
X15116730Y-23101520D01*
X15288158Y-23158663D02*
X15307206Y-23168187D01*
X15307206Y-23168187D02*
X15345301Y-23168187D01*
X15345301Y-23168187D02*
X15364349Y-23158663D01*
X15364349Y-23158663D02*
X15373872Y-23139615D01*
X15373872Y-23139615D02*
X15373872Y-23130092D01*
X15373872Y-23130092D02*
X15364349Y-23111044D01*
X15364349Y-23111044D02*
X15345301Y-23101520D01*
X15345301Y-23101520D02*
X15316730Y-23101520D01*
X15316730Y-23101520D02*
X15297682Y-23091996D01*
X15297682Y-23091996D02*
X15288158Y-23072949D01*
X15288158Y-23072949D02*
X15288158Y-23063425D01*
X15288158Y-23063425D02*
X15297682Y-23044377D01*
X15297682Y-23044377D02*
X15316730Y-23034854D01*
X15316730Y-23034854D02*
X15345301Y-23034854D01*
X15345301Y-23034854D02*
X15364349Y-23044377D01*
X15440539Y-23244377D02*
X15450063Y-23234854D01*
X15450063Y-23234854D02*
X15469111Y-23206282D01*
X15469111Y-23206282D02*
X15478634Y-23187235D01*
X15478634Y-23187235D02*
X15488158Y-23158663D01*
X15488158Y-23158663D02*
X15497682Y-23111044D01*
X15497682Y-23111044D02*
X15497682Y-23072949D01*
X15497682Y-23072949D02*
X15488158Y-23025330D01*
X15488158Y-23025330D02*
X15478634Y-22996758D01*
X15478634Y-22996758D02*
X15469111Y-22977711D01*
X15469111Y-22977711D02*
X15450063Y-22949139D01*
X15450063Y-22949139D02*
X15440539Y-22939615D01*
X15802444Y-23244377D02*
X15792920Y-23234854D01*
X15792920Y-23234854D02*
X15773872Y-23206282D01*
X15773872Y-23206282D02*
X15764349Y-23187235D01*
X15764349Y-23187235D02*
X15754825Y-23158663D01*
X15754825Y-23158663D02*
X15745301Y-23111044D01*
X15745301Y-23111044D02*
X15745301Y-23072949D01*
X15745301Y-23072949D02*
X15754825Y-23025330D01*
X15754825Y-23025330D02*
X15764349Y-22996758D01*
X15764349Y-22996758D02*
X15773872Y-22977711D01*
X15773872Y-22977711D02*
X15792920Y-22949139D01*
X15792920Y-22949139D02*
X15802444Y-22939615D01*
X15878634Y-23034854D02*
X15878634Y-23168187D01*
X15878634Y-23053901D02*
X15888158Y-23044377D01*
X15888158Y-23044377D02*
X15907206Y-23034854D01*
X15907206Y-23034854D02*
X15935777Y-23034854D01*
X15935777Y-23034854D02*
X15954825Y-23044377D01*
X15954825Y-23044377D02*
X15964349Y-23063425D01*
X15964349Y-23063425D02*
X15964349Y-23168187D01*
X16088158Y-23168187D02*
X16069111Y-23158663D01*
X16069111Y-23158663D02*
X16059587Y-23149139D01*
X16059587Y-23149139D02*
X16050063Y-23130092D01*
X16050063Y-23130092D02*
X16050063Y-23072949D01*
X16050063Y-23072949D02*
X16059587Y-23053901D01*
X16059587Y-23053901D02*
X16069111Y-23044377D01*
X16069111Y-23044377D02*
X16088158Y-23034854D01*
X16088158Y-23034854D02*
X16116730Y-23034854D01*
X16116730Y-23034854D02*
X16135777Y-23044377D01*
X16135777Y-23044377D02*
X16145301Y-23053901D01*
X16145301Y-23053901D02*
X16154825Y-23072949D01*
X16154825Y-23072949D02*
X16154825Y-23130092D01*
X16154825Y-23130092D02*
X16145301Y-23149139D01*
X16145301Y-23149139D02*
X16135777Y-23158663D01*
X16135777Y-23158663D02*
X16116730Y-23168187D01*
X16116730Y-23168187D02*
X16088158Y-23168187D01*
X16211968Y-23034854D02*
X16288158Y-23034854D01*
X16240539Y-22968187D02*
X16240539Y-23139615D01*
X16240539Y-23139615D02*
X16250063Y-23158663D01*
X16250063Y-23158663D02*
X16269111Y-23168187D01*
X16269111Y-23168187D02*
X16288158Y-23168187D01*
X16507206Y-23034854D02*
X16507206Y-23234854D01*
X16507206Y-23044377D02*
X16526253Y-23034854D01*
X16526253Y-23034854D02*
X16564349Y-23034854D01*
X16564349Y-23034854D02*
X16583396Y-23044377D01*
X16583396Y-23044377D02*
X16592920Y-23053901D01*
X16592920Y-23053901D02*
X16602444Y-23072949D01*
X16602444Y-23072949D02*
X16602444Y-23130092D01*
X16602444Y-23130092D02*
X16592920Y-23149139D01*
X16592920Y-23149139D02*
X16583396Y-23158663D01*
X16583396Y-23158663D02*
X16564349Y-23168187D01*
X16564349Y-23168187D02*
X16526253Y-23168187D01*
X16526253Y-23168187D02*
X16507206Y-23158663D01*
X16716730Y-23168187D02*
X16697682Y-23158663D01*
X16697682Y-23158663D02*
X16688158Y-23139615D01*
X16688158Y-23139615D02*
X16688158Y-22968187D01*
X16878635Y-23168187D02*
X16878635Y-23063425D01*
X16878635Y-23063425D02*
X16869111Y-23044377D01*
X16869111Y-23044377D02*
X16850063Y-23034854D01*
X16850063Y-23034854D02*
X16811968Y-23034854D01*
X16811968Y-23034854D02*
X16792920Y-23044377D01*
X16878635Y-23158663D02*
X16859587Y-23168187D01*
X16859587Y-23168187D02*
X16811968Y-23168187D01*
X16811968Y-23168187D02*
X16792920Y-23158663D01*
X16792920Y-23158663D02*
X16783396Y-23139615D01*
X16783396Y-23139615D02*
X16783396Y-23120568D01*
X16783396Y-23120568D02*
X16792920Y-23101520D01*
X16792920Y-23101520D02*
X16811968Y-23091996D01*
X16811968Y-23091996D02*
X16859587Y-23091996D01*
X16859587Y-23091996D02*
X16878635Y-23082473D01*
X16945301Y-23034854D02*
X17021492Y-23034854D01*
X16973873Y-22968187D02*
X16973873Y-23139615D01*
X16973873Y-23139615D02*
X16983396Y-23158663D01*
X16983396Y-23158663D02*
X17002444Y-23168187D01*
X17002444Y-23168187D02*
X17021492Y-23168187D01*
X17164349Y-23158663D02*
X17145301Y-23168187D01*
X17145301Y-23168187D02*
X17107206Y-23168187D01*
X17107206Y-23168187D02*
X17088158Y-23158663D01*
X17088158Y-23158663D02*
X17078635Y-23139615D01*
X17078635Y-23139615D02*
X17078635Y-23063425D01*
X17078635Y-23063425D02*
X17088158Y-23044377D01*
X17088158Y-23044377D02*
X17107206Y-23034854D01*
X17107206Y-23034854D02*
X17145301Y-23034854D01*
X17145301Y-23034854D02*
X17164349Y-23044377D01*
X17164349Y-23044377D02*
X17173873Y-23063425D01*
X17173873Y-23063425D02*
X17173873Y-23082473D01*
X17173873Y-23082473D02*
X17078635Y-23101520D01*
X17345301Y-23168187D02*
X17345301Y-22968187D01*
X17345301Y-23158663D02*
X17326254Y-23168187D01*
X17326254Y-23168187D02*
X17288158Y-23168187D01*
X17288158Y-23168187D02*
X17269111Y-23158663D01*
X17269111Y-23158663D02*
X17259587Y-23149139D01*
X17259587Y-23149139D02*
X17250063Y-23130092D01*
X17250063Y-23130092D02*
X17250063Y-23072949D01*
X17250063Y-23072949D02*
X17259587Y-23053901D01*
X17259587Y-23053901D02*
X17269111Y-23044377D01*
X17269111Y-23044377D02*
X17288158Y-23034854D01*
X17288158Y-23034854D02*
X17326254Y-23034854D01*
X17326254Y-23034854D02*
X17345301Y-23044377D01*
X17421492Y-23244377D02*
X17431016Y-23234854D01*
X17431016Y-23234854D02*
X17450063Y-23206282D01*
X17450063Y-23206282D02*
X17459587Y-23187235D01*
X17459587Y-23187235D02*
X17469111Y-23158663D01*
X17469111Y-23158663D02*
X17478635Y-23111044D01*
X17478635Y-23111044D02*
X17478635Y-23072949D01*
X17478635Y-23072949D02*
X17469111Y-23025330D01*
X17469111Y-23025330D02*
X17459587Y-22996758D01*
X17459587Y-22996758D02*
X17450063Y-22977711D01*
X17450063Y-22977711D02*
X17431016Y-22949139D01*
X17431016Y-22949139D02*
X17421492Y-22939615D01*
X10445711Y-23437415D02*
X10445711Y-23295992D01*
X10304289Y-23295992D01*
X10304289Y-23437415D01*
X10445711Y-23437415D01*
X10726253Y-23277235D02*
X10735777Y-23267711D01*
X10735777Y-23267711D02*
X10754824Y-23258187D01*
X10754824Y-23258187D02*
X10802444Y-23258187D01*
X10802444Y-23258187D02*
X10821491Y-23267711D01*
X10821491Y-23267711D02*
X10831015Y-23277235D01*
X10831015Y-23277235D02*
X10840539Y-23296282D01*
X10840539Y-23296282D02*
X10840539Y-23315330D01*
X10840539Y-23315330D02*
X10831015Y-23343901D01*
X10831015Y-23343901D02*
X10716729Y-23458187D01*
X10716729Y-23458187D02*
X10840539Y-23458187D01*
X10926253Y-23439139D02*
X10935777Y-23448663D01*
X10935777Y-23448663D02*
X10926253Y-23458187D01*
X10926253Y-23458187D02*
X10916729Y-23448663D01*
X10916729Y-23448663D02*
X10926253Y-23439139D01*
X10926253Y-23439139D02*
X10926253Y-23458187D01*
X11002444Y-23258187D02*
X11135777Y-23258187D01*
X11135777Y-23258187D02*
X11050063Y-23458187D01*
X11250062Y-23258187D02*
X11269110Y-23258187D01*
X11269110Y-23258187D02*
X11288158Y-23267711D01*
X11288158Y-23267711D02*
X11297682Y-23277235D01*
X11297682Y-23277235D02*
X11307205Y-23296282D01*
X11307205Y-23296282D02*
X11316729Y-23334377D01*
X11316729Y-23334377D02*
X11316729Y-23381996D01*
X11316729Y-23381996D02*
X11307205Y-23420092D01*
X11307205Y-23420092D02*
X11297682Y-23439139D01*
X11297682Y-23439139D02*
X11288158Y-23448663D01*
X11288158Y-23448663D02*
X11269110Y-23458187D01*
X11269110Y-23458187D02*
X11250062Y-23458187D01*
X11250062Y-23458187D02*
X11231015Y-23448663D01*
X11231015Y-23448663D02*
X11221491Y-23439139D01*
X11221491Y-23439139D02*
X11211967Y-23420092D01*
X11211967Y-23420092D02*
X11202443Y-23381996D01*
X11202443Y-23381996D02*
X11202443Y-23334377D01*
X11202443Y-23334377D02*
X11211967Y-23296282D01*
X11211967Y-23296282D02*
X11221491Y-23277235D01*
X11221491Y-23277235D02*
X11231015Y-23267711D01*
X11231015Y-23267711D02*
X11250062Y-23258187D01*
X11440539Y-23258187D02*
X11459586Y-23258187D01*
X11459586Y-23258187D02*
X11478634Y-23267711D01*
X11478634Y-23267711D02*
X11488158Y-23277235D01*
X11488158Y-23277235D02*
X11497682Y-23296282D01*
X11497682Y-23296282D02*
X11507205Y-23334377D01*
X11507205Y-23334377D02*
X11507205Y-23381996D01*
X11507205Y-23381996D02*
X11497682Y-23420092D01*
X11497682Y-23420092D02*
X11488158Y-23439139D01*
X11488158Y-23439139D02*
X11478634Y-23448663D01*
X11478634Y-23448663D02*
X11459586Y-23458187D01*
X11459586Y-23458187D02*
X11440539Y-23458187D01*
X11440539Y-23458187D02*
X11421491Y-23448663D01*
X11421491Y-23448663D02*
X11411967Y-23439139D01*
X11411967Y-23439139D02*
X11402443Y-23420092D01*
X11402443Y-23420092D02*
X11392920Y-23381996D01*
X11392920Y-23381996D02*
X11392920Y-23334377D01*
X11392920Y-23334377D02*
X11402443Y-23296282D01*
X11402443Y-23296282D02*
X11411967Y-23277235D01*
X11411967Y-23277235D02*
X11421491Y-23267711D01*
X11421491Y-23267711D02*
X11440539Y-23258187D01*
X11592920Y-23458187D02*
X11592920Y-23324854D01*
X11592920Y-23343901D02*
X11602443Y-23334377D01*
X11602443Y-23334377D02*
X11621491Y-23324854D01*
X11621491Y-23324854D02*
X11650063Y-23324854D01*
X11650063Y-23324854D02*
X11669110Y-23334377D01*
X11669110Y-23334377D02*
X11678634Y-23353425D01*
X11678634Y-23353425D02*
X11678634Y-23458187D01*
X11678634Y-23353425D02*
X11688158Y-23334377D01*
X11688158Y-23334377D02*
X11707205Y-23324854D01*
X11707205Y-23324854D02*
X11735777Y-23324854D01*
X11735777Y-23324854D02*
X11754824Y-23334377D01*
X11754824Y-23334377D02*
X11764348Y-23353425D01*
X11764348Y-23353425D02*
X11764348Y-23458187D01*
X11859586Y-23458187D02*
X11859586Y-23324854D01*
X11859586Y-23343901D02*
X11869110Y-23334377D01*
X11869110Y-23334377D02*
X11888158Y-23324854D01*
X11888158Y-23324854D02*
X11916729Y-23324854D01*
X11916729Y-23324854D02*
X11935777Y-23334377D01*
X11935777Y-23334377D02*
X11945301Y-23353425D01*
X11945301Y-23353425D02*
X11945301Y-23458187D01*
X11945301Y-23353425D02*
X11954824Y-23334377D01*
X11954824Y-23334377D02*
X11973872Y-23324854D01*
X11973872Y-23324854D02*
X12002443Y-23324854D01*
X12002443Y-23324854D02*
X12021491Y-23334377D01*
X12021491Y-23334377D02*
X12031015Y-23353425D01*
X12031015Y-23353425D02*
X12031015Y-23458187D01*
X12421491Y-23248663D02*
X12250063Y-23505806D01*
X12678634Y-23258187D02*
X12697682Y-23258187D01*
X12697682Y-23258187D02*
X12716729Y-23267711D01*
X12716729Y-23267711D02*
X12726253Y-23277235D01*
X12726253Y-23277235D02*
X12735777Y-23296282D01*
X12735777Y-23296282D02*
X12745301Y-23334377D01*
X12745301Y-23334377D02*
X12745301Y-23381996D01*
X12745301Y-23381996D02*
X12735777Y-23420092D01*
X12735777Y-23420092D02*
X12726253Y-23439139D01*
X12726253Y-23439139D02*
X12716729Y-23448663D01*
X12716729Y-23448663D02*
X12697682Y-23458187D01*
X12697682Y-23458187D02*
X12678634Y-23458187D01*
X12678634Y-23458187D02*
X12659586Y-23448663D01*
X12659586Y-23448663D02*
X12650063Y-23439139D01*
X12650063Y-23439139D02*
X12640539Y-23420092D01*
X12640539Y-23420092D02*
X12631015Y-23381996D01*
X12631015Y-23381996D02*
X12631015Y-23334377D01*
X12631015Y-23334377D02*
X12640539Y-23296282D01*
X12640539Y-23296282D02*
X12650063Y-23277235D01*
X12650063Y-23277235D02*
X12659586Y-23267711D01*
X12659586Y-23267711D02*
X12678634Y-23258187D01*
X12831015Y-23439139D02*
X12840539Y-23448663D01*
X12840539Y-23448663D02*
X12831015Y-23458187D01*
X12831015Y-23458187D02*
X12821491Y-23448663D01*
X12821491Y-23448663D02*
X12831015Y-23439139D01*
X12831015Y-23439139D02*
X12831015Y-23458187D01*
X13031015Y-23458187D02*
X12916729Y-23458187D01*
X12973872Y-23458187D02*
X12973872Y-23258187D01*
X12973872Y-23258187D02*
X12954825Y-23286758D01*
X12954825Y-23286758D02*
X12935777Y-23305806D01*
X12935777Y-23305806D02*
X12916729Y-23315330D01*
X13154825Y-23258187D02*
X13173872Y-23258187D01*
X13173872Y-23258187D02*
X13192920Y-23267711D01*
X13192920Y-23267711D02*
X13202444Y-23277235D01*
X13202444Y-23277235D02*
X13211967Y-23296282D01*
X13211967Y-23296282D02*
X13221491Y-23334377D01*
X13221491Y-23334377D02*
X13221491Y-23381996D01*
X13221491Y-23381996D02*
X13211967Y-23420092D01*
X13211967Y-23420092D02*
X13202444Y-23439139D01*
X13202444Y-23439139D02*
X13192920Y-23448663D01*
X13192920Y-23448663D02*
X13173872Y-23458187D01*
X13173872Y-23458187D02*
X13154825Y-23458187D01*
X13154825Y-23458187D02*
X13135777Y-23448663D01*
X13135777Y-23448663D02*
X13126253Y-23439139D01*
X13126253Y-23439139D02*
X13116729Y-23420092D01*
X13116729Y-23420092D02*
X13107206Y-23381996D01*
X13107206Y-23381996D02*
X13107206Y-23334377D01*
X13107206Y-23334377D02*
X13116729Y-23296282D01*
X13116729Y-23296282D02*
X13126253Y-23277235D01*
X13126253Y-23277235D02*
X13135777Y-23267711D01*
X13135777Y-23267711D02*
X13154825Y-23258187D01*
X13392920Y-23258187D02*
X13354825Y-23258187D01*
X13354825Y-23258187D02*
X13335777Y-23267711D01*
X13335777Y-23267711D02*
X13326253Y-23277235D01*
X13326253Y-23277235D02*
X13307206Y-23305806D01*
X13307206Y-23305806D02*
X13297682Y-23343901D01*
X13297682Y-23343901D02*
X13297682Y-23420092D01*
X13297682Y-23420092D02*
X13307206Y-23439139D01*
X13307206Y-23439139D02*
X13316729Y-23448663D01*
X13316729Y-23448663D02*
X13335777Y-23458187D01*
X13335777Y-23458187D02*
X13373872Y-23458187D01*
X13373872Y-23458187D02*
X13392920Y-23448663D01*
X13392920Y-23448663D02*
X13402444Y-23439139D01*
X13402444Y-23439139D02*
X13411967Y-23420092D01*
X13411967Y-23420092D02*
X13411967Y-23372473D01*
X13411967Y-23372473D02*
X13402444Y-23353425D01*
X13402444Y-23353425D02*
X13392920Y-23343901D01*
X13392920Y-23343901D02*
X13373872Y-23334377D01*
X13373872Y-23334377D02*
X13335777Y-23334377D01*
X13335777Y-23334377D02*
X13316729Y-23343901D01*
X13316729Y-23343901D02*
X13307206Y-23353425D01*
X13307206Y-23353425D02*
X13297682Y-23372473D01*
X13478634Y-23258187D02*
X13602444Y-23258187D01*
X13602444Y-23258187D02*
X13535777Y-23334377D01*
X13535777Y-23334377D02*
X13564348Y-23334377D01*
X13564348Y-23334377D02*
X13583396Y-23343901D01*
X13583396Y-23343901D02*
X13592920Y-23353425D01*
X13592920Y-23353425D02*
X13602444Y-23372473D01*
X13602444Y-23372473D02*
X13602444Y-23420092D01*
X13602444Y-23420092D02*
X13592920Y-23439139D01*
X13592920Y-23439139D02*
X13583396Y-23448663D01*
X13583396Y-23448663D02*
X13564348Y-23458187D01*
X13564348Y-23458187D02*
X13507206Y-23458187D01*
X13507206Y-23458187D02*
X13488158Y-23448663D01*
X13488158Y-23448663D02*
X13478634Y-23439139D01*
X13678634Y-23258187D02*
X13678634Y-23296282D01*
X13754825Y-23258187D02*
X13754825Y-23296282D01*
X14050063Y-23534377D02*
X14040539Y-23524854D01*
X14040539Y-23524854D02*
X14021491Y-23496282D01*
X14021491Y-23496282D02*
X14011968Y-23477235D01*
X14011968Y-23477235D02*
X14002444Y-23448663D01*
X14002444Y-23448663D02*
X13992920Y-23401044D01*
X13992920Y-23401044D02*
X13992920Y-23362949D01*
X13992920Y-23362949D02*
X14002444Y-23315330D01*
X14002444Y-23315330D02*
X14011968Y-23286758D01*
X14011968Y-23286758D02*
X14021491Y-23267711D01*
X14021491Y-23267711D02*
X14040539Y-23239139D01*
X14040539Y-23239139D02*
X14050063Y-23229615D01*
X14231015Y-23458187D02*
X14116729Y-23458187D01*
X14173872Y-23458187D02*
X14173872Y-23258187D01*
X14173872Y-23258187D02*
X14154825Y-23286758D01*
X14154825Y-23286758D02*
X14135777Y-23305806D01*
X14135777Y-23305806D02*
X14116729Y-23315330D01*
X14307206Y-23277235D02*
X14316729Y-23267711D01*
X14316729Y-23267711D02*
X14335777Y-23258187D01*
X14335777Y-23258187D02*
X14383396Y-23258187D01*
X14383396Y-23258187D02*
X14402444Y-23267711D01*
X14402444Y-23267711D02*
X14411968Y-23277235D01*
X14411968Y-23277235D02*
X14421491Y-23296282D01*
X14421491Y-23296282D02*
X14421491Y-23315330D01*
X14421491Y-23315330D02*
X14411968Y-23343901D01*
X14411968Y-23343901D02*
X14297682Y-23458187D01*
X14297682Y-23458187D02*
X14421491Y-23458187D01*
X14659587Y-23458187D02*
X14659587Y-23258187D01*
X14745301Y-23458187D02*
X14745301Y-23353425D01*
X14745301Y-23353425D02*
X14735777Y-23334377D01*
X14735777Y-23334377D02*
X14716730Y-23324854D01*
X14716730Y-23324854D02*
X14688158Y-23324854D01*
X14688158Y-23324854D02*
X14669110Y-23334377D01*
X14669110Y-23334377D02*
X14659587Y-23343901D01*
X14869110Y-23458187D02*
X14850063Y-23448663D01*
X14850063Y-23448663D02*
X14840539Y-23439139D01*
X14840539Y-23439139D02*
X14831015Y-23420092D01*
X14831015Y-23420092D02*
X14831015Y-23362949D01*
X14831015Y-23362949D02*
X14840539Y-23343901D01*
X14840539Y-23343901D02*
X14850063Y-23334377D01*
X14850063Y-23334377D02*
X14869110Y-23324854D01*
X14869110Y-23324854D02*
X14897682Y-23324854D01*
X14897682Y-23324854D02*
X14916730Y-23334377D01*
X14916730Y-23334377D02*
X14926253Y-23343901D01*
X14926253Y-23343901D02*
X14935777Y-23362949D01*
X14935777Y-23362949D02*
X14935777Y-23420092D01*
X14935777Y-23420092D02*
X14926253Y-23439139D01*
X14926253Y-23439139D02*
X14916730Y-23448663D01*
X14916730Y-23448663D02*
X14897682Y-23458187D01*
X14897682Y-23458187D02*
X14869110Y-23458187D01*
X15050063Y-23458187D02*
X15031015Y-23448663D01*
X15031015Y-23448663D02*
X15021491Y-23429615D01*
X15021491Y-23429615D02*
X15021491Y-23258187D01*
X15202444Y-23448663D02*
X15183396Y-23458187D01*
X15183396Y-23458187D02*
X15145301Y-23458187D01*
X15145301Y-23458187D02*
X15126253Y-23448663D01*
X15126253Y-23448663D02*
X15116730Y-23429615D01*
X15116730Y-23429615D02*
X15116730Y-23353425D01*
X15116730Y-23353425D02*
X15126253Y-23334377D01*
X15126253Y-23334377D02*
X15145301Y-23324854D01*
X15145301Y-23324854D02*
X15183396Y-23324854D01*
X15183396Y-23324854D02*
X15202444Y-23334377D01*
X15202444Y-23334377D02*
X15211968Y-23353425D01*
X15211968Y-23353425D02*
X15211968Y-23372473D01*
X15211968Y-23372473D02*
X15116730Y-23391520D01*
X15288158Y-23448663D02*
X15307206Y-23458187D01*
X15307206Y-23458187D02*
X15345301Y-23458187D01*
X15345301Y-23458187D02*
X15364349Y-23448663D01*
X15364349Y-23448663D02*
X15373872Y-23429615D01*
X15373872Y-23429615D02*
X15373872Y-23420092D01*
X15373872Y-23420092D02*
X15364349Y-23401044D01*
X15364349Y-23401044D02*
X15345301Y-23391520D01*
X15345301Y-23391520D02*
X15316730Y-23391520D01*
X15316730Y-23391520D02*
X15297682Y-23381996D01*
X15297682Y-23381996D02*
X15288158Y-23362949D01*
X15288158Y-23362949D02*
X15288158Y-23353425D01*
X15288158Y-23353425D02*
X15297682Y-23334377D01*
X15297682Y-23334377D02*
X15316730Y-23324854D01*
X15316730Y-23324854D02*
X15345301Y-23324854D01*
X15345301Y-23324854D02*
X15364349Y-23334377D01*
X15440539Y-23534377D02*
X15450063Y-23524854D01*
X15450063Y-23524854D02*
X15469111Y-23496282D01*
X15469111Y-23496282D02*
X15478634Y-23477235D01*
X15478634Y-23477235D02*
X15488158Y-23448663D01*
X15488158Y-23448663D02*
X15497682Y-23401044D01*
X15497682Y-23401044D02*
X15497682Y-23362949D01*
X15497682Y-23362949D02*
X15488158Y-23315330D01*
X15488158Y-23315330D02*
X15478634Y-23286758D01*
X15478634Y-23286758D02*
X15469111Y-23267711D01*
X15469111Y-23267711D02*
X15450063Y-23239139D01*
X15450063Y-23239139D02*
X15440539Y-23229615D01*
X15802444Y-23534377D02*
X15792920Y-23524854D01*
X15792920Y-23524854D02*
X15773872Y-23496282D01*
X15773872Y-23496282D02*
X15764349Y-23477235D01*
X15764349Y-23477235D02*
X15754825Y-23448663D01*
X15754825Y-23448663D02*
X15745301Y-23401044D01*
X15745301Y-23401044D02*
X15745301Y-23362949D01*
X15745301Y-23362949D02*
X15754825Y-23315330D01*
X15754825Y-23315330D02*
X15764349Y-23286758D01*
X15764349Y-23286758D02*
X15773872Y-23267711D01*
X15773872Y-23267711D02*
X15792920Y-23239139D01*
X15792920Y-23239139D02*
X15802444Y-23229615D01*
X15878634Y-23324854D02*
X15878634Y-23458187D01*
X15878634Y-23343901D02*
X15888158Y-23334377D01*
X15888158Y-23334377D02*
X15907206Y-23324854D01*
X15907206Y-23324854D02*
X15935777Y-23324854D01*
X15935777Y-23324854D02*
X15954825Y-23334377D01*
X15954825Y-23334377D02*
X15964349Y-23353425D01*
X15964349Y-23353425D02*
X15964349Y-23458187D01*
X16088158Y-23458187D02*
X16069111Y-23448663D01*
X16069111Y-23448663D02*
X16059587Y-23439139D01*
X16059587Y-23439139D02*
X16050063Y-23420092D01*
X16050063Y-23420092D02*
X16050063Y-23362949D01*
X16050063Y-23362949D02*
X16059587Y-23343901D01*
X16059587Y-23343901D02*
X16069111Y-23334377D01*
X16069111Y-23334377D02*
X16088158Y-23324854D01*
X16088158Y-23324854D02*
X16116730Y-23324854D01*
X16116730Y-23324854D02*
X16135777Y-23334377D01*
X16135777Y-23334377D02*
X16145301Y-23343901D01*
X16145301Y-23343901D02*
X16154825Y-23362949D01*
X16154825Y-23362949D02*
X16154825Y-23420092D01*
X16154825Y-23420092D02*
X16145301Y-23439139D01*
X16145301Y-23439139D02*
X16135777Y-23448663D01*
X16135777Y-23448663D02*
X16116730Y-23458187D01*
X16116730Y-23458187D02*
X16088158Y-23458187D01*
X16211968Y-23324854D02*
X16288158Y-23324854D01*
X16240539Y-23258187D02*
X16240539Y-23429615D01*
X16240539Y-23429615D02*
X16250063Y-23448663D01*
X16250063Y-23448663D02*
X16269111Y-23458187D01*
X16269111Y-23458187D02*
X16288158Y-23458187D01*
X16507206Y-23324854D02*
X16507206Y-23524854D01*
X16507206Y-23334377D02*
X16526253Y-23324854D01*
X16526253Y-23324854D02*
X16564349Y-23324854D01*
X16564349Y-23324854D02*
X16583396Y-23334377D01*
X16583396Y-23334377D02*
X16592920Y-23343901D01*
X16592920Y-23343901D02*
X16602444Y-23362949D01*
X16602444Y-23362949D02*
X16602444Y-23420092D01*
X16602444Y-23420092D02*
X16592920Y-23439139D01*
X16592920Y-23439139D02*
X16583396Y-23448663D01*
X16583396Y-23448663D02*
X16564349Y-23458187D01*
X16564349Y-23458187D02*
X16526253Y-23458187D01*
X16526253Y-23458187D02*
X16507206Y-23448663D01*
X16716730Y-23458187D02*
X16697682Y-23448663D01*
X16697682Y-23448663D02*
X16688158Y-23429615D01*
X16688158Y-23429615D02*
X16688158Y-23258187D01*
X16878635Y-23458187D02*
X16878635Y-23353425D01*
X16878635Y-23353425D02*
X16869111Y-23334377D01*
X16869111Y-23334377D02*
X16850063Y-23324854D01*
X16850063Y-23324854D02*
X16811968Y-23324854D01*
X16811968Y-23324854D02*
X16792920Y-23334377D01*
X16878635Y-23448663D02*
X16859587Y-23458187D01*
X16859587Y-23458187D02*
X16811968Y-23458187D01*
X16811968Y-23458187D02*
X16792920Y-23448663D01*
X16792920Y-23448663D02*
X16783396Y-23429615D01*
X16783396Y-23429615D02*
X16783396Y-23410568D01*
X16783396Y-23410568D02*
X16792920Y-23391520D01*
X16792920Y-23391520D02*
X16811968Y-23381996D01*
X16811968Y-23381996D02*
X16859587Y-23381996D01*
X16859587Y-23381996D02*
X16878635Y-23372473D01*
X16945301Y-23324854D02*
X17021492Y-23324854D01*
X16973873Y-23258187D02*
X16973873Y-23429615D01*
X16973873Y-23429615D02*
X16983396Y-23448663D01*
X16983396Y-23448663D02*
X17002444Y-23458187D01*
X17002444Y-23458187D02*
X17021492Y-23458187D01*
X17164349Y-23448663D02*
X17145301Y-23458187D01*
X17145301Y-23458187D02*
X17107206Y-23458187D01*
X17107206Y-23458187D02*
X17088158Y-23448663D01*
X17088158Y-23448663D02*
X17078635Y-23429615D01*
X17078635Y-23429615D02*
X17078635Y-23353425D01*
X17078635Y-23353425D02*
X17088158Y-23334377D01*
X17088158Y-23334377D02*
X17107206Y-23324854D01*
X17107206Y-23324854D02*
X17145301Y-23324854D01*
X17145301Y-23324854D02*
X17164349Y-23334377D01*
X17164349Y-23334377D02*
X17173873Y-23353425D01*
X17173873Y-23353425D02*
X17173873Y-23372473D01*
X17173873Y-23372473D02*
X17078635Y-23391520D01*
X17345301Y-23458187D02*
X17345301Y-23258187D01*
X17345301Y-23448663D02*
X17326254Y-23458187D01*
X17326254Y-23458187D02*
X17288158Y-23458187D01*
X17288158Y-23458187D02*
X17269111Y-23448663D01*
X17269111Y-23448663D02*
X17259587Y-23439139D01*
X17259587Y-23439139D02*
X17250063Y-23420092D01*
X17250063Y-23420092D02*
X17250063Y-23362949D01*
X17250063Y-23362949D02*
X17259587Y-23343901D01*
X17259587Y-23343901D02*
X17269111Y-23334377D01*
X17269111Y-23334377D02*
X17288158Y-23324854D01*
X17288158Y-23324854D02*
X17326254Y-23324854D01*
X17326254Y-23324854D02*
X17345301Y-23334377D01*
X17421492Y-23534377D02*
X17431016Y-23524854D01*
X17431016Y-23524854D02*
X17450063Y-23496282D01*
X17450063Y-23496282D02*
X17459587Y-23477235D01*
X17459587Y-23477235D02*
X17469111Y-23448663D01*
X17469111Y-23448663D02*
X17478635Y-23401044D01*
X17478635Y-23401044D02*
X17478635Y-23362949D01*
X17478635Y-23362949D02*
X17469111Y-23315330D01*
X17469111Y-23315330D02*
X17459587Y-23286758D01*
X17459587Y-23286758D02*
X17450063Y-23267711D01*
X17450063Y-23267711D02*
X17431016Y-23239139D01*
X17431016Y-23239139D02*
X17421492Y-23229615D01*
X10375000Y-23786703D02*
X10475000Y-23686703D01*
X10375000Y-23586703D01*
X10275000Y-23686703D01*
X10375000Y-23786703D01*
X10716729Y-23578187D02*
X10840539Y-23578187D01*
X10840539Y-23578187D02*
X10773872Y-23654377D01*
X10773872Y-23654377D02*
X10802444Y-23654377D01*
X10802444Y-23654377D02*
X10821491Y-23663901D01*
X10821491Y-23663901D02*
X10831015Y-23673425D01*
X10831015Y-23673425D02*
X10840539Y-23692473D01*
X10840539Y-23692473D02*
X10840539Y-23740092D01*
X10840539Y-23740092D02*
X10831015Y-23759139D01*
X10831015Y-23759139D02*
X10821491Y-23768663D01*
X10821491Y-23768663D02*
X10802444Y-23778187D01*
X10802444Y-23778187D02*
X10745301Y-23778187D01*
X10745301Y-23778187D02*
X10726253Y-23768663D01*
X10726253Y-23768663D02*
X10716729Y-23759139D01*
X10926253Y-23759139D02*
X10935777Y-23768663D01*
X10935777Y-23768663D02*
X10926253Y-23778187D01*
X10926253Y-23778187D02*
X10916729Y-23768663D01*
X10916729Y-23768663D02*
X10926253Y-23759139D01*
X10926253Y-23759139D02*
X10926253Y-23778187D01*
X11059586Y-23578187D02*
X11078634Y-23578187D01*
X11078634Y-23578187D02*
X11097682Y-23587711D01*
X11097682Y-23587711D02*
X11107205Y-23597235D01*
X11107205Y-23597235D02*
X11116729Y-23616282D01*
X11116729Y-23616282D02*
X11126253Y-23654377D01*
X11126253Y-23654377D02*
X11126253Y-23701996D01*
X11126253Y-23701996D02*
X11116729Y-23740092D01*
X11116729Y-23740092D02*
X11107205Y-23759139D01*
X11107205Y-23759139D02*
X11097682Y-23768663D01*
X11097682Y-23768663D02*
X11078634Y-23778187D01*
X11078634Y-23778187D02*
X11059586Y-23778187D01*
X11059586Y-23778187D02*
X11040539Y-23768663D01*
X11040539Y-23768663D02*
X11031015Y-23759139D01*
X11031015Y-23759139D02*
X11021491Y-23740092D01*
X11021491Y-23740092D02*
X11011967Y-23701996D01*
X11011967Y-23701996D02*
X11011967Y-23654377D01*
X11011967Y-23654377D02*
X11021491Y-23616282D01*
X11021491Y-23616282D02*
X11031015Y-23597235D01*
X11031015Y-23597235D02*
X11040539Y-23587711D01*
X11040539Y-23587711D02*
X11059586Y-23578187D01*
X11307205Y-23578187D02*
X11211967Y-23578187D01*
X11211967Y-23578187D02*
X11202443Y-23673425D01*
X11202443Y-23673425D02*
X11211967Y-23663901D01*
X11211967Y-23663901D02*
X11231015Y-23654377D01*
X11231015Y-23654377D02*
X11278634Y-23654377D01*
X11278634Y-23654377D02*
X11297682Y-23663901D01*
X11297682Y-23663901D02*
X11307205Y-23673425D01*
X11307205Y-23673425D02*
X11316729Y-23692473D01*
X11316729Y-23692473D02*
X11316729Y-23740092D01*
X11316729Y-23740092D02*
X11307205Y-23759139D01*
X11307205Y-23759139D02*
X11297682Y-23768663D01*
X11297682Y-23768663D02*
X11278634Y-23778187D01*
X11278634Y-23778187D02*
X11231015Y-23778187D01*
X11231015Y-23778187D02*
X11211967Y-23768663D01*
X11211967Y-23768663D02*
X11202443Y-23759139D01*
X11440539Y-23578187D02*
X11459586Y-23578187D01*
X11459586Y-23578187D02*
X11478634Y-23587711D01*
X11478634Y-23587711D02*
X11488158Y-23597235D01*
X11488158Y-23597235D02*
X11497682Y-23616282D01*
X11497682Y-23616282D02*
X11507205Y-23654377D01*
X11507205Y-23654377D02*
X11507205Y-23701996D01*
X11507205Y-23701996D02*
X11497682Y-23740092D01*
X11497682Y-23740092D02*
X11488158Y-23759139D01*
X11488158Y-23759139D02*
X11478634Y-23768663D01*
X11478634Y-23768663D02*
X11459586Y-23778187D01*
X11459586Y-23778187D02*
X11440539Y-23778187D01*
X11440539Y-23778187D02*
X11421491Y-23768663D01*
X11421491Y-23768663D02*
X11411967Y-23759139D01*
X11411967Y-23759139D02*
X11402443Y-23740092D01*
X11402443Y-23740092D02*
X11392920Y-23701996D01*
X11392920Y-23701996D02*
X11392920Y-23654377D01*
X11392920Y-23654377D02*
X11402443Y-23616282D01*
X11402443Y-23616282D02*
X11411967Y-23597235D01*
X11411967Y-23597235D02*
X11421491Y-23587711D01*
X11421491Y-23587711D02*
X11440539Y-23578187D01*
X11592920Y-23778187D02*
X11592920Y-23644854D01*
X11592920Y-23663901D02*
X11602443Y-23654377D01*
X11602443Y-23654377D02*
X11621491Y-23644854D01*
X11621491Y-23644854D02*
X11650063Y-23644854D01*
X11650063Y-23644854D02*
X11669110Y-23654377D01*
X11669110Y-23654377D02*
X11678634Y-23673425D01*
X11678634Y-23673425D02*
X11678634Y-23778187D01*
X11678634Y-23673425D02*
X11688158Y-23654377D01*
X11688158Y-23654377D02*
X11707205Y-23644854D01*
X11707205Y-23644854D02*
X11735777Y-23644854D01*
X11735777Y-23644854D02*
X11754824Y-23654377D01*
X11754824Y-23654377D02*
X11764348Y-23673425D01*
X11764348Y-23673425D02*
X11764348Y-23778187D01*
X11859586Y-23778187D02*
X11859586Y-23644854D01*
X11859586Y-23663901D02*
X11869110Y-23654377D01*
X11869110Y-23654377D02*
X11888158Y-23644854D01*
X11888158Y-23644854D02*
X11916729Y-23644854D01*
X11916729Y-23644854D02*
X11935777Y-23654377D01*
X11935777Y-23654377D02*
X11945301Y-23673425D01*
X11945301Y-23673425D02*
X11945301Y-23778187D01*
X11945301Y-23673425D02*
X11954824Y-23654377D01*
X11954824Y-23654377D02*
X11973872Y-23644854D01*
X11973872Y-23644854D02*
X12002443Y-23644854D01*
X12002443Y-23644854D02*
X12021491Y-23654377D01*
X12021491Y-23654377D02*
X12031015Y-23673425D01*
X12031015Y-23673425D02*
X12031015Y-23778187D01*
X12421491Y-23568663D02*
X12250063Y-23825806D01*
X12678634Y-23578187D02*
X12697682Y-23578187D01*
X12697682Y-23578187D02*
X12716729Y-23587711D01*
X12716729Y-23587711D02*
X12726253Y-23597235D01*
X12726253Y-23597235D02*
X12735777Y-23616282D01*
X12735777Y-23616282D02*
X12745301Y-23654377D01*
X12745301Y-23654377D02*
X12745301Y-23701996D01*
X12745301Y-23701996D02*
X12735777Y-23740092D01*
X12735777Y-23740092D02*
X12726253Y-23759139D01*
X12726253Y-23759139D02*
X12716729Y-23768663D01*
X12716729Y-23768663D02*
X12697682Y-23778187D01*
X12697682Y-23778187D02*
X12678634Y-23778187D01*
X12678634Y-23778187D02*
X12659586Y-23768663D01*
X12659586Y-23768663D02*
X12650063Y-23759139D01*
X12650063Y-23759139D02*
X12640539Y-23740092D01*
X12640539Y-23740092D02*
X12631015Y-23701996D01*
X12631015Y-23701996D02*
X12631015Y-23654377D01*
X12631015Y-23654377D02*
X12640539Y-23616282D01*
X12640539Y-23616282D02*
X12650063Y-23597235D01*
X12650063Y-23597235D02*
X12659586Y-23587711D01*
X12659586Y-23587711D02*
X12678634Y-23578187D01*
X12831015Y-23759139D02*
X12840539Y-23768663D01*
X12840539Y-23768663D02*
X12831015Y-23778187D01*
X12831015Y-23778187D02*
X12821491Y-23768663D01*
X12821491Y-23768663D02*
X12831015Y-23759139D01*
X12831015Y-23759139D02*
X12831015Y-23778187D01*
X13031015Y-23778187D02*
X12916729Y-23778187D01*
X12973872Y-23778187D02*
X12973872Y-23578187D01*
X12973872Y-23578187D02*
X12954825Y-23606758D01*
X12954825Y-23606758D02*
X12935777Y-23625806D01*
X12935777Y-23625806D02*
X12916729Y-23635330D01*
X13107206Y-23597235D02*
X13116729Y-23587711D01*
X13116729Y-23587711D02*
X13135777Y-23578187D01*
X13135777Y-23578187D02*
X13183396Y-23578187D01*
X13183396Y-23578187D02*
X13202444Y-23587711D01*
X13202444Y-23587711D02*
X13211967Y-23597235D01*
X13211967Y-23597235D02*
X13221491Y-23616282D01*
X13221491Y-23616282D02*
X13221491Y-23635330D01*
X13221491Y-23635330D02*
X13211967Y-23663901D01*
X13211967Y-23663901D02*
X13097682Y-23778187D01*
X13097682Y-23778187D02*
X13221491Y-23778187D01*
X13345301Y-23578187D02*
X13364348Y-23578187D01*
X13364348Y-23578187D02*
X13383396Y-23587711D01*
X13383396Y-23587711D02*
X13392920Y-23597235D01*
X13392920Y-23597235D02*
X13402444Y-23616282D01*
X13402444Y-23616282D02*
X13411967Y-23654377D01*
X13411967Y-23654377D02*
X13411967Y-23701996D01*
X13411967Y-23701996D02*
X13402444Y-23740092D01*
X13402444Y-23740092D02*
X13392920Y-23759139D01*
X13392920Y-23759139D02*
X13383396Y-23768663D01*
X13383396Y-23768663D02*
X13364348Y-23778187D01*
X13364348Y-23778187D02*
X13345301Y-23778187D01*
X13345301Y-23778187D02*
X13326253Y-23768663D01*
X13326253Y-23768663D02*
X13316729Y-23759139D01*
X13316729Y-23759139D02*
X13307206Y-23740092D01*
X13307206Y-23740092D02*
X13297682Y-23701996D01*
X13297682Y-23701996D02*
X13297682Y-23654377D01*
X13297682Y-23654377D02*
X13307206Y-23616282D01*
X13307206Y-23616282D02*
X13316729Y-23597235D01*
X13316729Y-23597235D02*
X13326253Y-23587711D01*
X13326253Y-23587711D02*
X13345301Y-23578187D01*
X13602444Y-23778187D02*
X13488158Y-23778187D01*
X13545301Y-23778187D02*
X13545301Y-23578187D01*
X13545301Y-23578187D02*
X13526253Y-23606758D01*
X13526253Y-23606758D02*
X13507206Y-23625806D01*
X13507206Y-23625806D02*
X13488158Y-23635330D01*
X13678634Y-23578187D02*
X13678634Y-23616282D01*
X13754825Y-23578187D02*
X13754825Y-23616282D01*
X14050063Y-23854377D02*
X14040539Y-23844854D01*
X14040539Y-23844854D02*
X14021491Y-23816282D01*
X14021491Y-23816282D02*
X14011968Y-23797235D01*
X14011968Y-23797235D02*
X14002444Y-23768663D01*
X14002444Y-23768663D02*
X13992920Y-23721044D01*
X13992920Y-23721044D02*
X13992920Y-23682949D01*
X13992920Y-23682949D02*
X14002444Y-23635330D01*
X14002444Y-23635330D02*
X14011968Y-23606758D01*
X14011968Y-23606758D02*
X14021491Y-23587711D01*
X14021491Y-23587711D02*
X14040539Y-23559139D01*
X14040539Y-23559139D02*
X14050063Y-23549615D01*
X14211968Y-23644854D02*
X14211968Y-23778187D01*
X14164348Y-23568663D02*
X14116729Y-23711520D01*
X14116729Y-23711520D02*
X14240539Y-23711520D01*
X14469110Y-23778187D02*
X14469110Y-23578187D01*
X14554825Y-23778187D02*
X14554825Y-23673425D01*
X14554825Y-23673425D02*
X14545301Y-23654377D01*
X14545301Y-23654377D02*
X14526253Y-23644854D01*
X14526253Y-23644854D02*
X14497682Y-23644854D01*
X14497682Y-23644854D02*
X14478634Y-23654377D01*
X14478634Y-23654377D02*
X14469110Y-23663901D01*
X14678634Y-23778187D02*
X14659587Y-23768663D01*
X14659587Y-23768663D02*
X14650063Y-23759139D01*
X14650063Y-23759139D02*
X14640539Y-23740092D01*
X14640539Y-23740092D02*
X14640539Y-23682949D01*
X14640539Y-23682949D02*
X14650063Y-23663901D01*
X14650063Y-23663901D02*
X14659587Y-23654377D01*
X14659587Y-23654377D02*
X14678634Y-23644854D01*
X14678634Y-23644854D02*
X14707206Y-23644854D01*
X14707206Y-23644854D02*
X14726253Y-23654377D01*
X14726253Y-23654377D02*
X14735777Y-23663901D01*
X14735777Y-23663901D02*
X14745301Y-23682949D01*
X14745301Y-23682949D02*
X14745301Y-23740092D01*
X14745301Y-23740092D02*
X14735777Y-23759139D01*
X14735777Y-23759139D02*
X14726253Y-23768663D01*
X14726253Y-23768663D02*
X14707206Y-23778187D01*
X14707206Y-23778187D02*
X14678634Y-23778187D01*
X14859587Y-23778187D02*
X14840539Y-23768663D01*
X14840539Y-23768663D02*
X14831015Y-23749615D01*
X14831015Y-23749615D02*
X14831015Y-23578187D01*
X15011968Y-23768663D02*
X14992920Y-23778187D01*
X14992920Y-23778187D02*
X14954825Y-23778187D01*
X14954825Y-23778187D02*
X14935777Y-23768663D01*
X14935777Y-23768663D02*
X14926253Y-23749615D01*
X14926253Y-23749615D02*
X14926253Y-23673425D01*
X14926253Y-23673425D02*
X14935777Y-23654377D01*
X14935777Y-23654377D02*
X14954825Y-23644854D01*
X14954825Y-23644854D02*
X14992920Y-23644854D01*
X14992920Y-23644854D02*
X15011968Y-23654377D01*
X15011968Y-23654377D02*
X15021491Y-23673425D01*
X15021491Y-23673425D02*
X15021491Y-23692473D01*
X15021491Y-23692473D02*
X14926253Y-23711520D01*
X15097682Y-23768663D02*
X15116730Y-23778187D01*
X15116730Y-23778187D02*
X15154825Y-23778187D01*
X15154825Y-23778187D02*
X15173872Y-23768663D01*
X15173872Y-23768663D02*
X15183396Y-23749615D01*
X15183396Y-23749615D02*
X15183396Y-23740092D01*
X15183396Y-23740092D02*
X15173872Y-23721044D01*
X15173872Y-23721044D02*
X15154825Y-23711520D01*
X15154825Y-23711520D02*
X15126253Y-23711520D01*
X15126253Y-23711520D02*
X15107206Y-23701996D01*
X15107206Y-23701996D02*
X15097682Y-23682949D01*
X15097682Y-23682949D02*
X15097682Y-23673425D01*
X15097682Y-23673425D02*
X15107206Y-23654377D01*
X15107206Y-23654377D02*
X15126253Y-23644854D01*
X15126253Y-23644854D02*
X15154825Y-23644854D01*
X15154825Y-23644854D02*
X15173872Y-23654377D01*
X15250063Y-23854377D02*
X15259587Y-23844854D01*
X15259587Y-23844854D02*
X15278634Y-23816282D01*
X15278634Y-23816282D02*
X15288158Y-23797235D01*
X15288158Y-23797235D02*
X15297682Y-23768663D01*
X15297682Y-23768663D02*
X15307206Y-23721044D01*
X15307206Y-23721044D02*
X15307206Y-23682949D01*
X15307206Y-23682949D02*
X15297682Y-23635330D01*
X15297682Y-23635330D02*
X15288158Y-23606758D01*
X15288158Y-23606758D02*
X15278634Y-23587711D01*
X15278634Y-23587711D02*
X15259587Y-23559139D01*
X15259587Y-23559139D02*
X15250063Y-23549615D01*
X15611968Y-23854377D02*
X15602444Y-23844854D01*
X15602444Y-23844854D02*
X15583396Y-23816282D01*
X15583396Y-23816282D02*
X15573872Y-23797235D01*
X15573872Y-23797235D02*
X15564349Y-23768663D01*
X15564349Y-23768663D02*
X15554825Y-23721044D01*
X15554825Y-23721044D02*
X15554825Y-23682949D01*
X15554825Y-23682949D02*
X15564349Y-23635330D01*
X15564349Y-23635330D02*
X15573872Y-23606758D01*
X15573872Y-23606758D02*
X15583396Y-23587711D01*
X15583396Y-23587711D02*
X15602444Y-23559139D01*
X15602444Y-23559139D02*
X15611968Y-23549615D01*
X15688158Y-23644854D02*
X15688158Y-23778187D01*
X15688158Y-23663901D02*
X15697682Y-23654377D01*
X15697682Y-23654377D02*
X15716730Y-23644854D01*
X15716730Y-23644854D02*
X15745301Y-23644854D01*
X15745301Y-23644854D02*
X15764349Y-23654377D01*
X15764349Y-23654377D02*
X15773872Y-23673425D01*
X15773872Y-23673425D02*
X15773872Y-23778187D01*
X15897682Y-23778187D02*
X15878634Y-23768663D01*
X15878634Y-23768663D02*
X15869111Y-23759139D01*
X15869111Y-23759139D02*
X15859587Y-23740092D01*
X15859587Y-23740092D02*
X15859587Y-23682949D01*
X15859587Y-23682949D02*
X15869111Y-23663901D01*
X15869111Y-23663901D02*
X15878634Y-23654377D01*
X15878634Y-23654377D02*
X15897682Y-23644854D01*
X15897682Y-23644854D02*
X15926253Y-23644854D01*
X15926253Y-23644854D02*
X15945301Y-23654377D01*
X15945301Y-23654377D02*
X15954825Y-23663901D01*
X15954825Y-23663901D02*
X15964349Y-23682949D01*
X15964349Y-23682949D02*
X15964349Y-23740092D01*
X15964349Y-23740092D02*
X15954825Y-23759139D01*
X15954825Y-23759139D02*
X15945301Y-23768663D01*
X15945301Y-23768663D02*
X15926253Y-23778187D01*
X15926253Y-23778187D02*
X15897682Y-23778187D01*
X16021492Y-23644854D02*
X16097682Y-23644854D01*
X16050063Y-23578187D02*
X16050063Y-23749615D01*
X16050063Y-23749615D02*
X16059587Y-23768663D01*
X16059587Y-23768663D02*
X16078634Y-23778187D01*
X16078634Y-23778187D02*
X16097682Y-23778187D01*
X16316730Y-23644854D02*
X16316730Y-23844854D01*
X16316730Y-23654377D02*
X16335777Y-23644854D01*
X16335777Y-23644854D02*
X16373873Y-23644854D01*
X16373873Y-23644854D02*
X16392920Y-23654377D01*
X16392920Y-23654377D02*
X16402444Y-23663901D01*
X16402444Y-23663901D02*
X16411968Y-23682949D01*
X16411968Y-23682949D02*
X16411968Y-23740092D01*
X16411968Y-23740092D02*
X16402444Y-23759139D01*
X16402444Y-23759139D02*
X16392920Y-23768663D01*
X16392920Y-23768663D02*
X16373873Y-23778187D01*
X16373873Y-23778187D02*
X16335777Y-23778187D01*
X16335777Y-23778187D02*
X16316730Y-23768663D01*
X16526253Y-23778187D02*
X16507206Y-23768663D01*
X16507206Y-23768663D02*
X16497682Y-23749615D01*
X16497682Y-23749615D02*
X16497682Y-23578187D01*
X16688158Y-23778187D02*
X16688158Y-23673425D01*
X16688158Y-23673425D02*
X16678634Y-23654377D01*
X16678634Y-23654377D02*
X16659587Y-23644854D01*
X16659587Y-23644854D02*
X16621492Y-23644854D01*
X16621492Y-23644854D02*
X16602444Y-23654377D01*
X16688158Y-23768663D02*
X16669111Y-23778187D01*
X16669111Y-23778187D02*
X16621492Y-23778187D01*
X16621492Y-23778187D02*
X16602444Y-23768663D01*
X16602444Y-23768663D02*
X16592920Y-23749615D01*
X16592920Y-23749615D02*
X16592920Y-23730568D01*
X16592920Y-23730568D02*
X16602444Y-23711520D01*
X16602444Y-23711520D02*
X16621492Y-23701996D01*
X16621492Y-23701996D02*
X16669111Y-23701996D01*
X16669111Y-23701996D02*
X16688158Y-23692473D01*
X16754825Y-23644854D02*
X16831015Y-23644854D01*
X16783396Y-23578187D02*
X16783396Y-23749615D01*
X16783396Y-23749615D02*
X16792920Y-23768663D01*
X16792920Y-23768663D02*
X16811968Y-23778187D01*
X16811968Y-23778187D02*
X16831015Y-23778187D01*
X16973873Y-23768663D02*
X16954825Y-23778187D01*
X16954825Y-23778187D02*
X16916730Y-23778187D01*
X16916730Y-23778187D02*
X16897682Y-23768663D01*
X16897682Y-23768663D02*
X16888158Y-23749615D01*
X16888158Y-23749615D02*
X16888158Y-23673425D01*
X16888158Y-23673425D02*
X16897682Y-23654377D01*
X16897682Y-23654377D02*
X16916730Y-23644854D01*
X16916730Y-23644854D02*
X16954825Y-23644854D01*
X16954825Y-23644854D02*
X16973873Y-23654377D01*
X16973873Y-23654377D02*
X16983396Y-23673425D01*
X16983396Y-23673425D02*
X16983396Y-23692473D01*
X16983396Y-23692473D02*
X16888158Y-23711520D01*
X17154825Y-23778187D02*
X17154825Y-23578187D01*
X17154825Y-23768663D02*
X17135777Y-23778187D01*
X17135777Y-23778187D02*
X17097682Y-23778187D01*
X17097682Y-23778187D02*
X17078635Y-23768663D01*
X17078635Y-23768663D02*
X17069111Y-23759139D01*
X17069111Y-23759139D02*
X17059587Y-23740092D01*
X17059587Y-23740092D02*
X17059587Y-23682949D01*
X17059587Y-23682949D02*
X17069111Y-23663901D01*
X17069111Y-23663901D02*
X17078635Y-23654377D01*
X17078635Y-23654377D02*
X17097682Y-23644854D01*
X17097682Y-23644854D02*
X17135777Y-23644854D01*
X17135777Y-23644854D02*
X17154825Y-23654377D01*
X17231016Y-23854377D02*
X17240539Y-23844854D01*
X17240539Y-23844854D02*
X17259587Y-23816282D01*
X17259587Y-23816282D02*
X17269111Y-23797235D01*
X17269111Y-23797235D02*
X17278635Y-23768663D01*
X17278635Y-23768663D02*
X17288158Y-23721044D01*
X17288158Y-23721044D02*
X17288158Y-23682949D01*
X17288158Y-23682949D02*
X17278635Y-23635330D01*
X17278635Y-23635330D02*
X17269111Y-23606758D01*
X17269111Y-23606758D02*
X17259587Y-23587711D01*
X17259587Y-23587711D02*
X17240539Y-23559139D01*
X17240539Y-23559139D02*
X17231016Y-23549615D01*
X10275000Y-23906703D02*
X10475000Y-24106703D01*
X10475000Y-23906703D02*
X10275000Y-24106703D01*
X10475000Y-24006703D02*
G75*
G03*
X10475000Y-24006703I-100000J0D01*
G01*
X10821491Y-23964854D02*
X10821491Y-24098187D01*
X10773872Y-23888663D02*
X10726253Y-24031520D01*
X10726253Y-24031520D02*
X10850063Y-24031520D01*
X10926253Y-24079139D02*
X10935777Y-24088663D01*
X10935777Y-24088663D02*
X10926253Y-24098187D01*
X10926253Y-24098187D02*
X10916729Y-24088663D01*
X10916729Y-24088663D02*
X10926253Y-24079139D01*
X10926253Y-24079139D02*
X10926253Y-24098187D01*
X11059586Y-23898187D02*
X11078634Y-23898187D01*
X11078634Y-23898187D02*
X11097682Y-23907711D01*
X11097682Y-23907711D02*
X11107205Y-23917235D01*
X11107205Y-23917235D02*
X11116729Y-23936282D01*
X11116729Y-23936282D02*
X11126253Y-23974377D01*
X11126253Y-23974377D02*
X11126253Y-24021996D01*
X11126253Y-24021996D02*
X11116729Y-24060092D01*
X11116729Y-24060092D02*
X11107205Y-24079139D01*
X11107205Y-24079139D02*
X11097682Y-24088663D01*
X11097682Y-24088663D02*
X11078634Y-24098187D01*
X11078634Y-24098187D02*
X11059586Y-24098187D01*
X11059586Y-24098187D02*
X11040539Y-24088663D01*
X11040539Y-24088663D02*
X11031015Y-24079139D01*
X11031015Y-24079139D02*
X11021491Y-24060092D01*
X11021491Y-24060092D02*
X11011967Y-24021996D01*
X11011967Y-24021996D02*
X11011967Y-23974377D01*
X11011967Y-23974377D02*
X11021491Y-23936282D01*
X11021491Y-23936282D02*
X11031015Y-23917235D01*
X11031015Y-23917235D02*
X11040539Y-23907711D01*
X11040539Y-23907711D02*
X11059586Y-23898187D01*
X11250062Y-23898187D02*
X11269110Y-23898187D01*
X11269110Y-23898187D02*
X11288158Y-23907711D01*
X11288158Y-23907711D02*
X11297682Y-23917235D01*
X11297682Y-23917235D02*
X11307205Y-23936282D01*
X11307205Y-23936282D02*
X11316729Y-23974377D01*
X11316729Y-23974377D02*
X11316729Y-24021996D01*
X11316729Y-24021996D02*
X11307205Y-24060092D01*
X11307205Y-24060092D02*
X11297682Y-24079139D01*
X11297682Y-24079139D02*
X11288158Y-24088663D01*
X11288158Y-24088663D02*
X11269110Y-24098187D01*
X11269110Y-24098187D02*
X11250062Y-24098187D01*
X11250062Y-24098187D02*
X11231015Y-24088663D01*
X11231015Y-24088663D02*
X11221491Y-24079139D01*
X11221491Y-24079139D02*
X11211967Y-24060092D01*
X11211967Y-24060092D02*
X11202443Y-24021996D01*
X11202443Y-24021996D02*
X11202443Y-23974377D01*
X11202443Y-23974377D02*
X11211967Y-23936282D01*
X11211967Y-23936282D02*
X11221491Y-23917235D01*
X11221491Y-23917235D02*
X11231015Y-23907711D01*
X11231015Y-23907711D02*
X11250062Y-23898187D01*
X11440539Y-23898187D02*
X11459586Y-23898187D01*
X11459586Y-23898187D02*
X11478634Y-23907711D01*
X11478634Y-23907711D02*
X11488158Y-23917235D01*
X11488158Y-23917235D02*
X11497682Y-23936282D01*
X11497682Y-23936282D02*
X11507205Y-23974377D01*
X11507205Y-23974377D02*
X11507205Y-24021996D01*
X11507205Y-24021996D02*
X11497682Y-24060092D01*
X11497682Y-24060092D02*
X11488158Y-24079139D01*
X11488158Y-24079139D02*
X11478634Y-24088663D01*
X11478634Y-24088663D02*
X11459586Y-24098187D01*
X11459586Y-24098187D02*
X11440539Y-24098187D01*
X11440539Y-24098187D02*
X11421491Y-24088663D01*
X11421491Y-24088663D02*
X11411967Y-24079139D01*
X11411967Y-24079139D02*
X11402443Y-24060092D01*
X11402443Y-24060092D02*
X11392920Y-24021996D01*
X11392920Y-24021996D02*
X11392920Y-23974377D01*
X11392920Y-23974377D02*
X11402443Y-23936282D01*
X11402443Y-23936282D02*
X11411967Y-23917235D01*
X11411967Y-23917235D02*
X11421491Y-23907711D01*
X11421491Y-23907711D02*
X11440539Y-23898187D01*
X11592920Y-24098187D02*
X11592920Y-23964854D01*
X11592920Y-23983901D02*
X11602443Y-23974377D01*
X11602443Y-23974377D02*
X11621491Y-23964854D01*
X11621491Y-23964854D02*
X11650063Y-23964854D01*
X11650063Y-23964854D02*
X11669110Y-23974377D01*
X11669110Y-23974377D02*
X11678634Y-23993425D01*
X11678634Y-23993425D02*
X11678634Y-24098187D01*
X11678634Y-23993425D02*
X11688158Y-23974377D01*
X11688158Y-23974377D02*
X11707205Y-23964854D01*
X11707205Y-23964854D02*
X11735777Y-23964854D01*
X11735777Y-23964854D02*
X11754824Y-23974377D01*
X11754824Y-23974377D02*
X11764348Y-23993425D01*
X11764348Y-23993425D02*
X11764348Y-24098187D01*
X11859586Y-24098187D02*
X11859586Y-23964854D01*
X11859586Y-23983901D02*
X11869110Y-23974377D01*
X11869110Y-23974377D02*
X11888158Y-23964854D01*
X11888158Y-23964854D02*
X11916729Y-23964854D01*
X11916729Y-23964854D02*
X11935777Y-23974377D01*
X11935777Y-23974377D02*
X11945301Y-23993425D01*
X11945301Y-23993425D02*
X11945301Y-24098187D01*
X11945301Y-23993425D02*
X11954824Y-23974377D01*
X11954824Y-23974377D02*
X11973872Y-23964854D01*
X11973872Y-23964854D02*
X12002443Y-23964854D01*
X12002443Y-23964854D02*
X12021491Y-23974377D01*
X12021491Y-23974377D02*
X12031015Y-23993425D01*
X12031015Y-23993425D02*
X12031015Y-24098187D01*
X12421491Y-23888663D02*
X12250063Y-24145806D01*
X12678634Y-23898187D02*
X12697682Y-23898187D01*
X12697682Y-23898187D02*
X12716729Y-23907711D01*
X12716729Y-23907711D02*
X12726253Y-23917235D01*
X12726253Y-23917235D02*
X12735777Y-23936282D01*
X12735777Y-23936282D02*
X12745301Y-23974377D01*
X12745301Y-23974377D02*
X12745301Y-24021996D01*
X12745301Y-24021996D02*
X12735777Y-24060092D01*
X12735777Y-24060092D02*
X12726253Y-24079139D01*
X12726253Y-24079139D02*
X12716729Y-24088663D01*
X12716729Y-24088663D02*
X12697682Y-24098187D01*
X12697682Y-24098187D02*
X12678634Y-24098187D01*
X12678634Y-24098187D02*
X12659586Y-24088663D01*
X12659586Y-24088663D02*
X12650063Y-24079139D01*
X12650063Y-24079139D02*
X12640539Y-24060092D01*
X12640539Y-24060092D02*
X12631015Y-24021996D01*
X12631015Y-24021996D02*
X12631015Y-23974377D01*
X12631015Y-23974377D02*
X12640539Y-23936282D01*
X12640539Y-23936282D02*
X12650063Y-23917235D01*
X12650063Y-23917235D02*
X12659586Y-23907711D01*
X12659586Y-23907711D02*
X12678634Y-23898187D01*
X12831015Y-24079139D02*
X12840539Y-24088663D01*
X12840539Y-24088663D02*
X12831015Y-24098187D01*
X12831015Y-24098187D02*
X12821491Y-24088663D01*
X12821491Y-24088663D02*
X12831015Y-24079139D01*
X12831015Y-24079139D02*
X12831015Y-24098187D01*
X13031015Y-24098187D02*
X12916729Y-24098187D01*
X12973872Y-24098187D02*
X12973872Y-23898187D01*
X12973872Y-23898187D02*
X12954825Y-23926758D01*
X12954825Y-23926758D02*
X12935777Y-23945806D01*
X12935777Y-23945806D02*
X12916729Y-23955330D01*
X13211967Y-23898187D02*
X13116729Y-23898187D01*
X13116729Y-23898187D02*
X13107206Y-23993425D01*
X13107206Y-23993425D02*
X13116729Y-23983901D01*
X13116729Y-23983901D02*
X13135777Y-23974377D01*
X13135777Y-23974377D02*
X13183396Y-23974377D01*
X13183396Y-23974377D02*
X13202444Y-23983901D01*
X13202444Y-23983901D02*
X13211967Y-23993425D01*
X13211967Y-23993425D02*
X13221491Y-24012473D01*
X13221491Y-24012473D02*
X13221491Y-24060092D01*
X13221491Y-24060092D02*
X13211967Y-24079139D01*
X13211967Y-24079139D02*
X13202444Y-24088663D01*
X13202444Y-24088663D02*
X13183396Y-24098187D01*
X13183396Y-24098187D02*
X13135777Y-24098187D01*
X13135777Y-24098187D02*
X13116729Y-24088663D01*
X13116729Y-24088663D02*
X13107206Y-24079139D01*
X13288158Y-23898187D02*
X13421491Y-23898187D01*
X13421491Y-23898187D02*
X13335777Y-24098187D01*
X13592920Y-23898187D02*
X13497682Y-23898187D01*
X13497682Y-23898187D02*
X13488158Y-23993425D01*
X13488158Y-23993425D02*
X13497682Y-23983901D01*
X13497682Y-23983901D02*
X13516729Y-23974377D01*
X13516729Y-23974377D02*
X13564348Y-23974377D01*
X13564348Y-23974377D02*
X13583396Y-23983901D01*
X13583396Y-23983901D02*
X13592920Y-23993425D01*
X13592920Y-23993425D02*
X13602444Y-24012473D01*
X13602444Y-24012473D02*
X13602444Y-24060092D01*
X13602444Y-24060092D02*
X13592920Y-24079139D01*
X13592920Y-24079139D02*
X13583396Y-24088663D01*
X13583396Y-24088663D02*
X13564348Y-24098187D01*
X13564348Y-24098187D02*
X13516729Y-24098187D01*
X13516729Y-24098187D02*
X13497682Y-24088663D01*
X13497682Y-24088663D02*
X13488158Y-24079139D01*
X13678634Y-23898187D02*
X13678634Y-23936282D01*
X13754825Y-23898187D02*
X13754825Y-23936282D01*
X14050063Y-24174377D02*
X14040539Y-24164854D01*
X14040539Y-24164854D02*
X14021491Y-24136282D01*
X14021491Y-24136282D02*
X14011968Y-24117235D01*
X14011968Y-24117235D02*
X14002444Y-24088663D01*
X14002444Y-24088663D02*
X13992920Y-24041044D01*
X13992920Y-24041044D02*
X13992920Y-24002949D01*
X13992920Y-24002949D02*
X14002444Y-23955330D01*
X14002444Y-23955330D02*
X14011968Y-23926758D01*
X14011968Y-23926758D02*
X14021491Y-23907711D01*
X14021491Y-23907711D02*
X14040539Y-23879139D01*
X14040539Y-23879139D02*
X14050063Y-23869615D01*
X14211968Y-23964854D02*
X14211968Y-24098187D01*
X14164348Y-23888663D02*
X14116729Y-24031520D01*
X14116729Y-24031520D02*
X14240539Y-24031520D01*
X14411968Y-23898187D02*
X14316729Y-23898187D01*
X14316729Y-23898187D02*
X14307206Y-23993425D01*
X14307206Y-23993425D02*
X14316729Y-23983901D01*
X14316729Y-23983901D02*
X14335777Y-23974377D01*
X14335777Y-23974377D02*
X14383396Y-23974377D01*
X14383396Y-23974377D02*
X14402444Y-23983901D01*
X14402444Y-23983901D02*
X14411968Y-23993425D01*
X14411968Y-23993425D02*
X14421491Y-24012473D01*
X14421491Y-24012473D02*
X14421491Y-24060092D01*
X14421491Y-24060092D02*
X14411968Y-24079139D01*
X14411968Y-24079139D02*
X14402444Y-24088663D01*
X14402444Y-24088663D02*
X14383396Y-24098187D01*
X14383396Y-24098187D02*
X14335777Y-24098187D01*
X14335777Y-24098187D02*
X14316729Y-24088663D01*
X14316729Y-24088663D02*
X14307206Y-24079139D01*
X14659587Y-24098187D02*
X14659587Y-23898187D01*
X14745301Y-24098187D02*
X14745301Y-23993425D01*
X14745301Y-23993425D02*
X14735777Y-23974377D01*
X14735777Y-23974377D02*
X14716730Y-23964854D01*
X14716730Y-23964854D02*
X14688158Y-23964854D01*
X14688158Y-23964854D02*
X14669110Y-23974377D01*
X14669110Y-23974377D02*
X14659587Y-23983901D01*
X14869110Y-24098187D02*
X14850063Y-24088663D01*
X14850063Y-24088663D02*
X14840539Y-24079139D01*
X14840539Y-24079139D02*
X14831015Y-24060092D01*
X14831015Y-24060092D02*
X14831015Y-24002949D01*
X14831015Y-24002949D02*
X14840539Y-23983901D01*
X14840539Y-23983901D02*
X14850063Y-23974377D01*
X14850063Y-23974377D02*
X14869110Y-23964854D01*
X14869110Y-23964854D02*
X14897682Y-23964854D01*
X14897682Y-23964854D02*
X14916730Y-23974377D01*
X14916730Y-23974377D02*
X14926253Y-23983901D01*
X14926253Y-23983901D02*
X14935777Y-24002949D01*
X14935777Y-24002949D02*
X14935777Y-24060092D01*
X14935777Y-24060092D02*
X14926253Y-24079139D01*
X14926253Y-24079139D02*
X14916730Y-24088663D01*
X14916730Y-24088663D02*
X14897682Y-24098187D01*
X14897682Y-24098187D02*
X14869110Y-24098187D01*
X15050063Y-24098187D02*
X15031015Y-24088663D01*
X15031015Y-24088663D02*
X15021491Y-24069615D01*
X15021491Y-24069615D02*
X15021491Y-23898187D01*
X15202444Y-24088663D02*
X15183396Y-24098187D01*
X15183396Y-24098187D02*
X15145301Y-24098187D01*
X15145301Y-24098187D02*
X15126253Y-24088663D01*
X15126253Y-24088663D02*
X15116730Y-24069615D01*
X15116730Y-24069615D02*
X15116730Y-23993425D01*
X15116730Y-23993425D02*
X15126253Y-23974377D01*
X15126253Y-23974377D02*
X15145301Y-23964854D01*
X15145301Y-23964854D02*
X15183396Y-23964854D01*
X15183396Y-23964854D02*
X15202444Y-23974377D01*
X15202444Y-23974377D02*
X15211968Y-23993425D01*
X15211968Y-23993425D02*
X15211968Y-24012473D01*
X15211968Y-24012473D02*
X15116730Y-24031520D01*
X15288158Y-24088663D02*
X15307206Y-24098187D01*
X15307206Y-24098187D02*
X15345301Y-24098187D01*
X15345301Y-24098187D02*
X15364349Y-24088663D01*
X15364349Y-24088663D02*
X15373872Y-24069615D01*
X15373872Y-24069615D02*
X15373872Y-24060092D01*
X15373872Y-24060092D02*
X15364349Y-24041044D01*
X15364349Y-24041044D02*
X15345301Y-24031520D01*
X15345301Y-24031520D02*
X15316730Y-24031520D01*
X15316730Y-24031520D02*
X15297682Y-24021996D01*
X15297682Y-24021996D02*
X15288158Y-24002949D01*
X15288158Y-24002949D02*
X15288158Y-23993425D01*
X15288158Y-23993425D02*
X15297682Y-23974377D01*
X15297682Y-23974377D02*
X15316730Y-23964854D01*
X15316730Y-23964854D02*
X15345301Y-23964854D01*
X15345301Y-23964854D02*
X15364349Y-23974377D01*
X15440539Y-24174377D02*
X15450063Y-24164854D01*
X15450063Y-24164854D02*
X15469111Y-24136282D01*
X15469111Y-24136282D02*
X15478634Y-24117235D01*
X15478634Y-24117235D02*
X15488158Y-24088663D01*
X15488158Y-24088663D02*
X15497682Y-24041044D01*
X15497682Y-24041044D02*
X15497682Y-24002949D01*
X15497682Y-24002949D02*
X15488158Y-23955330D01*
X15488158Y-23955330D02*
X15478634Y-23926758D01*
X15478634Y-23926758D02*
X15469111Y-23907711D01*
X15469111Y-23907711D02*
X15450063Y-23879139D01*
X15450063Y-23879139D02*
X15440539Y-23869615D01*
X15802444Y-24174377D02*
X15792920Y-24164854D01*
X15792920Y-24164854D02*
X15773872Y-24136282D01*
X15773872Y-24136282D02*
X15764349Y-24117235D01*
X15764349Y-24117235D02*
X15754825Y-24088663D01*
X15754825Y-24088663D02*
X15745301Y-24041044D01*
X15745301Y-24041044D02*
X15745301Y-24002949D01*
X15745301Y-24002949D02*
X15754825Y-23955330D01*
X15754825Y-23955330D02*
X15764349Y-23926758D01*
X15764349Y-23926758D02*
X15773872Y-23907711D01*
X15773872Y-23907711D02*
X15792920Y-23879139D01*
X15792920Y-23879139D02*
X15802444Y-23869615D01*
X15878634Y-23964854D02*
X15878634Y-24098187D01*
X15878634Y-23983901D02*
X15888158Y-23974377D01*
X15888158Y-23974377D02*
X15907206Y-23964854D01*
X15907206Y-23964854D02*
X15935777Y-23964854D01*
X15935777Y-23964854D02*
X15954825Y-23974377D01*
X15954825Y-23974377D02*
X15964349Y-23993425D01*
X15964349Y-23993425D02*
X15964349Y-24098187D01*
X16088158Y-24098187D02*
X16069111Y-24088663D01*
X16069111Y-24088663D02*
X16059587Y-24079139D01*
X16059587Y-24079139D02*
X16050063Y-24060092D01*
X16050063Y-24060092D02*
X16050063Y-24002949D01*
X16050063Y-24002949D02*
X16059587Y-23983901D01*
X16059587Y-23983901D02*
X16069111Y-23974377D01*
X16069111Y-23974377D02*
X16088158Y-23964854D01*
X16088158Y-23964854D02*
X16116730Y-23964854D01*
X16116730Y-23964854D02*
X16135777Y-23974377D01*
X16135777Y-23974377D02*
X16145301Y-23983901D01*
X16145301Y-23983901D02*
X16154825Y-24002949D01*
X16154825Y-24002949D02*
X16154825Y-24060092D01*
X16154825Y-24060092D02*
X16145301Y-24079139D01*
X16145301Y-24079139D02*
X16135777Y-24088663D01*
X16135777Y-24088663D02*
X16116730Y-24098187D01*
X16116730Y-24098187D02*
X16088158Y-24098187D01*
X16211968Y-23964854D02*
X16288158Y-23964854D01*
X16240539Y-23898187D02*
X16240539Y-24069615D01*
X16240539Y-24069615D02*
X16250063Y-24088663D01*
X16250063Y-24088663D02*
X16269111Y-24098187D01*
X16269111Y-24098187D02*
X16288158Y-24098187D01*
X16507206Y-23964854D02*
X16507206Y-24164854D01*
X16507206Y-23974377D02*
X16526253Y-23964854D01*
X16526253Y-23964854D02*
X16564349Y-23964854D01*
X16564349Y-23964854D02*
X16583396Y-23974377D01*
X16583396Y-23974377D02*
X16592920Y-23983901D01*
X16592920Y-23983901D02*
X16602444Y-24002949D01*
X16602444Y-24002949D02*
X16602444Y-24060092D01*
X16602444Y-24060092D02*
X16592920Y-24079139D01*
X16592920Y-24079139D02*
X16583396Y-24088663D01*
X16583396Y-24088663D02*
X16564349Y-24098187D01*
X16564349Y-24098187D02*
X16526253Y-24098187D01*
X16526253Y-24098187D02*
X16507206Y-24088663D01*
X16716730Y-24098187D02*
X16697682Y-24088663D01*
X16697682Y-24088663D02*
X16688158Y-24069615D01*
X16688158Y-24069615D02*
X16688158Y-23898187D01*
X16878635Y-24098187D02*
X16878635Y-23993425D01*
X16878635Y-23993425D02*
X16869111Y-23974377D01*
X16869111Y-23974377D02*
X16850063Y-23964854D01*
X16850063Y-23964854D02*
X16811968Y-23964854D01*
X16811968Y-23964854D02*
X16792920Y-23974377D01*
X16878635Y-24088663D02*
X16859587Y-24098187D01*
X16859587Y-24098187D02*
X16811968Y-24098187D01*
X16811968Y-24098187D02*
X16792920Y-24088663D01*
X16792920Y-24088663D02*
X16783396Y-24069615D01*
X16783396Y-24069615D02*
X16783396Y-24050568D01*
X16783396Y-24050568D02*
X16792920Y-24031520D01*
X16792920Y-24031520D02*
X16811968Y-24021996D01*
X16811968Y-24021996D02*
X16859587Y-24021996D01*
X16859587Y-24021996D02*
X16878635Y-24012473D01*
X16945301Y-23964854D02*
X17021492Y-23964854D01*
X16973873Y-23898187D02*
X16973873Y-24069615D01*
X16973873Y-24069615D02*
X16983396Y-24088663D01*
X16983396Y-24088663D02*
X17002444Y-24098187D01*
X17002444Y-24098187D02*
X17021492Y-24098187D01*
X17164349Y-24088663D02*
X17145301Y-24098187D01*
X17145301Y-24098187D02*
X17107206Y-24098187D01*
X17107206Y-24098187D02*
X17088158Y-24088663D01*
X17088158Y-24088663D02*
X17078635Y-24069615D01*
X17078635Y-24069615D02*
X17078635Y-23993425D01*
X17078635Y-23993425D02*
X17088158Y-23974377D01*
X17088158Y-23974377D02*
X17107206Y-23964854D01*
X17107206Y-23964854D02*
X17145301Y-23964854D01*
X17145301Y-23964854D02*
X17164349Y-23974377D01*
X17164349Y-23974377D02*
X17173873Y-23993425D01*
X17173873Y-23993425D02*
X17173873Y-24012473D01*
X17173873Y-24012473D02*
X17078635Y-24031520D01*
X17345301Y-24098187D02*
X17345301Y-23898187D01*
X17345301Y-24088663D02*
X17326254Y-24098187D01*
X17326254Y-24098187D02*
X17288158Y-24098187D01*
X17288158Y-24098187D02*
X17269111Y-24088663D01*
X17269111Y-24088663D02*
X17259587Y-24079139D01*
X17259587Y-24079139D02*
X17250063Y-24060092D01*
X17250063Y-24060092D02*
X17250063Y-24002949D01*
X17250063Y-24002949D02*
X17259587Y-23983901D01*
X17259587Y-23983901D02*
X17269111Y-23974377D01*
X17269111Y-23974377D02*
X17288158Y-23964854D01*
X17288158Y-23964854D02*
X17326254Y-23964854D01*
X17326254Y-23964854D02*
X17345301Y-23974377D01*
X17421492Y-24174377D02*
X17431016Y-24164854D01*
X17431016Y-24164854D02*
X17450063Y-24136282D01*
X17450063Y-24136282D02*
X17459587Y-24117235D01*
X17459587Y-24117235D02*
X17469111Y-24088663D01*
X17469111Y-24088663D02*
X17478635Y-24041044D01*
X17478635Y-24041044D02*
X17478635Y-24002949D01*
X17478635Y-24002949D02*
X17469111Y-23955330D01*
X17469111Y-23955330D02*
X17459587Y-23926758D01*
X17459587Y-23926758D02*
X17450063Y-23907711D01*
X17450063Y-23907711D02*
X17431016Y-23879139D01*
X17431016Y-23879139D02*
X17421492Y-23869615D01*
M02*
