G04 #@! TF.GenerationSoftware,KiCad,Pcbnew,7.0.5*
G04 #@! TF.CreationDate,2025-01-08T21:54:48-05:00*
G04 #@! TF.ProjectId,JasonSplitErgoKeyboard_Right,4a61736f-6e53-4706-9c69-744572676f4b,rev?*
G04 #@! TF.SameCoordinates,Original*
G04 #@! TF.FileFunction,Soldermask,Top*
G04 #@! TF.FilePolarity,Negative*
%FSLAX46Y46*%
G04 Gerber Fmt 4.6, Leading zero omitted, Abs format (unit mm)*
G04 Created by KiCad (PCBNEW 7.0.5) date 2025-01-08 21:54:48*
%MOMM*%
%LPD*%
G01*
G04 APERTURE LIST*
%ADD10C,2.700000*%
%ADD11C,1.700000*%
%ADD12C,4.000000*%
%ADD13C,2.200000*%
%ADD14C,3.800000*%
%ADD15C,3.050000*%
%ADD16C,1.500000*%
%ADD17C,0.650000*%
%ADD18O,1.000000X1.800000*%
%ADD19O,1.000000X2.100000*%
G04 APERTURE END LIST*
D10*
X276100000Y-89100000D03*
D11*
X197640000Y-72030000D03*
D12*
X202720000Y-72030000D03*
D11*
X207800000Y-72030000D03*
D13*
X205260000Y-66950000D03*
X198910000Y-69490000D03*
D11*
X178600000Y-126680000D03*
D12*
X183680000Y-126680000D03*
D11*
X188760000Y-126680000D03*
D13*
X186220000Y-121600000D03*
X179870000Y-124140000D03*
D14*
X265895000Y-62020000D03*
D11*
X197640000Y-129180000D03*
D12*
X202720000Y-129180000D03*
D11*
X207800000Y-129180000D03*
D13*
X205260000Y-124100000D03*
X198910000Y-126640000D03*
D11*
X216750000Y-134190000D03*
D12*
X221830000Y-134190000D03*
D11*
X226910000Y-134190000D03*
D13*
X224370000Y-129110000D03*
X218020000Y-131650000D03*
D11*
X254830000Y-155720000D03*
D12*
X259910000Y-155720000D03*
D11*
X264990000Y-155720000D03*
D13*
X262450000Y-150640000D03*
X256100000Y-153180000D03*
D10*
X151000000Y-166300000D03*
D11*
X216750000Y-153240000D03*
D12*
X221830000Y-153240000D03*
D11*
X226910000Y-153240000D03*
D13*
X224370000Y-148160000D03*
X218020000Y-150700000D03*
D11*
X197640000Y-148230000D03*
D12*
X202720000Y-148230000D03*
D11*
X207800000Y-148230000D03*
D13*
X205260000Y-143150000D03*
X198910000Y-145690000D03*
D11*
X260110000Y-98580000D03*
D12*
X265190000Y-98580000D03*
D11*
X270270000Y-98580000D03*
D13*
X267730000Y-93500000D03*
X261380000Y-96040000D03*
D15*
X128780346Y-176899878D03*
D12*
X114459430Y-182112265D03*
D11*
X124535075Y-185702723D03*
D12*
X126272537Y-190476361D03*
D11*
X128010000Y-195250000D03*
D15*
X136920425Y-199264562D03*
D12*
X122599510Y-204476949D03*
D13*
X131914907Y-191125718D03*
X127356260Y-186027401D03*
D14*
X275420000Y-62020000D03*
D11*
X111767005Y-165349832D03*
D12*
X116540643Y-163612370D03*
D11*
X121314282Y-161874907D03*
D13*
X117190000Y-157970000D03*
X112091683Y-162528647D03*
D10*
X137200000Y-61000000D03*
D11*
X260110000Y-79530000D03*
D12*
X265190000Y-79530000D03*
D11*
X270270000Y-79530000D03*
D13*
X267730000Y-74450000D03*
X261380000Y-76990000D03*
D10*
X126600000Y-160400000D03*
D14*
X256370000Y-62020000D03*
X246845000Y-62020000D03*
D11*
X140540000Y-112640000D03*
D12*
X145620000Y-112640000D03*
D11*
X150700000Y-112640000D03*
D13*
X148160000Y-107560000D03*
X141810000Y-110100000D03*
D10*
X159500000Y-198000000D03*
D11*
X260110000Y-117630000D03*
D12*
X265190000Y-117630000D03*
D11*
X270270000Y-117630000D03*
D13*
X267730000Y-112550000D03*
X261380000Y-115090000D03*
D11*
X178600000Y-69530000D03*
D12*
X183680000Y-69530000D03*
D11*
X188760000Y-69530000D03*
D13*
X186220000Y-64450000D03*
X179870000Y-66990000D03*
D10*
X93300000Y-182300000D03*
X137100000Y-122300000D03*
D11*
X106852723Y-207694925D03*
D12*
X111626361Y-205957463D03*
D11*
X116400000Y-204220000D03*
D13*
X112275718Y-200315093D03*
X107177401Y-204873740D03*
D11*
X216750000Y-115140000D03*
D12*
X221830000Y-115140000D03*
D11*
X226910000Y-115140000D03*
D13*
X224370000Y-110060000D03*
X218020000Y-112600000D03*
D15*
X146717809Y-170353517D03*
D12*
X132396893Y-175565904D03*
D11*
X142472538Y-179156362D03*
D12*
X144210000Y-183930000D03*
D11*
X145947463Y-188703639D03*
D15*
X154857888Y-192718201D03*
D12*
X140536973Y-197930588D03*
D13*
X149852370Y-184579357D03*
X145293723Y-179481040D03*
D10*
X232200000Y-63900000D03*
D11*
X159580000Y-129190000D03*
D12*
X164660000Y-129190000D03*
D11*
X169740000Y-129190000D03*
D13*
X167200000Y-124110000D03*
X160850000Y-126650000D03*
D11*
X140540000Y-93590000D03*
D12*
X145620000Y-93590000D03*
D11*
X150700000Y-93590000D03*
D13*
X148160000Y-88510000D03*
X141810000Y-91050000D03*
D11*
X140540000Y-74540000D03*
D12*
X145620000Y-74540000D03*
D11*
X150700000Y-74540000D03*
D13*
X148160000Y-69460000D03*
X141810000Y-72000000D03*
D11*
X159580000Y-110140000D03*
D12*
X164660000Y-110140000D03*
D11*
X169740000Y-110140000D03*
D13*
X167200000Y-105060000D03*
X160850000Y-107600000D03*
D11*
X93877005Y-171869832D03*
D12*
X98650643Y-170132370D03*
D11*
X103424282Y-168394907D03*
D13*
X99300000Y-164490000D03*
X94201683Y-169048647D03*
D11*
X178600000Y-145730000D03*
D12*
X183680000Y-145730000D03*
D11*
X188760000Y-145730000D03*
D13*
X186220000Y-140650000D03*
X179870000Y-143190000D03*
D10*
X192400000Y-98200000D03*
D11*
X216750000Y-96090000D03*
D12*
X221830000Y-96090000D03*
D11*
X226910000Y-96090000D03*
D13*
X224370000Y-91010000D03*
X218020000Y-93550000D03*
D11*
X159580000Y-91090000D03*
D12*
X164660000Y-91090000D03*
D11*
X169740000Y-91090000D03*
D13*
X167200000Y-86010000D03*
X160850000Y-88550000D03*
D11*
X235790000Y-136670000D03*
D12*
X240870000Y-136670000D03*
D11*
X245950000Y-136670000D03*
D13*
X243410000Y-131590000D03*
X237060000Y-134130000D03*
D11*
X197640000Y-110130000D03*
D12*
X202720000Y-110130000D03*
D11*
X207800000Y-110130000D03*
D13*
X205260000Y-105050000D03*
X198910000Y-107590000D03*
D11*
X235790000Y-79520000D03*
D12*
X240870000Y-79520000D03*
D11*
X245950000Y-79520000D03*
D13*
X243410000Y-74440000D03*
X237060000Y-76980000D03*
D10*
X230500000Y-124800000D03*
D11*
X197640000Y-91080000D03*
D12*
X202720000Y-91080000D03*
D11*
X207800000Y-91080000D03*
D13*
X205260000Y-86000000D03*
X198910000Y-88540000D03*
D11*
X235790000Y-117620000D03*
D12*
X240870000Y-117620000D03*
D11*
X245950000Y-117620000D03*
D13*
X243410000Y-112540000D03*
X237060000Y-115080000D03*
D11*
X140540000Y-131690000D03*
D12*
X145620000Y-131690000D03*
D11*
X150700000Y-131690000D03*
D13*
X148160000Y-126610000D03*
X141810000Y-129150000D03*
D11*
X235790000Y-155720000D03*
D12*
X240870000Y-155720000D03*
D11*
X245950000Y-155720000D03*
D13*
X243410000Y-150640000D03*
X237060000Y-153180000D03*
D10*
X275400000Y-161800000D03*
D11*
X100347005Y-189769832D03*
D12*
X105120643Y-188032370D03*
D11*
X109894282Y-186294907D03*
D13*
X105770000Y-182390000D03*
X100671683Y-186948647D03*
D11*
X178600000Y-107630000D03*
D12*
X183680000Y-107630000D03*
D11*
X188760000Y-107630000D03*
D13*
X186220000Y-102550000D03*
X179870000Y-105090000D03*
D11*
X178600000Y-88580000D03*
D12*
X183680000Y-88580000D03*
D11*
X188760000Y-88580000D03*
D13*
X186220000Y-83500000D03*
X179870000Y-86040000D03*
D11*
X216740000Y-77040000D03*
D12*
X221820000Y-77040000D03*
D11*
X226900000Y-77040000D03*
D13*
X224360000Y-71960000D03*
X218010000Y-74500000D03*
D11*
X159580000Y-72040000D03*
D12*
X164660000Y-72040000D03*
D11*
X169740000Y-72040000D03*
D13*
X167200000Y-66960000D03*
X160850000Y-69500000D03*
D11*
X235790000Y-98570000D03*
D12*
X240870000Y-98570000D03*
D11*
X245950000Y-98570000D03*
D13*
X243410000Y-93490000D03*
X237060000Y-96030000D03*
D11*
X260110000Y-136680000D03*
D12*
X265190000Y-136680000D03*
D11*
X270270000Y-136680000D03*
D13*
X267730000Y-131600000D03*
X261380000Y-134140000D03*
D11*
X140540000Y-150740000D03*
D12*
X145620000Y-150740000D03*
D11*
X150700000Y-150740000D03*
D13*
X148160000Y-145660000D03*
X141810000Y-148200000D03*
D10*
X192800000Y-136500000D03*
D11*
X159580000Y-148240000D03*
D12*
X164660000Y-148240000D03*
D11*
X169740000Y-148240000D03*
D13*
X167200000Y-143160000D03*
X160850000Y-145700000D03*
D14*
X132420000Y-151410000D03*
X126310000Y-153450000D03*
D16*
X135525000Y-82100000D03*
X142525000Y-82100000D03*
D17*
X142870000Y-62400000D03*
X148650000Y-62400000D03*
D18*
X141440000Y-58720000D03*
D19*
X141440000Y-62920000D03*
D18*
X150080000Y-58720000D03*
D19*
X150080000Y-62920000D03*
M02*
