M48
; DRILL file {KiCad 7.0.5} date Wed Jan  8 21:55:04 2025
; FORMAT={-:-/ absolute / metric / decimal}
; #@! TF.CreationDate,2025-01-08T21:55:04-05:00
; #@! TF.GenerationSoftware,Kicad,Pcbnew,7.0.5
; #@! TF.FileFunction,Plated,1,2,PTH
FMAT,2
METRIC
; #@! TA.AperFunction,Plated,PTH,ViaDrill
T1C0.400
; #@! TA.AperFunction,Plated,PTH,ComponentDrill
T2C0.600
; #@! TA.AperFunction,Plated,PTH,ComponentDrill
T3C1.500
; #@! TA.AperFunction,Plated,PTH,ComponentDrill
T4C2.200
%
G90
G05
T1
X109.57Y-184.22
X124.18Y-170.19
X131.64Y-165.394
X133.14Y-164.53
X134.062Y-161.088
X134.39Y-164.689
X135.131Y-161.839
X136.01Y-162.315
X138.45Y-117.81
X139.71Y-96.92
X141.29Y-66.755
X141.9Y-103.97
X141.92Y-106.57
X144.274Y-68.175
X144.28Y-87.95
X145.58Y-105.965
X145.67Y-68.07
X146.21Y-66.75
X146.7Y-103.02
X148.99Y-80.32
X149.62Y-65.096
X150.55Y-66.805
X151.53Y-100.82
X151.535Y-73.017
X151.66Y-72.025
X152.13Y-78.67
X153.18Y-62.975
X153.37Y-156.944
X153.72Y-114.39
X153.72Y-157.92
X153.96Y-159.93
X154.165Y-158.916
X154.34Y-160.915
X156.51Y-114.36
X156.925Y-160.081
X156.94Y-102.41
X156.98Y-99.61
X157.33Y-157.03
X157.33Y-158.03
X158.06Y-153.62
X158.308Y-158.731
X158.53Y-164.014
X159.55Y-164.014
X161.27Y-64.19
X161.32Y-61.965
X161.7Y-159.15
X162.76Y-163.83
X163.91Y-156.09
X168.623Y-150.395
X170.965Y-153.05
X171.918Y-163.623
X173.14Y-165.867
X173.85Y-152.14
X174.291Y-162.855
X174.485Y-149.68
X175.099Y-160.451
X175.61Y-163.22
X177.061Y-165.464
X179.009Y-162.504
X179.32Y-151.3
X179.87Y-161.764
X180.91Y-159.32
X180.93Y-157.54
X184.207Y-157.924
X186.275Y-164.385
X190.05Y-157.447
X191.68Y-153.535
X192.74Y-153.535
X193.74Y-153.535
X193.799Y-164.001
X193.82Y-165.0
X193.851Y-163.003
X195.36Y-153.17
X203.26Y-159.19
X207.05Y-165.14
X216.17Y-160.13
X216.27Y-166.075
X235.62Y-161.67
X236.68Y-165.12
T3
X94.202Y-169.049
X99.3Y-164.49
X100.672Y-186.949
X105.77Y-182.39
X107.177Y-204.874
X112.092Y-162.529
X112.276Y-200.315
X117.19Y-157.97
X127.356Y-186.027
X131.915Y-191.126
X141.81Y-72.0
X141.81Y-91.05
X141.81Y-110.1
X141.81Y-129.15
X141.81Y-148.2
X145.294Y-179.481
X148.16Y-69.46
X148.16Y-88.51
X148.16Y-107.56
X148.16Y-126.61
X148.16Y-145.66
X149.852Y-184.579
X160.85Y-69.5
X160.85Y-88.55
X160.85Y-107.6
X160.85Y-126.65
X160.85Y-145.7
X167.2Y-66.96
X167.2Y-86.01
X167.2Y-105.06
X167.2Y-124.11
X167.2Y-143.16
X179.87Y-66.99
X179.87Y-86.04
X179.87Y-105.09
X179.87Y-124.14
X179.87Y-143.19
X186.22Y-64.45
X186.22Y-83.5
X186.22Y-102.55
X186.22Y-121.6
X186.22Y-140.65
X198.91Y-69.49
X198.91Y-88.54
X198.91Y-107.59
X198.91Y-126.64
X198.91Y-145.69
X205.26Y-66.95
X205.26Y-86.0
X205.26Y-105.05
X205.26Y-124.1
X205.26Y-143.15
X218.01Y-74.5
X218.02Y-93.55
X218.02Y-112.6
X218.02Y-131.65
X218.02Y-150.7
X224.36Y-71.96
X224.37Y-91.01
X224.37Y-110.06
X224.37Y-129.11
X224.37Y-148.16
X237.06Y-76.98
X237.06Y-96.03
X237.06Y-115.08
X237.06Y-134.13
X237.06Y-153.18
X243.41Y-74.44
X243.41Y-93.49
X243.41Y-112.54
X243.41Y-131.59
X243.41Y-150.64
X256.1Y-153.18
X261.38Y-76.99
X261.38Y-96.04
X261.38Y-115.09
X261.38Y-134.14
X262.45Y-150.64
X267.73Y-74.45
X267.73Y-93.5
X267.73Y-112.55
X267.73Y-131.6
T4
X126.31Y-153.45
X132.42Y-151.41
X246.845Y-62.02
X256.37Y-62.02
X265.895Y-62.02
X275.42Y-62.02
T2
X141.44Y-58.32G85X141.44Y-59.12
G05
X141.44Y-62.37G85X141.44Y-63.47
G05
X150.08Y-58.32G85X150.08Y-59.12
G05
X150.08Y-62.37G85X150.08Y-63.47
G05
T0
M30
