%TF.GenerationSoftware,KiCad,Pcbnew,7.0.5*%
%TF.CreationDate,2025-01-08T21:55:05-05:00*%
%TF.ProjectId,JasonSplitErgoKeyboard_Right,4a61736f-6e53-4706-9c69-744572676f4b,rev?*%
%TF.SameCoordinates,Original*%
%TF.FileFunction,Drillmap*%
%TF.FilePolarity,Positive*%
%FSLAX45Y45*%
G04 Gerber Fmt 4.5, Leading zero omitted, Abs format (unit mm)*
G04 Created by KiCad (PCBNEW 7.0.5) date 2025-01-08 21:55:05*
%MOMM*%
%LPD*%
G01*
G04 APERTURE LIST*
%ADD10C,0.100000*%
%ADD11C,0.200000*%
%ADD12C,0.040000*%
%ADD13C,0.060000*%
%ADD14C,0.150000*%
%ADD15C,0.220000*%
G04 APERTURE END LIST*
D10*
X13489000Y-5704000D02*
G75*
G03*
X13389000Y-5804000I0J-100000D01*
G01*
X13325422Y-14633290D02*
G75*
G03*
X13389000Y-14575913I-16422J82110D01*
G01*
X13389000Y-14575913D02*
X13389000Y-5804000D01*
X10411389Y-22124412D02*
G75*
G03*
X10557000Y-22203289I105611J21122D01*
G01*
X28029000Y-16753290D02*
G75*
G03*
X28129000Y-16653289I0J100000D01*
G01*
X28129000Y-16653289D02*
X28129000Y-5804000D01*
X28029000Y-16753289D02*
X15519000Y-16753289D01*
X8349000Y-16513289D02*
X10411388Y-22124412D01*
X15419000Y-16853289D02*
X16539000Y-19933289D01*
X13489000Y-5704000D02*
X28029000Y-5704000D01*
X16472526Y-20033289D02*
X10557000Y-22203289D01*
X8429000Y-16393290D02*
G75*
G03*
X8349000Y-16513289I20000J-100000D01*
G01*
X8429000Y-16393289D02*
X13325422Y-14633289D01*
X28129000Y-5804000D02*
G75*
G03*
X28029000Y-5704000I-100000J0D01*
G01*
X15519000Y-16753290D02*
G75*
G03*
X15419000Y-16853289I0J-100000D01*
G01*
X16472528Y-20033293D02*
G75*
G03*
X16539000Y-19933289I-42018J100023D01*
G01*
D11*
D12*
X10937000Y-18402000D02*
X10977000Y-18442000D01*
X10977000Y-18402000D02*
X10937000Y-18442000D01*
X12398000Y-16999000D02*
X12438000Y-17039000D01*
X12438000Y-16999000D02*
X12398000Y-17039000D01*
X13144000Y-16519450D02*
X13184000Y-16559450D01*
X13184000Y-16519450D02*
X13144000Y-16559450D01*
X13294000Y-16433000D02*
X13334000Y-16473000D01*
X13334000Y-16433000D02*
X13294000Y-16473000D01*
X13386194Y-16088806D02*
X13426194Y-16128806D01*
X13426194Y-16088806D02*
X13386194Y-16128806D01*
X13419000Y-16448900D02*
X13459000Y-16488900D01*
X13459000Y-16448900D02*
X13419000Y-16488900D01*
X13493119Y-16163938D02*
X13533119Y-16203938D01*
X13533119Y-16163938D02*
X13493119Y-16203938D01*
X13581000Y-16211550D02*
X13621000Y-16251550D01*
X13621000Y-16211550D02*
X13581000Y-16251550D01*
X13825000Y-11761000D02*
X13865000Y-11801000D01*
X13865000Y-11761000D02*
X13825000Y-11801000D01*
X13951000Y-9672000D02*
X13991000Y-9712000D01*
X13991000Y-9672000D02*
X13951000Y-9712000D01*
X14109000Y-6655550D02*
X14149000Y-6695550D01*
X14149000Y-6655550D02*
X14109000Y-6695550D01*
X14170000Y-10377000D02*
X14210000Y-10417000D01*
X14210000Y-10377000D02*
X14170000Y-10417000D01*
X14172000Y-10637000D02*
X14212000Y-10677000D01*
X14212000Y-10637000D02*
X14172000Y-10677000D01*
X14407450Y-6797550D02*
X14447450Y-6837550D01*
X14447450Y-6797550D02*
X14407450Y-6837550D01*
X14408000Y-8775000D02*
X14448000Y-8815000D01*
X14448000Y-8775000D02*
X14408000Y-8815000D01*
X14538000Y-10576450D02*
X14578000Y-10616450D01*
X14578000Y-10576450D02*
X14538000Y-10616450D01*
X14547000Y-6787000D02*
X14587000Y-6827000D01*
X14587000Y-6787000D02*
X14547000Y-6827000D01*
X14601050Y-6655000D02*
X14641050Y-6695000D01*
X14641050Y-6655000D02*
X14601050Y-6695000D01*
X14650000Y-10282000D02*
X14690000Y-10322000D01*
X14690000Y-10282000D02*
X14650000Y-10322000D01*
X14879000Y-8012000D02*
X14919000Y-8052000D01*
X14919000Y-8012000D02*
X14879000Y-8052000D01*
X14942000Y-6489550D02*
X14982000Y-6529550D01*
X14982000Y-6489550D02*
X14942000Y-6529550D01*
X15035000Y-6660550D02*
X15075000Y-6700550D01*
X15075000Y-6660550D02*
X15035000Y-6700550D01*
X15133000Y-10062000D02*
X15173000Y-10102000D01*
X15173000Y-10062000D02*
X15133000Y-10102000D01*
X15133526Y-7281719D02*
X15173526Y-7321719D01*
X15173526Y-7281719D02*
X15133526Y-7321719D01*
X15146000Y-7182550D02*
X15186000Y-7222550D01*
X15186000Y-7182550D02*
X15146000Y-7222550D01*
X15193000Y-7847000D02*
X15233000Y-7887000D01*
X15233000Y-7847000D02*
X15193000Y-7887000D01*
X15298000Y-6277550D02*
X15338000Y-6317550D01*
X15338000Y-6277550D02*
X15298000Y-6317550D01*
X15317050Y-15674438D02*
X15357050Y-15714438D01*
X15357050Y-15674438D02*
X15317050Y-15714438D01*
X15352000Y-11419000D02*
X15392000Y-11459000D01*
X15392000Y-11419000D02*
X15352000Y-11459000D01*
X15352050Y-15771984D02*
X15392050Y-15811984D01*
X15392050Y-15771984D02*
X15352050Y-15811984D01*
X15376000Y-15972951D02*
X15416000Y-16012951D01*
X15416000Y-15972951D02*
X15376000Y-16012951D01*
X15396550Y-15871596D02*
X15436550Y-15911596D01*
X15436550Y-15871596D02*
X15396550Y-15911596D01*
X15414000Y-16071550D02*
X15454000Y-16111550D01*
X15454000Y-16071550D02*
X15414000Y-16111550D01*
X15631000Y-11416000D02*
X15671000Y-11456000D01*
X15671000Y-11416000D02*
X15631000Y-11456000D01*
X15672469Y-15988081D02*
X15712469Y-16028081D01*
X15712469Y-15988081D02*
X15672469Y-16028081D01*
X15674000Y-10221000D02*
X15714000Y-10261000D01*
X15714000Y-10221000D02*
X15674000Y-10261000D01*
X15678000Y-9941000D02*
X15718000Y-9981000D01*
X15718000Y-9941000D02*
X15678000Y-9981000D01*
X15713000Y-15683050D02*
X15753000Y-15723050D01*
X15753000Y-15683050D02*
X15713000Y-15723050D01*
X15713000Y-15783000D02*
X15753000Y-15823000D01*
X15753000Y-15783000D02*
X15713000Y-15823000D01*
X15786000Y-15342000D02*
X15826000Y-15382000D01*
X15826000Y-15342000D02*
X15786000Y-15382000D01*
X15810810Y-15853131D02*
X15850810Y-15893131D01*
X15850810Y-15853131D02*
X15810810Y-15893131D01*
X15833000Y-16381450D02*
X15873000Y-16421450D01*
X15873000Y-16381450D02*
X15833000Y-16421450D01*
X15935000Y-16381450D02*
X15975000Y-16421450D01*
X15975000Y-16381450D02*
X15935000Y-16421450D01*
X16107000Y-6399000D02*
X16147000Y-6439000D01*
X16147000Y-6399000D02*
X16107000Y-6439000D01*
X16112000Y-6176550D02*
X16152000Y-6216550D01*
X16152000Y-6176550D02*
X16112000Y-6216550D01*
X16150000Y-15895000D02*
X16190000Y-15935000D01*
X16190000Y-15895000D02*
X16150000Y-15935000D01*
X16256000Y-16363000D02*
X16296000Y-16403000D01*
X16296000Y-16363000D02*
X16256000Y-16403000D01*
X16371000Y-15589000D02*
X16411000Y-15629000D01*
X16411000Y-15589000D02*
X16371000Y-15629000D01*
X16842250Y-15019500D02*
X16882250Y-15059500D01*
X16882250Y-15019500D02*
X16842250Y-15059500D01*
X17076550Y-15284965D02*
X17116550Y-15324965D01*
X17116550Y-15284965D02*
X17076550Y-15324965D01*
X17171810Y-16342309D02*
X17211810Y-16382309D01*
X17211810Y-16342309D02*
X17171810Y-16382309D01*
X17293994Y-16566704D02*
X17333994Y-16606704D01*
X17333994Y-16566704D02*
X17293994Y-16606704D01*
X17365000Y-15194000D02*
X17405000Y-15234000D01*
X17405000Y-15194000D02*
X17365000Y-15234000D01*
X17409149Y-16265537D02*
X17449149Y-16305537D01*
X17449149Y-16265537D02*
X17409149Y-16305537D01*
X17428500Y-14948000D02*
X17468500Y-14988000D01*
X17468500Y-14948000D02*
X17428500Y-14988000D01*
X17489913Y-16025087D02*
X17529913Y-16065087D01*
X17529913Y-16025087D02*
X17489913Y-16065087D01*
X17541000Y-16302000D02*
X17581000Y-16342000D01*
X17581000Y-16302000D02*
X17541000Y-16342000D01*
X17686063Y-16526450D02*
X17726063Y-16566450D01*
X17726063Y-16526450D02*
X17686063Y-16566450D01*
X17880887Y-16230450D02*
X17920887Y-16270450D01*
X17920887Y-16230450D02*
X17880887Y-16270450D01*
X17912000Y-15110000D02*
X17952000Y-15150000D01*
X17952000Y-15110000D02*
X17912000Y-15150000D01*
X17967000Y-16156450D02*
X18007000Y-16196450D01*
X18007000Y-16156450D02*
X17967000Y-16196450D01*
X18071000Y-15912000D02*
X18111000Y-15952000D01*
X18111000Y-15912000D02*
X18071000Y-15952000D01*
X18073000Y-15734000D02*
X18113000Y-15774000D01*
X18113000Y-15734000D02*
X18073000Y-15774000D01*
X18400694Y-15772450D02*
X18440694Y-15812450D01*
X18440694Y-15772450D02*
X18400694Y-15812450D01*
X18607500Y-16418500D02*
X18647500Y-16458500D01*
X18647500Y-16418500D02*
X18607500Y-16458500D01*
X18985000Y-15724699D02*
X19025000Y-15764699D01*
X19025000Y-15724699D02*
X18985000Y-15764699D01*
X19148000Y-15333550D02*
X19188000Y-15373550D01*
X19188000Y-15333550D02*
X19148000Y-15373550D01*
X19254000Y-15333550D02*
X19294000Y-15373550D01*
X19294000Y-15333550D02*
X19254000Y-15373550D01*
X19353950Y-15333550D02*
X19393950Y-15373550D01*
X19393950Y-15333550D02*
X19353950Y-15373550D01*
X19359874Y-16380072D02*
X19399874Y-16420072D01*
X19399874Y-16380072D02*
X19359874Y-16420072D01*
X19362000Y-16480000D02*
X19402000Y-16520000D01*
X19402000Y-16480000D02*
X19362000Y-16520000D01*
X19365073Y-16280257D02*
X19405073Y-16320257D01*
X19405073Y-16280257D02*
X19365073Y-16320257D01*
X19516000Y-15297000D02*
X19556000Y-15337000D01*
X19556000Y-15297000D02*
X19516000Y-15337000D01*
X20306000Y-15899000D02*
X20346000Y-15939000D01*
X20346000Y-15899000D02*
X20306000Y-15939000D01*
X20685000Y-16494000D02*
X20725000Y-16534000D01*
X20725000Y-16494000D02*
X20685000Y-16534000D01*
X21597000Y-15993000D02*
X21637000Y-16033000D01*
X21637000Y-15993000D02*
X21597000Y-16033000D01*
X21607000Y-16587450D02*
X21647000Y-16627450D01*
X21647000Y-16587450D02*
X21607000Y-16627450D01*
X23542000Y-16147000D02*
X23582000Y-16187000D01*
X23582000Y-16147000D02*
X23542000Y-16187000D01*
X23648000Y-16492000D02*
X23688000Y-16532000D01*
X23688000Y-16492000D02*
X23648000Y-16532000D01*
D13*
X14174000Y-5872000D02*
G75*
G03*
X14174000Y-5872000I-30000J0D01*
G01*
D11*
X14114000Y-5832000D02*
X14114000Y-5912000D01*
X14114000Y-5912000D02*
G75*
G03*
X14174000Y-5912000I30000J0D01*
G01*
X14174000Y-5912000D02*
X14174000Y-5832000D01*
X14174000Y-5832000D02*
G75*
G03*
X14114000Y-5832000I-30000J0D01*
G01*
D13*
X14174000Y-6292000D02*
G75*
G03*
X14174000Y-6292000I-30000J0D01*
G01*
D11*
X14114000Y-6237000D02*
X14114000Y-6347000D01*
X14114000Y-6347000D02*
G75*
G03*
X14174000Y-6347000I30000J0D01*
G01*
X14174000Y-6347000D02*
X14174000Y-6237000D01*
X14174000Y-6237000D02*
G75*
G03*
X14114000Y-6237000I-30000J0D01*
G01*
D13*
X15038000Y-5872000D02*
G75*
G03*
X15038000Y-5872000I-30000J0D01*
G01*
D11*
X14978000Y-5832000D02*
X14978000Y-5912000D01*
X14978000Y-5912000D02*
G75*
G03*
X15038000Y-5912000I30000J0D01*
G01*
X15038000Y-5912000D02*
X15038000Y-5832000D01*
X15038000Y-5832000D02*
G75*
G03*
X14978000Y-5832000I-30000J0D01*
G01*
D13*
X15038000Y-6292000D02*
G75*
G03*
X15038000Y-6292000I-30000J0D01*
G01*
D11*
X14978000Y-6237000D02*
X14978000Y-6347000D01*
X14978000Y-6347000D02*
G75*
G03*
X15038000Y-6347000I30000J0D01*
G01*
X15038000Y-6347000D02*
X15038000Y-6237000D01*
X15038000Y-6237000D02*
G75*
G03*
X14978000Y-6237000I-30000J0D01*
G01*
D14*
X9420168Y-16829865D02*
X9420168Y-16979865D01*
X9345168Y-16904865D02*
X9495168Y-16904865D01*
X9930000Y-16374000D02*
X9930000Y-16524000D01*
X9855000Y-16449000D02*
X10005000Y-16449000D01*
X10067168Y-18619865D02*
X10067168Y-18769865D01*
X9992168Y-18694865D02*
X10142168Y-18694865D01*
X10577000Y-18164000D02*
X10577000Y-18314000D01*
X10502000Y-18239000D02*
X10652000Y-18239000D01*
X10717740Y-20412374D02*
X10717740Y-20562374D01*
X10642740Y-20487374D02*
X10792740Y-20487374D01*
X11209168Y-16177865D02*
X11209168Y-16327865D01*
X11134168Y-16252865D02*
X11284168Y-16252865D01*
X11227572Y-19956509D02*
X11227572Y-20106509D01*
X11152572Y-20031509D02*
X11302572Y-20031509D01*
X11719000Y-15722000D02*
X11719000Y-15872000D01*
X11644000Y-15797000D02*
X11794000Y-15797000D01*
X12735626Y-18527740D02*
X12735626Y-18677740D01*
X12660626Y-18602740D02*
X12810626Y-18602740D01*
X13191491Y-19037572D02*
X13191491Y-19187572D01*
X13116491Y-19112572D02*
X13266491Y-19112572D01*
X14181000Y-7125000D02*
X14181000Y-7275000D01*
X14106000Y-7200000D02*
X14256000Y-7200000D01*
X14181000Y-9030000D02*
X14181000Y-9180000D01*
X14106000Y-9105000D02*
X14256000Y-9105000D01*
X14181000Y-10935000D02*
X14181000Y-11085000D01*
X14106000Y-11010000D02*
X14256000Y-11010000D01*
X14181000Y-12840000D02*
X14181000Y-12990000D01*
X14106000Y-12915000D02*
X14256000Y-12915000D01*
X14181000Y-14745000D02*
X14181000Y-14895000D01*
X14106000Y-14820000D02*
X14256000Y-14820000D01*
X14529372Y-17873104D02*
X14529372Y-18023104D01*
X14454372Y-17948104D02*
X14604372Y-17948104D01*
X14816000Y-6871000D02*
X14816000Y-7021000D01*
X14741000Y-6946000D02*
X14891000Y-6946000D01*
X14816000Y-8776000D02*
X14816000Y-8926000D01*
X14741000Y-8851000D02*
X14891000Y-8851000D01*
X14816000Y-10681000D02*
X14816000Y-10831000D01*
X14741000Y-10756000D02*
X14891000Y-10756000D01*
X14816000Y-12586000D02*
X14816000Y-12736000D01*
X14741000Y-12661000D02*
X14891000Y-12661000D01*
X14816000Y-14491000D02*
X14816000Y-14641000D01*
X14741000Y-14566000D02*
X14891000Y-14566000D01*
X14985237Y-18382936D02*
X14985237Y-18532936D01*
X14910237Y-18457936D02*
X15060237Y-18457936D01*
X16085000Y-6875000D02*
X16085000Y-7025000D01*
X16010000Y-6950000D02*
X16160000Y-6950000D01*
X16085000Y-8780000D02*
X16085000Y-8930000D01*
X16010000Y-8855000D02*
X16160000Y-8855000D01*
X16085000Y-10685000D02*
X16085000Y-10835000D01*
X16010000Y-10760000D02*
X16160000Y-10760000D01*
X16085000Y-12590000D02*
X16085000Y-12740000D01*
X16010000Y-12665000D02*
X16160000Y-12665000D01*
X16085000Y-14495000D02*
X16085000Y-14645000D01*
X16010000Y-14570000D02*
X16160000Y-14570000D01*
X16720000Y-6621000D02*
X16720000Y-6771000D01*
X16645000Y-6696000D02*
X16795000Y-6696000D01*
X16720000Y-8526000D02*
X16720000Y-8676000D01*
X16645000Y-8601000D02*
X16795000Y-8601000D01*
X16720000Y-10431000D02*
X16720000Y-10581000D01*
X16645000Y-10506000D02*
X16795000Y-10506000D01*
X16720000Y-12336000D02*
X16720000Y-12486000D01*
X16645000Y-12411000D02*
X16795000Y-12411000D01*
X16720000Y-14241000D02*
X16720000Y-14391000D01*
X16645000Y-14316000D02*
X16795000Y-14316000D01*
X17987000Y-6624000D02*
X17987000Y-6774000D01*
X17912000Y-6699000D02*
X18062000Y-6699000D01*
X17987000Y-8529000D02*
X17987000Y-8679000D01*
X17912000Y-8604000D02*
X18062000Y-8604000D01*
X17987000Y-10434000D02*
X17987000Y-10584000D01*
X17912000Y-10509000D02*
X18062000Y-10509000D01*
X17987000Y-12339000D02*
X17987000Y-12489000D01*
X17912000Y-12414000D02*
X18062000Y-12414000D01*
X17987000Y-14244000D02*
X17987000Y-14394000D01*
X17912000Y-14319000D02*
X18062000Y-14319000D01*
X18622000Y-6370000D02*
X18622000Y-6520000D01*
X18547000Y-6445000D02*
X18697000Y-6445000D01*
X18622000Y-8275000D02*
X18622000Y-8425000D01*
X18547000Y-8350000D02*
X18697000Y-8350000D01*
X18622000Y-10180000D02*
X18622000Y-10330000D01*
X18547000Y-10255000D02*
X18697000Y-10255000D01*
X18622000Y-12085000D02*
X18622000Y-12235000D01*
X18547000Y-12160000D02*
X18697000Y-12160000D01*
X18622000Y-13990000D02*
X18622000Y-14140000D01*
X18547000Y-14065000D02*
X18697000Y-14065000D01*
X19891000Y-6874000D02*
X19891000Y-7024000D01*
X19816000Y-6949000D02*
X19966000Y-6949000D01*
X19891000Y-8779000D02*
X19891000Y-8929000D01*
X19816000Y-8854000D02*
X19966000Y-8854000D01*
X19891000Y-10684000D02*
X19891000Y-10834000D01*
X19816000Y-10759000D02*
X19966000Y-10759000D01*
X19891000Y-12589000D02*
X19891000Y-12739000D01*
X19816000Y-12664000D02*
X19966000Y-12664000D01*
X19891000Y-14494000D02*
X19891000Y-14644000D01*
X19816000Y-14569000D02*
X19966000Y-14569000D01*
X20526000Y-6620000D02*
X20526000Y-6770000D01*
X20451000Y-6695000D02*
X20601000Y-6695000D01*
X20526000Y-8525000D02*
X20526000Y-8675000D01*
X20451000Y-8600000D02*
X20601000Y-8600000D01*
X20526000Y-10430000D02*
X20526000Y-10580000D01*
X20451000Y-10505000D02*
X20601000Y-10505000D01*
X20526000Y-12335000D02*
X20526000Y-12485000D01*
X20451000Y-12410000D02*
X20601000Y-12410000D01*
X20526000Y-14240000D02*
X20526000Y-14390000D01*
X20451000Y-14315000D02*
X20601000Y-14315000D01*
X21801000Y-7375000D02*
X21801000Y-7525000D01*
X21726000Y-7450000D02*
X21876000Y-7450000D01*
X21802000Y-9280000D02*
X21802000Y-9430000D01*
X21727000Y-9355000D02*
X21877000Y-9355000D01*
X21802000Y-11185000D02*
X21802000Y-11335000D01*
X21727000Y-11260000D02*
X21877000Y-11260000D01*
X21802000Y-13090000D02*
X21802000Y-13240000D01*
X21727000Y-13165000D02*
X21877000Y-13165000D01*
X21802000Y-14995000D02*
X21802000Y-15145000D01*
X21727000Y-15070000D02*
X21877000Y-15070000D01*
X22436000Y-7121000D02*
X22436000Y-7271000D01*
X22361000Y-7196000D02*
X22511000Y-7196000D01*
X22437000Y-9026000D02*
X22437000Y-9176000D01*
X22362000Y-9101000D02*
X22512000Y-9101000D01*
X22437000Y-10931000D02*
X22437000Y-11081000D01*
X22362000Y-11006000D02*
X22512000Y-11006000D01*
X22437000Y-12836000D02*
X22437000Y-12986000D01*
X22362000Y-12911000D02*
X22512000Y-12911000D01*
X22437000Y-14741000D02*
X22437000Y-14891000D01*
X22362000Y-14816000D02*
X22512000Y-14816000D01*
X23706000Y-7623000D02*
X23706000Y-7773000D01*
X23631000Y-7698000D02*
X23781000Y-7698000D01*
X23706000Y-9528000D02*
X23706000Y-9678000D01*
X23631000Y-9603000D02*
X23781000Y-9603000D01*
X23706000Y-11433000D02*
X23706000Y-11583000D01*
X23631000Y-11508000D02*
X23781000Y-11508000D01*
X23706000Y-13338000D02*
X23706000Y-13488000D01*
X23631000Y-13413000D02*
X23781000Y-13413000D01*
X23706000Y-15243000D02*
X23706000Y-15393000D01*
X23631000Y-15318000D02*
X23781000Y-15318000D01*
X24341000Y-7369000D02*
X24341000Y-7519000D01*
X24266000Y-7444000D02*
X24416000Y-7444000D01*
X24341000Y-9274000D02*
X24341000Y-9424000D01*
X24266000Y-9349000D02*
X24416000Y-9349000D01*
X24341000Y-11179000D02*
X24341000Y-11329000D01*
X24266000Y-11254000D02*
X24416000Y-11254000D01*
X24341000Y-13084000D02*
X24341000Y-13234000D01*
X24266000Y-13159000D02*
X24416000Y-13159000D01*
X24341000Y-14989000D02*
X24341000Y-15139000D01*
X24266000Y-15064000D02*
X24416000Y-15064000D01*
X25610000Y-15243000D02*
X25610000Y-15393000D01*
X25535000Y-15318000D02*
X25685000Y-15318000D01*
X26138000Y-7624000D02*
X26138000Y-7774000D01*
X26063000Y-7699000D02*
X26213000Y-7699000D01*
X26138000Y-9529000D02*
X26138000Y-9679000D01*
X26063000Y-9604000D02*
X26213000Y-9604000D01*
X26138000Y-11434000D02*
X26138000Y-11584000D01*
X26063000Y-11509000D02*
X26213000Y-11509000D01*
X26138000Y-13339000D02*
X26138000Y-13489000D01*
X26063000Y-13414000D02*
X26213000Y-13414000D01*
X26245000Y-14989000D02*
X26245000Y-15139000D01*
X26170000Y-15064000D02*
X26320000Y-15064000D01*
X26773000Y-7370000D02*
X26773000Y-7520000D01*
X26698000Y-7445000D02*
X26848000Y-7445000D01*
X26773000Y-9275000D02*
X26773000Y-9425000D01*
X26698000Y-9350000D02*
X26848000Y-9350000D01*
X26773000Y-11180000D02*
X26773000Y-11330000D01*
X26698000Y-11255000D02*
X26848000Y-11255000D01*
X26773000Y-13085000D02*
X26773000Y-13235000D01*
X26698000Y-13160000D02*
X26848000Y-13160000D01*
D15*
X12708782Y-15422782D02*
X12708782Y-15267217D01*
X12553217Y-15267217D01*
X12553217Y-15422782D01*
X12708782Y-15422782D01*
X13319782Y-15218782D02*
X13319782Y-15063217D01*
X13164217Y-15063217D01*
X13164217Y-15218782D01*
X13319782Y-15218782D01*
X24762282Y-6279782D02*
X24762282Y-6124217D01*
X24606717Y-6124217D01*
X24606717Y-6279782D01*
X24762282Y-6279782D01*
X25714782Y-6279782D02*
X25714782Y-6124217D01*
X25559217Y-6124217D01*
X25559217Y-6279782D01*
X25714782Y-6279782D01*
X26667282Y-6279782D02*
X26667282Y-6124217D01*
X26511717Y-6124217D01*
X26511717Y-6279782D01*
X26667282Y-6279782D01*
X27619782Y-6279782D02*
X27619782Y-6124217D01*
X27464217Y-6124217D01*
X27464217Y-6279782D01*
X27619782Y-6279782D01*
D11*
X8602797Y-22527476D02*
X8602797Y-22327476D01*
X8602797Y-22327476D02*
X8650416Y-22327476D01*
X8650416Y-22327476D02*
X8678987Y-22337000D01*
X8678987Y-22337000D02*
X8698035Y-22356048D01*
X8698035Y-22356048D02*
X8707559Y-22375095D01*
X8707559Y-22375095D02*
X8717082Y-22413191D01*
X8717082Y-22413191D02*
X8717082Y-22441762D01*
X8717082Y-22441762D02*
X8707559Y-22479857D01*
X8707559Y-22479857D02*
X8698035Y-22498905D01*
X8698035Y-22498905D02*
X8678987Y-22517953D01*
X8678987Y-22517953D02*
X8650416Y-22527476D01*
X8650416Y-22527476D02*
X8602797Y-22527476D01*
X8802797Y-22527476D02*
X8802797Y-22394143D01*
X8802797Y-22432238D02*
X8812320Y-22413191D01*
X8812320Y-22413191D02*
X8821844Y-22403667D01*
X8821844Y-22403667D02*
X8840892Y-22394143D01*
X8840892Y-22394143D02*
X8859940Y-22394143D01*
X8926606Y-22527476D02*
X8926606Y-22394143D01*
X8926606Y-22327476D02*
X8917082Y-22337000D01*
X8917082Y-22337000D02*
X8926606Y-22346524D01*
X8926606Y-22346524D02*
X8936130Y-22337000D01*
X8936130Y-22337000D02*
X8926606Y-22327476D01*
X8926606Y-22327476D02*
X8926606Y-22346524D01*
X9050416Y-22527476D02*
X9031368Y-22517953D01*
X9031368Y-22517953D02*
X9021844Y-22498905D01*
X9021844Y-22498905D02*
X9021844Y-22327476D01*
X9155178Y-22527476D02*
X9136130Y-22517953D01*
X9136130Y-22517953D02*
X9126606Y-22498905D01*
X9126606Y-22498905D02*
X9126606Y-22327476D01*
X9383749Y-22527476D02*
X9383749Y-22327476D01*
X9383749Y-22327476D02*
X9450416Y-22470333D01*
X9450416Y-22470333D02*
X9517082Y-22327476D01*
X9517082Y-22327476D02*
X9517082Y-22527476D01*
X9698035Y-22527476D02*
X9698035Y-22422714D01*
X9698035Y-22422714D02*
X9688511Y-22403667D01*
X9688511Y-22403667D02*
X9669463Y-22394143D01*
X9669463Y-22394143D02*
X9631368Y-22394143D01*
X9631368Y-22394143D02*
X9612320Y-22403667D01*
X9698035Y-22517953D02*
X9678987Y-22527476D01*
X9678987Y-22527476D02*
X9631368Y-22527476D01*
X9631368Y-22527476D02*
X9612320Y-22517953D01*
X9612320Y-22517953D02*
X9602797Y-22498905D01*
X9602797Y-22498905D02*
X9602797Y-22479857D01*
X9602797Y-22479857D02*
X9612320Y-22460810D01*
X9612320Y-22460810D02*
X9631368Y-22451286D01*
X9631368Y-22451286D02*
X9678987Y-22451286D01*
X9678987Y-22451286D02*
X9698035Y-22441762D01*
X9793273Y-22394143D02*
X9793273Y-22594143D01*
X9793273Y-22403667D02*
X9812320Y-22394143D01*
X9812320Y-22394143D02*
X9850416Y-22394143D01*
X9850416Y-22394143D02*
X9869463Y-22403667D01*
X9869463Y-22403667D02*
X9878987Y-22413191D01*
X9878987Y-22413191D02*
X9888511Y-22432238D01*
X9888511Y-22432238D02*
X9888511Y-22489381D01*
X9888511Y-22489381D02*
X9878987Y-22508429D01*
X9878987Y-22508429D02*
X9869463Y-22517953D01*
X9869463Y-22517953D02*
X9850416Y-22527476D01*
X9850416Y-22527476D02*
X9812320Y-22527476D01*
X9812320Y-22527476D02*
X9793273Y-22517953D01*
X9974225Y-22508429D02*
X9983749Y-22517953D01*
X9983749Y-22517953D02*
X9974225Y-22527476D01*
X9974225Y-22527476D02*
X9964701Y-22517953D01*
X9964701Y-22517953D02*
X9974225Y-22508429D01*
X9974225Y-22508429D02*
X9974225Y-22527476D01*
X9974225Y-22403667D02*
X9983749Y-22413191D01*
X9983749Y-22413191D02*
X9974225Y-22422714D01*
X9974225Y-22422714D02*
X9964701Y-22413191D01*
X9964701Y-22413191D02*
X9974225Y-22403667D01*
X9974225Y-22403667D02*
X9974225Y-22422714D01*
D12*
X8302020Y-22835993D02*
X8342020Y-22875993D01*
X8342020Y-22835993D02*
X8302020Y-22875993D01*
D11*
X8640892Y-22747476D02*
X8659940Y-22747476D01*
X8659940Y-22747476D02*
X8678987Y-22757000D01*
X8678987Y-22757000D02*
X8688511Y-22766524D01*
X8688511Y-22766524D02*
X8698035Y-22785572D01*
X8698035Y-22785572D02*
X8707559Y-22823667D01*
X8707559Y-22823667D02*
X8707559Y-22871286D01*
X8707559Y-22871286D02*
X8698035Y-22909381D01*
X8698035Y-22909381D02*
X8688511Y-22928429D01*
X8688511Y-22928429D02*
X8678987Y-22937953D01*
X8678987Y-22937953D02*
X8659940Y-22947476D01*
X8659940Y-22947476D02*
X8640892Y-22947476D01*
X8640892Y-22947476D02*
X8621844Y-22937953D01*
X8621844Y-22937953D02*
X8612320Y-22928429D01*
X8612320Y-22928429D02*
X8602797Y-22909381D01*
X8602797Y-22909381D02*
X8593273Y-22871286D01*
X8593273Y-22871286D02*
X8593273Y-22823667D01*
X8593273Y-22823667D02*
X8602797Y-22785572D01*
X8602797Y-22785572D02*
X8612320Y-22766524D01*
X8612320Y-22766524D02*
X8621844Y-22757000D01*
X8621844Y-22757000D02*
X8640892Y-22747476D01*
X8793273Y-22928429D02*
X8802797Y-22937953D01*
X8802797Y-22937953D02*
X8793273Y-22947476D01*
X8793273Y-22947476D02*
X8783749Y-22937953D01*
X8783749Y-22937953D02*
X8793273Y-22928429D01*
X8793273Y-22928429D02*
X8793273Y-22947476D01*
X8974225Y-22814143D02*
X8974225Y-22947476D01*
X8926606Y-22737953D02*
X8878987Y-22880810D01*
X8878987Y-22880810D02*
X9002797Y-22880810D01*
X9117082Y-22747476D02*
X9136130Y-22747476D01*
X9136130Y-22747476D02*
X9155178Y-22757000D01*
X9155178Y-22757000D02*
X9164701Y-22766524D01*
X9164701Y-22766524D02*
X9174225Y-22785572D01*
X9174225Y-22785572D02*
X9183749Y-22823667D01*
X9183749Y-22823667D02*
X9183749Y-22871286D01*
X9183749Y-22871286D02*
X9174225Y-22909381D01*
X9174225Y-22909381D02*
X9164701Y-22928429D01*
X9164701Y-22928429D02*
X9155178Y-22937953D01*
X9155178Y-22937953D02*
X9136130Y-22947476D01*
X9136130Y-22947476D02*
X9117082Y-22947476D01*
X9117082Y-22947476D02*
X9098035Y-22937953D01*
X9098035Y-22937953D02*
X9088511Y-22928429D01*
X9088511Y-22928429D02*
X9078987Y-22909381D01*
X9078987Y-22909381D02*
X9069463Y-22871286D01*
X9069463Y-22871286D02*
X9069463Y-22823667D01*
X9069463Y-22823667D02*
X9078987Y-22785572D01*
X9078987Y-22785572D02*
X9088511Y-22766524D01*
X9088511Y-22766524D02*
X9098035Y-22757000D01*
X9098035Y-22757000D02*
X9117082Y-22747476D01*
X9307559Y-22747476D02*
X9326606Y-22747476D01*
X9326606Y-22747476D02*
X9345654Y-22757000D01*
X9345654Y-22757000D02*
X9355178Y-22766524D01*
X9355178Y-22766524D02*
X9364701Y-22785572D01*
X9364701Y-22785572D02*
X9374225Y-22823667D01*
X9374225Y-22823667D02*
X9374225Y-22871286D01*
X9374225Y-22871286D02*
X9364701Y-22909381D01*
X9364701Y-22909381D02*
X9355178Y-22928429D01*
X9355178Y-22928429D02*
X9345654Y-22937953D01*
X9345654Y-22937953D02*
X9326606Y-22947476D01*
X9326606Y-22947476D02*
X9307559Y-22947476D01*
X9307559Y-22947476D02*
X9288511Y-22937953D01*
X9288511Y-22937953D02*
X9278987Y-22928429D01*
X9278987Y-22928429D02*
X9269463Y-22909381D01*
X9269463Y-22909381D02*
X9259940Y-22871286D01*
X9259940Y-22871286D02*
X9259940Y-22823667D01*
X9259940Y-22823667D02*
X9269463Y-22785572D01*
X9269463Y-22785572D02*
X9278987Y-22766524D01*
X9278987Y-22766524D02*
X9288511Y-22757000D01*
X9288511Y-22757000D02*
X9307559Y-22747476D01*
X9459940Y-22947476D02*
X9459940Y-22814143D01*
X9459940Y-22833191D02*
X9469463Y-22823667D01*
X9469463Y-22823667D02*
X9488511Y-22814143D01*
X9488511Y-22814143D02*
X9517082Y-22814143D01*
X9517082Y-22814143D02*
X9536130Y-22823667D01*
X9536130Y-22823667D02*
X9545654Y-22842714D01*
X9545654Y-22842714D02*
X9545654Y-22947476D01*
X9545654Y-22842714D02*
X9555178Y-22823667D01*
X9555178Y-22823667D02*
X9574225Y-22814143D01*
X9574225Y-22814143D02*
X9602797Y-22814143D01*
X9602797Y-22814143D02*
X9621844Y-22823667D01*
X9621844Y-22823667D02*
X9631368Y-22842714D01*
X9631368Y-22842714D02*
X9631368Y-22947476D01*
X9726606Y-22947476D02*
X9726606Y-22814143D01*
X9726606Y-22833191D02*
X9736130Y-22823667D01*
X9736130Y-22823667D02*
X9755178Y-22814143D01*
X9755178Y-22814143D02*
X9783749Y-22814143D01*
X9783749Y-22814143D02*
X9802797Y-22823667D01*
X9802797Y-22823667D02*
X9812321Y-22842714D01*
X9812321Y-22842714D02*
X9812321Y-22947476D01*
X9812321Y-22842714D02*
X9821844Y-22823667D01*
X9821844Y-22823667D02*
X9840892Y-22814143D01*
X9840892Y-22814143D02*
X9869463Y-22814143D01*
X9869463Y-22814143D02*
X9888511Y-22823667D01*
X9888511Y-22823667D02*
X9898035Y-22842714D01*
X9898035Y-22842714D02*
X9898035Y-22947476D01*
X10288511Y-22737953D02*
X10117083Y-22995095D01*
X10545654Y-22747476D02*
X10564702Y-22747476D01*
X10564702Y-22747476D02*
X10583749Y-22757000D01*
X10583749Y-22757000D02*
X10593273Y-22766524D01*
X10593273Y-22766524D02*
X10602797Y-22785572D01*
X10602797Y-22785572D02*
X10612321Y-22823667D01*
X10612321Y-22823667D02*
X10612321Y-22871286D01*
X10612321Y-22871286D02*
X10602797Y-22909381D01*
X10602797Y-22909381D02*
X10593273Y-22928429D01*
X10593273Y-22928429D02*
X10583749Y-22937953D01*
X10583749Y-22937953D02*
X10564702Y-22947476D01*
X10564702Y-22947476D02*
X10545654Y-22947476D01*
X10545654Y-22947476D02*
X10526606Y-22937953D01*
X10526606Y-22937953D02*
X10517083Y-22928429D01*
X10517083Y-22928429D02*
X10507559Y-22909381D01*
X10507559Y-22909381D02*
X10498035Y-22871286D01*
X10498035Y-22871286D02*
X10498035Y-22823667D01*
X10498035Y-22823667D02*
X10507559Y-22785572D01*
X10507559Y-22785572D02*
X10517083Y-22766524D01*
X10517083Y-22766524D02*
X10526606Y-22757000D01*
X10526606Y-22757000D02*
X10545654Y-22747476D01*
X10698035Y-22928429D02*
X10707559Y-22937953D01*
X10707559Y-22937953D02*
X10698035Y-22947476D01*
X10698035Y-22947476D02*
X10688511Y-22937953D01*
X10688511Y-22937953D02*
X10698035Y-22928429D01*
X10698035Y-22928429D02*
X10698035Y-22947476D01*
X10831368Y-22747476D02*
X10850416Y-22747476D01*
X10850416Y-22747476D02*
X10869464Y-22757000D01*
X10869464Y-22757000D02*
X10878987Y-22766524D01*
X10878987Y-22766524D02*
X10888511Y-22785572D01*
X10888511Y-22785572D02*
X10898035Y-22823667D01*
X10898035Y-22823667D02*
X10898035Y-22871286D01*
X10898035Y-22871286D02*
X10888511Y-22909381D01*
X10888511Y-22909381D02*
X10878987Y-22928429D01*
X10878987Y-22928429D02*
X10869464Y-22937953D01*
X10869464Y-22937953D02*
X10850416Y-22947476D01*
X10850416Y-22947476D02*
X10831368Y-22947476D01*
X10831368Y-22947476D02*
X10812321Y-22937953D01*
X10812321Y-22937953D02*
X10802797Y-22928429D01*
X10802797Y-22928429D02*
X10793273Y-22909381D01*
X10793273Y-22909381D02*
X10783749Y-22871286D01*
X10783749Y-22871286D02*
X10783749Y-22823667D01*
X10783749Y-22823667D02*
X10793273Y-22785572D01*
X10793273Y-22785572D02*
X10802797Y-22766524D01*
X10802797Y-22766524D02*
X10812321Y-22757000D01*
X10812321Y-22757000D02*
X10831368Y-22747476D01*
X11088511Y-22947476D02*
X10974225Y-22947476D01*
X11031368Y-22947476D02*
X11031368Y-22747476D01*
X11031368Y-22747476D02*
X11012321Y-22776048D01*
X11012321Y-22776048D02*
X10993273Y-22795095D01*
X10993273Y-22795095D02*
X10974225Y-22804619D01*
X11269463Y-22747476D02*
X11174225Y-22747476D01*
X11174225Y-22747476D02*
X11164702Y-22842714D01*
X11164702Y-22842714D02*
X11174225Y-22833191D01*
X11174225Y-22833191D02*
X11193273Y-22823667D01*
X11193273Y-22823667D02*
X11240892Y-22823667D01*
X11240892Y-22823667D02*
X11259940Y-22833191D01*
X11259940Y-22833191D02*
X11269463Y-22842714D01*
X11269463Y-22842714D02*
X11278987Y-22861762D01*
X11278987Y-22861762D02*
X11278987Y-22909381D01*
X11278987Y-22909381D02*
X11269463Y-22928429D01*
X11269463Y-22928429D02*
X11259940Y-22937953D01*
X11259940Y-22937953D02*
X11240892Y-22947476D01*
X11240892Y-22947476D02*
X11193273Y-22947476D01*
X11193273Y-22947476D02*
X11174225Y-22937953D01*
X11174225Y-22937953D02*
X11164702Y-22928429D01*
X11345654Y-22747476D02*
X11478987Y-22747476D01*
X11478987Y-22747476D02*
X11393273Y-22947476D01*
X11545654Y-22747476D02*
X11545654Y-22785572D01*
X11621844Y-22747476D02*
X11621844Y-22785572D01*
X11917083Y-23023667D02*
X11907559Y-23014143D01*
X11907559Y-23014143D02*
X11888511Y-22985572D01*
X11888511Y-22985572D02*
X11878987Y-22966524D01*
X11878987Y-22966524D02*
X11869464Y-22937953D01*
X11869464Y-22937953D02*
X11859940Y-22890333D01*
X11859940Y-22890333D02*
X11859940Y-22852238D01*
X11859940Y-22852238D02*
X11869464Y-22804619D01*
X11869464Y-22804619D02*
X11878987Y-22776048D01*
X11878987Y-22776048D02*
X11888511Y-22757000D01*
X11888511Y-22757000D02*
X11907559Y-22728429D01*
X11907559Y-22728429D02*
X11917083Y-22718905D01*
X11974225Y-22747476D02*
X12107559Y-22747476D01*
X12107559Y-22747476D02*
X12021844Y-22947476D01*
X12193273Y-22947476D02*
X12231368Y-22947476D01*
X12231368Y-22947476D02*
X12250416Y-22937953D01*
X12250416Y-22937953D02*
X12259940Y-22928429D01*
X12259940Y-22928429D02*
X12278987Y-22899857D01*
X12278987Y-22899857D02*
X12288511Y-22861762D01*
X12288511Y-22861762D02*
X12288511Y-22785572D01*
X12288511Y-22785572D02*
X12278987Y-22766524D01*
X12278987Y-22766524D02*
X12269464Y-22757000D01*
X12269464Y-22757000D02*
X12250416Y-22747476D01*
X12250416Y-22747476D02*
X12212321Y-22747476D01*
X12212321Y-22747476D02*
X12193273Y-22757000D01*
X12193273Y-22757000D02*
X12183749Y-22766524D01*
X12183749Y-22766524D02*
X12174225Y-22785572D01*
X12174225Y-22785572D02*
X12174225Y-22833191D01*
X12174225Y-22833191D02*
X12183749Y-22852238D01*
X12183749Y-22852238D02*
X12193273Y-22861762D01*
X12193273Y-22861762D02*
X12212321Y-22871286D01*
X12212321Y-22871286D02*
X12250416Y-22871286D01*
X12250416Y-22871286D02*
X12269464Y-22861762D01*
X12269464Y-22861762D02*
X12278987Y-22852238D01*
X12278987Y-22852238D02*
X12288511Y-22833191D01*
X12526606Y-22947476D02*
X12526606Y-22747476D01*
X12612321Y-22947476D02*
X12612321Y-22842714D01*
X12612321Y-22842714D02*
X12602797Y-22823667D01*
X12602797Y-22823667D02*
X12583749Y-22814143D01*
X12583749Y-22814143D02*
X12555178Y-22814143D01*
X12555178Y-22814143D02*
X12536130Y-22823667D01*
X12536130Y-22823667D02*
X12526606Y-22833191D01*
X12736130Y-22947476D02*
X12717083Y-22937953D01*
X12717083Y-22937953D02*
X12707559Y-22928429D01*
X12707559Y-22928429D02*
X12698035Y-22909381D01*
X12698035Y-22909381D02*
X12698035Y-22852238D01*
X12698035Y-22852238D02*
X12707559Y-22833191D01*
X12707559Y-22833191D02*
X12717083Y-22823667D01*
X12717083Y-22823667D02*
X12736130Y-22814143D01*
X12736130Y-22814143D02*
X12764702Y-22814143D01*
X12764702Y-22814143D02*
X12783749Y-22823667D01*
X12783749Y-22823667D02*
X12793273Y-22833191D01*
X12793273Y-22833191D02*
X12802797Y-22852238D01*
X12802797Y-22852238D02*
X12802797Y-22909381D01*
X12802797Y-22909381D02*
X12793273Y-22928429D01*
X12793273Y-22928429D02*
X12783749Y-22937953D01*
X12783749Y-22937953D02*
X12764702Y-22947476D01*
X12764702Y-22947476D02*
X12736130Y-22947476D01*
X12917083Y-22947476D02*
X12898035Y-22937953D01*
X12898035Y-22937953D02*
X12888511Y-22918905D01*
X12888511Y-22918905D02*
X12888511Y-22747476D01*
X13069464Y-22937953D02*
X13050416Y-22947476D01*
X13050416Y-22947476D02*
X13012321Y-22947476D01*
X13012321Y-22947476D02*
X12993273Y-22937953D01*
X12993273Y-22937953D02*
X12983749Y-22918905D01*
X12983749Y-22918905D02*
X12983749Y-22842714D01*
X12983749Y-22842714D02*
X12993273Y-22823667D01*
X12993273Y-22823667D02*
X13012321Y-22814143D01*
X13012321Y-22814143D02*
X13050416Y-22814143D01*
X13050416Y-22814143D02*
X13069464Y-22823667D01*
X13069464Y-22823667D02*
X13078987Y-22842714D01*
X13078987Y-22842714D02*
X13078987Y-22861762D01*
X13078987Y-22861762D02*
X12983749Y-22880810D01*
X13155178Y-22937953D02*
X13174226Y-22947476D01*
X13174226Y-22947476D02*
X13212321Y-22947476D01*
X13212321Y-22947476D02*
X13231368Y-22937953D01*
X13231368Y-22937953D02*
X13240892Y-22918905D01*
X13240892Y-22918905D02*
X13240892Y-22909381D01*
X13240892Y-22909381D02*
X13231368Y-22890333D01*
X13231368Y-22890333D02*
X13212321Y-22880810D01*
X13212321Y-22880810D02*
X13183749Y-22880810D01*
X13183749Y-22880810D02*
X13164702Y-22871286D01*
X13164702Y-22871286D02*
X13155178Y-22852238D01*
X13155178Y-22852238D02*
X13155178Y-22842714D01*
X13155178Y-22842714D02*
X13164702Y-22823667D01*
X13164702Y-22823667D02*
X13183749Y-22814143D01*
X13183749Y-22814143D02*
X13212321Y-22814143D01*
X13212321Y-22814143D02*
X13231368Y-22823667D01*
X13307559Y-23023667D02*
X13317083Y-23014143D01*
X13317083Y-23014143D02*
X13336130Y-22985572D01*
X13336130Y-22985572D02*
X13345654Y-22966524D01*
X13345654Y-22966524D02*
X13355178Y-22937953D01*
X13355178Y-22937953D02*
X13364702Y-22890333D01*
X13364702Y-22890333D02*
X13364702Y-22852238D01*
X13364702Y-22852238D02*
X13355178Y-22804619D01*
X13355178Y-22804619D02*
X13345654Y-22776048D01*
X13345654Y-22776048D02*
X13336130Y-22757000D01*
X13336130Y-22757000D02*
X13317083Y-22728429D01*
X13317083Y-22728429D02*
X13307559Y-22718905D01*
D13*
X8342020Y-23119993D02*
G75*
G03*
X8342020Y-23119993I-30000J0D01*
G01*
D11*
X8640892Y-23011476D02*
X8659940Y-23011476D01*
X8659940Y-23011476D02*
X8678987Y-23021000D01*
X8678987Y-23021000D02*
X8688511Y-23030524D01*
X8688511Y-23030524D02*
X8698035Y-23049572D01*
X8698035Y-23049572D02*
X8707559Y-23087667D01*
X8707559Y-23087667D02*
X8707559Y-23135286D01*
X8707559Y-23135286D02*
X8698035Y-23173381D01*
X8698035Y-23173381D02*
X8688511Y-23192429D01*
X8688511Y-23192429D02*
X8678987Y-23201953D01*
X8678987Y-23201953D02*
X8659940Y-23211476D01*
X8659940Y-23211476D02*
X8640892Y-23211476D01*
X8640892Y-23211476D02*
X8621844Y-23201953D01*
X8621844Y-23201953D02*
X8612320Y-23192429D01*
X8612320Y-23192429D02*
X8602797Y-23173381D01*
X8602797Y-23173381D02*
X8593273Y-23135286D01*
X8593273Y-23135286D02*
X8593273Y-23087667D01*
X8593273Y-23087667D02*
X8602797Y-23049572D01*
X8602797Y-23049572D02*
X8612320Y-23030524D01*
X8612320Y-23030524D02*
X8621844Y-23021000D01*
X8621844Y-23021000D02*
X8640892Y-23011476D01*
X8793273Y-23192429D02*
X8802797Y-23201953D01*
X8802797Y-23201953D02*
X8793273Y-23211476D01*
X8793273Y-23211476D02*
X8783749Y-23201953D01*
X8783749Y-23201953D02*
X8793273Y-23192429D01*
X8793273Y-23192429D02*
X8793273Y-23211476D01*
X8974225Y-23011476D02*
X8936130Y-23011476D01*
X8936130Y-23011476D02*
X8917082Y-23021000D01*
X8917082Y-23021000D02*
X8907559Y-23030524D01*
X8907559Y-23030524D02*
X8888511Y-23059095D01*
X8888511Y-23059095D02*
X8878987Y-23097191D01*
X8878987Y-23097191D02*
X8878987Y-23173381D01*
X8878987Y-23173381D02*
X8888511Y-23192429D01*
X8888511Y-23192429D02*
X8898035Y-23201953D01*
X8898035Y-23201953D02*
X8917082Y-23211476D01*
X8917082Y-23211476D02*
X8955178Y-23211476D01*
X8955178Y-23211476D02*
X8974225Y-23201953D01*
X8974225Y-23201953D02*
X8983749Y-23192429D01*
X8983749Y-23192429D02*
X8993273Y-23173381D01*
X8993273Y-23173381D02*
X8993273Y-23125762D01*
X8993273Y-23125762D02*
X8983749Y-23106714D01*
X8983749Y-23106714D02*
X8974225Y-23097191D01*
X8974225Y-23097191D02*
X8955178Y-23087667D01*
X8955178Y-23087667D02*
X8917082Y-23087667D01*
X8917082Y-23087667D02*
X8898035Y-23097191D01*
X8898035Y-23097191D02*
X8888511Y-23106714D01*
X8888511Y-23106714D02*
X8878987Y-23125762D01*
X9117082Y-23011476D02*
X9136130Y-23011476D01*
X9136130Y-23011476D02*
X9155178Y-23021000D01*
X9155178Y-23021000D02*
X9164701Y-23030524D01*
X9164701Y-23030524D02*
X9174225Y-23049572D01*
X9174225Y-23049572D02*
X9183749Y-23087667D01*
X9183749Y-23087667D02*
X9183749Y-23135286D01*
X9183749Y-23135286D02*
X9174225Y-23173381D01*
X9174225Y-23173381D02*
X9164701Y-23192429D01*
X9164701Y-23192429D02*
X9155178Y-23201953D01*
X9155178Y-23201953D02*
X9136130Y-23211476D01*
X9136130Y-23211476D02*
X9117082Y-23211476D01*
X9117082Y-23211476D02*
X9098035Y-23201953D01*
X9098035Y-23201953D02*
X9088511Y-23192429D01*
X9088511Y-23192429D02*
X9078987Y-23173381D01*
X9078987Y-23173381D02*
X9069463Y-23135286D01*
X9069463Y-23135286D02*
X9069463Y-23087667D01*
X9069463Y-23087667D02*
X9078987Y-23049572D01*
X9078987Y-23049572D02*
X9088511Y-23030524D01*
X9088511Y-23030524D02*
X9098035Y-23021000D01*
X9098035Y-23021000D02*
X9117082Y-23011476D01*
X9307559Y-23011476D02*
X9326606Y-23011476D01*
X9326606Y-23011476D02*
X9345654Y-23021000D01*
X9345654Y-23021000D02*
X9355178Y-23030524D01*
X9355178Y-23030524D02*
X9364701Y-23049572D01*
X9364701Y-23049572D02*
X9374225Y-23087667D01*
X9374225Y-23087667D02*
X9374225Y-23135286D01*
X9374225Y-23135286D02*
X9364701Y-23173381D01*
X9364701Y-23173381D02*
X9355178Y-23192429D01*
X9355178Y-23192429D02*
X9345654Y-23201953D01*
X9345654Y-23201953D02*
X9326606Y-23211476D01*
X9326606Y-23211476D02*
X9307559Y-23211476D01*
X9307559Y-23211476D02*
X9288511Y-23201953D01*
X9288511Y-23201953D02*
X9278987Y-23192429D01*
X9278987Y-23192429D02*
X9269463Y-23173381D01*
X9269463Y-23173381D02*
X9259940Y-23135286D01*
X9259940Y-23135286D02*
X9259940Y-23087667D01*
X9259940Y-23087667D02*
X9269463Y-23049572D01*
X9269463Y-23049572D02*
X9278987Y-23030524D01*
X9278987Y-23030524D02*
X9288511Y-23021000D01*
X9288511Y-23021000D02*
X9307559Y-23011476D01*
X9459940Y-23211476D02*
X9459940Y-23078143D01*
X9459940Y-23097191D02*
X9469463Y-23087667D01*
X9469463Y-23087667D02*
X9488511Y-23078143D01*
X9488511Y-23078143D02*
X9517082Y-23078143D01*
X9517082Y-23078143D02*
X9536130Y-23087667D01*
X9536130Y-23087667D02*
X9545654Y-23106714D01*
X9545654Y-23106714D02*
X9545654Y-23211476D01*
X9545654Y-23106714D02*
X9555178Y-23087667D01*
X9555178Y-23087667D02*
X9574225Y-23078143D01*
X9574225Y-23078143D02*
X9602797Y-23078143D01*
X9602797Y-23078143D02*
X9621844Y-23087667D01*
X9621844Y-23087667D02*
X9631368Y-23106714D01*
X9631368Y-23106714D02*
X9631368Y-23211476D01*
X9726606Y-23211476D02*
X9726606Y-23078143D01*
X9726606Y-23097191D02*
X9736130Y-23087667D01*
X9736130Y-23087667D02*
X9755178Y-23078143D01*
X9755178Y-23078143D02*
X9783749Y-23078143D01*
X9783749Y-23078143D02*
X9802797Y-23087667D01*
X9802797Y-23087667D02*
X9812321Y-23106714D01*
X9812321Y-23106714D02*
X9812321Y-23211476D01*
X9812321Y-23106714D02*
X9821844Y-23087667D01*
X9821844Y-23087667D02*
X9840892Y-23078143D01*
X9840892Y-23078143D02*
X9869463Y-23078143D01*
X9869463Y-23078143D02*
X9888511Y-23087667D01*
X9888511Y-23087667D02*
X9898035Y-23106714D01*
X9898035Y-23106714D02*
X9898035Y-23211476D01*
X10288511Y-23001953D02*
X10117083Y-23259095D01*
X10545654Y-23011476D02*
X10564702Y-23011476D01*
X10564702Y-23011476D02*
X10583749Y-23021000D01*
X10583749Y-23021000D02*
X10593273Y-23030524D01*
X10593273Y-23030524D02*
X10602797Y-23049572D01*
X10602797Y-23049572D02*
X10612321Y-23087667D01*
X10612321Y-23087667D02*
X10612321Y-23135286D01*
X10612321Y-23135286D02*
X10602797Y-23173381D01*
X10602797Y-23173381D02*
X10593273Y-23192429D01*
X10593273Y-23192429D02*
X10583749Y-23201953D01*
X10583749Y-23201953D02*
X10564702Y-23211476D01*
X10564702Y-23211476D02*
X10545654Y-23211476D01*
X10545654Y-23211476D02*
X10526606Y-23201953D01*
X10526606Y-23201953D02*
X10517083Y-23192429D01*
X10517083Y-23192429D02*
X10507559Y-23173381D01*
X10507559Y-23173381D02*
X10498035Y-23135286D01*
X10498035Y-23135286D02*
X10498035Y-23087667D01*
X10498035Y-23087667D02*
X10507559Y-23049572D01*
X10507559Y-23049572D02*
X10517083Y-23030524D01*
X10517083Y-23030524D02*
X10526606Y-23021000D01*
X10526606Y-23021000D02*
X10545654Y-23011476D01*
X10698035Y-23192429D02*
X10707559Y-23201953D01*
X10707559Y-23201953D02*
X10698035Y-23211476D01*
X10698035Y-23211476D02*
X10688511Y-23201953D01*
X10688511Y-23201953D02*
X10698035Y-23192429D01*
X10698035Y-23192429D02*
X10698035Y-23211476D01*
X10831368Y-23011476D02*
X10850416Y-23011476D01*
X10850416Y-23011476D02*
X10869464Y-23021000D01*
X10869464Y-23021000D02*
X10878987Y-23030524D01*
X10878987Y-23030524D02*
X10888511Y-23049572D01*
X10888511Y-23049572D02*
X10898035Y-23087667D01*
X10898035Y-23087667D02*
X10898035Y-23135286D01*
X10898035Y-23135286D02*
X10888511Y-23173381D01*
X10888511Y-23173381D02*
X10878987Y-23192429D01*
X10878987Y-23192429D02*
X10869464Y-23201953D01*
X10869464Y-23201953D02*
X10850416Y-23211476D01*
X10850416Y-23211476D02*
X10831368Y-23211476D01*
X10831368Y-23211476D02*
X10812321Y-23201953D01*
X10812321Y-23201953D02*
X10802797Y-23192429D01*
X10802797Y-23192429D02*
X10793273Y-23173381D01*
X10793273Y-23173381D02*
X10783749Y-23135286D01*
X10783749Y-23135286D02*
X10783749Y-23087667D01*
X10783749Y-23087667D02*
X10793273Y-23049572D01*
X10793273Y-23049572D02*
X10802797Y-23030524D01*
X10802797Y-23030524D02*
X10812321Y-23021000D01*
X10812321Y-23021000D02*
X10831368Y-23011476D01*
X10974225Y-23030524D02*
X10983749Y-23021000D01*
X10983749Y-23021000D02*
X11002797Y-23011476D01*
X11002797Y-23011476D02*
X11050416Y-23011476D01*
X11050416Y-23011476D02*
X11069464Y-23021000D01*
X11069464Y-23021000D02*
X11078987Y-23030524D01*
X11078987Y-23030524D02*
X11088511Y-23049572D01*
X11088511Y-23049572D02*
X11088511Y-23068619D01*
X11088511Y-23068619D02*
X11078987Y-23097191D01*
X11078987Y-23097191D02*
X10964702Y-23211476D01*
X10964702Y-23211476D02*
X11088511Y-23211476D01*
X11155178Y-23011476D02*
X11278987Y-23011476D01*
X11278987Y-23011476D02*
X11212321Y-23087667D01*
X11212321Y-23087667D02*
X11240892Y-23087667D01*
X11240892Y-23087667D02*
X11259940Y-23097191D01*
X11259940Y-23097191D02*
X11269463Y-23106714D01*
X11269463Y-23106714D02*
X11278987Y-23125762D01*
X11278987Y-23125762D02*
X11278987Y-23173381D01*
X11278987Y-23173381D02*
X11269463Y-23192429D01*
X11269463Y-23192429D02*
X11259940Y-23201953D01*
X11259940Y-23201953D02*
X11240892Y-23211476D01*
X11240892Y-23211476D02*
X11183749Y-23211476D01*
X11183749Y-23211476D02*
X11164702Y-23201953D01*
X11164702Y-23201953D02*
X11155178Y-23192429D01*
X11450416Y-23011476D02*
X11412321Y-23011476D01*
X11412321Y-23011476D02*
X11393273Y-23021000D01*
X11393273Y-23021000D02*
X11383749Y-23030524D01*
X11383749Y-23030524D02*
X11364702Y-23059095D01*
X11364702Y-23059095D02*
X11355178Y-23097191D01*
X11355178Y-23097191D02*
X11355178Y-23173381D01*
X11355178Y-23173381D02*
X11364702Y-23192429D01*
X11364702Y-23192429D02*
X11374225Y-23201953D01*
X11374225Y-23201953D02*
X11393273Y-23211476D01*
X11393273Y-23211476D02*
X11431368Y-23211476D01*
X11431368Y-23211476D02*
X11450416Y-23201953D01*
X11450416Y-23201953D02*
X11459940Y-23192429D01*
X11459940Y-23192429D02*
X11469463Y-23173381D01*
X11469463Y-23173381D02*
X11469463Y-23125762D01*
X11469463Y-23125762D02*
X11459940Y-23106714D01*
X11459940Y-23106714D02*
X11450416Y-23097191D01*
X11450416Y-23097191D02*
X11431368Y-23087667D01*
X11431368Y-23087667D02*
X11393273Y-23087667D01*
X11393273Y-23087667D02*
X11374225Y-23097191D01*
X11374225Y-23097191D02*
X11364702Y-23106714D01*
X11364702Y-23106714D02*
X11355178Y-23125762D01*
X11545654Y-23011476D02*
X11545654Y-23049572D01*
X11621844Y-23011476D02*
X11621844Y-23049572D01*
X11917083Y-23287667D02*
X11907559Y-23278143D01*
X11907559Y-23278143D02*
X11888511Y-23249572D01*
X11888511Y-23249572D02*
X11878987Y-23230524D01*
X11878987Y-23230524D02*
X11869464Y-23201953D01*
X11869464Y-23201953D02*
X11859940Y-23154333D01*
X11859940Y-23154333D02*
X11859940Y-23116238D01*
X11859940Y-23116238D02*
X11869464Y-23068619D01*
X11869464Y-23068619D02*
X11878987Y-23040048D01*
X11878987Y-23040048D02*
X11888511Y-23021000D01*
X11888511Y-23021000D02*
X11907559Y-22992429D01*
X11907559Y-22992429D02*
X11917083Y-22982905D01*
X12031368Y-23011476D02*
X12050416Y-23011476D01*
X12050416Y-23011476D02*
X12069464Y-23021000D01*
X12069464Y-23021000D02*
X12078987Y-23030524D01*
X12078987Y-23030524D02*
X12088511Y-23049572D01*
X12088511Y-23049572D02*
X12098035Y-23087667D01*
X12098035Y-23087667D02*
X12098035Y-23135286D01*
X12098035Y-23135286D02*
X12088511Y-23173381D01*
X12088511Y-23173381D02*
X12078987Y-23192429D01*
X12078987Y-23192429D02*
X12069464Y-23201953D01*
X12069464Y-23201953D02*
X12050416Y-23211476D01*
X12050416Y-23211476D02*
X12031368Y-23211476D01*
X12031368Y-23211476D02*
X12012321Y-23201953D01*
X12012321Y-23201953D02*
X12002797Y-23192429D01*
X12002797Y-23192429D02*
X11993273Y-23173381D01*
X11993273Y-23173381D02*
X11983749Y-23135286D01*
X11983749Y-23135286D02*
X11983749Y-23087667D01*
X11983749Y-23087667D02*
X11993273Y-23049572D01*
X11993273Y-23049572D02*
X12002797Y-23030524D01*
X12002797Y-23030524D02*
X12012321Y-23021000D01*
X12012321Y-23021000D02*
X12031368Y-23011476D01*
X12336130Y-23211476D02*
X12336130Y-23011476D01*
X12421845Y-23211476D02*
X12421845Y-23106714D01*
X12421845Y-23106714D02*
X12412321Y-23087667D01*
X12412321Y-23087667D02*
X12393273Y-23078143D01*
X12393273Y-23078143D02*
X12364702Y-23078143D01*
X12364702Y-23078143D02*
X12345654Y-23087667D01*
X12345654Y-23087667D02*
X12336130Y-23097191D01*
X12545654Y-23211476D02*
X12526606Y-23201953D01*
X12526606Y-23201953D02*
X12517083Y-23192429D01*
X12517083Y-23192429D02*
X12507559Y-23173381D01*
X12507559Y-23173381D02*
X12507559Y-23116238D01*
X12507559Y-23116238D02*
X12517083Y-23097191D01*
X12517083Y-23097191D02*
X12526606Y-23087667D01*
X12526606Y-23087667D02*
X12545654Y-23078143D01*
X12545654Y-23078143D02*
X12574226Y-23078143D01*
X12574226Y-23078143D02*
X12593273Y-23087667D01*
X12593273Y-23087667D02*
X12602797Y-23097191D01*
X12602797Y-23097191D02*
X12612321Y-23116238D01*
X12612321Y-23116238D02*
X12612321Y-23173381D01*
X12612321Y-23173381D02*
X12602797Y-23192429D01*
X12602797Y-23192429D02*
X12593273Y-23201953D01*
X12593273Y-23201953D02*
X12574226Y-23211476D01*
X12574226Y-23211476D02*
X12545654Y-23211476D01*
X12726606Y-23211476D02*
X12707559Y-23201953D01*
X12707559Y-23201953D02*
X12698035Y-23182905D01*
X12698035Y-23182905D02*
X12698035Y-23011476D01*
X12878987Y-23201953D02*
X12859940Y-23211476D01*
X12859940Y-23211476D02*
X12821845Y-23211476D01*
X12821845Y-23211476D02*
X12802797Y-23201953D01*
X12802797Y-23201953D02*
X12793273Y-23182905D01*
X12793273Y-23182905D02*
X12793273Y-23106714D01*
X12793273Y-23106714D02*
X12802797Y-23087667D01*
X12802797Y-23087667D02*
X12821845Y-23078143D01*
X12821845Y-23078143D02*
X12859940Y-23078143D01*
X12859940Y-23078143D02*
X12878987Y-23087667D01*
X12878987Y-23087667D02*
X12888511Y-23106714D01*
X12888511Y-23106714D02*
X12888511Y-23125762D01*
X12888511Y-23125762D02*
X12793273Y-23144810D01*
X12964702Y-23201953D02*
X12983749Y-23211476D01*
X12983749Y-23211476D02*
X13021845Y-23211476D01*
X13021845Y-23211476D02*
X13040892Y-23201953D01*
X13040892Y-23201953D02*
X13050416Y-23182905D01*
X13050416Y-23182905D02*
X13050416Y-23173381D01*
X13050416Y-23173381D02*
X13040892Y-23154333D01*
X13040892Y-23154333D02*
X13021845Y-23144810D01*
X13021845Y-23144810D02*
X12993273Y-23144810D01*
X12993273Y-23144810D02*
X12974226Y-23135286D01*
X12974226Y-23135286D02*
X12964702Y-23116238D01*
X12964702Y-23116238D02*
X12964702Y-23106714D01*
X12964702Y-23106714D02*
X12974226Y-23087667D01*
X12974226Y-23087667D02*
X12993273Y-23078143D01*
X12993273Y-23078143D02*
X13021845Y-23078143D01*
X13021845Y-23078143D02*
X13040892Y-23087667D01*
X13288511Y-23135286D02*
X13440892Y-23135286D01*
X13364702Y-23211476D02*
X13364702Y-23059095D01*
X13774226Y-23078143D02*
X13774226Y-23211476D01*
X13726607Y-23001953D02*
X13678988Y-23144810D01*
X13678988Y-23144810D02*
X13802797Y-23144810D01*
X14021845Y-23201953D02*
X14040892Y-23211476D01*
X14040892Y-23211476D02*
X14078988Y-23211476D01*
X14078988Y-23211476D02*
X14098035Y-23201953D01*
X14098035Y-23201953D02*
X14107559Y-23182905D01*
X14107559Y-23182905D02*
X14107559Y-23173381D01*
X14107559Y-23173381D02*
X14098035Y-23154333D01*
X14098035Y-23154333D02*
X14078988Y-23144810D01*
X14078988Y-23144810D02*
X14050416Y-23144810D01*
X14050416Y-23144810D02*
X14031369Y-23135286D01*
X14031369Y-23135286D02*
X14021845Y-23116238D01*
X14021845Y-23116238D02*
X14021845Y-23106714D01*
X14021845Y-23106714D02*
X14031369Y-23087667D01*
X14031369Y-23087667D02*
X14050416Y-23078143D01*
X14050416Y-23078143D02*
X14078988Y-23078143D01*
X14078988Y-23078143D02*
X14098035Y-23087667D01*
X14221845Y-23211476D02*
X14202797Y-23201953D01*
X14202797Y-23201953D02*
X14193273Y-23182905D01*
X14193273Y-23182905D02*
X14193273Y-23011476D01*
X14326607Y-23211476D02*
X14307559Y-23201953D01*
X14307559Y-23201953D02*
X14298035Y-23192429D01*
X14298035Y-23192429D02*
X14288511Y-23173381D01*
X14288511Y-23173381D02*
X14288511Y-23116238D01*
X14288511Y-23116238D02*
X14298035Y-23097191D01*
X14298035Y-23097191D02*
X14307559Y-23087667D01*
X14307559Y-23087667D02*
X14326607Y-23078143D01*
X14326607Y-23078143D02*
X14355178Y-23078143D01*
X14355178Y-23078143D02*
X14374226Y-23087667D01*
X14374226Y-23087667D02*
X14383750Y-23097191D01*
X14383750Y-23097191D02*
X14393273Y-23116238D01*
X14393273Y-23116238D02*
X14393273Y-23173381D01*
X14393273Y-23173381D02*
X14383750Y-23192429D01*
X14383750Y-23192429D02*
X14374226Y-23201953D01*
X14374226Y-23201953D02*
X14355178Y-23211476D01*
X14355178Y-23211476D02*
X14326607Y-23211476D01*
X14450416Y-23078143D02*
X14526607Y-23078143D01*
X14478988Y-23011476D02*
X14478988Y-23182905D01*
X14478988Y-23182905D02*
X14488511Y-23201953D01*
X14488511Y-23201953D02*
X14507559Y-23211476D01*
X14507559Y-23211476D02*
X14526607Y-23211476D01*
X14583750Y-23201953D02*
X14602797Y-23211476D01*
X14602797Y-23211476D02*
X14640892Y-23211476D01*
X14640892Y-23211476D02*
X14659940Y-23201953D01*
X14659940Y-23201953D02*
X14669464Y-23182905D01*
X14669464Y-23182905D02*
X14669464Y-23173381D01*
X14669464Y-23173381D02*
X14659940Y-23154333D01*
X14659940Y-23154333D02*
X14640892Y-23144810D01*
X14640892Y-23144810D02*
X14612321Y-23144810D01*
X14612321Y-23144810D02*
X14593273Y-23135286D01*
X14593273Y-23135286D02*
X14583750Y-23116238D01*
X14583750Y-23116238D02*
X14583750Y-23106714D01*
X14583750Y-23106714D02*
X14593273Y-23087667D01*
X14593273Y-23087667D02*
X14612321Y-23078143D01*
X14612321Y-23078143D02*
X14640892Y-23078143D01*
X14640892Y-23078143D02*
X14659940Y-23087667D01*
X14736131Y-23287667D02*
X14745654Y-23278143D01*
X14745654Y-23278143D02*
X14764702Y-23249572D01*
X14764702Y-23249572D02*
X14774226Y-23230524D01*
X14774226Y-23230524D02*
X14783750Y-23201953D01*
X14783750Y-23201953D02*
X14793273Y-23154333D01*
X14793273Y-23154333D02*
X14793273Y-23116238D01*
X14793273Y-23116238D02*
X14783750Y-23068619D01*
X14783750Y-23068619D02*
X14774226Y-23040048D01*
X14774226Y-23040048D02*
X14764702Y-23021000D01*
X14764702Y-23021000D02*
X14745654Y-22992429D01*
X14745654Y-22992429D02*
X14736131Y-22982905D01*
D14*
X8267020Y-23308993D02*
X8267020Y-23458993D01*
X8192020Y-23383993D02*
X8342020Y-23383993D01*
D11*
X8707559Y-23475476D02*
X8593273Y-23475476D01*
X8650416Y-23475476D02*
X8650416Y-23275476D01*
X8650416Y-23275476D02*
X8631368Y-23304048D01*
X8631368Y-23304048D02*
X8612320Y-23323095D01*
X8612320Y-23323095D02*
X8593273Y-23332619D01*
X8793273Y-23456429D02*
X8802797Y-23465953D01*
X8802797Y-23465953D02*
X8793273Y-23475476D01*
X8793273Y-23475476D02*
X8783749Y-23465953D01*
X8783749Y-23465953D02*
X8793273Y-23456429D01*
X8793273Y-23456429D02*
X8793273Y-23475476D01*
X8983749Y-23275476D02*
X8888511Y-23275476D01*
X8888511Y-23275476D02*
X8878987Y-23370714D01*
X8878987Y-23370714D02*
X8888511Y-23361191D01*
X8888511Y-23361191D02*
X8907559Y-23351667D01*
X8907559Y-23351667D02*
X8955178Y-23351667D01*
X8955178Y-23351667D02*
X8974225Y-23361191D01*
X8974225Y-23361191D02*
X8983749Y-23370714D01*
X8983749Y-23370714D02*
X8993273Y-23389762D01*
X8993273Y-23389762D02*
X8993273Y-23437381D01*
X8993273Y-23437381D02*
X8983749Y-23456429D01*
X8983749Y-23456429D02*
X8974225Y-23465953D01*
X8974225Y-23465953D02*
X8955178Y-23475476D01*
X8955178Y-23475476D02*
X8907559Y-23475476D01*
X8907559Y-23475476D02*
X8888511Y-23465953D01*
X8888511Y-23465953D02*
X8878987Y-23456429D01*
X9117082Y-23275476D02*
X9136130Y-23275476D01*
X9136130Y-23275476D02*
X9155178Y-23285000D01*
X9155178Y-23285000D02*
X9164701Y-23294524D01*
X9164701Y-23294524D02*
X9174225Y-23313572D01*
X9174225Y-23313572D02*
X9183749Y-23351667D01*
X9183749Y-23351667D02*
X9183749Y-23399286D01*
X9183749Y-23399286D02*
X9174225Y-23437381D01*
X9174225Y-23437381D02*
X9164701Y-23456429D01*
X9164701Y-23456429D02*
X9155178Y-23465953D01*
X9155178Y-23465953D02*
X9136130Y-23475476D01*
X9136130Y-23475476D02*
X9117082Y-23475476D01*
X9117082Y-23475476D02*
X9098035Y-23465953D01*
X9098035Y-23465953D02*
X9088511Y-23456429D01*
X9088511Y-23456429D02*
X9078987Y-23437381D01*
X9078987Y-23437381D02*
X9069463Y-23399286D01*
X9069463Y-23399286D02*
X9069463Y-23351667D01*
X9069463Y-23351667D02*
X9078987Y-23313572D01*
X9078987Y-23313572D02*
X9088511Y-23294524D01*
X9088511Y-23294524D02*
X9098035Y-23285000D01*
X9098035Y-23285000D02*
X9117082Y-23275476D01*
X9307559Y-23275476D02*
X9326606Y-23275476D01*
X9326606Y-23275476D02*
X9345654Y-23285000D01*
X9345654Y-23285000D02*
X9355178Y-23294524D01*
X9355178Y-23294524D02*
X9364701Y-23313572D01*
X9364701Y-23313572D02*
X9374225Y-23351667D01*
X9374225Y-23351667D02*
X9374225Y-23399286D01*
X9374225Y-23399286D02*
X9364701Y-23437381D01*
X9364701Y-23437381D02*
X9355178Y-23456429D01*
X9355178Y-23456429D02*
X9345654Y-23465953D01*
X9345654Y-23465953D02*
X9326606Y-23475476D01*
X9326606Y-23475476D02*
X9307559Y-23475476D01*
X9307559Y-23475476D02*
X9288511Y-23465953D01*
X9288511Y-23465953D02*
X9278987Y-23456429D01*
X9278987Y-23456429D02*
X9269463Y-23437381D01*
X9269463Y-23437381D02*
X9259940Y-23399286D01*
X9259940Y-23399286D02*
X9259940Y-23351667D01*
X9259940Y-23351667D02*
X9269463Y-23313572D01*
X9269463Y-23313572D02*
X9278987Y-23294524D01*
X9278987Y-23294524D02*
X9288511Y-23285000D01*
X9288511Y-23285000D02*
X9307559Y-23275476D01*
X9459940Y-23475476D02*
X9459940Y-23342143D01*
X9459940Y-23361191D02*
X9469463Y-23351667D01*
X9469463Y-23351667D02*
X9488511Y-23342143D01*
X9488511Y-23342143D02*
X9517082Y-23342143D01*
X9517082Y-23342143D02*
X9536130Y-23351667D01*
X9536130Y-23351667D02*
X9545654Y-23370714D01*
X9545654Y-23370714D02*
X9545654Y-23475476D01*
X9545654Y-23370714D02*
X9555178Y-23351667D01*
X9555178Y-23351667D02*
X9574225Y-23342143D01*
X9574225Y-23342143D02*
X9602797Y-23342143D01*
X9602797Y-23342143D02*
X9621844Y-23351667D01*
X9621844Y-23351667D02*
X9631368Y-23370714D01*
X9631368Y-23370714D02*
X9631368Y-23475476D01*
X9726606Y-23475476D02*
X9726606Y-23342143D01*
X9726606Y-23361191D02*
X9736130Y-23351667D01*
X9736130Y-23351667D02*
X9755178Y-23342143D01*
X9755178Y-23342143D02*
X9783749Y-23342143D01*
X9783749Y-23342143D02*
X9802797Y-23351667D01*
X9802797Y-23351667D02*
X9812321Y-23370714D01*
X9812321Y-23370714D02*
X9812321Y-23475476D01*
X9812321Y-23370714D02*
X9821844Y-23351667D01*
X9821844Y-23351667D02*
X9840892Y-23342143D01*
X9840892Y-23342143D02*
X9869463Y-23342143D01*
X9869463Y-23342143D02*
X9888511Y-23351667D01*
X9888511Y-23351667D02*
X9898035Y-23370714D01*
X9898035Y-23370714D02*
X9898035Y-23475476D01*
X10288511Y-23265953D02*
X10117083Y-23523095D01*
X10545654Y-23275476D02*
X10564702Y-23275476D01*
X10564702Y-23275476D02*
X10583749Y-23285000D01*
X10583749Y-23285000D02*
X10593273Y-23294524D01*
X10593273Y-23294524D02*
X10602797Y-23313572D01*
X10602797Y-23313572D02*
X10612321Y-23351667D01*
X10612321Y-23351667D02*
X10612321Y-23399286D01*
X10612321Y-23399286D02*
X10602797Y-23437381D01*
X10602797Y-23437381D02*
X10593273Y-23456429D01*
X10593273Y-23456429D02*
X10583749Y-23465953D01*
X10583749Y-23465953D02*
X10564702Y-23475476D01*
X10564702Y-23475476D02*
X10545654Y-23475476D01*
X10545654Y-23475476D02*
X10526606Y-23465953D01*
X10526606Y-23465953D02*
X10517083Y-23456429D01*
X10517083Y-23456429D02*
X10507559Y-23437381D01*
X10507559Y-23437381D02*
X10498035Y-23399286D01*
X10498035Y-23399286D02*
X10498035Y-23351667D01*
X10498035Y-23351667D02*
X10507559Y-23313572D01*
X10507559Y-23313572D02*
X10517083Y-23294524D01*
X10517083Y-23294524D02*
X10526606Y-23285000D01*
X10526606Y-23285000D02*
X10545654Y-23275476D01*
X10698035Y-23456429D02*
X10707559Y-23465953D01*
X10707559Y-23465953D02*
X10698035Y-23475476D01*
X10698035Y-23475476D02*
X10688511Y-23465953D01*
X10688511Y-23465953D02*
X10698035Y-23456429D01*
X10698035Y-23456429D02*
X10698035Y-23475476D01*
X10831368Y-23275476D02*
X10850416Y-23275476D01*
X10850416Y-23275476D02*
X10869464Y-23285000D01*
X10869464Y-23285000D02*
X10878987Y-23294524D01*
X10878987Y-23294524D02*
X10888511Y-23313572D01*
X10888511Y-23313572D02*
X10898035Y-23351667D01*
X10898035Y-23351667D02*
X10898035Y-23399286D01*
X10898035Y-23399286D02*
X10888511Y-23437381D01*
X10888511Y-23437381D02*
X10878987Y-23456429D01*
X10878987Y-23456429D02*
X10869464Y-23465953D01*
X10869464Y-23465953D02*
X10850416Y-23475476D01*
X10850416Y-23475476D02*
X10831368Y-23475476D01*
X10831368Y-23475476D02*
X10812321Y-23465953D01*
X10812321Y-23465953D02*
X10802797Y-23456429D01*
X10802797Y-23456429D02*
X10793273Y-23437381D01*
X10793273Y-23437381D02*
X10783749Y-23399286D01*
X10783749Y-23399286D02*
X10783749Y-23351667D01*
X10783749Y-23351667D02*
X10793273Y-23313572D01*
X10793273Y-23313572D02*
X10802797Y-23294524D01*
X10802797Y-23294524D02*
X10812321Y-23285000D01*
X10812321Y-23285000D02*
X10831368Y-23275476D01*
X11078987Y-23275476D02*
X10983749Y-23275476D01*
X10983749Y-23275476D02*
X10974225Y-23370714D01*
X10974225Y-23370714D02*
X10983749Y-23361191D01*
X10983749Y-23361191D02*
X11002797Y-23351667D01*
X11002797Y-23351667D02*
X11050416Y-23351667D01*
X11050416Y-23351667D02*
X11069464Y-23361191D01*
X11069464Y-23361191D02*
X11078987Y-23370714D01*
X11078987Y-23370714D02*
X11088511Y-23389762D01*
X11088511Y-23389762D02*
X11088511Y-23437381D01*
X11088511Y-23437381D02*
X11078987Y-23456429D01*
X11078987Y-23456429D02*
X11069464Y-23465953D01*
X11069464Y-23465953D02*
X11050416Y-23475476D01*
X11050416Y-23475476D02*
X11002797Y-23475476D01*
X11002797Y-23475476D02*
X10983749Y-23465953D01*
X10983749Y-23465953D02*
X10974225Y-23456429D01*
X11183749Y-23475476D02*
X11221844Y-23475476D01*
X11221844Y-23475476D02*
X11240892Y-23465953D01*
X11240892Y-23465953D02*
X11250416Y-23456429D01*
X11250416Y-23456429D02*
X11269463Y-23427857D01*
X11269463Y-23427857D02*
X11278987Y-23389762D01*
X11278987Y-23389762D02*
X11278987Y-23313572D01*
X11278987Y-23313572D02*
X11269463Y-23294524D01*
X11269463Y-23294524D02*
X11259940Y-23285000D01*
X11259940Y-23285000D02*
X11240892Y-23275476D01*
X11240892Y-23275476D02*
X11202797Y-23275476D01*
X11202797Y-23275476D02*
X11183749Y-23285000D01*
X11183749Y-23285000D02*
X11174225Y-23294524D01*
X11174225Y-23294524D02*
X11164702Y-23313572D01*
X11164702Y-23313572D02*
X11164702Y-23361191D01*
X11164702Y-23361191D02*
X11174225Y-23380238D01*
X11174225Y-23380238D02*
X11183749Y-23389762D01*
X11183749Y-23389762D02*
X11202797Y-23399286D01*
X11202797Y-23399286D02*
X11240892Y-23399286D01*
X11240892Y-23399286D02*
X11259940Y-23389762D01*
X11259940Y-23389762D02*
X11269463Y-23380238D01*
X11269463Y-23380238D02*
X11278987Y-23361191D01*
X11469463Y-23475476D02*
X11355178Y-23475476D01*
X11412321Y-23475476D02*
X11412321Y-23275476D01*
X11412321Y-23275476D02*
X11393273Y-23304048D01*
X11393273Y-23304048D02*
X11374225Y-23323095D01*
X11374225Y-23323095D02*
X11355178Y-23332619D01*
X11545654Y-23275476D02*
X11545654Y-23313572D01*
X11621844Y-23275476D02*
X11621844Y-23313572D01*
X11917083Y-23551667D02*
X11907559Y-23542143D01*
X11907559Y-23542143D02*
X11888511Y-23513572D01*
X11888511Y-23513572D02*
X11878987Y-23494524D01*
X11878987Y-23494524D02*
X11869464Y-23465953D01*
X11869464Y-23465953D02*
X11859940Y-23418333D01*
X11859940Y-23418333D02*
X11859940Y-23380238D01*
X11859940Y-23380238D02*
X11869464Y-23332619D01*
X11869464Y-23332619D02*
X11878987Y-23304048D01*
X11878987Y-23304048D02*
X11888511Y-23285000D01*
X11888511Y-23285000D02*
X11907559Y-23256429D01*
X11907559Y-23256429D02*
X11917083Y-23246905D01*
X12021844Y-23361191D02*
X12002797Y-23351667D01*
X12002797Y-23351667D02*
X11993273Y-23342143D01*
X11993273Y-23342143D02*
X11983749Y-23323095D01*
X11983749Y-23323095D02*
X11983749Y-23313572D01*
X11983749Y-23313572D02*
X11993273Y-23294524D01*
X11993273Y-23294524D02*
X12002797Y-23285000D01*
X12002797Y-23285000D02*
X12021844Y-23275476D01*
X12021844Y-23275476D02*
X12059940Y-23275476D01*
X12059940Y-23275476D02*
X12078987Y-23285000D01*
X12078987Y-23285000D02*
X12088511Y-23294524D01*
X12088511Y-23294524D02*
X12098035Y-23313572D01*
X12098035Y-23313572D02*
X12098035Y-23323095D01*
X12098035Y-23323095D02*
X12088511Y-23342143D01*
X12088511Y-23342143D02*
X12078987Y-23351667D01*
X12078987Y-23351667D02*
X12059940Y-23361191D01*
X12059940Y-23361191D02*
X12021844Y-23361191D01*
X12021844Y-23361191D02*
X12002797Y-23370714D01*
X12002797Y-23370714D02*
X11993273Y-23380238D01*
X11993273Y-23380238D02*
X11983749Y-23399286D01*
X11983749Y-23399286D02*
X11983749Y-23437381D01*
X11983749Y-23437381D02*
X11993273Y-23456429D01*
X11993273Y-23456429D02*
X12002797Y-23465953D01*
X12002797Y-23465953D02*
X12021844Y-23475476D01*
X12021844Y-23475476D02*
X12059940Y-23475476D01*
X12059940Y-23475476D02*
X12078987Y-23465953D01*
X12078987Y-23465953D02*
X12088511Y-23456429D01*
X12088511Y-23456429D02*
X12098035Y-23437381D01*
X12098035Y-23437381D02*
X12098035Y-23399286D01*
X12098035Y-23399286D02*
X12088511Y-23380238D01*
X12088511Y-23380238D02*
X12078987Y-23370714D01*
X12078987Y-23370714D02*
X12059940Y-23361191D01*
X12174225Y-23294524D02*
X12183749Y-23285000D01*
X12183749Y-23285000D02*
X12202797Y-23275476D01*
X12202797Y-23275476D02*
X12250416Y-23275476D01*
X12250416Y-23275476D02*
X12269464Y-23285000D01*
X12269464Y-23285000D02*
X12278987Y-23294524D01*
X12278987Y-23294524D02*
X12288511Y-23313572D01*
X12288511Y-23313572D02*
X12288511Y-23332619D01*
X12288511Y-23332619D02*
X12278987Y-23361191D01*
X12278987Y-23361191D02*
X12164702Y-23475476D01*
X12164702Y-23475476D02*
X12288511Y-23475476D01*
X12526606Y-23475476D02*
X12526606Y-23275476D01*
X12612321Y-23475476D02*
X12612321Y-23370714D01*
X12612321Y-23370714D02*
X12602797Y-23351667D01*
X12602797Y-23351667D02*
X12583749Y-23342143D01*
X12583749Y-23342143D02*
X12555178Y-23342143D01*
X12555178Y-23342143D02*
X12536130Y-23351667D01*
X12536130Y-23351667D02*
X12526606Y-23361191D01*
X12736130Y-23475476D02*
X12717083Y-23465953D01*
X12717083Y-23465953D02*
X12707559Y-23456429D01*
X12707559Y-23456429D02*
X12698035Y-23437381D01*
X12698035Y-23437381D02*
X12698035Y-23380238D01*
X12698035Y-23380238D02*
X12707559Y-23361191D01*
X12707559Y-23361191D02*
X12717083Y-23351667D01*
X12717083Y-23351667D02*
X12736130Y-23342143D01*
X12736130Y-23342143D02*
X12764702Y-23342143D01*
X12764702Y-23342143D02*
X12783749Y-23351667D01*
X12783749Y-23351667D02*
X12793273Y-23361191D01*
X12793273Y-23361191D02*
X12802797Y-23380238D01*
X12802797Y-23380238D02*
X12802797Y-23437381D01*
X12802797Y-23437381D02*
X12793273Y-23456429D01*
X12793273Y-23456429D02*
X12783749Y-23465953D01*
X12783749Y-23465953D02*
X12764702Y-23475476D01*
X12764702Y-23475476D02*
X12736130Y-23475476D01*
X12917083Y-23475476D02*
X12898035Y-23465953D01*
X12898035Y-23465953D02*
X12888511Y-23446905D01*
X12888511Y-23446905D02*
X12888511Y-23275476D01*
X13069464Y-23465953D02*
X13050416Y-23475476D01*
X13050416Y-23475476D02*
X13012321Y-23475476D01*
X13012321Y-23475476D02*
X12993273Y-23465953D01*
X12993273Y-23465953D02*
X12983749Y-23446905D01*
X12983749Y-23446905D02*
X12983749Y-23370714D01*
X12983749Y-23370714D02*
X12993273Y-23351667D01*
X12993273Y-23351667D02*
X13012321Y-23342143D01*
X13012321Y-23342143D02*
X13050416Y-23342143D01*
X13050416Y-23342143D02*
X13069464Y-23351667D01*
X13069464Y-23351667D02*
X13078987Y-23370714D01*
X13078987Y-23370714D02*
X13078987Y-23389762D01*
X13078987Y-23389762D02*
X12983749Y-23408810D01*
X13155178Y-23465953D02*
X13174226Y-23475476D01*
X13174226Y-23475476D02*
X13212321Y-23475476D01*
X13212321Y-23475476D02*
X13231368Y-23465953D01*
X13231368Y-23465953D02*
X13240892Y-23446905D01*
X13240892Y-23446905D02*
X13240892Y-23437381D01*
X13240892Y-23437381D02*
X13231368Y-23418333D01*
X13231368Y-23418333D02*
X13212321Y-23408810D01*
X13212321Y-23408810D02*
X13183749Y-23408810D01*
X13183749Y-23408810D02*
X13164702Y-23399286D01*
X13164702Y-23399286D02*
X13155178Y-23380238D01*
X13155178Y-23380238D02*
X13155178Y-23370714D01*
X13155178Y-23370714D02*
X13164702Y-23351667D01*
X13164702Y-23351667D02*
X13183749Y-23342143D01*
X13183749Y-23342143D02*
X13212321Y-23342143D01*
X13212321Y-23342143D02*
X13231368Y-23351667D01*
X13307559Y-23551667D02*
X13317083Y-23542143D01*
X13317083Y-23542143D02*
X13336130Y-23513572D01*
X13336130Y-23513572D02*
X13345654Y-23494524D01*
X13345654Y-23494524D02*
X13355178Y-23465953D01*
X13355178Y-23465953D02*
X13364702Y-23418333D01*
X13364702Y-23418333D02*
X13364702Y-23380238D01*
X13364702Y-23380238D02*
X13355178Y-23332619D01*
X13355178Y-23332619D02*
X13345654Y-23304048D01*
X13345654Y-23304048D02*
X13336130Y-23285000D01*
X13336130Y-23285000D02*
X13317083Y-23256429D01*
X13317083Y-23256429D02*
X13307559Y-23246905D01*
X8312731Y-23724704D02*
X8312731Y-23583281D01*
X8171308Y-23583281D01*
X8171308Y-23724704D01*
X8312731Y-23724704D01*
X8593273Y-23564524D02*
X8602797Y-23555000D01*
X8602797Y-23555000D02*
X8621844Y-23545476D01*
X8621844Y-23545476D02*
X8669463Y-23545476D01*
X8669463Y-23545476D02*
X8688511Y-23555000D01*
X8688511Y-23555000D02*
X8698035Y-23564524D01*
X8698035Y-23564524D02*
X8707559Y-23583572D01*
X8707559Y-23583572D02*
X8707559Y-23602619D01*
X8707559Y-23602619D02*
X8698035Y-23631191D01*
X8698035Y-23631191D02*
X8583749Y-23745476D01*
X8583749Y-23745476D02*
X8707559Y-23745476D01*
X8793273Y-23726429D02*
X8802797Y-23735953D01*
X8802797Y-23735953D02*
X8793273Y-23745476D01*
X8793273Y-23745476D02*
X8783749Y-23735953D01*
X8783749Y-23735953D02*
X8793273Y-23726429D01*
X8793273Y-23726429D02*
X8793273Y-23745476D01*
X8878987Y-23564524D02*
X8888511Y-23555000D01*
X8888511Y-23555000D02*
X8907559Y-23545476D01*
X8907559Y-23545476D02*
X8955178Y-23545476D01*
X8955178Y-23545476D02*
X8974225Y-23555000D01*
X8974225Y-23555000D02*
X8983749Y-23564524D01*
X8983749Y-23564524D02*
X8993273Y-23583572D01*
X8993273Y-23583572D02*
X8993273Y-23602619D01*
X8993273Y-23602619D02*
X8983749Y-23631191D01*
X8983749Y-23631191D02*
X8869463Y-23745476D01*
X8869463Y-23745476D02*
X8993273Y-23745476D01*
X9117082Y-23545476D02*
X9136130Y-23545476D01*
X9136130Y-23545476D02*
X9155178Y-23555000D01*
X9155178Y-23555000D02*
X9164701Y-23564524D01*
X9164701Y-23564524D02*
X9174225Y-23583572D01*
X9174225Y-23583572D02*
X9183749Y-23621667D01*
X9183749Y-23621667D02*
X9183749Y-23669286D01*
X9183749Y-23669286D02*
X9174225Y-23707381D01*
X9174225Y-23707381D02*
X9164701Y-23726429D01*
X9164701Y-23726429D02*
X9155178Y-23735953D01*
X9155178Y-23735953D02*
X9136130Y-23745476D01*
X9136130Y-23745476D02*
X9117082Y-23745476D01*
X9117082Y-23745476D02*
X9098035Y-23735953D01*
X9098035Y-23735953D02*
X9088511Y-23726429D01*
X9088511Y-23726429D02*
X9078987Y-23707381D01*
X9078987Y-23707381D02*
X9069463Y-23669286D01*
X9069463Y-23669286D02*
X9069463Y-23621667D01*
X9069463Y-23621667D02*
X9078987Y-23583572D01*
X9078987Y-23583572D02*
X9088511Y-23564524D01*
X9088511Y-23564524D02*
X9098035Y-23555000D01*
X9098035Y-23555000D02*
X9117082Y-23545476D01*
X9307559Y-23545476D02*
X9326606Y-23545476D01*
X9326606Y-23545476D02*
X9345654Y-23555000D01*
X9345654Y-23555000D02*
X9355178Y-23564524D01*
X9355178Y-23564524D02*
X9364701Y-23583572D01*
X9364701Y-23583572D02*
X9374225Y-23621667D01*
X9374225Y-23621667D02*
X9374225Y-23669286D01*
X9374225Y-23669286D02*
X9364701Y-23707381D01*
X9364701Y-23707381D02*
X9355178Y-23726429D01*
X9355178Y-23726429D02*
X9345654Y-23735953D01*
X9345654Y-23735953D02*
X9326606Y-23745476D01*
X9326606Y-23745476D02*
X9307559Y-23745476D01*
X9307559Y-23745476D02*
X9288511Y-23735953D01*
X9288511Y-23735953D02*
X9278987Y-23726429D01*
X9278987Y-23726429D02*
X9269463Y-23707381D01*
X9269463Y-23707381D02*
X9259940Y-23669286D01*
X9259940Y-23669286D02*
X9259940Y-23621667D01*
X9259940Y-23621667D02*
X9269463Y-23583572D01*
X9269463Y-23583572D02*
X9278987Y-23564524D01*
X9278987Y-23564524D02*
X9288511Y-23555000D01*
X9288511Y-23555000D02*
X9307559Y-23545476D01*
X9459940Y-23745476D02*
X9459940Y-23612143D01*
X9459940Y-23631191D02*
X9469463Y-23621667D01*
X9469463Y-23621667D02*
X9488511Y-23612143D01*
X9488511Y-23612143D02*
X9517082Y-23612143D01*
X9517082Y-23612143D02*
X9536130Y-23621667D01*
X9536130Y-23621667D02*
X9545654Y-23640714D01*
X9545654Y-23640714D02*
X9545654Y-23745476D01*
X9545654Y-23640714D02*
X9555178Y-23621667D01*
X9555178Y-23621667D02*
X9574225Y-23612143D01*
X9574225Y-23612143D02*
X9602797Y-23612143D01*
X9602797Y-23612143D02*
X9621844Y-23621667D01*
X9621844Y-23621667D02*
X9631368Y-23640714D01*
X9631368Y-23640714D02*
X9631368Y-23745476D01*
X9726606Y-23745476D02*
X9726606Y-23612143D01*
X9726606Y-23631191D02*
X9736130Y-23621667D01*
X9736130Y-23621667D02*
X9755178Y-23612143D01*
X9755178Y-23612143D02*
X9783749Y-23612143D01*
X9783749Y-23612143D02*
X9802797Y-23621667D01*
X9802797Y-23621667D02*
X9812321Y-23640714D01*
X9812321Y-23640714D02*
X9812321Y-23745476D01*
X9812321Y-23640714D02*
X9821844Y-23621667D01*
X9821844Y-23621667D02*
X9840892Y-23612143D01*
X9840892Y-23612143D02*
X9869463Y-23612143D01*
X9869463Y-23612143D02*
X9888511Y-23621667D01*
X9888511Y-23621667D02*
X9898035Y-23640714D01*
X9898035Y-23640714D02*
X9898035Y-23745476D01*
X10288511Y-23535953D02*
X10117083Y-23793095D01*
X10545654Y-23545476D02*
X10564702Y-23545476D01*
X10564702Y-23545476D02*
X10583749Y-23555000D01*
X10583749Y-23555000D02*
X10593273Y-23564524D01*
X10593273Y-23564524D02*
X10602797Y-23583572D01*
X10602797Y-23583572D02*
X10612321Y-23621667D01*
X10612321Y-23621667D02*
X10612321Y-23669286D01*
X10612321Y-23669286D02*
X10602797Y-23707381D01*
X10602797Y-23707381D02*
X10593273Y-23726429D01*
X10593273Y-23726429D02*
X10583749Y-23735953D01*
X10583749Y-23735953D02*
X10564702Y-23745476D01*
X10564702Y-23745476D02*
X10545654Y-23745476D01*
X10545654Y-23745476D02*
X10526606Y-23735953D01*
X10526606Y-23735953D02*
X10517083Y-23726429D01*
X10517083Y-23726429D02*
X10507559Y-23707381D01*
X10507559Y-23707381D02*
X10498035Y-23669286D01*
X10498035Y-23669286D02*
X10498035Y-23621667D01*
X10498035Y-23621667D02*
X10507559Y-23583572D01*
X10507559Y-23583572D02*
X10517083Y-23564524D01*
X10517083Y-23564524D02*
X10526606Y-23555000D01*
X10526606Y-23555000D02*
X10545654Y-23545476D01*
X10698035Y-23726429D02*
X10707559Y-23735953D01*
X10707559Y-23735953D02*
X10698035Y-23745476D01*
X10698035Y-23745476D02*
X10688511Y-23735953D01*
X10688511Y-23735953D02*
X10698035Y-23726429D01*
X10698035Y-23726429D02*
X10698035Y-23745476D01*
X10831368Y-23545476D02*
X10850416Y-23545476D01*
X10850416Y-23545476D02*
X10869464Y-23555000D01*
X10869464Y-23555000D02*
X10878987Y-23564524D01*
X10878987Y-23564524D02*
X10888511Y-23583572D01*
X10888511Y-23583572D02*
X10898035Y-23621667D01*
X10898035Y-23621667D02*
X10898035Y-23669286D01*
X10898035Y-23669286D02*
X10888511Y-23707381D01*
X10888511Y-23707381D02*
X10878987Y-23726429D01*
X10878987Y-23726429D02*
X10869464Y-23735953D01*
X10869464Y-23735953D02*
X10850416Y-23745476D01*
X10850416Y-23745476D02*
X10831368Y-23745476D01*
X10831368Y-23745476D02*
X10812321Y-23735953D01*
X10812321Y-23735953D02*
X10802797Y-23726429D01*
X10802797Y-23726429D02*
X10793273Y-23707381D01*
X10793273Y-23707381D02*
X10783749Y-23669286D01*
X10783749Y-23669286D02*
X10783749Y-23621667D01*
X10783749Y-23621667D02*
X10793273Y-23583572D01*
X10793273Y-23583572D02*
X10802797Y-23564524D01*
X10802797Y-23564524D02*
X10812321Y-23555000D01*
X10812321Y-23555000D02*
X10831368Y-23545476D01*
X11012321Y-23631191D02*
X10993273Y-23621667D01*
X10993273Y-23621667D02*
X10983749Y-23612143D01*
X10983749Y-23612143D02*
X10974225Y-23593095D01*
X10974225Y-23593095D02*
X10974225Y-23583572D01*
X10974225Y-23583572D02*
X10983749Y-23564524D01*
X10983749Y-23564524D02*
X10993273Y-23555000D01*
X10993273Y-23555000D02*
X11012321Y-23545476D01*
X11012321Y-23545476D02*
X11050416Y-23545476D01*
X11050416Y-23545476D02*
X11069464Y-23555000D01*
X11069464Y-23555000D02*
X11078987Y-23564524D01*
X11078987Y-23564524D02*
X11088511Y-23583572D01*
X11088511Y-23583572D02*
X11088511Y-23593095D01*
X11088511Y-23593095D02*
X11078987Y-23612143D01*
X11078987Y-23612143D02*
X11069464Y-23621667D01*
X11069464Y-23621667D02*
X11050416Y-23631191D01*
X11050416Y-23631191D02*
X11012321Y-23631191D01*
X11012321Y-23631191D02*
X10993273Y-23640714D01*
X10993273Y-23640714D02*
X10983749Y-23650238D01*
X10983749Y-23650238D02*
X10974225Y-23669286D01*
X10974225Y-23669286D02*
X10974225Y-23707381D01*
X10974225Y-23707381D02*
X10983749Y-23726429D01*
X10983749Y-23726429D02*
X10993273Y-23735953D01*
X10993273Y-23735953D02*
X11012321Y-23745476D01*
X11012321Y-23745476D02*
X11050416Y-23745476D01*
X11050416Y-23745476D02*
X11069464Y-23735953D01*
X11069464Y-23735953D02*
X11078987Y-23726429D01*
X11078987Y-23726429D02*
X11088511Y-23707381D01*
X11088511Y-23707381D02*
X11088511Y-23669286D01*
X11088511Y-23669286D02*
X11078987Y-23650238D01*
X11078987Y-23650238D02*
X11069464Y-23640714D01*
X11069464Y-23640714D02*
X11050416Y-23631191D01*
X11259940Y-23545476D02*
X11221844Y-23545476D01*
X11221844Y-23545476D02*
X11202797Y-23555000D01*
X11202797Y-23555000D02*
X11193273Y-23564524D01*
X11193273Y-23564524D02*
X11174225Y-23593095D01*
X11174225Y-23593095D02*
X11164702Y-23631191D01*
X11164702Y-23631191D02*
X11164702Y-23707381D01*
X11164702Y-23707381D02*
X11174225Y-23726429D01*
X11174225Y-23726429D02*
X11183749Y-23735953D01*
X11183749Y-23735953D02*
X11202797Y-23745476D01*
X11202797Y-23745476D02*
X11240892Y-23745476D01*
X11240892Y-23745476D02*
X11259940Y-23735953D01*
X11259940Y-23735953D02*
X11269463Y-23726429D01*
X11269463Y-23726429D02*
X11278987Y-23707381D01*
X11278987Y-23707381D02*
X11278987Y-23659762D01*
X11278987Y-23659762D02*
X11269463Y-23640714D01*
X11269463Y-23640714D02*
X11259940Y-23631191D01*
X11259940Y-23631191D02*
X11240892Y-23621667D01*
X11240892Y-23621667D02*
X11202797Y-23621667D01*
X11202797Y-23621667D02*
X11183749Y-23631191D01*
X11183749Y-23631191D02*
X11174225Y-23640714D01*
X11174225Y-23640714D02*
X11164702Y-23659762D01*
X11450416Y-23545476D02*
X11412321Y-23545476D01*
X11412321Y-23545476D02*
X11393273Y-23555000D01*
X11393273Y-23555000D02*
X11383749Y-23564524D01*
X11383749Y-23564524D02*
X11364702Y-23593095D01*
X11364702Y-23593095D02*
X11355178Y-23631191D01*
X11355178Y-23631191D02*
X11355178Y-23707381D01*
X11355178Y-23707381D02*
X11364702Y-23726429D01*
X11364702Y-23726429D02*
X11374225Y-23735953D01*
X11374225Y-23735953D02*
X11393273Y-23745476D01*
X11393273Y-23745476D02*
X11431368Y-23745476D01*
X11431368Y-23745476D02*
X11450416Y-23735953D01*
X11450416Y-23735953D02*
X11459940Y-23726429D01*
X11459940Y-23726429D02*
X11469463Y-23707381D01*
X11469463Y-23707381D02*
X11469463Y-23659762D01*
X11469463Y-23659762D02*
X11459940Y-23640714D01*
X11459940Y-23640714D02*
X11450416Y-23631191D01*
X11450416Y-23631191D02*
X11431368Y-23621667D01*
X11431368Y-23621667D02*
X11393273Y-23621667D01*
X11393273Y-23621667D02*
X11374225Y-23631191D01*
X11374225Y-23631191D02*
X11364702Y-23640714D01*
X11364702Y-23640714D02*
X11355178Y-23659762D01*
X11545654Y-23545476D02*
X11545654Y-23583572D01*
X11621844Y-23545476D02*
X11621844Y-23583572D01*
X11917083Y-23821667D02*
X11907559Y-23812143D01*
X11907559Y-23812143D02*
X11888511Y-23783572D01*
X11888511Y-23783572D02*
X11878987Y-23764524D01*
X11878987Y-23764524D02*
X11869464Y-23735953D01*
X11869464Y-23735953D02*
X11859940Y-23688333D01*
X11859940Y-23688333D02*
X11859940Y-23650238D01*
X11859940Y-23650238D02*
X11869464Y-23602619D01*
X11869464Y-23602619D02*
X11878987Y-23574048D01*
X11878987Y-23574048D02*
X11888511Y-23555000D01*
X11888511Y-23555000D02*
X11907559Y-23526429D01*
X11907559Y-23526429D02*
X11917083Y-23516905D01*
X12078987Y-23545476D02*
X12040892Y-23545476D01*
X12040892Y-23545476D02*
X12021844Y-23555000D01*
X12021844Y-23555000D02*
X12012321Y-23564524D01*
X12012321Y-23564524D02*
X11993273Y-23593095D01*
X11993273Y-23593095D02*
X11983749Y-23631191D01*
X11983749Y-23631191D02*
X11983749Y-23707381D01*
X11983749Y-23707381D02*
X11993273Y-23726429D01*
X11993273Y-23726429D02*
X12002797Y-23735953D01*
X12002797Y-23735953D02*
X12021844Y-23745476D01*
X12021844Y-23745476D02*
X12059940Y-23745476D01*
X12059940Y-23745476D02*
X12078987Y-23735953D01*
X12078987Y-23735953D02*
X12088511Y-23726429D01*
X12088511Y-23726429D02*
X12098035Y-23707381D01*
X12098035Y-23707381D02*
X12098035Y-23659762D01*
X12098035Y-23659762D02*
X12088511Y-23640714D01*
X12088511Y-23640714D02*
X12078987Y-23631191D01*
X12078987Y-23631191D02*
X12059940Y-23621667D01*
X12059940Y-23621667D02*
X12021844Y-23621667D01*
X12021844Y-23621667D02*
X12002797Y-23631191D01*
X12002797Y-23631191D02*
X11993273Y-23640714D01*
X11993273Y-23640714D02*
X11983749Y-23659762D01*
X12336130Y-23745476D02*
X12336130Y-23545476D01*
X12421845Y-23745476D02*
X12421845Y-23640714D01*
X12421845Y-23640714D02*
X12412321Y-23621667D01*
X12412321Y-23621667D02*
X12393273Y-23612143D01*
X12393273Y-23612143D02*
X12364702Y-23612143D01*
X12364702Y-23612143D02*
X12345654Y-23621667D01*
X12345654Y-23621667D02*
X12336130Y-23631191D01*
X12545654Y-23745476D02*
X12526606Y-23735953D01*
X12526606Y-23735953D02*
X12517083Y-23726429D01*
X12517083Y-23726429D02*
X12507559Y-23707381D01*
X12507559Y-23707381D02*
X12507559Y-23650238D01*
X12507559Y-23650238D02*
X12517083Y-23631191D01*
X12517083Y-23631191D02*
X12526606Y-23621667D01*
X12526606Y-23621667D02*
X12545654Y-23612143D01*
X12545654Y-23612143D02*
X12574226Y-23612143D01*
X12574226Y-23612143D02*
X12593273Y-23621667D01*
X12593273Y-23621667D02*
X12602797Y-23631191D01*
X12602797Y-23631191D02*
X12612321Y-23650238D01*
X12612321Y-23650238D02*
X12612321Y-23707381D01*
X12612321Y-23707381D02*
X12602797Y-23726429D01*
X12602797Y-23726429D02*
X12593273Y-23735953D01*
X12593273Y-23735953D02*
X12574226Y-23745476D01*
X12574226Y-23745476D02*
X12545654Y-23745476D01*
X12726606Y-23745476D02*
X12707559Y-23735953D01*
X12707559Y-23735953D02*
X12698035Y-23716905D01*
X12698035Y-23716905D02*
X12698035Y-23545476D01*
X12878987Y-23735953D02*
X12859940Y-23745476D01*
X12859940Y-23745476D02*
X12821845Y-23745476D01*
X12821845Y-23745476D02*
X12802797Y-23735953D01*
X12802797Y-23735953D02*
X12793273Y-23716905D01*
X12793273Y-23716905D02*
X12793273Y-23640714D01*
X12793273Y-23640714D02*
X12802797Y-23621667D01*
X12802797Y-23621667D02*
X12821845Y-23612143D01*
X12821845Y-23612143D02*
X12859940Y-23612143D01*
X12859940Y-23612143D02*
X12878987Y-23621667D01*
X12878987Y-23621667D02*
X12888511Y-23640714D01*
X12888511Y-23640714D02*
X12888511Y-23659762D01*
X12888511Y-23659762D02*
X12793273Y-23678810D01*
X12964702Y-23735953D02*
X12983749Y-23745476D01*
X12983749Y-23745476D02*
X13021845Y-23745476D01*
X13021845Y-23745476D02*
X13040892Y-23735953D01*
X13040892Y-23735953D02*
X13050416Y-23716905D01*
X13050416Y-23716905D02*
X13050416Y-23707381D01*
X13050416Y-23707381D02*
X13040892Y-23688333D01*
X13040892Y-23688333D02*
X13021845Y-23678810D01*
X13021845Y-23678810D02*
X12993273Y-23678810D01*
X12993273Y-23678810D02*
X12974226Y-23669286D01*
X12974226Y-23669286D02*
X12964702Y-23650238D01*
X12964702Y-23650238D02*
X12964702Y-23640714D01*
X12964702Y-23640714D02*
X12974226Y-23621667D01*
X12974226Y-23621667D02*
X12993273Y-23612143D01*
X12993273Y-23612143D02*
X13021845Y-23612143D01*
X13021845Y-23612143D02*
X13040892Y-23621667D01*
X13117083Y-23821667D02*
X13126607Y-23812143D01*
X13126607Y-23812143D02*
X13145654Y-23783572D01*
X13145654Y-23783572D02*
X13155178Y-23764524D01*
X13155178Y-23764524D02*
X13164702Y-23735953D01*
X13164702Y-23735953D02*
X13174226Y-23688333D01*
X13174226Y-23688333D02*
X13174226Y-23650238D01*
X13174226Y-23650238D02*
X13164702Y-23602619D01*
X13164702Y-23602619D02*
X13155178Y-23574048D01*
X13155178Y-23574048D02*
X13145654Y-23555000D01*
X13145654Y-23555000D02*
X13126607Y-23526429D01*
X13126607Y-23526429D02*
X13117083Y-23516905D01*
M02*
