G04 #@! TF.GenerationSoftware,KiCad,Pcbnew,7.0.5*
G04 #@! TF.CreationDate,2025-01-08T21:54:48-05:00*
G04 #@! TF.ProjectId,JasonSplitErgoKeyboard_Right,4a61736f-6e53-4706-9c69-744572676f4b,rev?*
G04 #@! TF.SameCoordinates,Original*
G04 #@! TF.FileFunction,Legend,Top*
G04 #@! TF.FilePolarity,Positive*
%FSLAX46Y46*%
G04 Gerber Fmt 4.6, Leading zero omitted, Abs format (unit mm)*
G04 Created by KiCad (PCBNEW 7.0.5) date 2025-01-08 21:54:48*
%MOMM*%
%LPD*%
G01*
G04 APERTURE LIST*
%ADD10C,0.150000*%
%ADD11C,0.120000*%
%ADD12C,2.700000*%
%ADD13C,1.700000*%
%ADD14C,4.000000*%
%ADD15C,2.200000*%
%ADD16C,3.800000*%
%ADD17C,3.050000*%
%ADD18C,1.500000*%
%ADD19C,0.650000*%
%ADD20O,1.000000X1.800000*%
%ADD21O,1.000000X2.100000*%
G04 APERTURE END LIST*
D10*
X274766666Y-86204819D02*
X274433333Y-85728628D01*
X274195238Y-86204819D02*
X274195238Y-85204819D01*
X274195238Y-85204819D02*
X274576190Y-85204819D01*
X274576190Y-85204819D02*
X274671428Y-85252438D01*
X274671428Y-85252438D02*
X274719047Y-85300057D01*
X274719047Y-85300057D02*
X274766666Y-85395295D01*
X274766666Y-85395295D02*
X274766666Y-85538152D01*
X274766666Y-85538152D02*
X274719047Y-85633390D01*
X274719047Y-85633390D02*
X274671428Y-85681009D01*
X274671428Y-85681009D02*
X274576190Y-85728628D01*
X274576190Y-85728628D02*
X274195238Y-85728628D01*
X275195238Y-85681009D02*
X275528571Y-85681009D01*
X275671428Y-86204819D02*
X275195238Y-86204819D01*
X275195238Y-86204819D02*
X275195238Y-85204819D01*
X275195238Y-85204819D02*
X275671428Y-85204819D01*
X276433333Y-85681009D02*
X276100000Y-85681009D01*
X276100000Y-86204819D02*
X276100000Y-85204819D01*
X276100000Y-85204819D02*
X276576190Y-85204819D01*
X277100000Y-85204819D02*
X277100000Y-85442914D01*
X276861905Y-85347676D02*
X277100000Y-85442914D01*
X277100000Y-85442914D02*
X277338095Y-85347676D01*
X276957143Y-85633390D02*
X277100000Y-85442914D01*
X277100000Y-85442914D02*
X277242857Y-85633390D01*
X277861905Y-85204819D02*
X277861905Y-85442914D01*
X277623810Y-85347676D02*
X277861905Y-85442914D01*
X277861905Y-85442914D02*
X278100000Y-85347676D01*
X277719048Y-85633390D02*
X277861905Y-85442914D01*
X277861905Y-85442914D02*
X278004762Y-85633390D01*
X149666666Y-163404819D02*
X149333333Y-162928628D01*
X149095238Y-163404819D02*
X149095238Y-162404819D01*
X149095238Y-162404819D02*
X149476190Y-162404819D01*
X149476190Y-162404819D02*
X149571428Y-162452438D01*
X149571428Y-162452438D02*
X149619047Y-162500057D01*
X149619047Y-162500057D02*
X149666666Y-162595295D01*
X149666666Y-162595295D02*
X149666666Y-162738152D01*
X149666666Y-162738152D02*
X149619047Y-162833390D01*
X149619047Y-162833390D02*
X149571428Y-162881009D01*
X149571428Y-162881009D02*
X149476190Y-162928628D01*
X149476190Y-162928628D02*
X149095238Y-162928628D01*
X150095238Y-162881009D02*
X150428571Y-162881009D01*
X150571428Y-163404819D02*
X150095238Y-163404819D01*
X150095238Y-163404819D02*
X150095238Y-162404819D01*
X150095238Y-162404819D02*
X150571428Y-162404819D01*
X151333333Y-162881009D02*
X151000000Y-162881009D01*
X151000000Y-163404819D02*
X151000000Y-162404819D01*
X151000000Y-162404819D02*
X151476190Y-162404819D01*
X152000000Y-162404819D02*
X152000000Y-162642914D01*
X151761905Y-162547676D02*
X152000000Y-162642914D01*
X152000000Y-162642914D02*
X152238095Y-162547676D01*
X151857143Y-162833390D02*
X152000000Y-162642914D01*
X152000000Y-162642914D02*
X152142857Y-162833390D01*
X152761905Y-162404819D02*
X152761905Y-162642914D01*
X152523810Y-162547676D02*
X152761905Y-162642914D01*
X152761905Y-162642914D02*
X153000000Y-162547676D01*
X152619048Y-162833390D02*
X152761905Y-162642914D01*
X152761905Y-162642914D02*
X152904762Y-162833390D01*
X135866666Y-58104819D02*
X135533333Y-57628628D01*
X135295238Y-58104819D02*
X135295238Y-57104819D01*
X135295238Y-57104819D02*
X135676190Y-57104819D01*
X135676190Y-57104819D02*
X135771428Y-57152438D01*
X135771428Y-57152438D02*
X135819047Y-57200057D01*
X135819047Y-57200057D02*
X135866666Y-57295295D01*
X135866666Y-57295295D02*
X135866666Y-57438152D01*
X135866666Y-57438152D02*
X135819047Y-57533390D01*
X135819047Y-57533390D02*
X135771428Y-57581009D01*
X135771428Y-57581009D02*
X135676190Y-57628628D01*
X135676190Y-57628628D02*
X135295238Y-57628628D01*
X136295238Y-57581009D02*
X136628571Y-57581009D01*
X136771428Y-58104819D02*
X136295238Y-58104819D01*
X136295238Y-58104819D02*
X136295238Y-57104819D01*
X136295238Y-57104819D02*
X136771428Y-57104819D01*
X137533333Y-57581009D02*
X137200000Y-57581009D01*
X137200000Y-58104819D02*
X137200000Y-57104819D01*
X137200000Y-57104819D02*
X137676190Y-57104819D01*
X138200000Y-57104819D02*
X138200000Y-57342914D01*
X137961905Y-57247676D02*
X138200000Y-57342914D01*
X138200000Y-57342914D02*
X138438095Y-57247676D01*
X138057143Y-57533390D02*
X138200000Y-57342914D01*
X138200000Y-57342914D02*
X138342857Y-57533390D01*
X138961905Y-57104819D02*
X138961905Y-57342914D01*
X138723810Y-57247676D02*
X138961905Y-57342914D01*
X138961905Y-57342914D02*
X139200000Y-57247676D01*
X138819048Y-57533390D02*
X138961905Y-57342914D01*
X138961905Y-57342914D02*
X139104762Y-57533390D01*
X125266666Y-157504819D02*
X124933333Y-157028628D01*
X124695238Y-157504819D02*
X124695238Y-156504819D01*
X124695238Y-156504819D02*
X125076190Y-156504819D01*
X125076190Y-156504819D02*
X125171428Y-156552438D01*
X125171428Y-156552438D02*
X125219047Y-156600057D01*
X125219047Y-156600057D02*
X125266666Y-156695295D01*
X125266666Y-156695295D02*
X125266666Y-156838152D01*
X125266666Y-156838152D02*
X125219047Y-156933390D01*
X125219047Y-156933390D02*
X125171428Y-156981009D01*
X125171428Y-156981009D02*
X125076190Y-157028628D01*
X125076190Y-157028628D02*
X124695238Y-157028628D01*
X125695238Y-156981009D02*
X126028571Y-156981009D01*
X126171428Y-157504819D02*
X125695238Y-157504819D01*
X125695238Y-157504819D02*
X125695238Y-156504819D01*
X125695238Y-156504819D02*
X126171428Y-156504819D01*
X126933333Y-156981009D02*
X126600000Y-156981009D01*
X126600000Y-157504819D02*
X126600000Y-156504819D01*
X126600000Y-156504819D02*
X127076190Y-156504819D01*
X127600000Y-156504819D02*
X127600000Y-156742914D01*
X127361905Y-156647676D02*
X127600000Y-156742914D01*
X127600000Y-156742914D02*
X127838095Y-156647676D01*
X127457143Y-156933390D02*
X127600000Y-156742914D01*
X127600000Y-156742914D02*
X127742857Y-156933390D01*
X128361905Y-156504819D02*
X128361905Y-156742914D01*
X128123810Y-156647676D02*
X128361905Y-156742914D01*
X128361905Y-156742914D02*
X128600000Y-156647676D01*
X128219048Y-156933390D02*
X128361905Y-156742914D01*
X128361905Y-156742914D02*
X128504762Y-156933390D01*
X158166666Y-195104819D02*
X157833333Y-194628628D01*
X157595238Y-195104819D02*
X157595238Y-194104819D01*
X157595238Y-194104819D02*
X157976190Y-194104819D01*
X157976190Y-194104819D02*
X158071428Y-194152438D01*
X158071428Y-194152438D02*
X158119047Y-194200057D01*
X158119047Y-194200057D02*
X158166666Y-194295295D01*
X158166666Y-194295295D02*
X158166666Y-194438152D01*
X158166666Y-194438152D02*
X158119047Y-194533390D01*
X158119047Y-194533390D02*
X158071428Y-194581009D01*
X158071428Y-194581009D02*
X157976190Y-194628628D01*
X157976190Y-194628628D02*
X157595238Y-194628628D01*
X158595238Y-194581009D02*
X158928571Y-194581009D01*
X159071428Y-195104819D02*
X158595238Y-195104819D01*
X158595238Y-195104819D02*
X158595238Y-194104819D01*
X158595238Y-194104819D02*
X159071428Y-194104819D01*
X159833333Y-194581009D02*
X159500000Y-194581009D01*
X159500000Y-195104819D02*
X159500000Y-194104819D01*
X159500000Y-194104819D02*
X159976190Y-194104819D01*
X160500000Y-194104819D02*
X160500000Y-194342914D01*
X160261905Y-194247676D02*
X160500000Y-194342914D01*
X160500000Y-194342914D02*
X160738095Y-194247676D01*
X160357143Y-194533390D02*
X160500000Y-194342914D01*
X160500000Y-194342914D02*
X160642857Y-194533390D01*
X161261905Y-194104819D02*
X161261905Y-194342914D01*
X161023810Y-194247676D02*
X161261905Y-194342914D01*
X161261905Y-194342914D02*
X161500000Y-194247676D01*
X161119048Y-194533390D02*
X161261905Y-194342914D01*
X161261905Y-194342914D02*
X161404762Y-194533390D01*
X91966666Y-179404819D02*
X91633333Y-178928628D01*
X91395238Y-179404819D02*
X91395238Y-178404819D01*
X91395238Y-178404819D02*
X91776190Y-178404819D01*
X91776190Y-178404819D02*
X91871428Y-178452438D01*
X91871428Y-178452438D02*
X91919047Y-178500057D01*
X91919047Y-178500057D02*
X91966666Y-178595295D01*
X91966666Y-178595295D02*
X91966666Y-178738152D01*
X91966666Y-178738152D02*
X91919047Y-178833390D01*
X91919047Y-178833390D02*
X91871428Y-178881009D01*
X91871428Y-178881009D02*
X91776190Y-178928628D01*
X91776190Y-178928628D02*
X91395238Y-178928628D01*
X92395238Y-178881009D02*
X92728571Y-178881009D01*
X92871428Y-179404819D02*
X92395238Y-179404819D01*
X92395238Y-179404819D02*
X92395238Y-178404819D01*
X92395238Y-178404819D02*
X92871428Y-178404819D01*
X93633333Y-178881009D02*
X93300000Y-178881009D01*
X93300000Y-179404819D02*
X93300000Y-178404819D01*
X93300000Y-178404819D02*
X93776190Y-178404819D01*
X94300000Y-178404819D02*
X94300000Y-178642914D01*
X94061905Y-178547676D02*
X94300000Y-178642914D01*
X94300000Y-178642914D02*
X94538095Y-178547676D01*
X94157143Y-178833390D02*
X94300000Y-178642914D01*
X94300000Y-178642914D02*
X94442857Y-178833390D01*
X95061905Y-178404819D02*
X95061905Y-178642914D01*
X94823810Y-178547676D02*
X95061905Y-178642914D01*
X95061905Y-178642914D02*
X95300000Y-178547676D01*
X94919048Y-178833390D02*
X95061905Y-178642914D01*
X95061905Y-178642914D02*
X95204762Y-178833390D01*
X135766666Y-119404819D02*
X135433333Y-118928628D01*
X135195238Y-119404819D02*
X135195238Y-118404819D01*
X135195238Y-118404819D02*
X135576190Y-118404819D01*
X135576190Y-118404819D02*
X135671428Y-118452438D01*
X135671428Y-118452438D02*
X135719047Y-118500057D01*
X135719047Y-118500057D02*
X135766666Y-118595295D01*
X135766666Y-118595295D02*
X135766666Y-118738152D01*
X135766666Y-118738152D02*
X135719047Y-118833390D01*
X135719047Y-118833390D02*
X135671428Y-118881009D01*
X135671428Y-118881009D02*
X135576190Y-118928628D01*
X135576190Y-118928628D02*
X135195238Y-118928628D01*
X136195238Y-118881009D02*
X136528571Y-118881009D01*
X136671428Y-119404819D02*
X136195238Y-119404819D01*
X136195238Y-119404819D02*
X136195238Y-118404819D01*
X136195238Y-118404819D02*
X136671428Y-118404819D01*
X137433333Y-118881009D02*
X137100000Y-118881009D01*
X137100000Y-119404819D02*
X137100000Y-118404819D01*
X137100000Y-118404819D02*
X137576190Y-118404819D01*
X138100000Y-118404819D02*
X138100000Y-118642914D01*
X137861905Y-118547676D02*
X138100000Y-118642914D01*
X138100000Y-118642914D02*
X138338095Y-118547676D01*
X137957143Y-118833390D02*
X138100000Y-118642914D01*
X138100000Y-118642914D02*
X138242857Y-118833390D01*
X138861905Y-118404819D02*
X138861905Y-118642914D01*
X138623810Y-118547676D02*
X138861905Y-118642914D01*
X138861905Y-118642914D02*
X139100000Y-118547676D01*
X138719048Y-118833390D02*
X138861905Y-118642914D01*
X138861905Y-118642914D02*
X139004762Y-118833390D01*
X230866666Y-61004819D02*
X230533333Y-60528628D01*
X230295238Y-61004819D02*
X230295238Y-60004819D01*
X230295238Y-60004819D02*
X230676190Y-60004819D01*
X230676190Y-60004819D02*
X230771428Y-60052438D01*
X230771428Y-60052438D02*
X230819047Y-60100057D01*
X230819047Y-60100057D02*
X230866666Y-60195295D01*
X230866666Y-60195295D02*
X230866666Y-60338152D01*
X230866666Y-60338152D02*
X230819047Y-60433390D01*
X230819047Y-60433390D02*
X230771428Y-60481009D01*
X230771428Y-60481009D02*
X230676190Y-60528628D01*
X230676190Y-60528628D02*
X230295238Y-60528628D01*
X231295238Y-60481009D02*
X231628571Y-60481009D01*
X231771428Y-61004819D02*
X231295238Y-61004819D01*
X231295238Y-61004819D02*
X231295238Y-60004819D01*
X231295238Y-60004819D02*
X231771428Y-60004819D01*
X232533333Y-60481009D02*
X232200000Y-60481009D01*
X232200000Y-61004819D02*
X232200000Y-60004819D01*
X232200000Y-60004819D02*
X232676190Y-60004819D01*
X233200000Y-60004819D02*
X233200000Y-60242914D01*
X232961905Y-60147676D02*
X233200000Y-60242914D01*
X233200000Y-60242914D02*
X233438095Y-60147676D01*
X233057143Y-60433390D02*
X233200000Y-60242914D01*
X233200000Y-60242914D02*
X233342857Y-60433390D01*
X233961905Y-60004819D02*
X233961905Y-60242914D01*
X233723810Y-60147676D02*
X233961905Y-60242914D01*
X233961905Y-60242914D02*
X234200000Y-60147676D01*
X233819048Y-60433390D02*
X233961905Y-60242914D01*
X233961905Y-60242914D02*
X234104762Y-60433390D01*
X191066666Y-95304819D02*
X190733333Y-94828628D01*
X190495238Y-95304819D02*
X190495238Y-94304819D01*
X190495238Y-94304819D02*
X190876190Y-94304819D01*
X190876190Y-94304819D02*
X190971428Y-94352438D01*
X190971428Y-94352438D02*
X191019047Y-94400057D01*
X191019047Y-94400057D02*
X191066666Y-94495295D01*
X191066666Y-94495295D02*
X191066666Y-94638152D01*
X191066666Y-94638152D02*
X191019047Y-94733390D01*
X191019047Y-94733390D02*
X190971428Y-94781009D01*
X190971428Y-94781009D02*
X190876190Y-94828628D01*
X190876190Y-94828628D02*
X190495238Y-94828628D01*
X191495238Y-94781009D02*
X191828571Y-94781009D01*
X191971428Y-95304819D02*
X191495238Y-95304819D01*
X191495238Y-95304819D02*
X191495238Y-94304819D01*
X191495238Y-94304819D02*
X191971428Y-94304819D01*
X192733333Y-94781009D02*
X192400000Y-94781009D01*
X192400000Y-95304819D02*
X192400000Y-94304819D01*
X192400000Y-94304819D02*
X192876190Y-94304819D01*
X193400000Y-94304819D02*
X193400000Y-94542914D01*
X193161905Y-94447676D02*
X193400000Y-94542914D01*
X193400000Y-94542914D02*
X193638095Y-94447676D01*
X193257143Y-94733390D02*
X193400000Y-94542914D01*
X193400000Y-94542914D02*
X193542857Y-94733390D01*
X194161905Y-94304819D02*
X194161905Y-94542914D01*
X193923810Y-94447676D02*
X194161905Y-94542914D01*
X194161905Y-94542914D02*
X194400000Y-94447676D01*
X194019048Y-94733390D02*
X194161905Y-94542914D01*
X194161905Y-94542914D02*
X194304762Y-94733390D01*
X229166666Y-121904819D02*
X228833333Y-121428628D01*
X228595238Y-121904819D02*
X228595238Y-120904819D01*
X228595238Y-120904819D02*
X228976190Y-120904819D01*
X228976190Y-120904819D02*
X229071428Y-120952438D01*
X229071428Y-120952438D02*
X229119047Y-121000057D01*
X229119047Y-121000057D02*
X229166666Y-121095295D01*
X229166666Y-121095295D02*
X229166666Y-121238152D01*
X229166666Y-121238152D02*
X229119047Y-121333390D01*
X229119047Y-121333390D02*
X229071428Y-121381009D01*
X229071428Y-121381009D02*
X228976190Y-121428628D01*
X228976190Y-121428628D02*
X228595238Y-121428628D01*
X229595238Y-121381009D02*
X229928571Y-121381009D01*
X230071428Y-121904819D02*
X229595238Y-121904819D01*
X229595238Y-121904819D02*
X229595238Y-120904819D01*
X229595238Y-120904819D02*
X230071428Y-120904819D01*
X230833333Y-121381009D02*
X230500000Y-121381009D01*
X230500000Y-121904819D02*
X230500000Y-120904819D01*
X230500000Y-120904819D02*
X230976190Y-120904819D01*
X231500000Y-120904819D02*
X231500000Y-121142914D01*
X231261905Y-121047676D02*
X231500000Y-121142914D01*
X231500000Y-121142914D02*
X231738095Y-121047676D01*
X231357143Y-121333390D02*
X231500000Y-121142914D01*
X231500000Y-121142914D02*
X231642857Y-121333390D01*
X232261905Y-120904819D02*
X232261905Y-121142914D01*
X232023810Y-121047676D02*
X232261905Y-121142914D01*
X232261905Y-121142914D02*
X232500000Y-121047676D01*
X232119048Y-121333390D02*
X232261905Y-121142914D01*
X232261905Y-121142914D02*
X232404762Y-121333390D01*
X274066666Y-158904819D02*
X273733333Y-158428628D01*
X273495238Y-158904819D02*
X273495238Y-157904819D01*
X273495238Y-157904819D02*
X273876190Y-157904819D01*
X273876190Y-157904819D02*
X273971428Y-157952438D01*
X273971428Y-157952438D02*
X274019047Y-158000057D01*
X274019047Y-158000057D02*
X274066666Y-158095295D01*
X274066666Y-158095295D02*
X274066666Y-158238152D01*
X274066666Y-158238152D02*
X274019047Y-158333390D01*
X274019047Y-158333390D02*
X273971428Y-158381009D01*
X273971428Y-158381009D02*
X273876190Y-158428628D01*
X273876190Y-158428628D02*
X273495238Y-158428628D01*
X274495238Y-158381009D02*
X274828571Y-158381009D01*
X274971428Y-158904819D02*
X274495238Y-158904819D01*
X274495238Y-158904819D02*
X274495238Y-157904819D01*
X274495238Y-157904819D02*
X274971428Y-157904819D01*
X275733333Y-158381009D02*
X275400000Y-158381009D01*
X275400000Y-158904819D02*
X275400000Y-157904819D01*
X275400000Y-157904819D02*
X275876190Y-157904819D01*
X276400000Y-157904819D02*
X276400000Y-158142914D01*
X276161905Y-158047676D02*
X276400000Y-158142914D01*
X276400000Y-158142914D02*
X276638095Y-158047676D01*
X276257143Y-158333390D02*
X276400000Y-158142914D01*
X276400000Y-158142914D02*
X276542857Y-158333390D01*
X277161905Y-157904819D02*
X277161905Y-158142914D01*
X276923810Y-158047676D02*
X277161905Y-158142914D01*
X277161905Y-158142914D02*
X277400000Y-158047676D01*
X277019048Y-158333390D02*
X277161905Y-158142914D01*
X277161905Y-158142914D02*
X277304762Y-158333390D01*
X191466666Y-133604819D02*
X191133333Y-133128628D01*
X190895238Y-133604819D02*
X190895238Y-132604819D01*
X190895238Y-132604819D02*
X191276190Y-132604819D01*
X191276190Y-132604819D02*
X191371428Y-132652438D01*
X191371428Y-132652438D02*
X191419047Y-132700057D01*
X191419047Y-132700057D02*
X191466666Y-132795295D01*
X191466666Y-132795295D02*
X191466666Y-132938152D01*
X191466666Y-132938152D02*
X191419047Y-133033390D01*
X191419047Y-133033390D02*
X191371428Y-133081009D01*
X191371428Y-133081009D02*
X191276190Y-133128628D01*
X191276190Y-133128628D02*
X190895238Y-133128628D01*
X191895238Y-133081009D02*
X192228571Y-133081009D01*
X192371428Y-133604819D02*
X191895238Y-133604819D01*
X191895238Y-133604819D02*
X191895238Y-132604819D01*
X191895238Y-132604819D02*
X192371428Y-132604819D01*
X193133333Y-133081009D02*
X192800000Y-133081009D01*
X192800000Y-133604819D02*
X192800000Y-132604819D01*
X192800000Y-132604819D02*
X193276190Y-132604819D01*
X193800000Y-132604819D02*
X193800000Y-132842914D01*
X193561905Y-132747676D02*
X193800000Y-132842914D01*
X193800000Y-132842914D02*
X194038095Y-132747676D01*
X193657143Y-133033390D02*
X193800000Y-132842914D01*
X193800000Y-132842914D02*
X193942857Y-133033390D01*
X194561905Y-132604819D02*
X194561905Y-132842914D01*
X194323810Y-132747676D02*
X194561905Y-132842914D01*
X194561905Y-132842914D02*
X194800000Y-132747676D01*
X194419048Y-133033390D02*
X194561905Y-132842914D01*
X194561905Y-132842914D02*
X194704762Y-133033390D01*
D11*
X195735000Y-65045000D02*
X209705000Y-65045000D01*
X195735000Y-79015000D02*
X195735000Y-65045000D01*
X209705000Y-65045000D02*
X209705000Y-79015000D01*
X209705000Y-79015000D02*
X195735000Y-79015000D01*
X176695000Y-119695000D02*
X190665000Y-119695000D01*
X176695000Y-133665000D02*
X176695000Y-119695000D01*
X190665000Y-119695000D02*
X190665000Y-133665000D01*
X190665000Y-133665000D02*
X176695000Y-133665000D01*
X195735000Y-122195000D02*
X209705000Y-122195000D01*
X195735000Y-136165000D02*
X195735000Y-122195000D01*
X209705000Y-122195000D02*
X209705000Y-136165000D01*
X209705000Y-136165000D02*
X195735000Y-136165000D01*
X214845000Y-127205000D02*
X228815000Y-127205000D01*
X214845000Y-141175000D02*
X214845000Y-127205000D01*
X228815000Y-127205000D02*
X228815000Y-141175000D01*
X228815000Y-141175000D02*
X214845000Y-141175000D01*
X252925000Y-148735000D02*
X266895000Y-148735000D01*
X252925000Y-162705000D02*
X252925000Y-148735000D01*
X266895000Y-148735000D02*
X266895000Y-162705000D01*
X266895000Y-162705000D02*
X252925000Y-162705000D01*
X214845000Y-146255000D02*
X228815000Y-146255000D01*
X214845000Y-160225000D02*
X214845000Y-146255000D01*
X228815000Y-146255000D02*
X228815000Y-160225000D01*
X228815000Y-160225000D02*
X214845000Y-160225000D01*
X195735000Y-141245000D02*
X209705000Y-141245000D01*
X195735000Y-155215000D02*
X195735000Y-141245000D01*
X209705000Y-141245000D02*
X209705000Y-155215000D01*
X209705000Y-155215000D02*
X195735000Y-155215000D01*
X258205000Y-91595000D02*
X272175000Y-91595000D01*
X258205000Y-105565000D02*
X258205000Y-91595000D01*
X272175000Y-91595000D02*
X272175000Y-105565000D01*
X272175000Y-105565000D02*
X258205000Y-105565000D01*
X130447280Y-181523597D02*
X135225301Y-194651103D01*
X117319774Y-186301619D02*
X130447280Y-181523597D01*
X135225301Y-194651103D02*
X122097795Y-199429125D01*
X122097795Y-199429125D02*
X117319774Y-186301619D01*
X107587879Y-159437627D02*
X120715385Y-154659606D01*
X112365901Y-172565133D02*
X107587879Y-159437627D01*
X120715385Y-154659606D02*
X125493407Y-167787112D01*
X125493407Y-167787112D02*
X112365901Y-172565133D01*
X258205000Y-72545000D02*
X272175000Y-72545000D01*
X258205000Y-86515000D02*
X258205000Y-72545000D01*
X272175000Y-72545000D02*
X272175000Y-86515000D01*
X272175000Y-86515000D02*
X258205000Y-86515000D01*
X138635000Y-105655000D02*
X152605000Y-105655000D01*
X138635000Y-119625000D02*
X138635000Y-105655000D01*
X152605000Y-105655000D02*
X152605000Y-119625000D01*
X152605000Y-119625000D02*
X138635000Y-119625000D01*
X258205000Y-110645000D02*
X272175000Y-110645000D01*
X258205000Y-124615000D02*
X258205000Y-110645000D01*
X272175000Y-110645000D02*
X272175000Y-124615000D01*
X272175000Y-124615000D02*
X258205000Y-124615000D01*
X176695000Y-62545000D02*
X190665000Y-62545000D01*
X176695000Y-76515000D02*
X176695000Y-62545000D01*
X190665000Y-62545000D02*
X190665000Y-76515000D01*
X190665000Y-76515000D02*
X176695000Y-76515000D01*
X102673597Y-201782720D02*
X115801103Y-197004699D01*
X107451619Y-214910226D02*
X102673597Y-201782720D01*
X115801103Y-197004699D02*
X120579125Y-210132205D01*
X120579125Y-210132205D02*
X107451619Y-214910226D01*
X214845000Y-108155000D02*
X228815000Y-108155000D01*
X214845000Y-122125000D02*
X214845000Y-108155000D01*
X228815000Y-108155000D02*
X228815000Y-122125000D01*
X228815000Y-122125000D02*
X214845000Y-122125000D01*
X148384743Y-174977236D02*
X153162764Y-188104742D01*
X135257237Y-179755258D02*
X148384743Y-174977236D01*
X153162764Y-188104742D02*
X140035258Y-192882764D01*
X140035258Y-192882764D02*
X135257237Y-179755258D01*
X157675000Y-122205000D02*
X171645000Y-122205000D01*
X157675000Y-136175000D02*
X157675000Y-122205000D01*
X171645000Y-122205000D02*
X171645000Y-136175000D01*
X171645000Y-136175000D02*
X157675000Y-136175000D01*
X138635000Y-86605000D02*
X152605000Y-86605000D01*
X138635000Y-100575000D02*
X138635000Y-86605000D01*
X152605000Y-86605000D02*
X152605000Y-100575000D01*
X152605000Y-100575000D02*
X138635000Y-100575000D01*
X138635000Y-67555000D02*
X152605000Y-67555000D01*
X138635000Y-81525000D02*
X138635000Y-67555000D01*
X152605000Y-67555000D02*
X152605000Y-81525000D01*
X152605000Y-81525000D02*
X138635000Y-81525000D01*
X157675000Y-103155000D02*
X171645000Y-103155000D01*
X157675000Y-117125000D02*
X157675000Y-103155000D01*
X171645000Y-103155000D02*
X171645000Y-117125000D01*
X171645000Y-117125000D02*
X157675000Y-117125000D01*
X89697879Y-165957627D02*
X102825385Y-161179606D01*
X94475901Y-179085133D02*
X89697879Y-165957627D01*
X102825385Y-161179606D02*
X107603407Y-174307112D01*
X107603407Y-174307112D02*
X94475901Y-179085133D01*
X176695000Y-138745000D02*
X190665000Y-138745000D01*
X176695000Y-152715000D02*
X176695000Y-138745000D01*
X190665000Y-138745000D02*
X190665000Y-152715000D01*
X190665000Y-152715000D02*
X176695000Y-152715000D01*
X214845000Y-89105000D02*
X228815000Y-89105000D01*
X214845000Y-103075000D02*
X214845000Y-89105000D01*
X228815000Y-89105000D02*
X228815000Y-103075000D01*
X228815000Y-103075000D02*
X214845000Y-103075000D01*
X157675000Y-84105000D02*
X171645000Y-84105000D01*
X157675000Y-98075000D02*
X157675000Y-84105000D01*
X171645000Y-84105000D02*
X171645000Y-98075000D01*
X171645000Y-98075000D02*
X157675000Y-98075000D01*
X233885000Y-129685000D02*
X247855000Y-129685000D01*
X233885000Y-143655000D02*
X233885000Y-129685000D01*
X247855000Y-129685000D02*
X247855000Y-143655000D01*
X247855000Y-143655000D02*
X233885000Y-143655000D01*
X195735000Y-103145000D02*
X209705000Y-103145000D01*
X195735000Y-117115000D02*
X195735000Y-103145000D01*
X209705000Y-103145000D02*
X209705000Y-117115000D01*
X209705000Y-117115000D02*
X195735000Y-117115000D01*
X233885000Y-72535000D02*
X247855000Y-72535000D01*
X233885000Y-86505000D02*
X233885000Y-72535000D01*
X247855000Y-72535000D02*
X247855000Y-86505000D01*
X247855000Y-86505000D02*
X233885000Y-86505000D01*
X195735000Y-84095000D02*
X209705000Y-84095000D01*
X195735000Y-98065000D02*
X195735000Y-84095000D01*
X209705000Y-84095000D02*
X209705000Y-98065000D01*
X209705000Y-98065000D02*
X195735000Y-98065000D01*
X233885000Y-110635000D02*
X247855000Y-110635000D01*
X233885000Y-124605000D02*
X233885000Y-110635000D01*
X247855000Y-110635000D02*
X247855000Y-124605000D01*
X247855000Y-124605000D02*
X233885000Y-124605000D01*
X138635000Y-124705000D02*
X152605000Y-124705000D01*
X138635000Y-138675000D02*
X138635000Y-124705000D01*
X152605000Y-124705000D02*
X152605000Y-138675000D01*
X152605000Y-138675000D02*
X138635000Y-138675000D01*
X233885000Y-148735000D02*
X247855000Y-148735000D01*
X233885000Y-162705000D02*
X233885000Y-148735000D01*
X247855000Y-148735000D02*
X247855000Y-162705000D01*
X247855000Y-162705000D02*
X233885000Y-162705000D01*
X96167879Y-183857627D02*
X109295385Y-179079606D01*
X100945901Y-196985133D02*
X96167879Y-183857627D01*
X109295385Y-179079606D02*
X114073407Y-192207112D01*
X114073407Y-192207112D02*
X100945901Y-196985133D01*
X176695000Y-100645000D02*
X190665000Y-100645000D01*
X176695000Y-114615000D02*
X176695000Y-100645000D01*
X190665000Y-100645000D02*
X190665000Y-114615000D01*
X190665000Y-114615000D02*
X176695000Y-114615000D01*
X176695000Y-81595000D02*
X190665000Y-81595000D01*
X176695000Y-95565000D02*
X176695000Y-81595000D01*
X190665000Y-81595000D02*
X190665000Y-95565000D01*
X190665000Y-95565000D02*
X176695000Y-95565000D01*
X214835000Y-70055000D02*
X228805000Y-70055000D01*
X214835000Y-84025000D02*
X214835000Y-70055000D01*
X228805000Y-70055000D02*
X228805000Y-84025000D01*
X228805000Y-84025000D02*
X214835000Y-84025000D01*
X157675000Y-65055000D02*
X171645000Y-65055000D01*
X157675000Y-79025000D02*
X157675000Y-65055000D01*
X171645000Y-65055000D02*
X171645000Y-79025000D01*
X171645000Y-79025000D02*
X157675000Y-79025000D01*
X233885000Y-91585000D02*
X247855000Y-91585000D01*
X233885000Y-105555000D02*
X233885000Y-91585000D01*
X247855000Y-91585000D02*
X247855000Y-105555000D01*
X247855000Y-105555000D02*
X233885000Y-105555000D01*
X258205000Y-129695000D02*
X272175000Y-129695000D01*
X258205000Y-143665000D02*
X258205000Y-129695000D01*
X272175000Y-129695000D02*
X272175000Y-143665000D01*
X272175000Y-143665000D02*
X258205000Y-143665000D01*
X138635000Y-143755000D02*
X152605000Y-143755000D01*
X138635000Y-157725000D02*
X138635000Y-143755000D01*
X152605000Y-143755000D02*
X152605000Y-157725000D01*
X152605000Y-157725000D02*
X138635000Y-157725000D01*
X157675000Y-141255000D02*
X171645000Y-141255000D01*
X157675000Y-155225000D02*
X157675000Y-141255000D01*
X171645000Y-141255000D02*
X171645000Y-155225000D01*
X171645000Y-155225000D02*
X157675000Y-155225000D01*
%LPC*%
D12*
X276100000Y-89100000D03*
D13*
X197640000Y-72030000D03*
D14*
X202720000Y-72030000D03*
D13*
X207800000Y-72030000D03*
D15*
X205260000Y-66950000D03*
X198910000Y-69490000D03*
D13*
X178600000Y-126680000D03*
D14*
X183680000Y-126680000D03*
D13*
X188760000Y-126680000D03*
D15*
X186220000Y-121600000D03*
X179870000Y-124140000D03*
D16*
X265895000Y-62020000D03*
D13*
X197640000Y-129180000D03*
D14*
X202720000Y-129180000D03*
D13*
X207800000Y-129180000D03*
D15*
X205260000Y-124100000D03*
X198910000Y-126640000D03*
D13*
X216750000Y-134190000D03*
D14*
X221830000Y-134190000D03*
D13*
X226910000Y-134190000D03*
D15*
X224370000Y-129110000D03*
X218020000Y-131650000D03*
D13*
X254830000Y-155720000D03*
D14*
X259910000Y-155720000D03*
D13*
X264990000Y-155720000D03*
D15*
X262450000Y-150640000D03*
X256100000Y-153180000D03*
D12*
X151000000Y-166300000D03*
D13*
X216750000Y-153240000D03*
D14*
X221830000Y-153240000D03*
D13*
X226910000Y-153240000D03*
D15*
X224370000Y-148160000D03*
X218020000Y-150700000D03*
D13*
X197640000Y-148230000D03*
D14*
X202720000Y-148230000D03*
D13*
X207800000Y-148230000D03*
D15*
X205260000Y-143150000D03*
X198910000Y-145690000D03*
D13*
X260110000Y-98580000D03*
D14*
X265190000Y-98580000D03*
D13*
X270270000Y-98580000D03*
D15*
X267730000Y-93500000D03*
X261380000Y-96040000D03*
D17*
X128780346Y-176899878D03*
D14*
X114459430Y-182112265D03*
D13*
X124535075Y-185702723D03*
D14*
X126272537Y-190476361D03*
D13*
X128010000Y-195250000D03*
D17*
X136920425Y-199264562D03*
D14*
X122599510Y-204476949D03*
D15*
X131914907Y-191125718D03*
X127356260Y-186027401D03*
D16*
X275420000Y-62020000D03*
D13*
X111767005Y-165349832D03*
D14*
X116540643Y-163612370D03*
D13*
X121314282Y-161874907D03*
D15*
X117190000Y-157970000D03*
X112091683Y-162528647D03*
D12*
X137200000Y-61000000D03*
D13*
X260110000Y-79530000D03*
D14*
X265190000Y-79530000D03*
D13*
X270270000Y-79530000D03*
D15*
X267730000Y-74450000D03*
X261380000Y-76990000D03*
D12*
X126600000Y-160400000D03*
D16*
X256370000Y-62020000D03*
X246845000Y-62020000D03*
D13*
X140540000Y-112640000D03*
D14*
X145620000Y-112640000D03*
D13*
X150700000Y-112640000D03*
D15*
X148160000Y-107560000D03*
X141810000Y-110100000D03*
D12*
X159500000Y-198000000D03*
D13*
X260110000Y-117630000D03*
D14*
X265190000Y-117630000D03*
D13*
X270270000Y-117630000D03*
D15*
X267730000Y-112550000D03*
X261380000Y-115090000D03*
D13*
X178600000Y-69530000D03*
D14*
X183680000Y-69530000D03*
D13*
X188760000Y-69530000D03*
D15*
X186220000Y-64450000D03*
X179870000Y-66990000D03*
D12*
X93300000Y-182300000D03*
X137100000Y-122300000D03*
D13*
X106852723Y-207694925D03*
D14*
X111626361Y-205957463D03*
D13*
X116400000Y-204220000D03*
D15*
X112275718Y-200315093D03*
X107177401Y-204873740D03*
D13*
X216750000Y-115140000D03*
D14*
X221830000Y-115140000D03*
D13*
X226910000Y-115140000D03*
D15*
X224370000Y-110060000D03*
X218020000Y-112600000D03*
D17*
X146717809Y-170353517D03*
D14*
X132396893Y-175565904D03*
D13*
X142472538Y-179156362D03*
D14*
X144210000Y-183930000D03*
D13*
X145947463Y-188703639D03*
D17*
X154857888Y-192718201D03*
D14*
X140536973Y-197930588D03*
D15*
X149852370Y-184579357D03*
X145293723Y-179481040D03*
D12*
X232200000Y-63900000D03*
D13*
X159580000Y-129190000D03*
D14*
X164660000Y-129190000D03*
D13*
X169740000Y-129190000D03*
D15*
X167200000Y-124110000D03*
X160850000Y-126650000D03*
D13*
X140540000Y-93590000D03*
D14*
X145620000Y-93590000D03*
D13*
X150700000Y-93590000D03*
D15*
X148160000Y-88510000D03*
X141810000Y-91050000D03*
D13*
X140540000Y-74540000D03*
D14*
X145620000Y-74540000D03*
D13*
X150700000Y-74540000D03*
D15*
X148160000Y-69460000D03*
X141810000Y-72000000D03*
D13*
X159580000Y-110140000D03*
D14*
X164660000Y-110140000D03*
D13*
X169740000Y-110140000D03*
D15*
X167200000Y-105060000D03*
X160850000Y-107600000D03*
D13*
X93877005Y-171869832D03*
D14*
X98650643Y-170132370D03*
D13*
X103424282Y-168394907D03*
D15*
X99300000Y-164490000D03*
X94201683Y-169048647D03*
D13*
X178600000Y-145730000D03*
D14*
X183680000Y-145730000D03*
D13*
X188760000Y-145730000D03*
D15*
X186220000Y-140650000D03*
X179870000Y-143190000D03*
D12*
X192400000Y-98200000D03*
D13*
X216750000Y-96090000D03*
D14*
X221830000Y-96090000D03*
D13*
X226910000Y-96090000D03*
D15*
X224370000Y-91010000D03*
X218020000Y-93550000D03*
D13*
X159580000Y-91090000D03*
D14*
X164660000Y-91090000D03*
D13*
X169740000Y-91090000D03*
D15*
X167200000Y-86010000D03*
X160850000Y-88550000D03*
D13*
X235790000Y-136670000D03*
D14*
X240870000Y-136670000D03*
D13*
X245950000Y-136670000D03*
D15*
X243410000Y-131590000D03*
X237060000Y-134130000D03*
D13*
X197640000Y-110130000D03*
D14*
X202720000Y-110130000D03*
D13*
X207800000Y-110130000D03*
D15*
X205260000Y-105050000D03*
X198910000Y-107590000D03*
D13*
X235790000Y-79520000D03*
D14*
X240870000Y-79520000D03*
D13*
X245950000Y-79520000D03*
D15*
X243410000Y-74440000D03*
X237060000Y-76980000D03*
D12*
X230500000Y-124800000D03*
D13*
X197640000Y-91080000D03*
D14*
X202720000Y-91080000D03*
D13*
X207800000Y-91080000D03*
D15*
X205260000Y-86000000D03*
X198910000Y-88540000D03*
D13*
X235790000Y-117620000D03*
D14*
X240870000Y-117620000D03*
D13*
X245950000Y-117620000D03*
D15*
X243410000Y-112540000D03*
X237060000Y-115080000D03*
D13*
X140540000Y-131690000D03*
D14*
X145620000Y-131690000D03*
D13*
X150700000Y-131690000D03*
D15*
X148160000Y-126610000D03*
X141810000Y-129150000D03*
D13*
X235790000Y-155720000D03*
D14*
X240870000Y-155720000D03*
D13*
X245950000Y-155720000D03*
D15*
X243410000Y-150640000D03*
X237060000Y-153180000D03*
D12*
X275400000Y-161800000D03*
D13*
X100347005Y-189769832D03*
D14*
X105120643Y-188032370D03*
D13*
X109894282Y-186294907D03*
D15*
X105770000Y-182390000D03*
X100671683Y-186948647D03*
D13*
X178600000Y-107630000D03*
D14*
X183680000Y-107630000D03*
D13*
X188760000Y-107630000D03*
D15*
X186220000Y-102550000D03*
X179870000Y-105090000D03*
D13*
X178600000Y-88580000D03*
D14*
X183680000Y-88580000D03*
D13*
X188760000Y-88580000D03*
D15*
X186220000Y-83500000D03*
X179870000Y-86040000D03*
D13*
X216740000Y-77040000D03*
D14*
X221820000Y-77040000D03*
D13*
X226900000Y-77040000D03*
D15*
X224360000Y-71960000D03*
X218010000Y-74500000D03*
D13*
X159580000Y-72040000D03*
D14*
X164660000Y-72040000D03*
D13*
X169740000Y-72040000D03*
D15*
X167200000Y-66960000D03*
X160850000Y-69500000D03*
D13*
X235790000Y-98570000D03*
D14*
X240870000Y-98570000D03*
D13*
X245950000Y-98570000D03*
D15*
X243410000Y-93490000D03*
X237060000Y-96030000D03*
D13*
X260110000Y-136680000D03*
D14*
X265190000Y-136680000D03*
D13*
X270270000Y-136680000D03*
D15*
X267730000Y-131600000D03*
X261380000Y-134140000D03*
D13*
X140540000Y-150740000D03*
D14*
X145620000Y-150740000D03*
D13*
X150700000Y-150740000D03*
D15*
X148160000Y-145660000D03*
X141810000Y-148200000D03*
D12*
X192800000Y-136500000D03*
D13*
X159580000Y-148240000D03*
D14*
X164660000Y-148240000D03*
D13*
X169740000Y-148240000D03*
D15*
X167200000Y-143160000D03*
X160850000Y-145700000D03*
D16*
X132420000Y-151410000D03*
X126310000Y-153450000D03*
D18*
X135525000Y-82100000D03*
X142525000Y-82100000D03*
D19*
X142870000Y-62400000D03*
X148650000Y-62400000D03*
D20*
X141440000Y-58720000D03*
D21*
X141440000Y-62920000D03*
D20*
X150080000Y-58720000D03*
D21*
X150080000Y-62920000D03*
%LPD*%
M02*
