M48
; DRILL file {KiCad 7.0.5} date Wed Jan  8 21:55:04 2025
; FORMAT={-:-/ absolute / metric / decimal}
; #@! TF.CreationDate,2025-01-08T21:55:04-05:00
; #@! TF.GenerationSoftware,Kicad,Pcbnew,7.0.5
; #@! TF.FileFunction,NonPlated,1,2,NPTH
FMAT,2
METRIC
; #@! TA.AperFunction,NonPlated,NPTH,ComponentDrill
T1C0.650
; #@! TA.AperFunction,NonPlated,NPTH,ComponentDrill
T2C1.500
; #@! TA.AperFunction,NonPlated,NPTH,ComponentDrill
T3C1.700
; #@! TA.AperFunction,NonPlated,NPTH,ComponentDrill
T4C2.700
; #@! TA.AperFunction,NonPlated,NPTH,ComponentDrill
T5C3.050
; #@! TA.AperFunction,NonPlated,NPTH,ComponentDrill
T6C4.000
%
G90
G05
T1
X142.87Y-62.4
X148.65Y-62.4
T2
X135.525Y-82.1
X142.525Y-82.1
T3
X93.877Y-171.87
X100.347Y-189.77
X103.424Y-168.395
X106.853Y-207.695
X109.894Y-186.295
X111.767Y-165.35
X116.4Y-204.22
X121.314Y-161.875
X124.535Y-185.703
X128.01Y-195.25
X140.54Y-74.54
X140.54Y-93.59
X140.54Y-112.64
X140.54Y-131.69
X140.54Y-150.74
X142.473Y-179.156
X145.947Y-188.704
X150.7Y-74.54
X150.7Y-93.59
X150.7Y-112.64
X150.7Y-131.69
X150.7Y-150.74
X159.58Y-72.04
X159.58Y-91.09
X159.58Y-110.14
X159.58Y-129.19
X159.58Y-148.24
X169.74Y-72.04
X169.74Y-91.09
X169.74Y-110.14
X169.74Y-129.19
X169.74Y-148.24
X178.6Y-69.53
X178.6Y-88.58
X178.6Y-107.63
X178.6Y-126.68
X178.6Y-145.73
X188.76Y-69.53
X188.76Y-88.58
X188.76Y-107.63
X188.76Y-126.68
X188.76Y-145.73
X197.64Y-72.03
X197.64Y-91.08
X197.64Y-110.13
X197.64Y-129.18
X197.64Y-148.23
X207.8Y-72.03
X207.8Y-91.08
X207.8Y-110.13
X207.8Y-129.18
X207.8Y-148.23
X216.74Y-77.04
X216.75Y-96.09
X216.75Y-115.14
X216.75Y-134.19
X216.75Y-153.24
X226.9Y-77.04
X226.91Y-96.09
X226.91Y-115.14
X226.91Y-134.19
X226.91Y-153.24
X235.79Y-79.52
X235.79Y-98.57
X235.79Y-117.62
X235.79Y-136.67
X235.79Y-155.72
X245.95Y-79.52
X245.95Y-98.57
X245.95Y-117.62
X245.95Y-136.67
X245.95Y-155.72
X254.83Y-155.72
X260.11Y-79.53
X260.11Y-98.58
X260.11Y-117.63
X260.11Y-136.68
X264.99Y-155.72
X270.27Y-79.53
X270.27Y-98.58
X270.27Y-117.63
X270.27Y-136.68
T4
X93.3Y-182.3
X126.6Y-160.4
X137.1Y-122.3
X137.2Y-61.0
X151.0Y-166.3
X159.5Y-198.0
X192.4Y-98.2
X192.8Y-136.5
X230.5Y-124.8
X232.2Y-63.9
X275.4Y-161.8
X276.1Y-89.1
T5
X128.78Y-176.9
X136.92Y-199.265
X146.718Y-170.354
X154.858Y-192.718
T6
X98.651Y-170.132
X105.121Y-188.032
X111.626Y-205.957
X114.459Y-182.112
X116.541Y-163.612
X122.6Y-204.477
X126.273Y-190.476
X132.397Y-175.566
X140.537Y-197.931
X144.21Y-183.93
X145.62Y-74.54
X145.62Y-93.59
X145.62Y-112.64
X145.62Y-131.69
X145.62Y-150.74
X164.66Y-72.04
X164.66Y-91.09
X164.66Y-110.14
X164.66Y-129.19
X164.66Y-148.24
X183.68Y-69.53
X183.68Y-88.58
X183.68Y-107.63
X183.68Y-126.68
X183.68Y-145.73
X202.72Y-72.03
X202.72Y-91.08
X202.72Y-110.13
X202.72Y-129.18
X202.72Y-148.23
X221.82Y-77.04
X221.83Y-96.09
X221.83Y-115.14
X221.83Y-134.19
X221.83Y-153.24
X240.87Y-79.52
X240.87Y-98.57
X240.87Y-117.62
X240.87Y-136.67
X240.87Y-155.72
X259.91Y-155.72
X265.19Y-79.53
X265.19Y-98.58
X265.19Y-117.63
X265.19Y-136.68
T0
M30
