G04 #@! TF.GenerationSoftware,KiCad,Pcbnew,7.0.5*
G04 #@! TF.CreationDate,2025-01-08T21:54:48-05:00*
G04 #@! TF.ProjectId,JasonSplitErgoKeyboard_Right,4a61736f-6e53-4706-9c69-744572676f4b,rev?*
G04 #@! TF.SameCoordinates,Original*
G04 #@! TF.FileFunction,Copper,L2,Bot*
G04 #@! TF.FilePolarity,Positive*
%FSLAX46Y46*%
G04 Gerber Fmt 4.6, Leading zero omitted, Abs format (unit mm)*
G04 Created by KiCad (PCBNEW 7.0.5) date 2025-01-08 21:54:48*
%MOMM*%
%LPD*%
G01*
G04 APERTURE LIST*
G04 Aperture macros list*
%AMRoundRect*
0 Rectangle with rounded corners*
0 $1 Rounding radius*
0 $2 $3 $4 $5 $6 $7 $8 $9 X,Y pos of 4 corners*
0 Add a 4 corners polygon primitive as box body*
4,1,4,$2,$3,$4,$5,$6,$7,$8,$9,$2,$3,0*
0 Add four circle primitives for the rounded corners*
1,1,$1+$1,$2,$3*
1,1,$1+$1,$4,$5*
1,1,$1+$1,$6,$7*
1,1,$1+$1,$8,$9*
0 Add four rect primitives between the rounded corners*
20,1,$1+$1,$2,$3,$4,$5,0*
20,1,$1+$1,$4,$5,$6,$7,0*
20,1,$1+$1,$6,$7,$8,$9,0*
20,1,$1+$1,$8,$9,$2,$3,0*%
G04 Aperture macros list end*
G04 #@! TA.AperFunction,ComponentPad*
%ADD10C,2.200000*%
G04 #@! TD*
G04 #@! TA.AperFunction,ComponentPad*
%ADD11C,3.800000*%
G04 #@! TD*
G04 #@! TA.AperFunction,SMDPad,CuDef*
%ADD12RoundRect,0.112500X-0.137715X-0.169844X0.214670X-0.041587X0.137715X0.169844X-0.214670X0.041587X0*%
G04 #@! TD*
G04 #@! TA.AperFunction,SMDPad,CuDef*
%ADD13RoundRect,0.112500X-0.187500X-0.112500X0.187500X-0.112500X0.187500X0.112500X-0.187500X0.112500X0*%
G04 #@! TD*
G04 #@! TA.AperFunction,SMDPad,CuDef*
%ADD14RoundRect,0.225000X-0.225000X-0.250000X0.225000X-0.250000X0.225000X0.250000X-0.225000X0.250000X0*%
G04 #@! TD*
G04 #@! TA.AperFunction,SMDPad,CuDef*
%ADD15RoundRect,0.050000X0.350000X0.050000X-0.350000X0.050000X-0.350000X-0.050000X0.350000X-0.050000X0*%
G04 #@! TD*
G04 #@! TA.AperFunction,SMDPad,CuDef*
%ADD16RoundRect,0.050000X0.050000X0.350000X-0.050000X0.350000X-0.050000X-0.350000X0.050000X-0.350000X0*%
G04 #@! TD*
G04 #@! TA.AperFunction,SMDPad,CuDef*
%ADD17R,4.000000X4.000000*%
G04 #@! TD*
G04 #@! TA.AperFunction,SMDPad,CuDef*
%ADD18RoundRect,0.200000X-0.200000X-0.275000X0.200000X-0.275000X0.200000X0.275000X-0.200000X0.275000X0*%
G04 #@! TD*
G04 #@! TA.AperFunction,SMDPad,CuDef*
%ADD19RoundRect,0.225000X0.225000X0.250000X-0.225000X0.250000X-0.225000X-0.250000X0.225000X-0.250000X0*%
G04 #@! TD*
G04 #@! TA.AperFunction,SMDPad,CuDef*
%ADD20RoundRect,0.225000X-0.250000X0.225000X-0.250000X-0.225000X0.250000X-0.225000X0.250000X0.225000X0*%
G04 #@! TD*
G04 #@! TA.AperFunction,SMDPad,CuDef*
%ADD21RoundRect,0.150000X0.650000X0.150000X-0.650000X0.150000X-0.650000X-0.150000X0.650000X-0.150000X0*%
G04 #@! TD*
G04 #@! TA.AperFunction,SMDPad,CuDef*
%ADD22RoundRect,0.200000X0.200000X0.275000X-0.200000X0.275000X-0.200000X-0.275000X0.200000X-0.275000X0*%
G04 #@! TD*
G04 #@! TA.AperFunction,SMDPad,CuDef*
%ADD23RoundRect,0.225000X0.250000X-0.225000X0.250000X0.225000X-0.250000X0.225000X-0.250000X-0.225000X0*%
G04 #@! TD*
G04 #@! TA.AperFunction,SMDPad,CuDef*
%ADD24RoundRect,0.112500X0.112500X-0.187500X0.112500X0.187500X-0.112500X0.187500X-0.112500X-0.187500X0*%
G04 #@! TD*
G04 #@! TA.AperFunction,SMDPad,CuDef*
%ADD25R,1.200000X2.500000*%
G04 #@! TD*
G04 #@! TA.AperFunction,SMDPad,CuDef*
%ADD26RoundRect,0.112500X-0.169844X0.137715X-0.041587X-0.214670X0.169844X-0.137715X0.041587X0.214670X0*%
G04 #@! TD*
G04 #@! TA.AperFunction,SMDPad,CuDef*
%ADD27RoundRect,0.200000X-0.275000X0.200000X-0.275000X-0.200000X0.275000X-0.200000X0.275000X0.200000X0*%
G04 #@! TD*
G04 #@! TA.AperFunction,SMDPad,CuDef*
%ADD28RoundRect,0.200000X0.275000X-0.200000X0.275000X0.200000X-0.275000X0.200000X-0.275000X-0.200000X0*%
G04 #@! TD*
G04 #@! TA.AperFunction,SMDPad,CuDef*
%ADD29R,1.400000X1.200000*%
G04 #@! TD*
G04 #@! TA.AperFunction,ConnectorPad*
%ADD30R,0.800000X2.000000*%
G04 #@! TD*
G04 #@! TA.AperFunction,SMDPad,CuDef*
%ADD31R,2.000000X1.500000*%
G04 #@! TD*
G04 #@! TA.AperFunction,SMDPad,CuDef*
%ADD32R,2.000000X3.800000*%
G04 #@! TD*
G04 #@! TA.AperFunction,SMDPad,CuDef*
%ADD33R,0.600000X1.240000*%
G04 #@! TD*
G04 #@! TA.AperFunction,SMDPad,CuDef*
%ADD34R,0.300000X1.240000*%
G04 #@! TD*
G04 #@! TA.AperFunction,ComponentPad*
%ADD35O,1.000000X1.800000*%
G04 #@! TD*
G04 #@! TA.AperFunction,ComponentPad*
%ADD36O,1.000000X2.100000*%
G04 #@! TD*
G04 #@! TA.AperFunction,ViaPad*
%ADD37C,0.800000*%
G04 #@! TD*
G04 #@! TA.AperFunction,Conductor*
%ADD38C,0.450000*%
G04 #@! TD*
G04 #@! TA.AperFunction,Conductor*
%ADD39C,0.650000*%
G04 #@! TD*
G04 #@! TA.AperFunction,Conductor*
%ADD40C,0.150000*%
G04 #@! TD*
G04 #@! TA.AperFunction,Conductor*
%ADD41C,0.600000*%
G04 #@! TD*
G04 #@! TA.AperFunction,Conductor*
%ADD42C,0.250000*%
G04 #@! TD*
G04 #@! TA.AperFunction,Conductor*
%ADD43C,0.400000*%
G04 #@! TD*
G04 #@! TA.AperFunction,Conductor*
%ADD44C,0.300000*%
G04 #@! TD*
G04 APERTURE END LIST*
D10*
X205260000Y-66950000D03*
X198910000Y-69490000D03*
X186220000Y-121600000D03*
X179870000Y-124140000D03*
D11*
X265895000Y-62020000D03*
D10*
X205260000Y-124100000D03*
X198910000Y-126640000D03*
X224370000Y-129110000D03*
X218020000Y-131650000D03*
X262450000Y-150640000D03*
X256100000Y-153180000D03*
X224370000Y-148160000D03*
X218020000Y-150700000D03*
X205260000Y-143150000D03*
X198910000Y-145690000D03*
X267730000Y-93500000D03*
X261380000Y-96040000D03*
X131914907Y-191125718D03*
X127356260Y-186027401D03*
D11*
X275420000Y-62020000D03*
D10*
X117190000Y-157970000D03*
X112091683Y-162528647D03*
X267730000Y-74450000D03*
X261380000Y-76990000D03*
D11*
X256370000Y-62020000D03*
X246845000Y-62020000D03*
D10*
X148160000Y-107560000D03*
X141810000Y-110100000D03*
X267730000Y-112550000D03*
X261380000Y-115090000D03*
X186220000Y-64450000D03*
X179870000Y-66990000D03*
X112275718Y-200315093D03*
X107177401Y-204873740D03*
X224370000Y-110060000D03*
X218020000Y-112600000D03*
X149852370Y-184579357D03*
X145293723Y-179481040D03*
X167200000Y-124110000D03*
X160850000Y-126650000D03*
X148160000Y-88510000D03*
X141810000Y-91050000D03*
X148160000Y-69460000D03*
X141810000Y-72000000D03*
X167200000Y-105060000D03*
X160850000Y-107600000D03*
X99300000Y-164490000D03*
X94201683Y-169048647D03*
X186220000Y-140650000D03*
X179870000Y-143190000D03*
X224370000Y-91010000D03*
X218020000Y-93550000D03*
X167200000Y-86010000D03*
X160850000Y-88550000D03*
X243410000Y-131590000D03*
X237060000Y-134130000D03*
X205260000Y-105050000D03*
X198910000Y-107590000D03*
X243410000Y-74440000D03*
X237060000Y-76980000D03*
X205260000Y-86000000D03*
X198910000Y-88540000D03*
X243410000Y-112540000D03*
X237060000Y-115080000D03*
X148160000Y-126610000D03*
X141810000Y-129150000D03*
X243410000Y-150640000D03*
X237060000Y-153180000D03*
X105770000Y-182390000D03*
X100671683Y-186948647D03*
X186220000Y-102550000D03*
X179870000Y-105090000D03*
X186220000Y-83500000D03*
X179870000Y-86040000D03*
X224360000Y-71960000D03*
X218010000Y-74500000D03*
X167200000Y-66960000D03*
X160850000Y-69500000D03*
X243410000Y-93490000D03*
X237060000Y-96030000D03*
X267730000Y-131600000D03*
X261380000Y-134140000D03*
X148160000Y-145660000D03*
X141810000Y-148200000D03*
X167200000Y-143160000D03*
X160850000Y-145700000D03*
D12*
X108256646Y-212538242D03*
X110230000Y-211820000D03*
D11*
X132420000Y-151410000D03*
D13*
X140230000Y-155550000D03*
X142330000Y-155550000D03*
X235540000Y-103410000D03*
X237640000Y-103410000D03*
X254790000Y-160520000D03*
X256890000Y-160520000D03*
X140340000Y-136560000D03*
X142440000Y-136560000D03*
D14*
X174375000Y-165350000D03*
X175925000Y-165350000D03*
D13*
X178480000Y-112500000D03*
X180580000Y-112500000D03*
D14*
X178145000Y-159290000D03*
X179695000Y-159290000D03*
D13*
X197430000Y-114850000D03*
X199530000Y-114850000D03*
X148820000Y-78690000D03*
X150920000Y-78690000D03*
D15*
X176240000Y-155540000D03*
X176240000Y-155940000D03*
X176240000Y-156340000D03*
X176240000Y-156740000D03*
X176240000Y-157140000D03*
X176240000Y-157540000D03*
X176240000Y-157940000D03*
X176240000Y-158340000D03*
X176240000Y-158740000D03*
X176240000Y-159140000D03*
X176240000Y-159540000D03*
X176240000Y-159940000D03*
X176240000Y-160340000D03*
X176240000Y-160740000D03*
D16*
X175390000Y-161590000D03*
X174990000Y-161590000D03*
X174590000Y-161590000D03*
X174190000Y-161590000D03*
X173790000Y-161590000D03*
X173390000Y-161590000D03*
X172990000Y-161590000D03*
X172590000Y-161590000D03*
X172190000Y-161590000D03*
X171790000Y-161590000D03*
X171390000Y-161590000D03*
X170990000Y-161590000D03*
X170590000Y-161590000D03*
X170190000Y-161590000D03*
D15*
X169340000Y-160740000D03*
X169340000Y-160340000D03*
X169340000Y-159940000D03*
X169340000Y-159540000D03*
X169340000Y-159140000D03*
X169340000Y-158740000D03*
X169340000Y-158340000D03*
X169340000Y-157940000D03*
X169340000Y-157540000D03*
X169340000Y-157140000D03*
X169340000Y-156740000D03*
X169340000Y-156340000D03*
X169340000Y-155940000D03*
X169340000Y-155540000D03*
D16*
X170190000Y-154690000D03*
X170590000Y-154690000D03*
X170990000Y-154690000D03*
X171390000Y-154690000D03*
X171790000Y-154690000D03*
X172190000Y-154690000D03*
X172590000Y-154690000D03*
X172990000Y-154690000D03*
X173390000Y-154690000D03*
X173790000Y-154690000D03*
X174190000Y-154690000D03*
X174590000Y-154690000D03*
X174990000Y-154690000D03*
X175390000Y-154690000D03*
D17*
X172790000Y-158140000D03*
D13*
X216462500Y-81840000D03*
X218562500Y-81840000D03*
D11*
X126310000Y-153450000D03*
D13*
X197422500Y-95960000D03*
X199522500Y-95960000D03*
X159292500Y-134040000D03*
X161392500Y-134040000D03*
D18*
X203815000Y-156640000D03*
X205465000Y-156640000D03*
D13*
X178460000Y-74430000D03*
X180560000Y-74430000D03*
X159360000Y-96040000D03*
X161460000Y-96040000D03*
X159290000Y-115130000D03*
X161390000Y-115130000D03*
X140262500Y-98520000D03*
X142362500Y-98520000D03*
D19*
X166725000Y-156100000D03*
X165175000Y-156100000D03*
D20*
X143960000Y-101455000D03*
X143960000Y-103005000D03*
D13*
X140260000Y-117680000D03*
X142360000Y-117680000D03*
D21*
X205340000Y-161345000D03*
X205340000Y-162615000D03*
X205340000Y-163885000D03*
X205340000Y-165155000D03*
X198140000Y-165155000D03*
X198140000Y-163885000D03*
X198140000Y-162615000D03*
X198140000Y-161345000D03*
D13*
X235660000Y-122410000D03*
X237760000Y-122410000D03*
X216520000Y-100980000D03*
X218620000Y-100980000D03*
D22*
X144275000Y-66835500D03*
X142625000Y-66835500D03*
D13*
X259900000Y-103200000D03*
X262000000Y-103200000D03*
X235640000Y-84360000D03*
X237740000Y-84360000D03*
D23*
X168622500Y-152950000D03*
X168622500Y-151400000D03*
D24*
X154800000Y-94217500D03*
X154800000Y-92117500D03*
D13*
X235700000Y-141490000D03*
X237800000Y-141490000D03*
D25*
X140125000Y-85350000D03*
X137125000Y-85350000D03*
X145225000Y-78850000D03*
X144125000Y-85350000D03*
D23*
X170242500Y-152945000D03*
X170242500Y-151395000D03*
D13*
X216540000Y-158140000D03*
X218640000Y-158140000D03*
D20*
X172000000Y-163705000D03*
X172000000Y-165255000D03*
D26*
X137811758Y-180686646D03*
X138530000Y-182660000D03*
D19*
X189930000Y-159265000D03*
X188380000Y-159265000D03*
D14*
X198145000Y-159210000D03*
X199695000Y-159210000D03*
D26*
X119950879Y-187495823D03*
X120669121Y-189469177D03*
D13*
X216620000Y-139030000D03*
X218720000Y-139030000D03*
X178412500Y-150570000D03*
X180512500Y-150570000D03*
X197300000Y-133880000D03*
X199400000Y-133880000D03*
D27*
X153190000Y-60200500D03*
X153190000Y-61850500D03*
D13*
X197590000Y-76770000D03*
X199690000Y-76770000D03*
D28*
X174810000Y-140815000D03*
X174810000Y-139165000D03*
D13*
X178510000Y-131450000D03*
X180610000Y-131450000D03*
D27*
X153790000Y-107055000D03*
X153790000Y-108705000D03*
D12*
X113253323Y-169819121D03*
X115226677Y-169100879D03*
D29*
X188015000Y-161025000D03*
X190215000Y-161025000D03*
X190215000Y-162725000D03*
X188015000Y-162725000D03*
D30*
X206920000Y-159190000D03*
X211120000Y-159190000D03*
D22*
X179695000Y-164300000D03*
X178045000Y-164300000D03*
D13*
X235720000Y-160550000D03*
X237820000Y-160550000D03*
D27*
X156410000Y-107095000D03*
X156410000Y-108745000D03*
D20*
X145560000Y-101465000D03*
X145560000Y-103015000D03*
D23*
X173100000Y-151230000D03*
X173100000Y-149680000D03*
X167052500Y-152945000D03*
X167052500Y-151395000D03*
D13*
X197460000Y-153120000D03*
X199560000Y-153120000D03*
X259940000Y-122650000D03*
X262040000Y-122650000D03*
D18*
X147715000Y-66815500D03*
X149365000Y-66815500D03*
D30*
X163980000Y-163820000D03*
X168180000Y-163820000D03*
D12*
X102003323Y-194139121D03*
X103976677Y-193420879D03*
D13*
X159330000Y-153190000D03*
X161430000Y-153190000D03*
D19*
X189950000Y-164455000D03*
X188400000Y-164455000D03*
D13*
X216590000Y-120080000D03*
X218690000Y-120080000D03*
D14*
X172635000Y-148100000D03*
X174185000Y-148100000D03*
D13*
X178302500Y-93530000D03*
X180402500Y-93530000D03*
D19*
X164620000Y-159150000D03*
X163070000Y-159150000D03*
D13*
X260100000Y-141430000D03*
X262200000Y-141430000D03*
D31*
X148400000Y-103120000D03*
X148400000Y-100820000D03*
D32*
X154700000Y-100820000D03*
D31*
X148400000Y-98520000D03*
D13*
X260000000Y-84290000D03*
X262100000Y-84290000D03*
D12*
X95413323Y-176369121D03*
X97386677Y-175650879D03*
D14*
X178145000Y-157540000D03*
X179695000Y-157540000D03*
D33*
X142560000Y-63520000D03*
X143360000Y-63520000D03*
D34*
X144510000Y-63520000D03*
X145510000Y-63520000D03*
X146010000Y-63520000D03*
X147010000Y-63520000D03*
D33*
X148160000Y-63520000D03*
X148960000Y-63520000D03*
X148960000Y-63520000D03*
X148160000Y-63520000D03*
D34*
X147510000Y-63520000D03*
X146510000Y-63520000D03*
X145010000Y-63520000D03*
X144010000Y-63520000D03*
D33*
X143360000Y-63520000D03*
X142560000Y-63520000D03*
D35*
X141440000Y-58720000D03*
D36*
X141440000Y-62920000D03*
D35*
X150080000Y-58720000D03*
D36*
X150080000Y-62920000D03*
D13*
X159310000Y-77080000D03*
X161410000Y-77080000D03*
D28*
X176410000Y-140810000D03*
X176410000Y-139160000D03*
D37*
X203260000Y-159190000D03*
X161700000Y-159150000D03*
X174485000Y-149680000D03*
X149620000Y-65095500D03*
X162760000Y-163830000D03*
X150550000Y-66805500D03*
X146700000Y-103020000D03*
X175099129Y-160450871D03*
X163910000Y-156090000D03*
X173139944Y-165867039D03*
X168622500Y-150395000D03*
X207050000Y-165140000D03*
X180930000Y-157540000D03*
X141290000Y-66755500D03*
X153180000Y-62975500D03*
X186275000Y-164385000D03*
X177060627Y-165464500D03*
X144280000Y-87950000D03*
X180910000Y-159320000D03*
X161320000Y-61965500D03*
X161270000Y-64190000D03*
X145580000Y-105964500D03*
X151530000Y-100820000D03*
X171918095Y-163623095D03*
X170965500Y-153049649D03*
X173850000Y-152140000D03*
X148990000Y-80320000D03*
X179008873Y-162504500D03*
X153960000Y-159929512D03*
X138450000Y-117810000D03*
X139710000Y-96920000D03*
X152130000Y-78670000D03*
X158060000Y-153620000D03*
X179870000Y-161764500D03*
X179320000Y-151300000D03*
X184206944Y-157924500D03*
X190050000Y-157446987D03*
X195360000Y-153170000D03*
X216170000Y-160130000D03*
X216270000Y-166074500D03*
X235620000Y-161670000D03*
X236680000Y-165120000D03*
X151660000Y-72025500D03*
X145670000Y-68070000D03*
X151535259Y-73017188D03*
X144274500Y-68175500D03*
X146210500Y-66750000D03*
X156980000Y-99610000D03*
X156940000Y-102410000D03*
X153720000Y-114390000D03*
X141900000Y-103970000D03*
X141920000Y-106570000D03*
X156510000Y-114360000D03*
X154165500Y-158915962D03*
X158308100Y-158731306D03*
X153720500Y-157919838D03*
X157330000Y-158030000D03*
X157330000Y-157030497D03*
X153370500Y-156944383D03*
X193820000Y-165000000D03*
X191680000Y-153535500D03*
X192740000Y-153535500D03*
X193798739Y-164000723D03*
X193739503Y-153535500D03*
X193850726Y-163002574D03*
X136010000Y-162315500D03*
X134390000Y-164689000D03*
X135131188Y-161839376D03*
X133140000Y-164530000D03*
X156924694Y-160080806D03*
X124180000Y-170190000D03*
X131640000Y-165394500D03*
X154340000Y-160915500D03*
X134061944Y-161088056D03*
X109570000Y-184220000D03*
X158530000Y-164014500D03*
X175610000Y-163220000D03*
X159550000Y-164014500D03*
X174291487Y-162855375D03*
D38*
X148960000Y-64435500D02*
X148960000Y-63565500D01*
X175925000Y-165350000D02*
X176946127Y-165350000D01*
X145560000Y-103015000D02*
X146695000Y-103015000D01*
X153190000Y-62965500D02*
X153180000Y-62975500D01*
D39*
X144125000Y-87795000D02*
X144280000Y-87950000D01*
D38*
X153190000Y-61850500D02*
X153190000Y-62965500D01*
X173100000Y-149680000D02*
X174485000Y-149680000D01*
X168622500Y-151400000D02*
X167057500Y-151400000D01*
X203260000Y-159190000D02*
X206920000Y-159190000D01*
X179695000Y-159290000D02*
X180880000Y-159290000D01*
X172527905Y-165255000D02*
X172000000Y-165255000D01*
X170237500Y-151400000D02*
X170242500Y-151395000D01*
X165175000Y-156100000D02*
X163920000Y-156100000D01*
X180880000Y-159290000D02*
X180910000Y-159320000D01*
X168622500Y-151400000D02*
X170237500Y-151400000D01*
D40*
X173880000Y-160280000D02*
X172890000Y-160280000D01*
X175099129Y-160450871D02*
X174839129Y-160190871D01*
D38*
X163980000Y-163820000D02*
X162770000Y-163820000D01*
X174485000Y-148400000D02*
X174185000Y-148100000D01*
D41*
X175099129Y-160450871D02*
X174960013Y-160589987D01*
D40*
X174338258Y-159690000D02*
X172780000Y-159690000D01*
X172890000Y-160280000D02*
X172815000Y-160355000D01*
D38*
X163070000Y-159150000D02*
X161700000Y-159150000D01*
D42*
X205340000Y-165155000D02*
X207035000Y-165155000D01*
D40*
X173790000Y-159140000D02*
X172790000Y-158140000D01*
D39*
X144125000Y-85350000D02*
X144125000Y-87795000D01*
D40*
X175099129Y-160450871D02*
X173568258Y-158920000D01*
D38*
X190215000Y-161025000D02*
X190215000Y-159550000D01*
X146705000Y-103015000D02*
X148295000Y-103015000D01*
D40*
X173780000Y-160280000D02*
X173780000Y-161590000D01*
D38*
X188400000Y-164455000D02*
X188400000Y-163110000D01*
X168622500Y-150395000D02*
X168622500Y-151400000D01*
X189905000Y-161025000D02*
X189090000Y-161840000D01*
X189090000Y-162050000D02*
X188415000Y-162725000D01*
X186275000Y-164385000D02*
X188330000Y-164385000D01*
D40*
X173780000Y-159140000D02*
X173780000Y-160280000D01*
X173880000Y-160280000D02*
X173780000Y-160280000D01*
D38*
X173139944Y-165867039D02*
X172527905Y-165255000D01*
X149620000Y-65095500D02*
X148960000Y-64435500D01*
X179695000Y-157540000D02*
X180930000Y-157540000D01*
X189090000Y-161840000D02*
X189090000Y-162050000D01*
D41*
X174960013Y-160589987D02*
X173049987Y-160589987D01*
D38*
X142560000Y-63565500D02*
X142560000Y-66770500D01*
D40*
X173568258Y-158920000D02*
X172780000Y-158920000D01*
D41*
X172815000Y-160355000D02*
X171690000Y-159230000D01*
D38*
X187935000Y-162725000D02*
X186275000Y-164385000D01*
X162770000Y-163820000D02*
X162760000Y-163830000D01*
X145560000Y-103015000D02*
X143970000Y-103015000D01*
X142625000Y-66835500D02*
X141370000Y-66835500D01*
X167057500Y-151400000D02*
X167052500Y-151395000D01*
X199715000Y-159190000D02*
X203260000Y-159190000D01*
X174485000Y-149680000D02*
X174485000Y-148400000D01*
X149365000Y-66815500D02*
X150540000Y-66815500D01*
D40*
X154700000Y-100820000D02*
X154700000Y-101170000D01*
X169340000Y-159140000D02*
X164630000Y-159140000D01*
X169990000Y-159140000D02*
X169330000Y-159140000D01*
X172190000Y-153830000D02*
X172590000Y-153430000D01*
X172590000Y-153430000D02*
X172590000Y-152910000D01*
X172580000Y-154690000D02*
X172580000Y-155149619D01*
X172140000Y-152220000D02*
X172140000Y-148595000D01*
X172590000Y-161590000D02*
X172570000Y-161610000D01*
X172830000Y-164460000D02*
X173720000Y-165350000D01*
X173720000Y-165350000D02*
X174375000Y-165350000D01*
X164630000Y-159140000D02*
X164620000Y-159150000D01*
X170320000Y-159440000D02*
X170320000Y-160680000D01*
D38*
X175910000Y-155410000D02*
X195930000Y-155410000D01*
D40*
X153790000Y-106210000D02*
X153544500Y-105964500D01*
X155400000Y-100120000D02*
X155400000Y-97450000D01*
X168300000Y-154740000D02*
X167910000Y-154740000D01*
X170005000Y-159125000D02*
X170320000Y-159440000D01*
X175910000Y-155410000D02*
X176110000Y-155410000D01*
X169340000Y-155540000D02*
X170120000Y-155540000D01*
X168670000Y-153880000D02*
X168670000Y-153225000D01*
X172970381Y-155540000D02*
X170830000Y-155540000D01*
D38*
X198145000Y-157885000D02*
X198145000Y-159210000D01*
D40*
X178145000Y-157540000D02*
X177100000Y-157540000D01*
D39*
X156720000Y-100820000D02*
X154700000Y-100820000D01*
D40*
X167030000Y-153900000D02*
X167030000Y-153150000D01*
X170190000Y-154900000D02*
X170475000Y-155185000D01*
X168630000Y-154410000D02*
X168300000Y-154740000D01*
X172190000Y-154690000D02*
X172190000Y-153830000D01*
X175555000Y-158924619D02*
X175555000Y-155578604D01*
X237630000Y-59310000D02*
X244700000Y-66380000D01*
D38*
X198145000Y-157625000D02*
X198145000Y-157885000D01*
D40*
X163975500Y-59310000D02*
X237630000Y-59310000D01*
X172140000Y-148595000D02*
X172635000Y-148100000D01*
X172590000Y-152910000D02*
X172590000Y-152220000D01*
X256370000Y-65180000D02*
X256370000Y-62020000D01*
X170220000Y-156150000D02*
X170220000Y-158910000D01*
X170580000Y-154690000D02*
X170580000Y-155290000D01*
X177100000Y-155940381D02*
X176699619Y-155540000D01*
X176230000Y-159140000D02*
X175770381Y-159140000D01*
X172570000Y-162610000D02*
X172830000Y-162870000D01*
X168770000Y-155540000D02*
X167970000Y-154740000D01*
D38*
X195930000Y-155410000D02*
X198145000Y-157625000D01*
X198140000Y-161345000D02*
X198140000Y-159305000D01*
D40*
X172580000Y-155149619D02*
X172970381Y-155540000D01*
D39*
X157135000Y-115534340D02*
X157600000Y-115069340D01*
D40*
X153790000Y-107055000D02*
X153790000Y-106210000D01*
X161320000Y-61965500D02*
X163975500Y-59310000D01*
D43*
X172970381Y-155540000D02*
X175593604Y-155540000D01*
D40*
X167970000Y-154740000D02*
X167910000Y-154740000D01*
X156510000Y-96340000D02*
X156510000Y-67150000D01*
D38*
X203815000Y-156640000D02*
X198930000Y-156640000D01*
X151530000Y-100820000D02*
X154700000Y-100820000D01*
D40*
X168770000Y-155540000D02*
X168120000Y-156190000D01*
X172590000Y-154690000D02*
X172590000Y-152910000D01*
X168770000Y-153980000D02*
X168670000Y-153880000D01*
X172830000Y-162870000D02*
X172830000Y-164460000D01*
X170475000Y-155185000D02*
X170580000Y-155290000D01*
X255170000Y-66380000D02*
X256370000Y-65180000D01*
X176110000Y-155410000D02*
X175723604Y-155410000D01*
X170540000Y-153980000D02*
X168770000Y-153980000D01*
X170190000Y-154690000D02*
X170190000Y-154900000D01*
D39*
X158220000Y-102320000D02*
X156720000Y-100820000D01*
D40*
X155400000Y-97450000D02*
X156510000Y-96340000D01*
D39*
X157135000Y-154345000D02*
X157135000Y-115534340D01*
D40*
X168300000Y-154080000D02*
X167210000Y-154080000D01*
X172340000Y-160710000D02*
X172580000Y-160950000D01*
D39*
X157530000Y-154740000D02*
X157135000Y-154345000D01*
D40*
X170190000Y-154690000D02*
X168910000Y-154690000D01*
X156410000Y-102880000D02*
X156410000Y-107095000D01*
X168910000Y-154690000D02*
X168630000Y-154410000D01*
X176699619Y-155540000D02*
X176240000Y-155540000D01*
X172570000Y-161610000D02*
X172570000Y-162610000D01*
D43*
X175593604Y-155540000D02*
X175723604Y-155410000D01*
D40*
X172590000Y-152220000D02*
X172140000Y-152220000D01*
D38*
X198930000Y-156640000D02*
X198145000Y-157425000D01*
D40*
X159180000Y-64480000D02*
X159470000Y-64190000D01*
X175770381Y-159140000D02*
X175555000Y-158924619D01*
X177100000Y-157540000D02*
X177100000Y-155940381D01*
D38*
X198145000Y-157425000D02*
X198145000Y-157885000D01*
D40*
X153544500Y-105964500D02*
X145580000Y-105964500D01*
X156510000Y-67150000D02*
X159180000Y-64480000D01*
X169340000Y-155540000D02*
X168770000Y-155540000D01*
X154700000Y-101170000D02*
X156380000Y-102850000D01*
X170220000Y-158910000D02*
X170005000Y-159125000D01*
D39*
X157600000Y-109930000D02*
X158220000Y-109310000D01*
D38*
X148400000Y-100820000D02*
X146205000Y-100820000D01*
D40*
X170580000Y-155290000D02*
X170830000Y-155540000D01*
X167210000Y-154080000D02*
X167030000Y-153900000D01*
D38*
X148400000Y-100820000D02*
X151530000Y-100820000D01*
D40*
X244700000Y-66380000D02*
X255170000Y-66380000D01*
X170590000Y-154030000D02*
X170540000Y-153980000D01*
D39*
X158220000Y-109310000D02*
X158220000Y-102320000D01*
D40*
X170830000Y-155540000D02*
X170220000Y-156150000D01*
X169330000Y-155540000D02*
X170180000Y-154690000D01*
X168630000Y-154410000D02*
X168300000Y-154080000D01*
X159470000Y-64190000D02*
X161270000Y-64190000D01*
X154700000Y-100820000D02*
X155400000Y-100120000D01*
X177995000Y-159140000D02*
X176240000Y-159140000D01*
X170350000Y-160710000D02*
X172340000Y-160710000D01*
D39*
X167910000Y-154740000D02*
X157530000Y-154740000D01*
D40*
X170590000Y-154690000D02*
X170590000Y-154030000D01*
X178145000Y-159290000D02*
X177995000Y-159140000D01*
X172580000Y-160950000D02*
X172580000Y-161590000D01*
D38*
X146205000Y-100820000D02*
X145560000Y-101465000D01*
D40*
X176240000Y-155540000D02*
X176110000Y-155410000D01*
X170120000Y-155540000D02*
X170475000Y-155185000D01*
X168120000Y-156190000D02*
X166815000Y-156190000D01*
D39*
X157600000Y-115069340D02*
X157600000Y-109930000D01*
D38*
X190215000Y-162725000D02*
X190215000Y-164190000D01*
D40*
X190910000Y-165160000D02*
X190670000Y-165400000D01*
X179725000Y-164270000D02*
X179695000Y-164300000D01*
X184820000Y-164270000D02*
X179725000Y-164270000D01*
X190215000Y-162725000D02*
X190910000Y-163420000D01*
X185950000Y-165400000D02*
X184820000Y-164270000D01*
X190910000Y-163420000D02*
X190910000Y-165160000D01*
X190670000Y-165400000D02*
X185950000Y-165400000D01*
X173542487Y-162592537D02*
X173542487Y-163427513D01*
X186925000Y-161025000D02*
X187555000Y-161025000D01*
X173390000Y-161590000D02*
X173390000Y-162440050D01*
X186630000Y-161320000D02*
X186925000Y-161025000D01*
X173542487Y-163427513D02*
X174074974Y-163960000D01*
X176860000Y-163960000D02*
X177450000Y-163370000D01*
X185810000Y-163370000D02*
X186630000Y-162550000D01*
X177450000Y-163370000D02*
X185810000Y-163370000D01*
D38*
X188380000Y-160660000D02*
X188380000Y-159265000D01*
D40*
X174074974Y-163960000D02*
X176860000Y-163960000D01*
X173390000Y-162440050D02*
X173542487Y-162592537D01*
X186630000Y-162550000D02*
X186630000Y-161320000D01*
X170820000Y-164885000D02*
X172000000Y-163705000D01*
X170654974Y-153600000D02*
X170390000Y-153600000D01*
X280200000Y-76390000D02*
X280200000Y-144600000D01*
X170820000Y-166060000D02*
X170820000Y-164885000D01*
X170965500Y-153049649D02*
X170860851Y-152945000D01*
X170990000Y-153935026D02*
X170654974Y-153600000D01*
X170390000Y-153600000D02*
X170250000Y-153460000D01*
X170860851Y-152945000D02*
X170242500Y-152945000D01*
X172000000Y-163375000D02*
X172190000Y-163375000D01*
X280200000Y-144600000D02*
X257935000Y-166865000D01*
X172190000Y-163375000D02*
X172190000Y-161590000D01*
X170990000Y-154690000D02*
X170990000Y-153935026D01*
X265895000Y-62085000D02*
X280200000Y-76390000D01*
X170250000Y-153460000D02*
X170250000Y-153180000D01*
X172990000Y-154690000D02*
X172990000Y-151335000D01*
X265895000Y-62020000D02*
X265895000Y-62085000D01*
X173850000Y-152140000D02*
X173850000Y-151980000D01*
X257935000Y-166865000D02*
X171625000Y-166865000D01*
X173850000Y-151980000D02*
X173100000Y-151230000D01*
X171625000Y-166865000D02*
X170820000Y-166060000D01*
D44*
X150880000Y-65860000D02*
X151200000Y-66180000D01*
D38*
X143449500Y-68517227D02*
X143449500Y-64725000D01*
D44*
X149004500Y-65860000D02*
X150880000Y-65860000D01*
D40*
X143360000Y-62905500D02*
X143360000Y-63565500D01*
D38*
X143360000Y-64635500D02*
X143360000Y-63565500D01*
D40*
X246845000Y-62020000D02*
X243145000Y-58320000D01*
D38*
X148650000Y-76110000D02*
X145890000Y-78870000D01*
D40*
X159700000Y-58320000D02*
X151840000Y-66180000D01*
X151840000Y-66180000D02*
X151200000Y-66180000D01*
D39*
X154800000Y-88425000D02*
X145225000Y-78850000D01*
D38*
X145890000Y-78850000D02*
X145225000Y-78850000D01*
D40*
X148160000Y-62815500D02*
X147800000Y-62455500D01*
D44*
X148160000Y-65015500D02*
X149004500Y-65860000D01*
D38*
X143449500Y-68517227D02*
X148172273Y-73240000D01*
X148172273Y-73240000D02*
X148650000Y-73240000D01*
X148650000Y-73260000D02*
X148650000Y-76110000D01*
D40*
X243145000Y-58320000D02*
X159700000Y-58320000D01*
D44*
X151440000Y-70450000D02*
X148650000Y-73240000D01*
D40*
X147800000Y-62455500D02*
X143810000Y-62455500D01*
D39*
X154800000Y-92117500D02*
X154800000Y-88425000D01*
D44*
X148160000Y-63565500D02*
X148160000Y-65015500D01*
X151200000Y-66180000D02*
X151440000Y-66420000D01*
D40*
X148160000Y-63565500D02*
X148160000Y-62815500D01*
D44*
X151440000Y-66420000D02*
X151440000Y-70450000D01*
D40*
X143810000Y-62455500D02*
X143360000Y-62905500D01*
D38*
X140700000Y-120060000D02*
X140700000Y-125800000D01*
X138450000Y-117810000D02*
X140130000Y-117810000D01*
X139330000Y-136560000D02*
X140340000Y-136560000D01*
D40*
X179008873Y-162504500D02*
X178824373Y-162320000D01*
X175260381Y-162320000D02*
X174990000Y-162049619D01*
X144609512Y-159929512D02*
X140230000Y-155550000D01*
D38*
X140262500Y-98520000D02*
X140262500Y-97472500D01*
X148990000Y-80320000D02*
X148990000Y-78860000D01*
D40*
X178824373Y-162320000D02*
X175260381Y-162320000D01*
D38*
X140230000Y-155550000D02*
X138470000Y-153790000D01*
D40*
X174990000Y-162049619D02*
X174990000Y-161590000D01*
D38*
X138470000Y-137420000D02*
X139330000Y-136560000D01*
X138470000Y-153790000D02*
X138470000Y-137420000D01*
X138450000Y-117810000D02*
X140700000Y-120060000D01*
X140700000Y-125800000D02*
X139265000Y-127235000D01*
D40*
X153960000Y-159929512D02*
X144609512Y-159929512D01*
D38*
X148990000Y-78860000D02*
X148820000Y-78690000D01*
X140130000Y-117810000D02*
X140260000Y-117680000D01*
X139265000Y-127235000D02*
X139265000Y-136495000D01*
X139265000Y-136495000D02*
X139330000Y-136560000D01*
X140262500Y-97472500D02*
X139710000Y-96920000D01*
X95940000Y-174204202D02*
X95940000Y-170786964D01*
X95940000Y-170786964D02*
X94201683Y-169048647D01*
X97386677Y-175650879D02*
X95940000Y-174204202D01*
X103976677Y-191046677D02*
X100671683Y-187741683D01*
X103976677Y-193420879D02*
X103976677Y-191046677D01*
X100671683Y-187741683D02*
X100671683Y-186948647D01*
X108820000Y-210410000D02*
X108820000Y-206516339D01*
X108820000Y-206516339D02*
X107177401Y-204873740D01*
X110230000Y-211820000D02*
X108820000Y-210410000D01*
X125733661Y-187650000D02*
X127356260Y-186027401D01*
X122488298Y-187650000D02*
X125733661Y-187650000D01*
X120669121Y-189469177D02*
X122488298Y-187650000D01*
X140090000Y-181100000D02*
X143674763Y-181100000D01*
X143674763Y-181100000D02*
X145293723Y-179481040D01*
X138530000Y-182660000D02*
X140090000Y-181100000D01*
X152110000Y-78690000D02*
X152130000Y-78670000D01*
X150920000Y-78690000D02*
X152110000Y-78690000D01*
X159292500Y-134040000D02*
X158460000Y-134040000D01*
D40*
X179870000Y-161764500D02*
X179695500Y-161590000D01*
D38*
X159330000Y-153190000D02*
X157950000Y-151810000D01*
X158600000Y-115130000D02*
X159290000Y-115130000D01*
X157950000Y-115780000D02*
X158600000Y-115130000D01*
X158460000Y-134040000D02*
X157950000Y-133530000D01*
X171880000Y-104220000D02*
X167990000Y-100330000D01*
X167990000Y-100330000D02*
X160940000Y-100330000D01*
X157640000Y-78750000D02*
X159310000Y-77080000D01*
D40*
X179695500Y-161590000D02*
X175390000Y-161590000D01*
D38*
X159360000Y-96040000D02*
X157640000Y-94320000D01*
D40*
X158190000Y-153490000D02*
X159030000Y-153490000D01*
D38*
X157950000Y-151810000D02*
X157950000Y-134550000D01*
D40*
X159030000Y-153490000D02*
X159330000Y-153190000D01*
D38*
X157950000Y-133530000D02*
X157950000Y-115780000D01*
X158540000Y-97930000D02*
X158540000Y-96860000D01*
X157640000Y-94320000D02*
X157640000Y-78750000D01*
X157950000Y-134550000D02*
X158460000Y-134040000D01*
X160730000Y-116570000D02*
X168090000Y-116570000D01*
X158540000Y-96860000D02*
X159360000Y-96040000D01*
X159290000Y-115130000D02*
X160730000Y-116570000D01*
X171880000Y-112780000D02*
X171880000Y-104220000D01*
X168090000Y-116570000D02*
X171880000Y-112780000D01*
X160940000Y-100330000D02*
X158540000Y-97930000D01*
D40*
X158060000Y-153620000D02*
X158190000Y-153490000D01*
D38*
X142810000Y-92050000D02*
X141810000Y-91050000D01*
X142810000Y-98072500D02*
X142810000Y-92050000D01*
X142362500Y-98520000D02*
X142810000Y-98072500D01*
X142360000Y-117680000D02*
X142710000Y-117330000D01*
X142710000Y-117330000D02*
X142710000Y-111000000D01*
X142710000Y-111000000D02*
X141810000Y-110100000D01*
X142850000Y-130190000D02*
X141810000Y-129150000D01*
X142850000Y-136150000D02*
X142850000Y-130190000D01*
X142440000Y-136560000D02*
X142850000Y-136150000D01*
X142330000Y-155550000D02*
X142730000Y-155150000D01*
X142730000Y-149120000D02*
X141810000Y-148200000D01*
X142730000Y-155150000D02*
X142730000Y-149120000D01*
X161740000Y-76750000D02*
X161740000Y-70390000D01*
X161740000Y-70390000D02*
X160850000Y-69500000D01*
X161410000Y-77080000D02*
X161740000Y-76750000D01*
D40*
X178430000Y-112550000D02*
X178480000Y-112500000D01*
X181660000Y-161090000D02*
X181700000Y-161130000D01*
D38*
X178170000Y-141600000D02*
X178170000Y-137790000D01*
D40*
X177170000Y-161090000D02*
X181660000Y-161090000D01*
X179320000Y-151300000D02*
X179142500Y-151300000D01*
D38*
X176250000Y-130590000D02*
X176250000Y-113320000D01*
X178170000Y-137790000D02*
X176170000Y-135790000D01*
X176290000Y-111780000D02*
X176290000Y-94400000D01*
D40*
X176240000Y-160740000D02*
X176820000Y-160740000D01*
D38*
X177110000Y-131450000D02*
X178510000Y-131450000D01*
D40*
X181700000Y-161130000D02*
X181710000Y-161130000D01*
X179142500Y-151300000D02*
X178412500Y-150570000D01*
X182790000Y-158814974D02*
X183680474Y-157924500D01*
D38*
X177160000Y-93530000D02*
X176310000Y-92680000D01*
X176170000Y-132390000D02*
X177110000Y-131450000D01*
X177020000Y-112550000D02*
X178430000Y-112550000D01*
D40*
X176820000Y-160740000D02*
X177170000Y-161090000D01*
D38*
X176290000Y-94400000D02*
X177160000Y-93530000D01*
X178412500Y-150570000D02*
X177560000Y-150570000D01*
X176310000Y-92680000D02*
X176310000Y-76580000D01*
X177080000Y-112570000D02*
X176290000Y-111780000D01*
X177160000Y-93530000D02*
X178302500Y-93530000D01*
X176250000Y-113320000D02*
X177020000Y-112550000D01*
X176170000Y-135790000D02*
X176170000Y-132390000D01*
X176420000Y-143350000D02*
X178170000Y-141600000D01*
X176420000Y-149430000D02*
X176420000Y-143350000D01*
X177560000Y-150570000D02*
X176420000Y-149430000D01*
D40*
X182790000Y-160050000D02*
X182790000Y-158814974D01*
X183680474Y-157924500D02*
X184206944Y-157924500D01*
X181710000Y-161130000D02*
X182790000Y-160050000D01*
D38*
X177110000Y-131450000D02*
X176250000Y-130590000D01*
X176310000Y-76580000D02*
X178460000Y-74430000D01*
X161770000Y-95730000D02*
X161770000Y-89470000D01*
X161770000Y-89470000D02*
X160850000Y-88550000D01*
X161460000Y-96040000D02*
X161770000Y-95730000D01*
X161810000Y-108560000D02*
X160850000Y-107600000D01*
X161810000Y-114710000D02*
X161810000Y-108560000D01*
X161390000Y-115130000D02*
X161810000Y-114710000D01*
X161820000Y-127620000D02*
X160850000Y-126650000D01*
X161820000Y-133612500D02*
X161820000Y-127620000D01*
X161392500Y-134040000D02*
X161820000Y-133612500D01*
X161820000Y-152800000D02*
X161820000Y-146670000D01*
X161820000Y-146670000D02*
X160850000Y-145700000D01*
X161430000Y-153190000D02*
X161820000Y-152800000D01*
X180890000Y-74100000D02*
X180890000Y-68010000D01*
X180560000Y-74430000D02*
X180890000Y-74100000D01*
X180890000Y-68010000D02*
X179870000Y-66990000D01*
X197300000Y-133880000D02*
X196130000Y-133880000D01*
X196100000Y-133910000D02*
X196130000Y-133880000D01*
X196070000Y-114850000D02*
X197430000Y-114850000D01*
D40*
X176240000Y-160340000D02*
X177022944Y-160340000D01*
X183860000Y-157250000D02*
X183960000Y-157250000D01*
X195360000Y-153170000D02*
X195410000Y-153120000D01*
D38*
X196070000Y-114850000D02*
X195380000Y-114160000D01*
X195440000Y-115480000D02*
X196070000Y-114850000D01*
X195440000Y-133190000D02*
X195440000Y-115480000D01*
X197410000Y-153170000D02*
X196100000Y-151860000D01*
D40*
X182370000Y-159884975D02*
X182370000Y-158740000D01*
X197390000Y-96010000D02*
X197320000Y-95940000D01*
D38*
X196100000Y-151860000D02*
X196100000Y-133910000D01*
X195380000Y-96880000D02*
X196250000Y-96010000D01*
X195360000Y-95130000D02*
X195360000Y-79000000D01*
X196170000Y-95940000D02*
X195360000Y-95130000D01*
X197320000Y-95940000D02*
X196170000Y-95940000D01*
X196130000Y-133880000D02*
X195440000Y-133190000D01*
D40*
X182370000Y-158740000D02*
X183860000Y-157250000D01*
D38*
X195380000Y-114160000D02*
X195380000Y-96880000D01*
X197590000Y-76770000D02*
X195360000Y-79000000D01*
D40*
X195410000Y-153120000D02*
X197460000Y-153120000D01*
X177422943Y-160740000D02*
X181514975Y-160740000D01*
X183960000Y-157250000D02*
X189853013Y-157250000D01*
X181514975Y-160740000D02*
X182370000Y-159884975D01*
X189853013Y-157250000D02*
X190050000Y-157446987D01*
X177022944Y-160340000D02*
X177422943Y-160740000D01*
D38*
X180700000Y-93232500D02*
X180700000Y-86870000D01*
X180700000Y-86870000D02*
X179870000Y-86040000D01*
X180402500Y-93530000D02*
X180700000Y-93232500D01*
X180580000Y-112500000D02*
X180820000Y-112260000D01*
X180820000Y-112260000D02*
X180820000Y-106040000D01*
X180820000Y-106040000D02*
X179870000Y-105090000D01*
X180610000Y-131450000D02*
X180890000Y-131170000D01*
X180890000Y-131170000D02*
X180890000Y-125160000D01*
X180890000Y-125160000D02*
X179870000Y-124140000D01*
X180830000Y-144150000D02*
X179870000Y-143190000D01*
X180512500Y-150570000D02*
X180830000Y-150252500D01*
X180830000Y-150252500D02*
X180830000Y-144150000D01*
X199690000Y-76770000D02*
X199970000Y-76490000D01*
X199970000Y-76490000D02*
X199970000Y-70550000D01*
X199970000Y-70550000D02*
X198910000Y-69490000D01*
X214570000Y-156170000D02*
X214570000Y-139940000D01*
D40*
X177117919Y-159940000D02*
X176240000Y-159940000D01*
X183712487Y-156772487D02*
X181952487Y-158532487D01*
D38*
X214490000Y-83812500D02*
X216462500Y-81840000D01*
X215440000Y-120080000D02*
X216590000Y-120080000D01*
X214570000Y-138160000D02*
X214570000Y-120950000D01*
X216540000Y-158140000D02*
X214570000Y-156170000D01*
X216520000Y-100980000D02*
X215370000Y-100980000D01*
D40*
X216170000Y-160130000D02*
X216170000Y-158510000D01*
D38*
X215440000Y-139030000D02*
X214570000Y-138160000D01*
X214510000Y-119200000D02*
X214510000Y-101850000D01*
D40*
X216170000Y-158510000D02*
X216540000Y-158140000D01*
D38*
X214570000Y-139940000D02*
X215480000Y-139030000D01*
X214570000Y-120950000D02*
X215440000Y-120080000D01*
X215390000Y-120080000D02*
X214510000Y-119200000D01*
D40*
X215829500Y-166515000D02*
X192735052Y-166515000D01*
D38*
X215480000Y-139030000D02*
X216620000Y-139030000D01*
X214510000Y-101850000D02*
X215380000Y-100980000D01*
D40*
X192320000Y-166099948D02*
X192320000Y-157742487D01*
D38*
X215370000Y-100980000D02*
X214490000Y-100100000D01*
D40*
X192320000Y-157742487D02*
X191350000Y-156772487D01*
X181952487Y-159807513D02*
X181370000Y-160390000D01*
D38*
X214490000Y-100100000D02*
X214490000Y-83812500D01*
D40*
X181952487Y-158532487D02*
X181952487Y-159807513D01*
X192735052Y-166515000D02*
X192320000Y-166099948D01*
X177567918Y-160390000D02*
X177117919Y-159940000D01*
X181370000Y-160390000D02*
X177567918Y-160390000D01*
X216270000Y-166074500D02*
X215829500Y-166515000D01*
X191350000Y-156772487D02*
X183712487Y-156772487D01*
D38*
X199800000Y-95682500D02*
X199800000Y-89430000D01*
X199522500Y-95960000D02*
X199800000Y-95682500D01*
X199800000Y-89430000D02*
X198910000Y-88540000D01*
X199530000Y-114850000D02*
X199970000Y-114410000D01*
X199970000Y-108650000D02*
X198910000Y-107590000D01*
X199970000Y-114410000D02*
X199970000Y-108650000D01*
X199740000Y-133540000D02*
X199740000Y-127470000D01*
X199740000Y-127470000D02*
X198910000Y-126640000D01*
X199400000Y-133880000D02*
X199740000Y-133540000D01*
X199560000Y-153120000D02*
X199910000Y-152770000D01*
X199910000Y-146690000D02*
X198910000Y-145690000D01*
X199910000Y-152770000D02*
X199910000Y-146690000D01*
X219030000Y-81372500D02*
X219030000Y-75520000D01*
X219030000Y-75520000D02*
X218010000Y-74500000D01*
X218562500Y-81840000D02*
X219030000Y-81372500D01*
D40*
X235620000Y-161670000D02*
X235620000Y-160650000D01*
D38*
X234460000Y-122450000D02*
X233580000Y-121570000D01*
D40*
X235620000Y-160650000D02*
X235720000Y-160550000D01*
D38*
X233580000Y-121570000D02*
X233580000Y-104220000D01*
D40*
X236400000Y-165400000D02*
X208239569Y-165400000D01*
X208239569Y-165400000D02*
X207474569Y-166165000D01*
X207474569Y-166165000D02*
X192880026Y-166165000D01*
D38*
X233640000Y-123320000D02*
X234510000Y-122450000D01*
X233640000Y-140530000D02*
X233640000Y-123320000D01*
X233580000Y-104220000D02*
X234450000Y-103350000D01*
X233560000Y-86440000D02*
X235640000Y-84360000D01*
X233640000Y-158540000D02*
X233640000Y-142310000D01*
X235590000Y-103350000D02*
X234440000Y-103350000D01*
X235690000Y-141400000D02*
X234510000Y-141400000D01*
D40*
X191762487Y-156422487D02*
X183567513Y-156422487D01*
X181585000Y-159599595D02*
X181144595Y-160040000D01*
X192670000Y-165954974D02*
X192670000Y-157330000D01*
X192880026Y-166165000D02*
X192670000Y-165954974D01*
X192670000Y-157330000D02*
X191762487Y-156422487D01*
D38*
X235610000Y-160510000D02*
X233640000Y-158540000D01*
D40*
X183567513Y-156422487D02*
X181585000Y-158405000D01*
X181585000Y-158405000D02*
X181585000Y-159599595D01*
D38*
X234510000Y-141400000D02*
X233640000Y-140530000D01*
D40*
X177712893Y-160040000D02*
X177212893Y-159540000D01*
D38*
X233560000Y-102470000D02*
X233560000Y-86440000D01*
D40*
X177212893Y-159540000D02*
X176240000Y-159540000D01*
D38*
X235660000Y-122450000D02*
X234460000Y-122450000D01*
D40*
X181144595Y-160040000D02*
X177712893Y-160040000D01*
D38*
X234440000Y-103350000D02*
X233560000Y-102470000D01*
X233640000Y-142310000D02*
X234550000Y-141400000D01*
D40*
X236680000Y-165120000D02*
X236400000Y-165400000D01*
D38*
X219040000Y-100560000D02*
X219040000Y-94570000D01*
X219040000Y-94570000D02*
X218020000Y-93550000D01*
X218620000Y-100980000D02*
X219040000Y-100560000D01*
X218690000Y-120080000D02*
X219000000Y-119770000D01*
X219000000Y-119770000D02*
X219000000Y-113580000D01*
X219000000Y-113580000D02*
X218020000Y-112600000D01*
X218930000Y-138820000D02*
X218930000Y-132560000D01*
X218930000Y-132560000D02*
X218020000Y-131650000D01*
X218720000Y-139030000D02*
X218930000Y-138820000D01*
X218920000Y-151600000D02*
X218020000Y-150700000D01*
X218640000Y-158140000D02*
X218920000Y-157860000D01*
X218920000Y-157860000D02*
X218920000Y-151600000D01*
X238150000Y-78070000D02*
X237060000Y-76980000D01*
X238150000Y-83950000D02*
X238150000Y-78070000D01*
X237740000Y-84360000D02*
X238150000Y-83950000D01*
X253360000Y-103200000D02*
X252685000Y-102525000D01*
D40*
X259975000Y-84265000D02*
X260000000Y-84290000D01*
X191844974Y-156010000D02*
X193020000Y-157185026D01*
D38*
X253635000Y-122505000D02*
X252765000Y-123375000D01*
D40*
X176240000Y-158740000D02*
X177512893Y-158740000D01*
X208094595Y-165050000D02*
X235710000Y-165050000D01*
D38*
X252685000Y-86237500D02*
X254657500Y-84265000D01*
X252705000Y-103855000D02*
X252705000Y-121625000D01*
X252765000Y-140585000D02*
X253635000Y-141455000D01*
X252765000Y-123375000D02*
X252765000Y-140585000D01*
D40*
X193020000Y-157185026D02*
X193020000Y-165810000D01*
D38*
X259900000Y-103200000D02*
X253360000Y-103200000D01*
D40*
X181020000Y-158410000D02*
X183420000Y-156010000D01*
X177842893Y-158410000D02*
X181020000Y-158410000D01*
X193020000Y-165810000D02*
X193025000Y-165815000D01*
D38*
X254657500Y-84265000D02*
X259975000Y-84265000D01*
D40*
X260075000Y-141455000D02*
X260100000Y-141430000D01*
X207329595Y-165815000D02*
X208094595Y-165050000D01*
D38*
X253360000Y-103200000D02*
X252705000Y-103855000D01*
X252765000Y-158595000D02*
X252765000Y-142365000D01*
X252765000Y-142365000D02*
X253675000Y-141455000D01*
D40*
X259850000Y-122560000D02*
X259940000Y-122650000D01*
X183420000Y-156010000D02*
X191844974Y-156010000D01*
X193025000Y-165815000D02*
X207329595Y-165815000D01*
D38*
X252685000Y-102525000D02*
X252685000Y-86237500D01*
D40*
X240240000Y-160520000D02*
X254790000Y-160520000D01*
X235710000Y-165050000D02*
X240240000Y-160520000D01*
D38*
X254735000Y-160565000D02*
X252765000Y-158595000D01*
X253635000Y-141455000D02*
X260075000Y-141455000D01*
X252705000Y-121625000D02*
X253640000Y-122560000D01*
X253640000Y-122560000D02*
X259850000Y-122560000D01*
D40*
X177512893Y-158740000D02*
X177842893Y-158410000D01*
D38*
X237960000Y-96930000D02*
X237060000Y-96030000D01*
X237960000Y-103090000D02*
X237960000Y-96930000D01*
X237640000Y-103410000D02*
X237960000Y-103090000D01*
X238010000Y-122160000D02*
X238010000Y-116030000D01*
X237760000Y-122410000D02*
X238010000Y-122160000D01*
X238010000Y-116030000D02*
X237060000Y-115080000D01*
X237800000Y-141490000D02*
X238150000Y-141140000D01*
X238150000Y-135220000D02*
X237060000Y-134130000D01*
X238150000Y-141140000D02*
X238150000Y-135220000D01*
X237820000Y-160550000D02*
X238090000Y-160280000D01*
X238090000Y-160280000D02*
X238090000Y-154210000D01*
X238090000Y-154210000D02*
X237060000Y-153180000D01*
X262500000Y-78110000D02*
X261380000Y-76990000D01*
X262500000Y-83890000D02*
X262500000Y-78110000D01*
X262100000Y-84290000D02*
X262500000Y-83890000D01*
X262220000Y-102980000D02*
X262220000Y-96880000D01*
X262220000Y-96880000D02*
X261380000Y-96040000D01*
X262000000Y-103200000D02*
X262220000Y-102980000D01*
X262300000Y-122390000D02*
X262300000Y-116010000D01*
X262300000Y-116010000D02*
X261380000Y-115090000D01*
X262040000Y-122650000D02*
X262300000Y-122390000D01*
X262490000Y-141140000D02*
X262490000Y-135250000D01*
X262490000Y-135250000D02*
X261380000Y-134140000D01*
X262200000Y-141430000D02*
X262490000Y-141140000D01*
X256890000Y-160520000D02*
X257010000Y-160400000D01*
X257010000Y-160400000D02*
X257010000Y-154090000D01*
X257010000Y-154090000D02*
X256100000Y-153180000D01*
D40*
X171170000Y-163660000D02*
X169695026Y-165134974D01*
X134690500Y-163340500D02*
X126310000Y-154960000D01*
X171170000Y-163290000D02*
X171170000Y-163660000D01*
X136675069Y-163100000D02*
X136434569Y-163340500D01*
X162925431Y-165445000D02*
X160580431Y-163100000D01*
X169695026Y-165134974D02*
X169205000Y-165134974D01*
X136434569Y-163340500D02*
X134690500Y-163340500D01*
X169205000Y-165134974D02*
X169205000Y-165239975D01*
X171790000Y-162670000D02*
X171170000Y-163290000D01*
X171790000Y-161590000D02*
X171790000Y-162670000D01*
X169205000Y-165239975D02*
X168999975Y-165445000D01*
X160580431Y-163100000D02*
X136675069Y-163100000D01*
X168999975Y-165445000D02*
X162925431Y-165445000D01*
X169550052Y-164784974D02*
X169195026Y-164784974D01*
X135010500Y-162990500D02*
X132420000Y-160400000D01*
X136614595Y-162665500D02*
X136289595Y-162990500D01*
X132420000Y-152430000D02*
X131660000Y-151670000D01*
X160640905Y-162665500D02*
X136614595Y-162665500D01*
X169195026Y-164784974D02*
X168855000Y-164444948D01*
X171390000Y-162575026D02*
X170820000Y-163145026D01*
X171390000Y-161590000D02*
X171390000Y-162575026D01*
X163070405Y-165095000D02*
X160640905Y-162665500D01*
X170820000Y-163145026D02*
X170820000Y-163515026D01*
X168855000Y-164444948D02*
X168855000Y-165095000D01*
X170820000Y-163515026D02*
X169550052Y-164784974D01*
X168855000Y-165095000D02*
X163070405Y-165095000D01*
X136289595Y-162990500D02*
X135010500Y-162990500D01*
X132420000Y-160400000D02*
X132420000Y-152430000D01*
X144275000Y-65220500D02*
X144510000Y-64985500D01*
X144510000Y-64985500D02*
X144510000Y-63565500D01*
X144275000Y-66835500D02*
X144275000Y-65220500D01*
X175430000Y-137030000D02*
X176410000Y-138010000D01*
X175430000Y-66910000D02*
X175430000Y-137030000D01*
X155280000Y-65870000D02*
X158510000Y-62640000D01*
X145670000Y-68070000D02*
X145510000Y-67910000D01*
X158510000Y-62640000D02*
X171160000Y-62640000D01*
X146885000Y-64590000D02*
X146510000Y-64215000D01*
X146510000Y-64215000D02*
X146510000Y-63565500D01*
X171160000Y-62640000D02*
X175430000Y-66910000D01*
X146290000Y-68070000D02*
X146885000Y-67475000D01*
X155280000Y-69360000D02*
X155280000Y-65870000D01*
X152614500Y-72025500D02*
X155280000Y-69360000D01*
X145510000Y-67910000D02*
X145510000Y-63565500D01*
X145670000Y-68070000D02*
X146290000Y-68070000D01*
X151660000Y-72025500D02*
X152614500Y-72025500D01*
X146885000Y-67475000D02*
X146885000Y-64590000D01*
X176410000Y-138010000D02*
X176410000Y-139160000D01*
X145010000Y-67590000D02*
X144424500Y-68175500D01*
X155720000Y-66380000D02*
X158680000Y-63420000D01*
X158680000Y-63420000D02*
X170940000Y-63420000D01*
X155720000Y-69570000D02*
X155720000Y-66380000D01*
X144424500Y-68175500D02*
X144274500Y-68175500D01*
X146210500Y-66750000D02*
X146010000Y-66549500D01*
X152272812Y-73017188D02*
X155720000Y-69570000D01*
X170940000Y-63420000D02*
X174810000Y-67290000D01*
X145010000Y-63565500D02*
X145010000Y-67590000D01*
X146010000Y-66549500D02*
X146010000Y-63520000D01*
X174810000Y-67290000D02*
X174810000Y-139165000D01*
X151535259Y-73017188D02*
X152272812Y-73017188D01*
X147510000Y-66610500D02*
X147510000Y-63565500D01*
D38*
X150080000Y-58765500D02*
X141440000Y-58765500D01*
X150080000Y-62965500D02*
X150080000Y-61635500D01*
X150080000Y-61635500D02*
X151515000Y-60200500D01*
X153190000Y-60200500D02*
X151515000Y-60200500D01*
D40*
X141440000Y-58720000D02*
X141440000Y-62920000D01*
D38*
X151515000Y-60200500D02*
X150080000Y-58765500D01*
D40*
X138730000Y-104250000D02*
X139420000Y-104940000D01*
X138730000Y-88060000D02*
X138730000Y-104250000D01*
X140125000Y-86665000D02*
X138730000Y-88060000D01*
X139420000Y-104940000D02*
X154694974Y-104940000D01*
X154694974Y-104940000D02*
X155440000Y-105685026D01*
X168880381Y-160340000D02*
X169340000Y-160340000D01*
X140125000Y-85350000D02*
X140125000Y-86665000D01*
X156700000Y-160810000D02*
X168410381Y-160810000D01*
X155745000Y-108745000D02*
X156410000Y-108745000D01*
X155440000Y-109220000D02*
X155440000Y-159550000D01*
X155440000Y-105685026D02*
X155440000Y-109220000D01*
X155440000Y-109050000D02*
X155745000Y-108745000D01*
X155440000Y-159550000D02*
X156700000Y-160810000D01*
X168410381Y-160810000D02*
X168880381Y-160340000D01*
X154405000Y-108705000D02*
X154840000Y-109140000D01*
X138380000Y-104394974D02*
X139275026Y-105290000D01*
X154840000Y-109140000D02*
X154840000Y-159810000D01*
X154840000Y-159810000D02*
X156190000Y-161160000D01*
X153790000Y-108705000D02*
X154405000Y-108705000D01*
X154840000Y-105780000D02*
X154840000Y-109140000D01*
X139275026Y-105290000D02*
X154350000Y-105290000D01*
X154350000Y-105290000D02*
X154840000Y-105780000D01*
X168920000Y-161160000D02*
X169340000Y-160740000D01*
X137125000Y-85350000D02*
X137125000Y-86835000D01*
X156190000Y-161160000D02*
X168920000Y-161160000D01*
X137125000Y-86835000D02*
X138380000Y-88090000D01*
X138380000Y-88090000D02*
X138380000Y-104394974D01*
X197190000Y-155730000D02*
X210660000Y-155730000D01*
X210660000Y-155730000D02*
X211960000Y-157030000D01*
D38*
X210340000Y-156640000D02*
X211120000Y-157420000D01*
X205465000Y-156640000D02*
X207234500Y-156640000D01*
D40*
X175735000Y-154910000D02*
X196370000Y-154910000D01*
D38*
X205340000Y-161345000D02*
X210725000Y-161345000D01*
X207245500Y-156640000D02*
X210340000Y-156640000D01*
D40*
X175515000Y-154690000D02*
X175735000Y-154910000D01*
X211960000Y-157030000D02*
X211960000Y-160380000D01*
X211960000Y-160380000D02*
X211390000Y-160950000D01*
D38*
X211120000Y-160950000D02*
X211120000Y-159190000D01*
X211120000Y-157420000D02*
X211120000Y-159190000D01*
X210725000Y-161345000D02*
X211120000Y-160950000D01*
D40*
X196370000Y-154910000D02*
X197190000Y-155730000D01*
X211390000Y-160950000D02*
X211120000Y-160950000D01*
X170990000Y-162480052D02*
X170990000Y-161590000D01*
X170020052Y-163820000D02*
X170470000Y-163370052D01*
X168180000Y-163820000D02*
X170020052Y-163820000D01*
X170470000Y-163000052D02*
X170990000Y-162480052D01*
X170470000Y-163370052D02*
X170470000Y-163000052D01*
X172990000Y-162535025D02*
X172990000Y-161590000D01*
X173180000Y-162725025D02*
X172990000Y-162535025D01*
X178045000Y-164300000D02*
X178035000Y-164310000D01*
X173180000Y-163560000D02*
X173180000Y-162725025D01*
X178035000Y-164310000D02*
X173930000Y-164310000D01*
X173930000Y-164310000D02*
X173180000Y-163560000D01*
X171790000Y-154690000D02*
X171790000Y-153735025D01*
X171990000Y-152564975D02*
X171790000Y-152364975D01*
X171790000Y-153735025D02*
X171990000Y-153535025D01*
X171990000Y-153535025D02*
X171990000Y-152564975D01*
X171790000Y-146010000D02*
X176410000Y-141390000D01*
X176410000Y-141390000D02*
X176410000Y-140810000D01*
X171790000Y-152364975D02*
X171790000Y-146010000D01*
X171640000Y-152709949D02*
X171640000Y-153390050D01*
X171390000Y-153640050D02*
X171390000Y-154690000D01*
X171440000Y-152509950D02*
X171640000Y-152709949D01*
X171440000Y-145040000D02*
X171440000Y-152509950D01*
X171640000Y-153390050D02*
X171390000Y-153640050D01*
X174810000Y-140815000D02*
X174810000Y-141670000D01*
X174810000Y-141670000D02*
X171440000Y-145040000D01*
X156185806Y-159405806D02*
X155790000Y-159010000D01*
X156980000Y-99610000D02*
X156980000Y-68620000D01*
X157330000Y-109290000D02*
X157330000Y-102800000D01*
X168640000Y-159540000D02*
X168070000Y-160110000D01*
X169340000Y-159540000D02*
X168640000Y-159540000D01*
X157599694Y-160110000D02*
X157599694Y-159801211D01*
X157204289Y-159405806D02*
X156185806Y-159405806D01*
X168070000Y-160110000D02*
X157599694Y-160110000D01*
X158640000Y-66960000D02*
X167200000Y-66960000D01*
X155790000Y-159010000D02*
X155790000Y-110830000D01*
X156980000Y-68620000D02*
X158640000Y-66960000D01*
X157599694Y-159801211D02*
X157204289Y-159405806D01*
X155790000Y-110830000D02*
X157330000Y-109290000D01*
X157330000Y-102800000D02*
X156940000Y-102410000D01*
X151200000Y-109830000D02*
X145420000Y-109830000D01*
X148640000Y-88990000D02*
X148160000Y-88510000D01*
X161495405Y-158400000D02*
X160205405Y-159690000D01*
X165600000Y-158400000D02*
X161495405Y-158400000D01*
X142160000Y-106570000D02*
X141920000Y-106570000D01*
X156460000Y-159055806D02*
X156460000Y-114410000D01*
X157349263Y-159055806D02*
X156460000Y-159055806D01*
X153720000Y-114390000D02*
X153720000Y-112350000D01*
X169340000Y-158740000D02*
X165940000Y-158740000D01*
X160205405Y-159690000D02*
X157983457Y-159690000D01*
X151880000Y-110510000D02*
X151200000Y-109830000D01*
X141900000Y-101610000D02*
X148640000Y-94870000D01*
X141900000Y-103970000D02*
X141900000Y-101610000D01*
X156460000Y-114410000D02*
X156510000Y-114360000D01*
X145420000Y-109830000D02*
X142160000Y-106570000D01*
X148640000Y-94870000D02*
X148640000Y-88990000D01*
X165940000Y-158740000D02*
X165600000Y-158400000D01*
X157983457Y-159690000D02*
X157349263Y-159055806D01*
X153720000Y-112350000D02*
X151880000Y-110510000D01*
X154395000Y-158686462D02*
X154395000Y-112530025D01*
X154165500Y-158915962D02*
X154395000Y-158686462D01*
X166080000Y-158340000D02*
X169340000Y-158340000D01*
X158989406Y-158050000D02*
X165790000Y-158050000D01*
X158308100Y-158731306D02*
X158989406Y-158050000D01*
X165790000Y-158050000D02*
X166080000Y-158340000D01*
X154395000Y-112530025D02*
X149424974Y-107560000D01*
X149424974Y-107560000D02*
X148160000Y-107560000D01*
X158780000Y-157700000D02*
X158590000Y-157890000D01*
X169340000Y-157940000D02*
X166174974Y-157940000D01*
X153720500Y-157919838D02*
X154045000Y-157595338D01*
X158590000Y-157890000D02*
X158450000Y-158030000D01*
X154045000Y-130140000D02*
X150515000Y-126610000D01*
X150515000Y-126610000D02*
X148160000Y-126610000D01*
X165934975Y-157700000D02*
X158780000Y-157700000D01*
X154045000Y-157595338D02*
X154045000Y-130140000D01*
X158450000Y-158030000D02*
X157330000Y-158030000D01*
X166174974Y-157940000D02*
X165934975Y-157700000D01*
X165790001Y-157349999D02*
X157649502Y-157349999D01*
X153370500Y-156944383D02*
X153695000Y-156619883D01*
X153695000Y-156619883D02*
X153695000Y-149645000D01*
X166079950Y-157350000D02*
X165790001Y-157349999D01*
X169340000Y-157540000D02*
X166269950Y-157540000D01*
X149710000Y-145660000D02*
X148160000Y-145660000D01*
X157649502Y-157349999D02*
X157330000Y-157030497D01*
X166269950Y-157540000D02*
X166079950Y-157350000D01*
X153695000Y-149645000D02*
X149710000Y-145660000D01*
X174990000Y-154690000D02*
X174990000Y-154150000D01*
X175470000Y-153910000D02*
X175860000Y-154300000D01*
X212310000Y-160524974D02*
X210219974Y-162615000D01*
X175879974Y-154560000D02*
X196514974Y-154560000D01*
X210219974Y-162615000D02*
X205340000Y-162615000D01*
X196514974Y-154560000D02*
X197334974Y-155380000D01*
X175860000Y-154540026D02*
X175879974Y-154560000D01*
X174990000Y-154150000D02*
X175230000Y-153910000D01*
X197334974Y-155380000D02*
X210804974Y-155380000D01*
X175860000Y-154300000D02*
X175860000Y-154540026D01*
X175230000Y-153910000D02*
X175470000Y-153910000D01*
X212310000Y-156885026D02*
X212310000Y-160524974D01*
X210804974Y-155380000D02*
X212310000Y-156885026D01*
X175085026Y-153560000D02*
X175660000Y-153560000D01*
X209605000Y-163885000D02*
X205340000Y-163885000D01*
X196770000Y-154210000D02*
X197590000Y-155030000D01*
X197590000Y-155030000D02*
X210990000Y-155030000D01*
X174590000Y-154055026D02*
X175085026Y-153560000D01*
X175660000Y-153560000D02*
X176310000Y-154210000D01*
X212660000Y-156700000D02*
X212660000Y-160830000D01*
X210990000Y-155030000D02*
X212660000Y-156700000D01*
X174590000Y-154690000D02*
X174590000Y-154055026D01*
X176310000Y-154210000D02*
X196770000Y-154210000D01*
X212660000Y-160830000D02*
X209605000Y-163885000D01*
X174190000Y-154690000D02*
X174190000Y-153960052D01*
X191355500Y-153860000D02*
X191680000Y-153535500D01*
X176500000Y-153860000D02*
X191355500Y-153860000D01*
X193811261Y-165129277D02*
X193861984Y-165180000D01*
X174940051Y-153210000D02*
X175850000Y-153210000D01*
X174190000Y-153960052D02*
X174940051Y-153210000D01*
X175850000Y-153210000D02*
X176500000Y-153860000D01*
X193861984Y-165180000D02*
X198115000Y-165180000D01*
X198115000Y-165180000D02*
X198140000Y-165155000D01*
X193790000Y-164130000D02*
X194010000Y-163910000D01*
X175994974Y-152860000D02*
X174795076Y-152860000D01*
X192740000Y-153535500D02*
X192065000Y-152860500D01*
X174795076Y-152860000D02*
X173790000Y-153865076D01*
X194010000Y-163910000D02*
X198115000Y-163910000D01*
X190750905Y-153510000D02*
X176644974Y-153510000D01*
X173790000Y-153865076D02*
X173790000Y-154690000D01*
X176644974Y-153510000D02*
X175994974Y-152860000D01*
X192065000Y-152860500D02*
X191400405Y-152860500D01*
X191400405Y-152860500D02*
X190750905Y-153510000D01*
X198115000Y-163910000D02*
X198140000Y-163885000D01*
X176920000Y-153160000D02*
X190510000Y-153160000D01*
X174650102Y-152510000D02*
X174820000Y-152510000D01*
X173370000Y-154690000D02*
X173365000Y-154685000D01*
X173365000Y-153795102D02*
X174650102Y-152510000D01*
X194303838Y-162670000D02*
X198085000Y-162670000D01*
X174820000Y-152510000D02*
X176270000Y-152510000D01*
X173365000Y-154685000D02*
X173365000Y-153795102D01*
X192350000Y-152510000D02*
X192714003Y-152510000D01*
X176270000Y-152510000D02*
X176920000Y-153160000D01*
X191160000Y-152510000D02*
X192350000Y-152510000D01*
X198085000Y-162670000D02*
X198140000Y-162615000D01*
X173390000Y-154690000D02*
X173370000Y-154690000D01*
X192714003Y-152510000D02*
X193739503Y-153535500D01*
X193841987Y-163131851D02*
X194303838Y-162670000D01*
X190550000Y-153120000D02*
X191160000Y-152510000D01*
X190510000Y-153160000D02*
X190550000Y-153120000D01*
D39*
X148400000Y-98520000D02*
X150497500Y-98520000D01*
X150497500Y-98520000D02*
X154800000Y-94217500D01*
D38*
X143960000Y-101455000D02*
X146895000Y-98520000D01*
X146895000Y-98520000D02*
X148400000Y-98520000D01*
X113890000Y-164880000D02*
X112091683Y-163081683D01*
X112091683Y-163081683D02*
X112091683Y-162528647D01*
X115226677Y-168546677D02*
X113890000Y-167210000D01*
X115226677Y-169100879D02*
X115226677Y-168546677D01*
X113890000Y-167210000D02*
X113890000Y-164880000D01*
D40*
X170324119Y-162315500D02*
X136010000Y-162315500D01*
X170590000Y-161590000D02*
X170590000Y-162049619D01*
X134390000Y-164689000D02*
X134390000Y-170060000D01*
D38*
X114584202Y-171150000D02*
X133300000Y-171150000D01*
D40*
X170590000Y-162049619D02*
X170324119Y-162315500D01*
X134390000Y-170060000D02*
X133300000Y-171150000D01*
D38*
X113253323Y-169819121D02*
X114584202Y-171150000D01*
X133300000Y-171150000D02*
X137811758Y-175661758D01*
X137811758Y-175661758D02*
X137811758Y-180686646D01*
D40*
X132950000Y-164720000D02*
X121420000Y-164720000D01*
D38*
X97770000Y-178700000D02*
X97880000Y-178810000D01*
X117270000Y-178190000D02*
X119950879Y-180870879D01*
D40*
X106700000Y-164040000D02*
X106700000Y-178190000D01*
X135380564Y-161590000D02*
X135131188Y-161839376D01*
D38*
X97744202Y-178700000D02*
X97770000Y-178700000D01*
D40*
X170190000Y-161590000D02*
X135380564Y-161590000D01*
X116990000Y-160290000D02*
X110450000Y-160290000D01*
D38*
X106700000Y-178190000D02*
X117270000Y-178190000D01*
X106080000Y-178810000D02*
X106700000Y-178190000D01*
D40*
X110450000Y-160290000D02*
X106700000Y-164040000D01*
X133140000Y-164530000D02*
X132950000Y-164720000D01*
D38*
X119950879Y-180870879D02*
X119950879Y-187495823D01*
D40*
X121420000Y-164720000D02*
X116990000Y-160290000D01*
D38*
X95413323Y-176369121D02*
X97744202Y-178700000D01*
X97880000Y-178810000D02*
X106080000Y-178810000D01*
D40*
X104480000Y-194480000D02*
X102344202Y-194480000D01*
X168785407Y-159940000D02*
X169340000Y-159940000D01*
X156924694Y-160080806D02*
X157303888Y-160460000D01*
D38*
X101460000Y-197160000D02*
X102580000Y-198280000D01*
X102580000Y-206010000D02*
X104400000Y-207830000D01*
D40*
X108140000Y-190820000D02*
X104480000Y-194480000D01*
D38*
X106730000Y-213040000D02*
X107754888Y-213040000D01*
D40*
X126844500Y-170190000D02*
X124180000Y-170190000D01*
X154335500Y-160920000D02*
X134230000Y-160920000D01*
X131640000Y-165394500D02*
X126844500Y-170190000D01*
D38*
X102003323Y-194139121D02*
X101460000Y-194682444D01*
D40*
X108140000Y-185650000D02*
X108140000Y-190820000D01*
X109570000Y-184220000D02*
X108140000Y-185650000D01*
D38*
X101460000Y-194682444D02*
X101460000Y-197160000D01*
D40*
X168265407Y-160460000D02*
X168785407Y-159940000D01*
D38*
X104400000Y-210710000D02*
X106730000Y-213040000D01*
D40*
X157303888Y-160460000D02*
X168265407Y-160460000D01*
D38*
X104400000Y-207830000D02*
X104400000Y-210710000D01*
X102580000Y-198280000D02*
X102580000Y-206010000D01*
D40*
X154340000Y-160915500D02*
X154335500Y-160920000D01*
X134230000Y-160920000D02*
X134061944Y-161088056D01*
X102344202Y-194480000D02*
X102003323Y-194139121D01*
D38*
X107754888Y-213040000D02*
X108256646Y-212538242D01*
D40*
X158530000Y-164014500D02*
X157965500Y-163450000D01*
X174590000Y-161590000D02*
X174590000Y-162200000D01*
X174590000Y-162200000D02*
X175610000Y-163220000D01*
X136820043Y-163450000D02*
X136579543Y-163690500D01*
X136579543Y-163690500D02*
X121090500Y-163690500D01*
X157965500Y-163450000D02*
X136820043Y-163450000D01*
X121090500Y-163690500D02*
X117190000Y-159790000D01*
X117190000Y-159790000D02*
X117190000Y-157970000D01*
X154200000Y-166880000D02*
X154200000Y-167300000D01*
X154200000Y-167300000D02*
X151990000Y-169510000D01*
X151990000Y-169510000D02*
X151990000Y-182441727D01*
X158200000Y-166224500D02*
X154855500Y-166224500D01*
X151990000Y-182441727D02*
X149852370Y-184579357D01*
X154855500Y-166224500D02*
X154200000Y-166880000D01*
X174291487Y-162855375D02*
X174190000Y-162753888D01*
X159550000Y-164874500D02*
X158200000Y-166224500D01*
X159550000Y-164014500D02*
X159550000Y-164874500D01*
X174190000Y-162753888D02*
X174190000Y-161590000D01*
G04 #@! TA.AperFunction,Conductor*
G36*
X174547936Y-159829604D02*
G01*
X174614867Y-159849656D01*
X174655330Y-159892810D01*
X174906341Y-160339052D01*
X174922052Y-160407132D01*
X174898461Y-160472899D01*
X174843059Y-160515471D01*
X174786212Y-160523257D01*
X173000452Y-160348834D01*
X172935643Y-160322725D01*
X172895238Y-160265724D01*
X172891191Y-160251084D01*
X172881694Y-160206191D01*
X172831837Y-159970503D01*
X172837220Y-159900844D01*
X172879412Y-159845152D01*
X172945015Y-159821110D01*
X172953826Y-159820845D01*
X174547936Y-159829604D01*
G37*
G04 #@! TD.AperFunction*
M02*
