  0
SECTION
  2
HEADER
  9
$ANGBASE
  50
0.0
  9
$ANGDIR
  70
1
  9
$MEASUREMENT
  70
1
  0
ENDSEC
  0
SECTION
  2
TABLES
  0
TABLE
  2
LTYPE
  70
4
  0
LTYPE
  5
40F
  2
CONTINUOUS
  70
0
  3
Solid line
  72
65
  73
0
  40
0.0
  0
LTYPE
  5
410
  2
DASHDOT
 70
0
  3
Dash Dot ____ _ ____ _
 72
65
 73
4
 40
2.0
 49
1.25
 49
-0.25
 49
0.25
 49
-0.25
  0
LTYPE
  5
411
  2
DASHED
 70
0
  3
Dashed __ __ __ __ __
 72
65
 73
2
 40
0.75
 49
0.5
 49
-0.25
  0
LTYPE
  5
43B
  2
DOTTED
 70
0
  3
Dotted .  .  .  .
 72
65
 73
2
 40
0.2
 49
0.0
 49
-0.2
  0
ENDTAB
  0
TABLE
  2
STYLE
  70
4
  0
STYLE
  2
KICAD
  70
0
  40
0
  41
1
  42
1
  50
0
  71
0
  3
isocp.shx
  0
STYLE
  2
KICADB
  70
0
  40
0
  41
1
  42
1
  50
0
  71
0
  3
isocp.shx
  0
STYLE
  2
KICADI
  70
0
  40
0
  41
1
  42
1
  50
15
  71
0
  3
isocp.shx
  0
STYLE
  2
KICADBI
  70
0
  40
0
  41
1
  42
1
  50
15
  71
0
  3
isocp.shx
  0
ENDTAB
  0
TABLE
  2
LAYER
  70
1
  0
LAYER
  2
BLACK
  70
0
  62
7
  6
CONTINUOUS
  0
ENDTAB
  0
ENDSEC
  0
SECTION
  2
ENTITIES
0
LINE
8
BLACK
6
CONTINUOUS
10
280.29
20
-56.99
11
280.472
21
-57.006
0
LINE
8
BLACK
6
CONTINUOUS
10
280.472
20
-57.006
11
280.649
21
-57.0533
0
LINE
8
BLACK
6
CONTINUOUS
10
280.649
20
-57.0533
11
280.815
21
-57.1307
0
LINE
8
BLACK
6
CONTINUOUS
10
280.815
20
-57.1307
11
280.965
21
-57.2357
0
LINE
8
BLACK
6
CONTINUOUS
10
280.965
20
-57.2357
11
281.094
21
-57.3651
0
LINE
8
BLACK
6
CONTINUOUS
10
281.094
20
-57.3651
11
281.199
21
-57.515
0
LINE
8
BLACK
6
CONTINUOUS
10
281.199
20
-57.515
11
281.277
21
-57.6809
0
LINE
8
BLACK
6
CONTINUOUS
10
281.277
20
-57.6809
11
281.324
21
-57.8577
0
LINE
8
BLACK
6
CONTINUOUS
10
281.324
20
-57.8577
11
281.34
21
-58.04
0
LINE
8
BLACK
6
CONTINUOUS
10
281.34
20
-58.04
11
281.34
21
-58.04
0
LINE
8
BLACK
6
CONTINUOUS
10
281.34
20
-58.04
11
281.34
21
-166.533
0
LINE
8
BLACK
6
CONTINUOUS
10
281.34
20
-166.533
11
281.324
21
-166.715
0
LINE
8
BLACK
6
CONTINUOUS
10
281.324
20
-166.715
11
281.277
21
-166.892
0
LINE
8
BLACK
6
CONTINUOUS
10
281.277
20
-166.892
11
281.199
21
-167.058
0
LINE
8
BLACK
6
CONTINUOUS
10
281.199
20
-167.058
11
281.094
21
-167.208
0
LINE
8
BLACK
6
CONTINUOUS
10
281.094
20
-167.208
11
280.965
21
-167.337
0
LINE
8
BLACK
6
CONTINUOUS
10
280.965
20
-167.337
11
280.815
21
-167.442
0
LINE
8
BLACK
6
CONTINUOUS
10
280.815
20
-167.442
11
280.649
21
-167.52
0
LINE
8
BLACK
6
CONTINUOUS
10
280.649
20
-167.52
11
280.472
21
-167.567
0
LINE
8
BLACK
6
CONTINUOUS
10
280.472
20
-167.567
11
280.29
21
-167.583
0
LINE
8
BLACK
6
CONTINUOUS
10
280.29
20
-167.583
11
280.29
21
-167.583
0
LINE
8
BLACK
6
CONTINUOUS
10
280.29
20
-167.583
11
155.19
21
-167.583
0
LINE
8
BLACK
6
CONTINUOUS
10
155.19
20
-167.583
11
155.19
21
-167.583
0
LINE
8
BLACK
6
CONTINUOUS
10
155.19
20
-167.583
11
155.107
21
-167.583
0
LINE
8
BLACK
6
CONTINUOUS
10
155.107
20
-167.583
11
154.943
21
-167.612
0
LINE
8
BLACK
6
CONTINUOUS
10
154.943
20
-167.612
11
154.787
21
-167.669
0
LINE
8
BLACK
6
CONTINUOUS
10
154.787
20
-167.669
11
154.643
21
-167.752
0
LINE
8
BLACK
6
CONTINUOUS
10
154.643
20
-167.752
11
154.516
21
-167.859
0
LINE
8
BLACK
6
CONTINUOUS
10
154.516
20
-167.859
11
154.409
21
-167.986
0
LINE
8
BLACK
6
CONTINUOUS
10
154.409
20
-167.986
11
154.326
21
-168.13
0
LINE
8
BLACK
6
CONTINUOUS
10
154.326
20
-168.13
11
154.269
21
-168.286
0
LINE
8
BLACK
6
CONTINUOUS
10
154.269
20
-168.286
11
154.24
21
-168.45
0
LINE
8
BLACK
6
CONTINUOUS
10
154.24
20
-168.45
11
154.24
21
-168.524
0
LINE
8
BLACK
6
CONTINUOUS
10
154.24
20
-168.524
11
165.437
21
-199.316
0
LINE
8
BLACK
6
CONTINUOUS
10
165.437
20
-199.316
11
165.437
21
-199.323
0
LINE
8
BLACK
6
CONTINUOUS
10
165.437
20
-199.323
11
165.44
21
-199.333
0
LINE
8
BLACK
6
CONTINUOUS
10
165.44
20
-199.333
11
165.424
21
-199.522
0
LINE
8
BLACK
6
CONTINUOUS
10
165.424
20
-199.522
11
165.377
21
-199.706
0
LINE
8
BLACK
6
CONTINUOUS
10
165.377
20
-199.706
11
165.3
21
-199.88
0
LINE
8
BLACK
6
CONTINUOUS
10
165.3
20
-199.88
11
165.194
21
-200.038
0
LINE
8
BLACK
6
CONTINUOUS
10
165.194
20
-200.038
11
165.064
21
-200.176
0
LINE
8
BLACK
6
CONTINUOUS
10
165.064
20
-200.176
11
164.913
21
-200.291
0
LINE
8
BLACK
6
CONTINUOUS
10
164.913
20
-200.291
11
164.745
21
-200.379
0
LINE
8
BLACK
6
CONTINUOUS
10
164.745
20
-200.379
11
164.745
21
-200.379
0
LINE
8
BLACK
6
CONTINUOUS
10
164.745
20
-200.379
11
164.743
21
-200.379
0
LINE
8
BLACK
6
CONTINUOUS
10
164.743
20
-200.379
11
164.742
21
-200.38
0
LINE
8
BLACK
6
CONTINUOUS
10
164.742
20
-200.38
11
105.587
21
-222.08
0
LINE
8
BLACK
6
CONTINUOUS
10
105.587
20
-222.08
11
105.587
21
-222.08
0
LINE
8
BLACK
6
CONTINUOUS
10
105.587
20
-222.08
11
105.4
21
-222.136
0
LINE
8
BLACK
6
CONTINUOUS
10
105.4
20
-222.136
11
105.203
21
-222.159
0
LINE
8
BLACK
6
CONTINUOUS
10
105.203
20
-222.159
11
105.006
21
-222.148
0
LINE
8
BLACK
6
CONTINUOUS
10
105.006
20
-222.148
11
104.814
21
-222.102
0
LINE
8
BLACK
6
CONTINUOUS
10
104.814
20
-222.102
11
104.633
21
-222.024
0
LINE
8
BLACK
6
CONTINUOUS
10
104.633
20
-222.024
11
104.469
21
-221.915
0
LINE
8
BLACK
6
CONTINUOUS
10
104.469
20
-221.915
11
104.325
21
-221.779
0
LINE
8
BLACK
6
CONTINUOUS
10
104.325
20
-221.779
11
104.208
21
-221.62
0
LINE
8
BLACK
6
CONTINUOUS
10
104.208
20
-221.62
11
104.12
21
-221.443
0
LINE
8
BLACK
6
CONTINUOUS
10
104.12
20
-221.443
11
104.067
21
-221.262
0
LINE
8
BLACK
6
CONTINUOUS
10
104.067
20
-221.262
11
104.067
21
-221.261
0
LINE
8
BLACK
6
CONTINUOUS
10
104.067
20
-221.261
11
83.4431
21
-165.15
0
LINE
8
BLACK
6
CONTINUOUS
10
83.4431
20
-165.15
11
83.4432
21
-165.147
0
LINE
8
BLACK
6
CONTINUOUS
10
83.4432
20
-165.147
11
83.441
21
-165.143
0
LINE
8
BLACK
6
CONTINUOUS
10
83.441
20
-165.143
11
83.4205
21
-164.957
0
LINE
8
BLACK
6
CONTINUOUS
10
83.4205
20
-164.957
11
83.4325
21
-164.771
0
LINE
8
BLACK
6
CONTINUOUS
10
83.4325
20
-164.771
11
83.4766
21
-164.59
0
LINE
8
BLACK
6
CONTINUOUS
10
83.4766
20
-164.59
11
83.5515
21
-164.419
0
LINE
8
BLACK
6
CONTINUOUS
10
83.5515
20
-164.419
11
83.655
21
-164.264
0
LINE
8
BLACK
6
CONTINUOUS
10
83.655
20
-164.264
11
83.7838
21
-164.129
0
LINE
8
BLACK
6
CONTINUOUS
10
83.7838
20
-164.129
11
83.9341
21
-164.019
0
LINE
8
BLACK
6
CONTINUOUS
10
83.9341
20
-164.019
11
84.1012
21
-163.936
0
LINE
8
BLACK
6
CONTINUOUS
10
84.1012
20
-163.936
11
84.2729
21
-163.886
0
LINE
8
BLACK
6
CONTINUOUS
10
84.2729
20
-163.886
11
84.2731
21
-163.886
0
LINE
8
BLACK
6
CONTINUOUS
10
84.2731
20
-163.886
11
133.237
21
-146.286
0
LINE
8
BLACK
6
CONTINUOUS
10
133.237
20
-146.286
11
133.241
21
-146.286
0
LINE
8
BLACK
6
CONTINUOUS
10
133.241
20
-146.286
11
133.244
21
-146.284
0
LINE
8
BLACK
6
CONTINUOUS
10
133.244
20
-146.284
11
133.244
21
-146.284
0
LINE
8
BLACK
6
CONTINUOUS
10
133.244
20
-146.284
11
133.314
21
-146.27
0
LINE
8
BLACK
6
CONTINUOUS
10
133.314
20
-146.27
11
133.445
21
-146.218
0
LINE
8
BLACK
6
CONTINUOUS
10
133.445
20
-146.218
11
133.565
21
-146.144
0
LINE
8
BLACK
6
CONTINUOUS
10
133.565
20
-146.144
11
133.67
21
-146.049
0
LINE
8
BLACK
6
CONTINUOUS
10
133.67
20
-146.049
11
133.756
21
-145.937
0
LINE
8
BLACK
6
CONTINUOUS
10
133.756
20
-145.937
11
133.821
21
-145.812
0
LINE
8
BLACK
6
CONTINUOUS
10
133.821
20
-145.812
11
133.84
21
-145.752
0
LINE
8
BLACK
6
CONTINUOUS
10
133.84
20
-145.752
11
133.84
21
-58.04
0
LINE
8
BLACK
6
CONTINUOUS
10
133.84
20
-58.04
11
133.856
21
-57.8577
0
LINE
8
BLACK
6
CONTINUOUS
10
133.856
20
-57.8577
11
133.903
21
-57.6809
0
LINE
8
BLACK
6
CONTINUOUS
10
133.903
20
-57.6809
11
133.981
21
-57.515
0
LINE
8
BLACK
6
CONTINUOUS
10
133.981
20
-57.515
11
134.086
21
-57.3651
0
LINE
8
BLACK
6
CONTINUOUS
10
134.086
20
-57.3651
11
134.215
21
-57.2357
0
LINE
8
BLACK
6
CONTINUOUS
10
134.215
20
-57.2357
11
134.365
21
-57.1307
0
LINE
8
BLACK
6
CONTINUOUS
10
134.365
20
-57.1307
11
134.531
21
-57.0533
0
LINE
8
BLACK
6
CONTINUOUS
10
134.531
20
-57.0533
11
134.708
21
-57.006
0
LINE
8
BLACK
6
CONTINUOUS
10
134.708
20
-57.006
11
134.89
21
-56.99
0
LINE
8
BLACK
6
CONTINUOUS
10
134.89
20
-56.99
11
280.29
21
-56.99
0
LINE
8
BLACK
6
CONTINUOUS
10
133.938
20
-145.774
11
133.878
21
-145.921
0
LINE
8
BLACK
6
CONTINUOUS
10
133.878
20
-145.921
11
133.792
21
-146.054
0
LINE
8
BLACK
6
CONTINUOUS
10
133.792
20
-146.054
11
133.685
21
-146.171
0
LINE
8
BLACK
6
CONTINUOUS
10
133.685
20
-146.171
11
133.558
21
-146.266
0
LINE
8
BLACK
6
CONTINUOUS
10
133.558
20
-146.266
11
133.416
21
-146.337
0
LINE
8
BLACK
6
CONTINUOUS
10
133.416
20
-146.337
11
133.271
21
-146.38
0
LINE
8
BLACK
6
CONTINUOUS
10
133.271
20
-146.38
11
133.271
21
-146.38
0
LINE
8
BLACK
6
CONTINUOUS
10
133.271
20
-146.38
11
84.3069
21
-163.98
0
LINE
8
BLACK
6
CONTINUOUS
10
84.3069
20
-163.98
11
84.3036
21
-163.98
0
LINE
8
BLACK
6
CONTINUOUS
10
84.3036
20
-163.98
11
84.2998
21
-163.982
0
LINE
8
BLACK
6
CONTINUOUS
10
84.2998
20
-163.982
11
84.2998
21
-163.982
0
LINE
8
BLACK
6
CONTINUOUS
10
84.2998
20
-163.982
11
84.2166
21
-163.999
0
LINE
8
BLACK
6
CONTINUOUS
10
84.2166
20
-163.999
11
84.0585
21
-164.06
0
LINE
8
BLACK
6
CONTINUOUS
10
84.0585
20
-164.06
11
83.9135
21
-164.148
0
LINE
8
BLACK
6
CONTINUOUS
10
83.9135
20
-164.148
11
83.7861
21
-164.26
0
LINE
8
BLACK
6
CONTINUOUS
10
83.7861
20
-164.26
11
83.68
21
-164.393
0
LINE
8
BLACK
6
CONTINUOUS
10
83.68
20
-164.393
11
83.5985
21
-164.542
0
LINE
8
BLACK
6
CONTINUOUS
10
83.5985
20
-164.542
11
83.5442
21
-164.702
0
LINE
8
BLACK
6
CONTINUOUS
10
83.5442
20
-164.702
11
83.5185
21
-164.87
0
LINE
8
BLACK
6
CONTINUOUS
10
83.5185
20
-164.87
11
83.5224
21
-165.04
0
LINE
8
BLACK
6
CONTINUOUS
10
83.5224
20
-165.04
11
83.5383
21
-165.119
0
LINE
8
BLACK
6
CONTINUOUS
10
83.5383
20
-165.119
11
104.161
21
-221.227
0
LINE
8
BLACK
6
CONTINUOUS
10
104.161
20
-221.227
11
104.161
21
-221.23
0
LINE
8
BLACK
6
CONTINUOUS
10
104.161
20
-221.23
11
104.163
21
-221.234
0
LINE
8
BLACK
6
CONTINUOUS
10
104.163
20
-221.234
11
104.163
21
-221.234
0
LINE
8
BLACK
6
CONTINUOUS
10
104.163
20
-221.234
11
104.181
21
-221.323
0
LINE
8
BLACK
6
CONTINUOUS
10
104.181
20
-221.323
11
104.246
21
-221.491
0
LINE
8
BLACK
6
CONTINUOUS
10
104.246
20
-221.491
11
104.341
21
-221.645
0
LINE
8
BLACK
6
CONTINUOUS
10
104.341
20
-221.645
11
104.46
21
-221.78
0
LINE
8
BLACK
6
CONTINUOUS
10
104.46
20
-221.78
11
104.601
21
-221.893
0
LINE
8
BLACK
6
CONTINUOUS
10
104.601
20
-221.893
11
104.76
21
-221.979
0
LINE
8
BLACK
6
CONTINUOUS
10
104.76
20
-221.979
11
104.932
21
-222.036
0
LINE
8
BLACK
6
CONTINUOUS
10
104.932
20
-222.036
11
105.11
21
-222.062
0
LINE
8
BLACK
6
CONTINUOUS
10
105.11
20
-222.062
11
105.291
21
-222.057
0
LINE
8
BLACK
6
CONTINUOUS
10
105.291
20
-222.057
11
105.468
21
-222.02
0
LINE
8
BLACK
6
CONTINUOUS
10
105.468
20
-222.02
11
105.551
21
-221.986
0
LINE
8
BLACK
6
CONTINUOUS
10
105.551
20
-221.986
11
105.552
21
-221.986
0
LINE
8
BLACK
6
CONTINUOUS
10
105.552
20
-221.986
11
105.553
21
-221.986
0
LINE
8
BLACK
6
CONTINUOUS
10
105.553
20
-221.986
11
164.708
21
-200.286
0
LINE
8
BLACK
6
CONTINUOUS
10
164.708
20
-200.286
11
164.786
21
-200.253
0
LINE
8
BLACK
6
CONTINUOUS
10
164.786
20
-200.253
11
164.933
21
-200.16
0
LINE
8
BLACK
6
CONTINUOUS
10
164.933
20
-200.16
11
165.062
21
-200.044
0
LINE
8
BLACK
6
CONTINUOUS
10
165.062
20
-200.044
11
165.17
21
-199.908
0
LINE
8
BLACK
6
CONTINUOUS
10
165.17
20
-199.908
11
165.254
21
-199.755
0
LINE
8
BLACK
6
CONTINUOUS
10
165.254
20
-199.755
11
165.311
21
-199.591
0
LINE
8
BLACK
6
CONTINUOUS
10
165.311
20
-199.591
11
165.34
21
-199.42
0
LINE
8
BLACK
6
CONTINUOUS
10
165.34
20
-199.42
11
165.34
21
-199.342
0
LINE
8
BLACK
6
CONTINUOUS
10
165.34
20
-199.342
11
154.143
21
-168.55
0
LINE
8
BLACK
6
CONTINUOUS
10
154.143
20
-168.55
11
154.143
21
-168.543
0
LINE
8
BLACK
6
CONTINUOUS
10
154.143
20
-168.543
11
154.14
21
-168.533
0
LINE
8
BLACK
6
CONTINUOUS
10
154.14
20
-168.533
11
154.156
21
-168.351
0
LINE
8
BLACK
6
CONTINUOUS
10
154.156
20
-168.351
11
154.203
21
-168.174
0
LINE
8
BLACK
6
CONTINUOUS
10
154.203
20
-168.174
11
154.281
21
-168.008
0
LINE
8
BLACK
6
CONTINUOUS
10
154.281
20
-168.008
11
154.386
21
-167.858
0
LINE
8
BLACK
6
CONTINUOUS
10
154.386
20
-167.858
11
154.515
21
-167.729
0
LINE
8
BLACK
6
CONTINUOUS
10
154.515
20
-167.729
11
154.665
21
-167.624
0
LINE
8
BLACK
6
CONTINUOUS
10
154.665
20
-167.624
11
154.831
21
-167.546
0
LINE
8
BLACK
6
CONTINUOUS
10
154.831
20
-167.546
11
155.008
21
-167.499
0
LINE
8
BLACK
6
CONTINUOUS
10
155.008
20
-167.499
11
155.19
21
-167.483
0
LINE
8
BLACK
6
CONTINUOUS
10
155.19
20
-167.483
11
155.19
21
-167.483
0
LINE
8
BLACK
6
CONTINUOUS
10
155.19
20
-167.483
11
280.29
21
-167.483
0
LINE
8
BLACK
6
CONTINUOUS
10
280.29
20
-167.483
11
280.29
21
-167.483
0
LINE
8
BLACK
6
CONTINUOUS
10
280.29
20
-167.483
11
280.373
21
-167.483
0
LINE
8
BLACK
6
CONTINUOUS
10
280.373
20
-167.483
11
280.537
21
-167.454
0
LINE
8
BLACK
6
CONTINUOUS
10
280.537
20
-167.454
11
280.693
21
-167.397
0
LINE
8
BLACK
6
CONTINUOUS
10
280.693
20
-167.397
11
280.837
21
-167.314
0
LINE
8
BLACK
6
CONTINUOUS
10
280.837
20
-167.314
11
280.964
21
-167.207
0
LINE
8
BLACK
6
CONTINUOUS
10
280.964
20
-167.207
11
281.071
21
-167.08
0
LINE
8
BLACK
6
CONTINUOUS
10
281.071
20
-167.08
11
281.154
21
-166.936
0
LINE
8
BLACK
6
CONTINUOUS
10
281.154
20
-166.936
11
281.211
21
-166.78
0
LINE
8
BLACK
6
CONTINUOUS
10
281.211
20
-166.78
11
281.24
21
-166.616
0
LINE
8
BLACK
6
CONTINUOUS
10
281.24
20
-166.616
11
281.24
21
-166.533
0
LINE
8
BLACK
6
CONTINUOUS
10
281.24
20
-166.533
11
281.24
21
-58.04
0
LINE
8
BLACK
6
CONTINUOUS
10
281.24
20
-58.04
11
281.24
21
-57.9569
0
LINE
8
BLACK
6
CONTINUOUS
10
281.24
20
-57.9569
11
281.211
21
-57.7932
0
LINE
8
BLACK
6
CONTINUOUS
10
281.211
20
-57.7932
11
281.154
21
-57.637
0
LINE
8
BLACK
6
CONTINUOUS
10
281.154
20
-57.637
11
281.071
21
-57.493
0
LINE
8
BLACK
6
CONTINUOUS
10
281.071
20
-57.493
11
280.964
21
-57.3657
0
LINE
8
BLACK
6
CONTINUOUS
10
280.964
20
-57.3657
11
280.837
21
-57.2588
0
LINE
8
BLACK
6
CONTINUOUS
10
280.837
20
-57.2588
11
280.693
21
-57.1757
0
LINE
8
BLACK
6
CONTINUOUS
10
280.693
20
-57.1757
11
280.537
21
-57.1189
0
LINE
8
BLACK
6
CONTINUOUS
10
280.537
20
-57.1189
11
280.373
21
-57.09
0
LINE
8
BLACK
6
CONTINUOUS
10
280.373
20
-57.09
11
280.29
21
-57.09
0
LINE
8
BLACK
6
CONTINUOUS
10
280.29
20
-57.09
11
134.89
21
-57.09
0
LINE
8
BLACK
6
CONTINUOUS
10
134.89
20
-57.09
11
134.807
21
-57.09
0
LINE
8
BLACK
6
CONTINUOUS
10
134.807
20
-57.09
11
134.643
21
-57.1189
0
LINE
8
BLACK
6
CONTINUOUS
10
134.643
20
-57.1189
11
134.487
21
-57.1757
0
LINE
8
BLACK
6
CONTINUOUS
10
134.487
20
-57.1757
11
134.343
21
-57.2588
0
LINE
8
BLACK
6
CONTINUOUS
10
134.343
20
-57.2588
11
134.216
21
-57.3657
0
LINE
8
BLACK
6
CONTINUOUS
10
134.216
20
-57.3657
11
134.109
21
-57.493
0
LINE
8
BLACK
6
CONTINUOUS
10
134.109
20
-57.493
11
134.026
21
-57.637
0
LINE
8
BLACK
6
CONTINUOUS
10
134.026
20
-57.637
11
133.969
21
-57.7932
0
LINE
8
BLACK
6
CONTINUOUS
10
133.969
20
-57.7932
11
133.94
21
-57.9569
0
LINE
8
BLACK
6
CONTINUOUS
10
133.94
20
-57.9569
11
133.94
21
-58.04
0
LINE
8
BLACK
6
CONTINUOUS
10
133.94
20
-58.04
11
133.94
21
-145.759
0
LINE
8
BLACK
6
CONTINUOUS
10
133.94
20
-145.759
11
133.938
21
-145.765
0
LINE
8
BLACK
6
CONTINUOUS
10
133.938
20
-145.765
11
133.938
21
-145.774
  0
ENDSEC
  0
EOF
