G04 #@! TF.GenerationSoftware,KiCad,Pcbnew,7.0.5*
G04 #@! TF.CreationDate,2025-01-08T21:54:48-05:00*
G04 #@! TF.ProjectId,JasonSplitErgoKeyboard_Right,4a61736f-6e53-4706-9c69-744572676f4b,rev?*
G04 #@! TF.SameCoordinates,Original*
G04 #@! TF.FileFunction,Soldermask,Bot*
G04 #@! TF.FilePolarity,Negative*
%FSLAX46Y46*%
G04 Gerber Fmt 4.6, Leading zero omitted, Abs format (unit mm)*
G04 Created by KiCad (PCBNEW 7.0.5) date 2025-01-08 21:54:48*
%MOMM*%
%LPD*%
G01*
G04 APERTURE LIST*
G04 Aperture macros list*
%AMRoundRect*
0 Rectangle with rounded corners*
0 $1 Rounding radius*
0 $2 $3 $4 $5 $6 $7 $8 $9 X,Y pos of 4 corners*
0 Add a 4 corners polygon primitive as box body*
4,1,4,$2,$3,$4,$5,$6,$7,$8,$9,$2,$3,0*
0 Add four circle primitives for the rounded corners*
1,1,$1+$1,$2,$3*
1,1,$1+$1,$4,$5*
1,1,$1+$1,$6,$7*
1,1,$1+$1,$8,$9*
0 Add four rect primitives between the rounded corners*
20,1,$1+$1,$2,$3,$4,$5,0*
20,1,$1+$1,$4,$5,$6,$7,0*
20,1,$1+$1,$6,$7,$8,$9,0*
20,1,$1+$1,$8,$9,$2,$3,0*%
G04 Aperture macros list end*
%ADD10C,2.700000*%
%ADD11C,1.700000*%
%ADD12C,4.000000*%
%ADD13C,2.200000*%
%ADD14C,3.800000*%
%ADD15C,3.050000*%
%ADD16RoundRect,0.112500X-0.137715X-0.169844X0.214670X-0.041587X0.137715X0.169844X-0.214670X0.041587X0*%
%ADD17RoundRect,0.112500X-0.187500X-0.112500X0.187500X-0.112500X0.187500X0.112500X-0.187500X0.112500X0*%
%ADD18RoundRect,0.225000X-0.225000X-0.250000X0.225000X-0.250000X0.225000X0.250000X-0.225000X0.250000X0*%
%ADD19RoundRect,0.050000X0.350000X0.050000X-0.350000X0.050000X-0.350000X-0.050000X0.350000X-0.050000X0*%
%ADD20RoundRect,0.050000X0.050000X0.350000X-0.050000X0.350000X-0.050000X-0.350000X0.050000X-0.350000X0*%
%ADD21R,4.000000X4.000000*%
%ADD22RoundRect,0.200000X-0.200000X-0.275000X0.200000X-0.275000X0.200000X0.275000X-0.200000X0.275000X0*%
%ADD23RoundRect,0.225000X0.225000X0.250000X-0.225000X0.250000X-0.225000X-0.250000X0.225000X-0.250000X0*%
%ADD24RoundRect,0.225000X-0.250000X0.225000X-0.250000X-0.225000X0.250000X-0.225000X0.250000X0.225000X0*%
%ADD25RoundRect,0.150000X0.650000X0.150000X-0.650000X0.150000X-0.650000X-0.150000X0.650000X-0.150000X0*%
%ADD26RoundRect,0.200000X0.200000X0.275000X-0.200000X0.275000X-0.200000X-0.275000X0.200000X-0.275000X0*%
%ADD27RoundRect,0.225000X0.250000X-0.225000X0.250000X0.225000X-0.250000X0.225000X-0.250000X-0.225000X0*%
%ADD28RoundRect,0.112500X0.112500X-0.187500X0.112500X0.187500X-0.112500X0.187500X-0.112500X-0.187500X0*%
%ADD29C,1.500000*%
%ADD30R,1.200000X2.500000*%
%ADD31RoundRect,0.112500X-0.169844X0.137715X-0.041587X-0.214670X0.169844X-0.137715X0.041587X0.214670X0*%
%ADD32RoundRect,0.200000X-0.275000X0.200000X-0.275000X-0.200000X0.275000X-0.200000X0.275000X0.200000X0*%
%ADD33RoundRect,0.200000X0.275000X-0.200000X0.275000X0.200000X-0.275000X0.200000X-0.275000X-0.200000X0*%
%ADD34R,1.400000X1.200000*%
%ADD35R,0.800000X2.000000*%
%ADD36R,2.000000X1.500000*%
%ADD37R,2.000000X3.800000*%
%ADD38C,0.650000*%
%ADD39R,0.600000X1.240000*%
%ADD40R,0.300000X1.240000*%
%ADD41O,1.000000X1.800000*%
%ADD42O,1.000000X2.100000*%
G04 APERTURE END LIST*
D10*
X276100000Y-89100000D03*
D11*
X197640000Y-72030000D03*
D12*
X202720000Y-72030000D03*
D11*
X207800000Y-72030000D03*
D13*
X205260000Y-66950000D03*
X198910000Y-69490000D03*
D11*
X178600000Y-126680000D03*
D12*
X183680000Y-126680000D03*
D11*
X188760000Y-126680000D03*
D13*
X186220000Y-121600000D03*
X179870000Y-124140000D03*
D14*
X265895000Y-62020000D03*
D11*
X197640000Y-129180000D03*
D12*
X202720000Y-129180000D03*
D11*
X207800000Y-129180000D03*
D13*
X205260000Y-124100000D03*
X198910000Y-126640000D03*
D11*
X216750000Y-134190000D03*
D12*
X221830000Y-134190000D03*
D11*
X226910000Y-134190000D03*
D13*
X224370000Y-129110000D03*
X218020000Y-131650000D03*
D11*
X254830000Y-155720000D03*
D12*
X259910000Y-155720000D03*
D11*
X264990000Y-155720000D03*
D13*
X262450000Y-150640000D03*
X256100000Y-153180000D03*
D10*
X151000000Y-166300000D03*
D11*
X216750000Y-153240000D03*
D12*
X221830000Y-153240000D03*
D11*
X226910000Y-153240000D03*
D13*
X224370000Y-148160000D03*
X218020000Y-150700000D03*
D11*
X197640000Y-148230000D03*
D12*
X202720000Y-148230000D03*
D11*
X207800000Y-148230000D03*
D13*
X205260000Y-143150000D03*
X198910000Y-145690000D03*
D11*
X260110000Y-98580000D03*
D12*
X265190000Y-98580000D03*
D11*
X270270000Y-98580000D03*
D13*
X267730000Y-93500000D03*
X261380000Y-96040000D03*
D15*
X128780346Y-176899878D03*
D12*
X114459430Y-182112265D03*
D11*
X124535075Y-185702723D03*
D12*
X126272537Y-190476361D03*
D11*
X128010000Y-195250000D03*
D15*
X136920425Y-199264562D03*
D12*
X122599510Y-204476949D03*
D13*
X131914907Y-191125718D03*
X127356260Y-186027401D03*
D14*
X275420000Y-62020000D03*
D11*
X111767005Y-165349832D03*
D12*
X116540643Y-163612370D03*
D11*
X121314282Y-161874907D03*
D13*
X117190000Y-157970000D03*
X112091683Y-162528647D03*
D10*
X137200000Y-61000000D03*
D11*
X260110000Y-79530000D03*
D12*
X265190000Y-79530000D03*
D11*
X270270000Y-79530000D03*
D13*
X267730000Y-74450000D03*
X261380000Y-76990000D03*
D10*
X126600000Y-160400000D03*
D14*
X256370000Y-62020000D03*
X246845000Y-62020000D03*
D11*
X140540000Y-112640000D03*
D12*
X145620000Y-112640000D03*
D11*
X150700000Y-112640000D03*
D13*
X148160000Y-107560000D03*
X141810000Y-110100000D03*
D10*
X159500000Y-198000000D03*
D11*
X260110000Y-117630000D03*
D12*
X265190000Y-117630000D03*
D11*
X270270000Y-117630000D03*
D13*
X267730000Y-112550000D03*
X261380000Y-115090000D03*
D11*
X178600000Y-69530000D03*
D12*
X183680000Y-69530000D03*
D11*
X188760000Y-69530000D03*
D13*
X186220000Y-64450000D03*
X179870000Y-66990000D03*
D10*
X93300000Y-182300000D03*
X137100000Y-122300000D03*
D11*
X106852723Y-207694925D03*
D12*
X111626361Y-205957463D03*
D11*
X116400000Y-204220000D03*
D13*
X112275718Y-200315093D03*
X107177401Y-204873740D03*
D11*
X216750000Y-115140000D03*
D12*
X221830000Y-115140000D03*
D11*
X226910000Y-115140000D03*
D13*
X224370000Y-110060000D03*
X218020000Y-112600000D03*
D15*
X146717809Y-170353517D03*
D12*
X132396893Y-175565904D03*
D11*
X142472538Y-179156362D03*
D12*
X144210000Y-183930000D03*
D11*
X145947463Y-188703639D03*
D15*
X154857888Y-192718201D03*
D12*
X140536973Y-197930588D03*
D13*
X149852370Y-184579357D03*
X145293723Y-179481040D03*
D10*
X232200000Y-63900000D03*
D11*
X159580000Y-129190000D03*
D12*
X164660000Y-129190000D03*
D11*
X169740000Y-129190000D03*
D13*
X167200000Y-124110000D03*
X160850000Y-126650000D03*
D11*
X140540000Y-93590000D03*
D12*
X145620000Y-93590000D03*
D11*
X150700000Y-93590000D03*
D13*
X148160000Y-88510000D03*
X141810000Y-91050000D03*
D11*
X140540000Y-74540000D03*
D12*
X145620000Y-74540000D03*
D11*
X150700000Y-74540000D03*
D13*
X148160000Y-69460000D03*
X141810000Y-72000000D03*
D11*
X159580000Y-110140000D03*
D12*
X164660000Y-110140000D03*
D11*
X169740000Y-110140000D03*
D13*
X167200000Y-105060000D03*
X160850000Y-107600000D03*
D11*
X93877005Y-171869832D03*
D12*
X98650643Y-170132370D03*
D11*
X103424282Y-168394907D03*
D13*
X99300000Y-164490000D03*
X94201683Y-169048647D03*
D11*
X178600000Y-145730000D03*
D12*
X183680000Y-145730000D03*
D11*
X188760000Y-145730000D03*
D13*
X186220000Y-140650000D03*
X179870000Y-143190000D03*
D10*
X192400000Y-98200000D03*
D11*
X216750000Y-96090000D03*
D12*
X221830000Y-96090000D03*
D11*
X226910000Y-96090000D03*
D13*
X224370000Y-91010000D03*
X218020000Y-93550000D03*
D11*
X159580000Y-91090000D03*
D12*
X164660000Y-91090000D03*
D11*
X169740000Y-91090000D03*
D13*
X167200000Y-86010000D03*
X160850000Y-88550000D03*
D11*
X235790000Y-136670000D03*
D12*
X240870000Y-136670000D03*
D11*
X245950000Y-136670000D03*
D13*
X243410000Y-131590000D03*
X237060000Y-134130000D03*
D11*
X197640000Y-110130000D03*
D12*
X202720000Y-110130000D03*
D11*
X207800000Y-110130000D03*
D13*
X205260000Y-105050000D03*
X198910000Y-107590000D03*
D11*
X235790000Y-79520000D03*
D12*
X240870000Y-79520000D03*
D11*
X245950000Y-79520000D03*
D13*
X243410000Y-74440000D03*
X237060000Y-76980000D03*
D10*
X230500000Y-124800000D03*
D11*
X197640000Y-91080000D03*
D12*
X202720000Y-91080000D03*
D11*
X207800000Y-91080000D03*
D13*
X205260000Y-86000000D03*
X198910000Y-88540000D03*
D11*
X235790000Y-117620000D03*
D12*
X240870000Y-117620000D03*
D11*
X245950000Y-117620000D03*
D13*
X243410000Y-112540000D03*
X237060000Y-115080000D03*
D11*
X140540000Y-131690000D03*
D12*
X145620000Y-131690000D03*
D11*
X150700000Y-131690000D03*
D13*
X148160000Y-126610000D03*
X141810000Y-129150000D03*
D11*
X235790000Y-155720000D03*
D12*
X240870000Y-155720000D03*
D11*
X245950000Y-155720000D03*
D13*
X243410000Y-150640000D03*
X237060000Y-153180000D03*
D10*
X275400000Y-161800000D03*
D11*
X100347005Y-189769832D03*
D12*
X105120643Y-188032370D03*
D11*
X109894282Y-186294907D03*
D13*
X105770000Y-182390000D03*
X100671683Y-186948647D03*
D11*
X178600000Y-107630000D03*
D12*
X183680000Y-107630000D03*
D11*
X188760000Y-107630000D03*
D13*
X186220000Y-102550000D03*
X179870000Y-105090000D03*
D11*
X178600000Y-88580000D03*
D12*
X183680000Y-88580000D03*
D11*
X188760000Y-88580000D03*
D13*
X186220000Y-83500000D03*
X179870000Y-86040000D03*
D11*
X216740000Y-77040000D03*
D12*
X221820000Y-77040000D03*
D11*
X226900000Y-77040000D03*
D13*
X224360000Y-71960000D03*
X218010000Y-74500000D03*
D11*
X159580000Y-72040000D03*
D12*
X164660000Y-72040000D03*
D11*
X169740000Y-72040000D03*
D13*
X167200000Y-66960000D03*
X160850000Y-69500000D03*
D11*
X235790000Y-98570000D03*
D12*
X240870000Y-98570000D03*
D11*
X245950000Y-98570000D03*
D13*
X243410000Y-93490000D03*
X237060000Y-96030000D03*
D11*
X260110000Y-136680000D03*
D12*
X265190000Y-136680000D03*
D11*
X270270000Y-136680000D03*
D13*
X267730000Y-131600000D03*
X261380000Y-134140000D03*
D11*
X140540000Y-150740000D03*
D12*
X145620000Y-150740000D03*
D11*
X150700000Y-150740000D03*
D13*
X148160000Y-145660000D03*
X141810000Y-148200000D03*
D10*
X192800000Y-136500000D03*
D11*
X159580000Y-148240000D03*
D12*
X164660000Y-148240000D03*
D11*
X169740000Y-148240000D03*
D13*
X167200000Y-143160000D03*
X160850000Y-145700000D03*
D16*
X108256646Y-212538242D03*
X110230000Y-211820000D03*
D14*
X132420000Y-151410000D03*
D17*
X140230000Y-155550000D03*
X142330000Y-155550000D03*
X235540000Y-103410000D03*
X237640000Y-103410000D03*
X254790000Y-160520000D03*
X256890000Y-160520000D03*
X140340000Y-136560000D03*
X142440000Y-136560000D03*
D18*
X174375000Y-165350000D03*
X175925000Y-165350000D03*
D17*
X178480000Y-112500000D03*
X180580000Y-112500000D03*
D18*
X178145000Y-159290000D03*
X179695000Y-159290000D03*
D17*
X197430000Y-114850000D03*
X199530000Y-114850000D03*
X148820000Y-78690000D03*
X150920000Y-78690000D03*
D19*
X176240000Y-155540000D03*
X176240000Y-155940000D03*
X176240000Y-156340000D03*
X176240000Y-156740000D03*
X176240000Y-157140000D03*
X176240000Y-157540000D03*
X176240000Y-157940000D03*
X176240000Y-158340000D03*
X176240000Y-158740000D03*
X176240000Y-159140000D03*
X176240000Y-159540000D03*
X176240000Y-159940000D03*
X176240000Y-160340000D03*
X176240000Y-160740000D03*
D20*
X175390000Y-161590000D03*
X174990000Y-161590000D03*
X174590000Y-161590000D03*
X174190000Y-161590000D03*
X173790000Y-161590000D03*
X173390000Y-161590000D03*
X172990000Y-161590000D03*
X172590000Y-161590000D03*
X172190000Y-161590000D03*
X171790000Y-161590000D03*
X171390000Y-161590000D03*
X170990000Y-161590000D03*
X170590000Y-161590000D03*
X170190000Y-161590000D03*
D19*
X169340000Y-160740000D03*
X169340000Y-160340000D03*
X169340000Y-159940000D03*
X169340000Y-159540000D03*
X169340000Y-159140000D03*
X169340000Y-158740000D03*
X169340000Y-158340000D03*
X169340000Y-157940000D03*
X169340000Y-157540000D03*
X169340000Y-157140000D03*
X169340000Y-156740000D03*
X169340000Y-156340000D03*
X169340000Y-155940000D03*
X169340000Y-155540000D03*
D20*
X170190000Y-154690000D03*
X170590000Y-154690000D03*
X170990000Y-154690000D03*
X171390000Y-154690000D03*
X171790000Y-154690000D03*
X172190000Y-154690000D03*
X172590000Y-154690000D03*
X172990000Y-154690000D03*
X173390000Y-154690000D03*
X173790000Y-154690000D03*
X174190000Y-154690000D03*
X174590000Y-154690000D03*
X174990000Y-154690000D03*
X175390000Y-154690000D03*
D21*
X172790000Y-158140000D03*
D17*
X216462500Y-81840000D03*
X218562500Y-81840000D03*
D14*
X126310000Y-153450000D03*
D17*
X197422500Y-95960000D03*
X199522500Y-95960000D03*
X159292500Y-134040000D03*
X161392500Y-134040000D03*
D22*
X203815000Y-156640000D03*
X205465000Y-156640000D03*
D17*
X178460000Y-74430000D03*
X180560000Y-74430000D03*
X159360000Y-96040000D03*
X161460000Y-96040000D03*
X159290000Y-115130000D03*
X161390000Y-115130000D03*
X140262500Y-98520000D03*
X142362500Y-98520000D03*
D23*
X166725000Y-156100000D03*
X165175000Y-156100000D03*
D24*
X143960000Y-101455000D03*
X143960000Y-103005000D03*
D17*
X140260000Y-117680000D03*
X142360000Y-117680000D03*
D25*
X205340000Y-161345000D03*
X205340000Y-162615000D03*
X205340000Y-163885000D03*
X205340000Y-165155000D03*
X198140000Y-165155000D03*
X198140000Y-163885000D03*
X198140000Y-162615000D03*
X198140000Y-161345000D03*
D17*
X235660000Y-122410000D03*
X237760000Y-122410000D03*
X216520000Y-100980000D03*
X218620000Y-100980000D03*
D26*
X144275000Y-66835500D03*
X142625000Y-66835500D03*
D17*
X259900000Y-103200000D03*
X262000000Y-103200000D03*
X235640000Y-84360000D03*
X237740000Y-84360000D03*
D27*
X168622500Y-152950000D03*
X168622500Y-151400000D03*
D28*
X154800000Y-94217500D03*
X154800000Y-92117500D03*
D17*
X235700000Y-141490000D03*
X237800000Y-141490000D03*
D29*
X135525000Y-82100000D03*
X142525000Y-82100000D03*
D30*
X140125000Y-85350000D03*
X137125000Y-85350000D03*
X145225000Y-78850000D03*
X144125000Y-85350000D03*
D27*
X170242500Y-152945000D03*
X170242500Y-151395000D03*
D17*
X216540000Y-158140000D03*
X218640000Y-158140000D03*
D24*
X172000000Y-163705000D03*
X172000000Y-165255000D03*
D31*
X137811758Y-180686646D03*
X138530000Y-182660000D03*
D23*
X189930000Y-159265000D03*
X188380000Y-159265000D03*
D18*
X198145000Y-159210000D03*
X199695000Y-159210000D03*
D31*
X119950879Y-187495823D03*
X120669121Y-189469177D03*
D17*
X216620000Y-139030000D03*
X218720000Y-139030000D03*
X178412500Y-150570000D03*
X180512500Y-150570000D03*
X197300000Y-133880000D03*
X199400000Y-133880000D03*
D32*
X153190000Y-60200500D03*
X153190000Y-61850500D03*
D17*
X197590000Y-76770000D03*
X199690000Y-76770000D03*
D33*
X174810000Y-140815000D03*
X174810000Y-139165000D03*
D17*
X178510000Y-131450000D03*
X180610000Y-131450000D03*
D32*
X153790000Y-107055000D03*
X153790000Y-108705000D03*
D16*
X113253323Y-169819121D03*
X115226677Y-169100879D03*
D34*
X188015000Y-161025000D03*
X190215000Y-161025000D03*
X190215000Y-162725000D03*
X188015000Y-162725000D03*
D35*
X206920000Y-159190000D03*
X211120000Y-159190000D03*
D26*
X179695000Y-164300000D03*
X178045000Y-164300000D03*
D17*
X235720000Y-160550000D03*
X237820000Y-160550000D03*
D32*
X156410000Y-107095000D03*
X156410000Y-108745000D03*
D24*
X145560000Y-101465000D03*
X145560000Y-103015000D03*
D27*
X173100000Y-151230000D03*
X173100000Y-149680000D03*
X167052500Y-152945000D03*
X167052500Y-151395000D03*
D17*
X197460000Y-153120000D03*
X199560000Y-153120000D03*
X259940000Y-122650000D03*
X262040000Y-122650000D03*
D22*
X147715000Y-66815500D03*
X149365000Y-66815500D03*
D35*
X163980000Y-163820000D03*
X168180000Y-163820000D03*
D16*
X102003323Y-194139121D03*
X103976677Y-193420879D03*
D17*
X159330000Y-153190000D03*
X161430000Y-153190000D03*
D23*
X189950000Y-164455000D03*
X188400000Y-164455000D03*
D17*
X216590000Y-120080000D03*
X218690000Y-120080000D03*
D18*
X172635000Y-148100000D03*
X174185000Y-148100000D03*
D17*
X178302500Y-93530000D03*
X180402500Y-93530000D03*
D23*
X164620000Y-159150000D03*
X163070000Y-159150000D03*
D17*
X260100000Y-141430000D03*
X262200000Y-141430000D03*
D36*
X148400000Y-103120000D03*
X148400000Y-100820000D03*
D37*
X154700000Y-100820000D03*
D36*
X148400000Y-98520000D03*
D17*
X260000000Y-84290000D03*
X262100000Y-84290000D03*
D16*
X95413323Y-176369121D03*
X97386677Y-175650879D03*
D18*
X178145000Y-157540000D03*
X179695000Y-157540000D03*
D38*
X142870000Y-62400000D03*
X148650000Y-62400000D03*
D39*
X142560000Y-63520000D03*
X143360000Y-63520000D03*
D40*
X144510000Y-63520000D03*
X145510000Y-63520000D03*
X146010000Y-63520000D03*
X147010000Y-63520000D03*
D39*
X148160000Y-63520000D03*
X148960000Y-63520000D03*
X148960000Y-63520000D03*
X148160000Y-63520000D03*
D40*
X147510000Y-63520000D03*
X146510000Y-63520000D03*
X145010000Y-63520000D03*
X144010000Y-63520000D03*
D39*
X143360000Y-63520000D03*
X142560000Y-63520000D03*
D41*
X141440000Y-58720000D03*
D42*
X141440000Y-62920000D03*
D41*
X150080000Y-58720000D03*
D42*
X150080000Y-62920000D03*
D17*
X159310000Y-77080000D03*
X161410000Y-77080000D03*
D33*
X176410000Y-140810000D03*
X176410000Y-139160000D03*
M02*
