G04 #@! TF.GenerationSoftware,KiCad,Pcbnew,7.0.5*
G04 #@! TF.CreationDate,2025-01-08T21:54:48-05:00*
G04 #@! TF.ProjectId,JasonSplitErgoKeyboard_Right,4a61736f-6e53-4706-9c69-744572676f4b,rev?*
G04 #@! TF.SameCoordinates,Original*
G04 #@! TF.FileFunction,Paste,Bot*
G04 #@! TF.FilePolarity,Positive*
%FSLAX46Y46*%
G04 Gerber Fmt 4.6, Leading zero omitted, Abs format (unit mm)*
G04 Created by KiCad (PCBNEW 7.0.5) date 2025-01-08 21:54:48*
%MOMM*%
%LPD*%
G01*
G04 APERTURE LIST*
G04 Aperture macros list*
%AMRoundRect*
0 Rectangle with rounded corners*
0 $1 Rounding radius*
0 $2 $3 $4 $5 $6 $7 $8 $9 X,Y pos of 4 corners*
0 Add a 4 corners polygon primitive as box body*
4,1,4,$2,$3,$4,$5,$6,$7,$8,$9,$2,$3,0*
0 Add four circle primitives for the rounded corners*
1,1,$1+$1,$2,$3*
1,1,$1+$1,$4,$5*
1,1,$1+$1,$6,$7*
1,1,$1+$1,$8,$9*
0 Add four rect primitives between the rounded corners*
20,1,$1+$1,$2,$3,$4,$5,0*
20,1,$1+$1,$4,$5,$6,$7,0*
20,1,$1+$1,$6,$7,$8,$9,0*
20,1,$1+$1,$8,$9,$2,$3,0*%
G04 Aperture macros list end*
%ADD10RoundRect,0.112500X-0.137715X-0.169844X0.214670X-0.041587X0.137715X0.169844X-0.214670X0.041587X0*%
%ADD11RoundRect,0.112500X-0.187500X-0.112500X0.187500X-0.112500X0.187500X0.112500X-0.187500X0.112500X0*%
%ADD12RoundRect,0.225000X-0.225000X-0.250000X0.225000X-0.250000X0.225000X0.250000X-0.225000X0.250000X0*%
%ADD13RoundRect,0.250000X0.285000X0.285000X-0.285000X0.285000X-0.285000X-0.285000X0.285000X-0.285000X0*%
%ADD14RoundRect,0.050000X0.350000X0.050000X-0.350000X0.050000X-0.350000X-0.050000X0.350000X-0.050000X0*%
%ADD15RoundRect,0.050000X0.050000X0.350000X-0.050000X0.350000X-0.050000X-0.350000X0.050000X-0.350000X0*%
%ADD16RoundRect,0.200000X-0.200000X-0.275000X0.200000X-0.275000X0.200000X0.275000X-0.200000X0.275000X0*%
%ADD17RoundRect,0.225000X0.225000X0.250000X-0.225000X0.250000X-0.225000X-0.250000X0.225000X-0.250000X0*%
%ADD18RoundRect,0.225000X-0.250000X0.225000X-0.250000X-0.225000X0.250000X-0.225000X0.250000X0.225000X0*%
%ADD19RoundRect,0.150000X0.650000X0.150000X-0.650000X0.150000X-0.650000X-0.150000X0.650000X-0.150000X0*%
%ADD20RoundRect,0.200000X0.200000X0.275000X-0.200000X0.275000X-0.200000X-0.275000X0.200000X-0.275000X0*%
%ADD21RoundRect,0.225000X0.250000X-0.225000X0.250000X0.225000X-0.250000X0.225000X-0.250000X-0.225000X0*%
%ADD22RoundRect,0.112500X0.112500X-0.187500X0.112500X0.187500X-0.112500X0.187500X-0.112500X-0.187500X0*%
%ADD23R,1.200000X2.500000*%
%ADD24RoundRect,0.112500X-0.169844X0.137715X-0.041587X-0.214670X0.169844X-0.137715X0.041587X0.214670X0*%
%ADD25RoundRect,0.200000X-0.275000X0.200000X-0.275000X-0.200000X0.275000X-0.200000X0.275000X0.200000X0*%
%ADD26RoundRect,0.200000X0.275000X-0.200000X0.275000X0.200000X-0.275000X0.200000X-0.275000X-0.200000X0*%
%ADD27R,1.400000X1.200000*%
%ADD28R,2.000000X1.500000*%
%ADD29R,2.000000X3.800000*%
%ADD30R,0.600000X1.240000*%
%ADD31R,0.300000X1.240000*%
G04 APERTURE END LIST*
D10*
X108256646Y-212538242D03*
X110230000Y-211820000D03*
D11*
X140230000Y-155550000D03*
X142330000Y-155550000D03*
X235540000Y-103410000D03*
X237640000Y-103410000D03*
X254790000Y-160520000D03*
X256890000Y-160520000D03*
X140340000Y-136560000D03*
X142440000Y-136560000D03*
D12*
X174375000Y-165350000D03*
X175925000Y-165350000D03*
D11*
X178480000Y-112500000D03*
X180580000Y-112500000D03*
D12*
X178145000Y-159290000D03*
X179695000Y-159290000D03*
D11*
X197430000Y-114850000D03*
X199530000Y-114850000D03*
X148820000Y-78690000D03*
X150920000Y-78690000D03*
D13*
X174120000Y-159470000D03*
X174120000Y-158140000D03*
X174120000Y-156810000D03*
X172790000Y-159470000D03*
X172790000Y-158140000D03*
X172790000Y-156810000D03*
X171460000Y-159470000D03*
X171460000Y-158140000D03*
X171460000Y-156810000D03*
D14*
X176240000Y-155540000D03*
X176240000Y-155940000D03*
X176240000Y-156340000D03*
X176240000Y-156740000D03*
X176240000Y-157140000D03*
X176240000Y-157540000D03*
X176240000Y-157940000D03*
X176240000Y-158340000D03*
X176240000Y-158740000D03*
X176240000Y-159140000D03*
X176240000Y-159540000D03*
X176240000Y-159940000D03*
X176240000Y-160340000D03*
X176240000Y-160740000D03*
D15*
X175390000Y-161590000D03*
X174990000Y-161590000D03*
X174590000Y-161590000D03*
X174190000Y-161590000D03*
X173790000Y-161590000D03*
X173390000Y-161590000D03*
X172990000Y-161590000D03*
X172590000Y-161590000D03*
X172190000Y-161590000D03*
X171790000Y-161590000D03*
X171390000Y-161590000D03*
X170990000Y-161590000D03*
X170590000Y-161590000D03*
X170190000Y-161590000D03*
D14*
X169340000Y-160740000D03*
X169340000Y-160340000D03*
X169340000Y-159940000D03*
X169340000Y-159540000D03*
X169340000Y-159140000D03*
X169340000Y-158740000D03*
X169340000Y-158340000D03*
X169340000Y-157940000D03*
X169340000Y-157540000D03*
X169340000Y-157140000D03*
X169340000Y-156740000D03*
X169340000Y-156340000D03*
X169340000Y-155940000D03*
X169340000Y-155540000D03*
D15*
X170190000Y-154690000D03*
X170590000Y-154690000D03*
X170990000Y-154690000D03*
X171390000Y-154690000D03*
X171790000Y-154690000D03*
X172190000Y-154690000D03*
X172590000Y-154690000D03*
X172990000Y-154690000D03*
X173390000Y-154690000D03*
X173790000Y-154690000D03*
X174190000Y-154690000D03*
X174590000Y-154690000D03*
X174990000Y-154690000D03*
X175390000Y-154690000D03*
D11*
X216462500Y-81840000D03*
X218562500Y-81840000D03*
X197422500Y-95960000D03*
X199522500Y-95960000D03*
X159292500Y-134040000D03*
X161392500Y-134040000D03*
D16*
X203815000Y-156640000D03*
X205465000Y-156640000D03*
D11*
X178460000Y-74430000D03*
X180560000Y-74430000D03*
X159360000Y-96040000D03*
X161460000Y-96040000D03*
X159290000Y-115130000D03*
X161390000Y-115130000D03*
X140262500Y-98520000D03*
X142362500Y-98520000D03*
D17*
X166725000Y-156100000D03*
X165175000Y-156100000D03*
D18*
X143960000Y-101455000D03*
X143960000Y-103005000D03*
D11*
X140260000Y-117680000D03*
X142360000Y-117680000D03*
D19*
X205340000Y-161345000D03*
X205340000Y-162615000D03*
X205340000Y-163885000D03*
X205340000Y-165155000D03*
X198140000Y-165155000D03*
X198140000Y-163885000D03*
X198140000Y-162615000D03*
X198140000Y-161345000D03*
D11*
X235660000Y-122410000D03*
X237760000Y-122410000D03*
X216520000Y-100980000D03*
X218620000Y-100980000D03*
D20*
X144275000Y-66835500D03*
X142625000Y-66835500D03*
D11*
X259900000Y-103200000D03*
X262000000Y-103200000D03*
X235640000Y-84360000D03*
X237740000Y-84360000D03*
D21*
X168622500Y-152950000D03*
X168622500Y-151400000D03*
D22*
X154800000Y-94217500D03*
X154800000Y-92117500D03*
D11*
X235700000Y-141490000D03*
X237800000Y-141490000D03*
D23*
X140125000Y-85350000D03*
X137125000Y-85350000D03*
X145225000Y-78850000D03*
X144125000Y-85350000D03*
D21*
X170242500Y-152945000D03*
X170242500Y-151395000D03*
D11*
X216540000Y-158140000D03*
X218640000Y-158140000D03*
D18*
X172000000Y-163705000D03*
X172000000Y-165255000D03*
D24*
X137811758Y-180686646D03*
X138530000Y-182660000D03*
D17*
X189930000Y-159265000D03*
X188380000Y-159265000D03*
D12*
X198145000Y-159210000D03*
X199695000Y-159210000D03*
D24*
X119950879Y-187495823D03*
X120669121Y-189469177D03*
D11*
X216620000Y-139030000D03*
X218720000Y-139030000D03*
X178412500Y-150570000D03*
X180512500Y-150570000D03*
X197300000Y-133880000D03*
X199400000Y-133880000D03*
D25*
X153190000Y-60200500D03*
X153190000Y-61850500D03*
D11*
X197590000Y-76770000D03*
X199690000Y-76770000D03*
D26*
X174810000Y-140815000D03*
X174810000Y-139165000D03*
D11*
X178510000Y-131450000D03*
X180610000Y-131450000D03*
D25*
X153790000Y-107055000D03*
X153790000Y-108705000D03*
D10*
X113253323Y-169819121D03*
X115226677Y-169100879D03*
D27*
X188015000Y-161025000D03*
X190215000Y-161025000D03*
X190215000Y-162725000D03*
X188015000Y-162725000D03*
D20*
X179695000Y-164300000D03*
X178045000Y-164300000D03*
D11*
X235720000Y-160550000D03*
X237820000Y-160550000D03*
D25*
X156410000Y-107095000D03*
X156410000Y-108745000D03*
D18*
X145560000Y-101465000D03*
X145560000Y-103015000D03*
D21*
X173100000Y-151230000D03*
X173100000Y-149680000D03*
X167052500Y-152945000D03*
X167052500Y-151395000D03*
D11*
X197460000Y-153120000D03*
X199560000Y-153120000D03*
X259940000Y-122650000D03*
X262040000Y-122650000D03*
D16*
X147715000Y-66815500D03*
X149365000Y-66815500D03*
D10*
X102003323Y-194139121D03*
X103976677Y-193420879D03*
D11*
X159330000Y-153190000D03*
X161430000Y-153190000D03*
D17*
X189950000Y-164455000D03*
X188400000Y-164455000D03*
D11*
X216590000Y-120080000D03*
X218690000Y-120080000D03*
D12*
X172635000Y-148100000D03*
X174185000Y-148100000D03*
D11*
X178302500Y-93530000D03*
X180402500Y-93530000D03*
D17*
X164620000Y-159150000D03*
X163070000Y-159150000D03*
D11*
X260100000Y-141430000D03*
X262200000Y-141430000D03*
D28*
X148400000Y-103120000D03*
X148400000Y-100820000D03*
D29*
X154700000Y-100820000D03*
D28*
X148400000Y-98520000D03*
D11*
X260000000Y-84290000D03*
X262100000Y-84290000D03*
D10*
X95413323Y-176369121D03*
X97386677Y-175650879D03*
D12*
X178145000Y-157540000D03*
X179695000Y-157540000D03*
D30*
X142560000Y-63520000D03*
X143360000Y-63520000D03*
D31*
X144510000Y-63520000D03*
X145510000Y-63520000D03*
X146010000Y-63520000D03*
X147010000Y-63520000D03*
D30*
X148160000Y-63520000D03*
X148960000Y-63520000D03*
X148960000Y-63520000D03*
X148160000Y-63520000D03*
D31*
X147510000Y-63520000D03*
X146510000Y-63520000D03*
X145010000Y-63520000D03*
X144010000Y-63520000D03*
D30*
X143360000Y-63520000D03*
X142560000Y-63520000D03*
D11*
X159310000Y-77080000D03*
X161410000Y-77080000D03*
D26*
X176410000Y-140810000D03*
X176410000Y-139160000D03*
M02*
